<svg width="12" height="13" viewBox="0 0 12 13" fill="none" xmlns="http://www.w3.org/2000/svg">
<g clip-path="url(#clip0_166_1263)">
<path d="M5.64835 12.669C5.41684 12.6379 5.18327 12.6183 4.9544 12.5743C3.05514 12.2091 1.63877 11.1784 0.705277 9.48243C0.182389 8.53085 -0.0558741 7.49857 0.0110273 6.4167C0.150405 4.16465 1.21936 2.47715 3.1865 1.37621C4.11832 0.850642 5.1833 0.60854 6.25076 0.679614C8.50223 0.818405 10.1871 1.88824 11.2921 3.85332C11.7029 4.58366 11.9195 5.37914 11.9779 6.21688C11.9824 6.25091 11.9891 6.28462 11.9978 6.31782V7.02204C11.989 7.05523 11.9824 7.08895 11.9779 7.12298C11.9192 7.95984 11.6982 8.75268 11.2933 9.48595C10.3602 11.1755 8.94325 12.2101 7.04477 12.5749C6.8159 12.6189 6.58233 12.6385 6.35111 12.6696L5.64835 12.669ZM6.00428 1.21482C3.00135 1.20778 0.552694 3.6535 0.545358 6.66553C0.538316 9.66788 2.98374 12.118 5.9943 12.125C8.99665 12.1321 11.4462 9.68636 11.4521 6.67463C11.4612 3.67257 9.01661 1.22187 6.00428 1.21482Z" fill="#445479"/>
<path d="M4.64648 6.32621C4.66145 6.0724 4.78381 5.93977 5.03498 5.86905C5.36274 5.77721 5.68052 5.66776 6.02853 5.68448C6.41556 5.70297 6.77119 5.94182 6.82694 6.28425C6.85888 6.50009 6.84891 6.72006 6.7976 6.93214C6.67847 7.44006 6.52354 7.93947 6.39003 8.44417C6.36463 8.55406 6.35173 8.66647 6.35159 8.77926C6.34543 8.96588 6.42993 9.0853 6.61567 9.10379C6.78293 9.12081 6.95517 9.09704 7.12448 9.08443C7.17671 9.08061 7.22688 9.05508 7.30053 9.0319C7.27119 9.14927 7.24684 9.24962 7.21632 9.34822C7.21016 9.36788 7.17759 9.38431 7.15382 9.39252C6.91086 9.47615 6.67201 9.57944 6.4226 9.63431C6.05787 9.71471 5.69226 9.71295 5.36626 9.48378C5.13592 9.32181 5.03938 9.09822 5.05112 8.81917C5.06814 8.42392 5.20781 8.05625 5.30963 7.68184C5.39003 7.38489 5.46573 7.08677 5.54144 6.78865C5.55042 6.7466 5.55484 6.70371 5.55464 6.66072C5.56726 6.3356 5.42465 6.19945 5.09689 6.23701C4.94637 6.25579 4.80024 6.2954 4.64648 6.32621Z" fill="#445479"/>
<path d="M6.58976 3.67187C7.03635 3.6748 7.36822 3.98847 7.36206 4.39018C7.35765 4.68889 7.13847 4.94769 6.81452 5.03748C6.45625 5.13666 6.05836 4.97674 5.90138 4.67011C5.67808 4.23495 5.9894 3.72322 6.50877 3.67627C6.53987 3.67363 6.57098 3.67363 6.58976 3.67187Z" fill="#445479"/>
</g>
<defs>
<clipPath id="clip0_166_1263">
<rect width="11.9977" height="12" fill="white" transform="translate(0 0.670105)"/>
</clipPath>
</defs>
</svg>
