<svg width="17" height="17" viewBox="0 0 17 17" fill="none" xmlns="http://www.w3.org/2000/svg">
<path d="M8.5 0C3.81825 0 0 3.81825 0 8.5C0 13.1817 3.81825 17 8.5 17C13.1817 17 17 13.1817 17 8.5C17 3.81825 13.1817 0 8.5 0ZM8.5 15.9206C4.41191 15.9206 1.07937 12.5881 1.07937 8.5C1.07937 4.41191 4.41191 1.07937 8.5 1.07937C12.5881 1.07937 15.9206 4.41191 15.9206 8.5C15.9206 12.5881 12.5881 15.9206 8.5 15.9206Z" fill="#686868"/>
<path d="M9.0403 7.21826H7.96094V12.6151H9.0403V7.21826Z" fill="#686868"/>
<path d="M9.0403 4.65475H7.96094V5.73412H9.0403V4.65475Z" fill="#686868"/>
</svg>
