<svg width="19" height="19" viewBox="0 0 19 19" fill="none" xmlns="http://www.w3.org/2000/svg">
<path d="M9.51208 6.97026C8.99052 6.91875 8.46578 7.02971 8.00971 7.28794C7.55364 7.54618 7.18854 7.93908 6.9644 8.41283C6.74025 8.88658 6.66801 9.41804 6.75758 9.93443C6.84715 10.4508 7.09414 10.9269 7.46474 11.2975C7.83533 11.6681 8.31142 11.9151 8.82781 12.0047C9.34421 12.0942 9.87566 12.022 10.3494 11.7979C10.8232 11.5737 11.2161 11.2086 11.4743 10.7525C11.7325 10.2965 11.8435 9.77173 11.792 9.25016C11.7333 8.66548 11.4742 8.11908 11.0587 7.70357C10.6432 7.28805 10.0968 7.02898 9.51208 6.97026ZM15.6329 9.5C15.6313 9.77631 15.611 10.0522 15.5721 10.3258L17.3678 11.7342C17.446 11.799 17.4987 11.8895 17.5165 11.9895C17.5343 12.0895 17.5161 12.1925 17.4651 12.2804L15.7663 15.2196C15.7147 15.3066 15.6341 15.3726 15.5386 15.406C15.4431 15.4393 15.339 15.4379 15.2444 15.4019L13.461 14.6838C13.3627 14.6447 13.2561 14.6305 13.151 14.6426C13.0458 14.6548 12.9453 14.6928 12.8585 14.7533C12.5863 14.9407 12.3003 15.1073 12.0029 15.2514C11.9094 15.2968 11.8285 15.3646 11.7674 15.4487C11.7063 15.5328 11.6669 15.6306 11.6526 15.7336L11.3853 17.6358C11.3677 17.7362 11.3158 17.8275 11.2384 17.8939C11.1611 17.9603 11.063 17.9978 10.9611 18H7.56344C7.46316 17.9983 7.36647 17.9624 7.28929 17.8984C7.21211 17.8343 7.15904 17.7459 7.13884 17.6477L6.87192 15.7483C6.85693 15.6442 6.81645 15.5454 6.75409 15.4607C6.69172 15.3761 6.6094 15.3081 6.51444 15.2629C6.21743 15.1196 5.93238 14.9526 5.66206 14.7636C5.57551 14.7034 5.47533 14.6657 5.37056 14.6538C5.26579 14.642 5.15972 14.6564 5.0619 14.6957L3.27888 15.4135C3.18439 15.4494 3.08024 15.4509 2.98476 15.4176C2.88929 15.3844 2.80862 15.3185 2.75697 15.2315L1.05816 12.2923C1.00708 12.2045 0.988832 12.1014 1.00665 12.0014C1.02447 11.9014 1.07721 11.8109 1.15547 11.7461L2.67316 10.5546C2.75631 10.4886 2.82165 10.4028 2.86327 10.3052C2.90489 10.2075 2.92146 10.101 2.91148 9.9953C2.89718 9.82967 2.88844 9.66444 2.88844 9.49881C2.88844 9.33318 2.89678 9.17033 2.91148 9.00827C2.92037 8.90322 2.90299 8.79761 2.8609 8.70096C2.81881 8.6043 2.75334 8.51963 2.67038 8.45458L1.15349 7.26299C1.07649 7.19789 1.02487 7.10777 1.00766 7.00842C0.990445 6.90907 1.00875 6.80683 1.05935 6.71963L2.75816 3.78037C2.80975 3.69338 2.89039 3.6274 2.98587 3.59404C3.08135 3.56069 3.18554 3.56211 3.28007 3.59806L5.06349 4.31619C5.16183 4.35535 5.26836 4.3695 5.37352 4.35737C5.47868 4.34523 5.57918 4.3072 5.66603 4.24668C5.93821 4.05925 6.22422 3.89275 6.52159 3.7486C6.61508 3.70316 6.69595 3.6354 6.75705 3.5513C6.81814 3.46721 6.8576 3.36936 6.87192 3.2664L7.13923 1.36423C7.15679 1.26377 7.20869 1.17253 7.28606 1.10609C7.36344 1.03966 7.46148 1.00216 7.56344 1H10.9611C11.0613 1.00173 11.158 1.03758 11.2352 1.10162C11.3124 1.16566 11.3655 1.25408 11.3857 1.35231L11.6526 3.25171C11.6676 3.3558 11.708 3.45457 11.7704 3.53925C11.8328 3.62393 11.9151 3.69189 12.0101 3.73708C12.3071 3.88045 12.5921 4.04741 12.8624 4.23636C12.949 4.29658 13.0492 4.33431 13.1539 4.34617C13.2587 4.35803 13.3648 4.34363 13.4626 4.30428L15.2456 3.58654C15.3401 3.55056 15.4443 3.54908 15.5397 3.58236C15.6352 3.61563 15.7159 3.68154 15.7675 3.76846L17.4663 6.70771C17.5174 6.79553 17.5357 6.89862 17.5178 6.99863C17.5 7.09864 17.4473 7.18909 17.369 7.25386L15.8513 8.44544C15.7678 8.51123 15.7021 8.59686 15.6601 8.69454C15.6182 8.79221 15.6013 8.89883 15.611 9.0047C15.6241 9.16914 15.6329 9.33437 15.6329 9.5Z" stroke="#686868" stroke-linecap="round" stroke-linejoin="round"/>
</svg>
