<svg width="8" height="7" viewBox="0 0 8 7" fill="none" xmlns="http://www.w3.org/2000/svg">
<path fill-rule="evenodd" clip-rule="evenodd" d="M6.85021 1.85213C6.79504 1.75564 6.73621 1.66164 6.67288 1.57081C6.86788 1.45447 6.99987 1.24364 6.99987 0.999982C6.99987 0.631822 6.70138 0.333327 6.33322 0.333327C6.08956 0.333327 5.87873 0.465325 5.7624 0.660488C5.67157 0.596989 5.57773 0.538324 5.48107 0.483158C5.6564 0.194497 5.97089 0 6.33322 0C6.88538 0 7.3332 0.447825 7.3332 0.999982C7.3332 1.36231 7.13854 1.6768 6.85021 1.85213ZM6.99987 3.6666C6.99987 4.52842 6.67005 5.31124 6.13322 5.90306L6.95238 6.72221C7.01587 6.78571 7.01587 6.88871 6.95238 6.95238C6.88871 7.01587 6.78571 7.01587 6.72221 6.95238L5.90306 6.13322C5.31124 6.67005 4.52842 6.99988 3.6666 6.99988C2.80478 6.99988 2.02196 6.67005 1.43031 6.13322L0.610989 6.95238C0.54749 7.01587 0.444325 7.01587 0.380826 6.95238C0.317328 6.88871 0.317328 6.78571 0.380826 6.72221L1.19998 5.90306C0.663155 5.31124 0.333327 4.52842 0.333327 3.6666C0.333327 1.82563 1.82563 0.333327 3.6666 0.333327C5.50757 0.333327 6.99987 1.82563 6.99987 3.6666ZM3.6666 0.666655C2.0098 0.666655 0.666655 2.0098 0.666655 3.6666C0.666655 5.3234 2.0098 6.66655 3.6666 6.66655C5.3234 6.66655 6.66655 5.3234 6.66655 3.6666C6.66655 2.0098 5.3234 0.666655 3.6666 0.666655ZM3.83326 4.30959V5.83323C3.83326 5.92539 3.75877 5.99989 3.6666 5.99989C3.57444 5.99989 3.49994 5.92539 3.49994 5.83323V4.30959C3.21278 4.23526 2.99995 3.97676 2.99995 3.6666C2.99995 3.54177 3.03645 3.42644 3.09628 3.32644L2.38079 2.61112C2.31729 2.54762 2.31729 2.44446 2.38079 2.38096C2.44446 2.31746 2.54745 2.31746 2.61095 2.38096L3.32644 3.09628C3.42644 3.03645 3.54177 2.99995 3.6666 2.99995C4.03476 2.99995 4.33326 3.29844 4.33326 3.6666C4.33326 3.97676 4.12043 4.23526 3.83326 4.30959ZM3.6666 3.33327C3.4826 3.33327 3.33327 3.4826 3.33327 3.6666C3.33327 3.8506 3.4826 3.99993 3.6666 3.99993C3.8506 3.99993 3.99993 3.8506 3.99993 3.6666C3.99993 3.4826 3.8506 3.33327 3.6666 3.33327ZM0.999982 0.333327C0.631822 0.333327 0.333327 0.631822 0.333327 0.999982C0.333327 1.24364 0.465492 1.45447 0.660488 1.57081C0.596989 1.66164 0.538324 1.75564 0.483158 1.85213C0.194663 1.6768 0 1.36231 0 0.999982C0 0.447825 0.447825 0 0.999982 0C1.36231 0 1.6768 0.194497 1.85213 0.483158C1.75547 0.538324 1.66147 0.596989 1.57081 0.660488C1.45447 0.465325 1.24348 0.333327 0.999982 0.333327Z" fill="white"/>
</svg>
