<svg width="16" height="16" viewBox="0 0 16 16" fill="none" xmlns="http://www.w3.org/2000/svg">
<path d="M9.03061 14.0975L9.03061 8.80879L14.3193 8.80879C14.8903 8.80879 15.3499 8.34916 15.3499 7.77817C15.3499 7.20719 14.8903 6.74756 14.3193 6.74756L9.03061 6.74756L9.03061 1.45885C9.03061 0.887864 8.57099 0.42824 8 0.42824C7.42901 0.42824 6.96939 0.887864 6.96939 1.45885L6.96939 6.74756L1.68068 6.74756C1.10969 6.74756 0.650065 7.20719 0.650065 7.77817C0.650065 8.34916 1.10969 8.80879 1.68068 8.80879L6.96939 8.80879L6.96939 14.0975C6.96939 14.6685 7.42901 15.1281 8 15.1281C8.56896 15.1261 9.03061 14.6644 9.03061 14.0975Z" fill="#286BFF"/>
</svg>
