<svg width="13" height="13" viewBox="0 0 13 13" fill="none" xmlns="http://www.w3.org/2000/svg">
<circle cx="6.5" cy="6.5" r="6.5" fill="#03C95E"/>
<path d="M6.5 10C8.433 10 10 8.433 10 6.5C10 4.567 8.433 3 6.5 3C4.567 3 3 4.567 3 6.5C3 8.433 4.567 10 6.5 10Z" stroke="white" stroke-width="0.5" stroke-miterlimit="10" stroke-linecap="round"/>
<path d="M6.32355 5.22264C6.29205 5.22264 6.27148 5.20165 6.27148 5.17029V4.7885C6.27148 4.75715 6.29219 4.73615 6.32355 4.73615H6.67923C6.71059 4.73615 6.73159 4.75715 6.73159 4.7885V5.17029C6.73159 5.20165 6.71044 5.22264 6.67923 5.22264H6.32355ZM6.33419 8.29273C6.30284 8.29273 6.28198 8.27187 6.28198 8.24052V5.83981C6.28198 5.80846 6.30298 5.78746 6.33419 5.78746H6.66888C6.70038 5.78746 6.72123 5.80846 6.72123 5.83981V8.24052C6.72123 8.27202 6.70023 8.29273 6.66888 8.29273H6.33419Z" fill="white"/>
</svg>
