<svg width="12" height="12" viewBox="0 0 12 12" fill="none" xmlns="http://www.w3.org/2000/svg">
<g clip-path="url(#clip0_171_73)">
<path d="M11.9998 8.8828C11.9314 9.15343 11.7498 9.31624 11.5073 9.44093C11.0845 9.65968 10.6701 9.89374 10.252 10.1212C10.2317 10.1325 10.2111 10.1437 10.1895 10.1525C10.0895 10.195 9.99326 10.1641 9.94951 10.0756C9.9393 10.0555 9.93317 10.0335 9.93148 10.0109C9.92978 9.98841 9.93256 9.96576 9.93964 9.9443C9.94673 9.92284 9.95798 9.903 9.97276 9.8859C9.98754 9.8688 10.0055 9.8548 10.0258 9.84468C10.2086 9.73999 10.3948 9.64124 10.5795 9.5403C10.8605 9.38718 11.1418 9.23416 11.4233 9.08124C11.6345 8.96562 11.7045 8.78624 11.6058 8.61249C11.507 8.43874 11.3245 8.40562 11.1189 8.51874C10.5067 8.85437 9.90451 9.20999 9.27982 9.52062C8.23013 10.0422 7.1142 10.1962 5.95357 10.0412C5.60138 9.99405 5.24826 9.95655 4.89576 9.91437C4.86451 9.91062 4.83326 9.90655 4.80201 9.90093C4.70826 9.88374 4.65326 9.82562 4.65138 9.73312C4.64942 9.71143 4.65183 9.68956 4.65846 9.66882C4.6651 9.64807 4.67583 9.62887 4.69002 9.61235C4.70421 9.59583 4.72157 9.58233 4.74108 9.57263C4.76058 9.56294 4.78183 9.55726 4.80357 9.55593C5.01982 9.52468 5.23669 9.49812 5.45326 9.47062C6.21607 9.37437 6.97888 9.27968 7.74138 9.18218C7.92419 9.15905 8.02888 9.0603 8.04419 8.90905C8.05888 8.76687 7.98607 8.63718 7.8542 8.59437C7.79042 8.5769 7.72432 8.56941 7.65826 8.57218C6.96701 8.57218 6.27576 8.57437 5.58451 8.56843C5.45314 8.56722 5.3227 8.54615 5.19763 8.50593C4.63076 8.32155 4.05545 8.25999 3.46545 8.3578C3.34045 8.37843 3.25107 8.3228 3.23419 8.21905C3.21732 8.1153 3.27857 8.03843 3.40576 8.01249C3.43263 8.00718 3.45919 8.00093 3.48638 7.99687C4.09177 7.90967 4.70922 7.96839 5.28732 8.16812C5.31923 8.18035 5.35349 8.18519 5.38754 8.18227C5.42159 8.17934 5.45453 8.16874 5.48388 8.15124C6.17138 7.78874 6.86638 7.44374 7.54201 7.0628C7.99294 6.80843 8.47951 7.00749 8.56451 7.53155C8.65826 7.48124 8.75201 7.43187 8.84294 7.38343C9.24732 7.17062 9.66138 7.36812 9.75263 7.81749C9.75731 7.83202 9.76295 7.84622 9.76951 7.85999C9.88545 7.79999 10.0026 7.74812 10.1111 7.68155C10.5533 7.41062 11.0273 7.7128 11.0661 8.11374C11.0661 8.1203 11.0745 8.12624 11.0758 8.1278C11.1748 8.11718 11.272 8.09312 11.3673 8.09874C11.6608 8.11655 11.8867 8.30405 11.9745 8.58687C11.9811 8.60843 11.9914 8.62905 11.9998 8.64937V8.8828ZM6.36388 9.7103V9.72343C6.40982 9.7278 6.45576 9.73405 6.50169 9.73655C7.25641 9.7769 8.01111 9.65686 8.71607 9.38437C9.36451 9.13624 9.94232 8.75249 10.5511 8.42843C10.7092 8.34437 10.7576 8.20312 10.6873 8.06718C10.617 7.93124 10.4654 7.89218 10.3048 7.97655C9.69044 8.29968 9.07659 8.62395 8.46326 8.94937C8.42956 8.96534 8.40257 8.99267 8.38701 9.02655C8.28295 9.36843 8.03888 9.50843 7.69951 9.5428C7.25232 9.58812 6.80857 9.65374 6.36388 9.7103ZM6.16044 8.19093L6.16857 8.21812C6.53388 8.21812 6.89919 8.21812 7.26451 8.21812C7.29913 8.21433 7.33246 8.2028 7.36201 8.18437C7.58513 8.06499 7.80826 7.94562 8.02919 7.82249C8.07736 7.79686 8.11988 7.76179 8.15419 7.71937C8.18928 7.67191 8.20714 7.6139 8.20481 7.55493C8.20248 7.49595 8.18011 7.43953 8.14138 7.39499C8.05607 7.29187 7.92826 7.26687 7.79326 7.33687C7.40263 7.53905 7.01201 7.74312 6.62388 7.94843C6.46888 8.02864 6.3144 8.10947 6.16044 8.19093ZM8.3792 8.59312C8.66232 8.44405 8.96732 8.28905 9.26544 8.12093C9.32799 8.07753 9.37411 8.01435 9.39638 7.94155C9.42763 7.84593 9.38576 7.75687 9.30263 7.69624C9.21107 7.62937 9.11513 7.63374 9.01732 7.68718C8.68919 7.86593 8.36097 8.04426 8.03263 8.22218C8.02397 8.22648 8.01646 8.23281 8.01076 8.24062L8.3792 8.59312Z" fill="black"/>
<path d="M0.000273705 9.07032C0.0549612 8.9747 0.137774 8.94782 0.245586 8.94938C0.593086 8.95438 0.94069 8.95438 1.2884 8.94938C1.35271 8.94699 1.41497 8.92617 1.46777 8.88939C1.8231 8.62773 2.20896 8.41029 2.61684 8.24188C2.75121 8.18688 2.8484 8.21563 2.89152 8.32188C2.93215 8.42157 2.88402 8.51157 2.75527 8.5647C2.34096 8.73762 1.95066 8.96323 1.59402 9.23595C1.53416 9.27731 1.46334 9.29993 1.39059 9.30095C1.0509 9.30751 0.711211 9.30376 0.362461 9.30376V11.2725C0.398711 11.2725 0.439961 11.2788 0.480586 11.2772C1.45184 11.2416 2.4134 11.3691 3.37746 11.4525C4.1009 11.515 4.8234 11.59 5.54746 11.64C6.14121 11.6822 6.7084 11.5372 7.23934 11.2909C7.87184 10.9972 8.48465 10.6619 9.10559 10.3434C9.20621 10.2919 9.30277 10.2319 9.40465 10.1828C9.42441 10.1718 9.44616 10.1649 9.46863 10.1624C9.49109 10.1599 9.51383 10.1619 9.53552 10.1683C9.55721 10.1747 9.57742 10.1853 9.59498 10.1995C9.61253 10.2138 9.62708 10.2313 9.63777 10.2513C9.64993 10.2705 9.65797 10.292 9.6614 10.3145C9.66482 10.337 9.66356 10.36 9.65769 10.382C9.65182 10.4039 9.64147 10.4245 9.62729 10.4423C9.61311 10.46 9.5954 10.4747 9.57527 10.4853C8.72934 10.9447 7.9109 11.4625 6.98777 11.7616C6.67527 11.8628 6.3434 11.9081 6.01902 11.9803C5.99652 11.9853 5.97434 11.9928 5.95215 11.9991H5.43777C5.30684 11.9834 5.17621 11.965 5.04527 11.9528C4.29996 11.885 3.55527 11.8156 2.80965 11.7531C2.1384 11.6966 1.46902 11.6053 0.792461 11.6281C0.604961 11.6344 0.417461 11.625 0.229961 11.6306C0.124649 11.6334 0.0483984 11.5994 -0.000976562 11.5056L0.000273705 9.07032Z" fill="black"/>
<path d="M8.76585 0C9.17522 0.43375 9.58481 0.867396 9.9946 1.30094C10.0571 1.36688 10.0859 1.43844 10.0474 1.52375C10.009 1.60906 9.93585 1.62469 9.8521 1.62344C9.75522 1.62156 9.65835 1.62344 9.54335 1.62344V1.76875C9.54335 3.2375 9.54335 4.70625 9.54335 6.175C9.54335 6.4025 9.4996 6.44531 9.26835 6.44531C8.86991 6.44531 8.47148 6.44531 8.07304 6.44531C7.90648 6.44531 7.84679 6.38656 7.84648 6.22062C7.84648 5.57625 7.84648 4.93177 7.84648 4.28719C7.84648 4.14625 7.90898 4.06844 8.01679 4.06844C8.1246 4.06844 8.19773 4.14937 8.19804 4.29313C8.19804 4.84396 8.19804 5.39469 8.19804 5.94531V6.08844H9.19116V5.94594C9.19116 4.48135 9.19116 3.01667 9.19116 1.55188C9.19116 1.32906 9.22804 1.28812 9.47241 1.26344L8.69679 0.435938L7.91554 1.26437L7.99991 1.27281C8.13679 1.28625 8.19679 1.34563 8.1971 1.48438C8.19877 2.15625 8.19877 2.82812 8.1971 3.5C8.1971 3.6375 8.12804 3.71281 8.01585 3.71094C7.90366 3.70906 7.84616 3.63687 7.84585 3.49219C7.84585 2.92198 7.84585 2.35167 7.84585 1.78125V1.625C7.72679 1.625 7.6171 1.63625 7.51179 1.62062C7.44929 1.61125 7.36647 1.57 7.34772 1.52188C7.33809 1.48828 7.33629 1.45292 7.34246 1.41851C7.34864 1.38411 7.36263 1.35158 7.38335 1.32344C7.77335 0.896875 8.17179 0.479687 8.56804 0.0571871C8.58616 0.0378121 8.60616 0.0206246 8.62522 0.00249958L8.76585 0Z" fill="black"/>
<path d="M6.84839 2.955V3.11438C6.84839 4.13708 6.84839 5.15969 6.84839 6.18219C6.84839 6.39656 6.80089 6.44437 6.5887 6.44437C6.18683 6.44437 5.78485 6.44437 5.38277 6.44437C5.20902 6.44437 5.15183 6.38687 5.15183 6.2125C5.15183 5.17854 5.15183 4.14427 5.15183 3.10969V2.955C5.03808 2.955 4.93308 2.96656 4.8312 2.95063C4.76159 2.94029 4.6978 2.9059 4.65089 2.85344C4.5987 2.78562 4.63214 2.70531 4.69152 2.6425C5.07964 2.23062 5.4662 1.8175 5.85527 1.40656C5.95339 1.30313 6.04839 1.30406 6.14839 1.40938C6.53464 1.8175 6.92151 2.22562 7.30027 2.64031C7.3437 2.68781 7.36277 2.78344 7.3512 2.84937C7.33652 2.93437 7.2512 2.95781 7.16558 2.95562C7.06433 2.95281 6.9637 2.955 6.84839 2.955ZM6.78089 2.59562C6.51402 2.31219 6.2612 2.04344 5.99964 1.76562L5.22058 2.59594C5.46464 2.61531 5.50183 2.65687 5.50183 2.87969V6.08375H6.49433V2.89C6.49589 2.65625 6.53089 2.61625 6.78089 2.59562Z" fill="black"/>
<path d="M4.15399 4.17V4.3125C4.15399 4.94125 4.15399 5.57 4.15399 6.19875C4.15399 6.38969 4.10055 6.44344 3.91243 6.44375H2.69368C2.51274 6.44375 2.45712 6.3875 2.4568 6.20563C2.4568 5.57313 2.4568 4.94063 2.4568 4.30813V4.16938C2.34805 4.16938 2.25149 4.16781 2.15493 4.16938C2.06618 4.17125 1.98899 4.14906 1.95087 4.06313C1.91274 3.97719 1.94555 3.90688 2.00743 3.84063C2.38837 3.43781 2.76712 3.03313 3.14805 2.63C3.25868 2.51281 3.35368 2.51375 3.46618 2.63313C3.84712 3.03625 4.22868 3.43813 4.60274 3.8475C4.62531 3.87672 4.64181 3.91016 4.65126 3.94585C4.6607 3.98154 4.66291 4.01876 4.65774 4.05531C4.64243 4.14594 4.55305 4.17031 4.46368 4.16906C4.36618 4.16906 4.26868 4.17 4.15399 4.17ZM4.0843 3.805L3.30524 2.97781L2.52212 3.8125C2.76805 3.8275 2.80868 3.87 2.80868 4.08469C2.80868 4.70969 2.80868 5.33469 2.80868 5.95969V6.08469H3.8018V4.11156C3.8018 3.86719 3.82649 3.83844 4.0843 3.805Z" fill="black"/>
</g>
<defs>
<clipPath id="clip0_171_73">
<rect width="12" height="12" fill="white"/>
</clipPath>
</defs>
</svg>
