<svg width="15" height="14" viewBox="0 0 15 14" fill="none" xmlns="http://www.w3.org/2000/svg">
<path d="M12.5714 14.0001H1.39683C0.63492 14.0001 0 13.3652 0 12.6032V2.34928C0 1.58737 0.507937 0.952454 1.1746 0.952454H1.87302V1.87309H1.1746C1.07937 1.87309 0.952381 2.06356 0.952381 2.34928V12.6032C0.952381 12.8572 1.1746 13.0794 1.42857 13.0794H12.6032C12.8571 13.0794 13.0794 12.8572 13.0794 12.6032V2.34928C13.0794 2.06356 12.9206 1.87309 12.8571 1.87309H12.1587V0.952454H12.8571C13.4921 0.952454 14.0317 1.58737 14.0317 2.34928V12.6032C13.9683 13.3652 13.3333 14.0001 12.5714 14.0001Z" fill="#286BFF"/>
<path d="M3.26843 2.82539C3.01446 2.82539 2.79224 2.60317 2.79224 2.3492V0.47619C2.79224 0.222222 3.01446 0 3.26843 0C3.5224 0 3.74462 0.222222 3.74462 0.47619V2.3492C3.71287 2.60317 3.5224 2.82539 3.26843 2.82539Z" fill="#286BFF"/>
<path d="M10.6996 2.82539C10.4456 2.82539 10.2234 2.60317 10.2234 2.3492V0.47619C10.2234 0.222222 10.4456 0 10.6996 0C10.9535 0 11.1758 0.222222 11.1758 0.47619V2.3492C11.1758 2.60317 10.9535 2.82539 10.6996 2.82539Z" fill="#286BFF"/>
<path d="M4.66528 0.952469H9.3002V1.90485H4.66528V0.952469Z" fill="#286BFF"/>
<path d="M0.919189 3.74605H13.0462V4.69843H0.919189V3.74605Z" fill="#286BFF"/>
<path d="M11.1731 5.61906H12.0937V6.5397H11.1731V5.61906Z" fill="#286BFF"/>
<path d="M9.30005 5.61906H10.2524V6.5397H9.30005V5.61906Z" fill="#286BFF"/>
<path d="M7.46167 5.61906H8.3823V6.5397H7.46167V5.61906Z" fill="#286BFF"/>
<path d="M5.58862 5.61906H6.50926V6.5397H5.58862V5.61906Z" fill="#286BFF"/>
<path d="M3.71558 5.61906H4.66796V6.5397H3.71558V5.61906Z" fill="#286BFF"/>
<path d="M11.1731 7.49207H12.0937V8.4127H11.1731V7.49207Z" fill="#286BFF"/>
<path d="M9.30005 7.49207H10.2524V8.4127H9.30005V7.49207Z" fill="#286BFF"/>
<path d="M7.46167 7.49207H8.3823V8.4127H7.46167V7.49207Z" fill="#286BFF"/>
<path d="M5.58862 7.49207H6.50926V8.4127H5.58862V7.49207Z" fill="#286BFF"/>
<path d="M3.71558 7.49207H4.66796V8.4127H3.71558V7.49207Z" fill="#286BFF"/>
<path d="M1.87305 7.49207H2.79368V8.4127H1.87305V7.49207Z" fill="#286BFF"/>
<path d="M11.1731 9.33342H12.0937V10.2858H11.1731V9.33342Z" fill="#286BFF"/>
<path d="M9.30005 9.33342H10.2524V10.2858H9.30005V9.33342Z" fill="#286BFF"/>
<path d="M7.46167 9.33342H8.3823V10.2858H7.46167V9.33342Z" fill="#286BFF"/>
<path d="M5.58862 9.33342H6.50926V10.2858H5.58862V9.33342Z" fill="#286BFF"/>
<path d="M3.71558 9.33342H4.66796V10.2858H3.71558V9.33342Z" fill="#286BFF"/>
<path d="M1.87305 9.33342H2.79368V10.2858H1.87305V9.33342Z" fill="#286BFF"/>
<path d="M9.30005 11.2065H10.2524V12.1271H9.30005V11.2065Z" fill="#286BFF"/>
<path d="M7.46167 11.2065H8.3823V12.1271H7.46167V11.2065Z" fill="#286BFF"/>
<path d="M5.58862 11.2065H6.50926V12.1271H5.58862V11.2065Z" fill="#286BFF"/>
<path d="M3.71558 11.2065H4.66796V12.1271H3.71558V11.2065Z" fill="#286BFF"/>
<path d="M1.87305 11.2065H2.79368V12.1271H1.87305V11.2065Z" fill="#286BFF"/>
</svg>
