<svg width="199" height="185" viewBox="0 0 199 185" fill="none" xmlns="http://www.w3.org/2000/svg">
<path d="M99.1374 184.455C150.073 184.455 191.365 143.163 191.365 92.2273C191.365 41.2916 150.073 0 99.1374 0C48.2017 0 6.91016 41.2916 6.91016 92.2273C6.91016 143.163 48.2017 184.455 99.1374 184.455Z" fill="#286BFF" fill-opacity="0.1"/>
<path opacity="0.84" d="M21.9329 109.042C21.5488 109.17 21.2074 109.298 20.8659 109.555C19.7136 110.408 19.799 111.902 20.5672 112.969C21.4634 114.206 22.9998 114.505 24.4509 114.249C25.6459 113.993 26.7982 113.353 27.6091 112.457C28.0785 111.902 28.5053 111.134 28.1639 110.493C27.9505 110.152 27.5664 109.939 27.225 109.768C25.7739 109.085 23.5973 108.573 21.9329 109.042Z" fill="#DBE5FF"/>
<path d="M57.3569 144.679C56.7167 145.746 55.351 146.087 54.3268 145.447L25.3057 128.162C24.2387 127.522 23.8973 126.156 24.5375 125.132C25.1776 124.065 26.5433 123.724 27.5676 124.364L56.5887 141.648C57.613 142.246 57.9544 143.612 57.3569 144.679Z" fill="#3C42B5"/>
<path d="M35.0002 129.357C38.5797 121.482 35.0973 112.196 27.222 108.616C19.3467 105.037 10.0608 108.519 6.48129 116.394C2.90177 124.27 6.38417 133.556 14.2594 137.135C22.1347 140.715 31.4207 137.232 35.0002 129.357Z" fill="#5A78DB"/>
<path d="M25.1737 134.422C31.5546 131.971 34.7408 124.812 32.2903 118.431C29.8398 112.05 22.6806 108.864 16.2997 111.315C9.91881 113.765 6.73262 120.924 9.18312 127.305C11.6336 133.686 18.7929 136.872 25.1737 134.422Z" fill="white"/>
<path d="M12.16 126.839C10.6236 125.943 9.38589 124.748 8.4043 123.382C8.57501 127.394 10.7089 131.278 14.4219 133.497C20.2688 136.997 27.8655 135.076 31.3651 129.186C33.9685 124.833 33.5843 119.584 30.8103 115.7C30.8956 118.005 30.3408 120.395 29.0605 122.529C25.6036 128.418 18.0069 130.339 12.16 126.839Z" fill="#DBE5FF"/>
<path d="M155.815 80.1921C157.65 79.2958 159.699 78.869 161.619 78.1435C164.393 77.1192 166.954 75.4975 168.747 73.1929C170.539 70.8882 171.478 67.7728 170.838 64.9133C170.24 62.0966 168.234 59.792 166.058 57.8714C164.948 56.8899 163.583 56.3777 162.26 55.6949C158.931 54.0304 154.876 54.4999 151.675 56.3777C148.475 58.2129 146.341 61.0296 146.085 64.7426C145.871 67.8154 146.895 70.8883 146.298 73.9184C146.042 75.2414 145.444 76.5218 145.103 77.8448C144.719 79.1678 144.591 80.6188 145.188 81.8565C146.042 83.5636 148.987 85.0574 150.864 84.4172C151.718 84.1184 152.145 83.2649 152.7 82.582C153.596 81.5578 154.62 80.7469 155.815 80.1921Z" fill="#FABA41"/>
<path d="M149.242 83.0942C150.522 79.8507 151.973 76.6071 154.107 73.833C154.748 72.9795 155.516 72.1259 156.54 71.7845C156.668 71.7418 156.796 71.6991 156.924 71.7418C157.18 71.8272 157.266 72.1686 157.223 72.4247C157.18 72.9368 156.924 73.4489 156.583 73.8757C155.9 74.772 154.918 75.4975 153.766 75.6255C152.656 75.7536 151.419 75.1987 150.906 74.1745C150.352 72.9795 150.821 71.6138 151.376 70.4188C151.717 69.6933 152.187 68.9251 152.955 68.797C153.296 69.992 153.126 71.2724 152.742 72.4674C151.675 76.0096 149.157 78.9544 146.639 81.6431C146.724 81.5151 146.809 81.4297 146.852 81.3017" stroke="white" stroke-width="1.5748" stroke-miterlimit="10"/>
<path d="M155.942 58.5116C156.795 59.0238 157.009 60.1761 156.71 61.115C156.411 62.0539 155.686 62.7794 154.918 63.3769C154.405 63.761 153.893 64.1451 153.296 64.3158C152.698 64.4866 152.015 64.4439 151.503 64.1025C151.247 63.9317 151.077 63.6757 150.949 63.4196C150.522 62.566 150.607 61.4991 151.034 60.6455C151.759 59.1518 154.235 57.4874 155.942 58.5116Z" fill="#FAE54B"/>
<path d="M157.95 77.4607C159.785 76.0523 162.047 75.2841 163.967 74.0038C165.162 73.1929 166.229 72.1686 167.126 71.0163C167.894 69.992 168.15 68.669 168.747 67.5167C171.521 61.7552 165.29 57.5727 164.821 56.9325C165.29 57.1886 165.717 57.4873 166.101 57.8714C168.278 59.792 170.241 62.0966 170.881 64.9133C171.521 67.7728 170.583 70.8456 168.79 73.1929C166.998 75.4975 164.394 77.1193 161.663 78.1435C159.742 78.8691 157.694 79.2958 155.859 80.1921C155.645 80.3201 155.389 80.4055 155.176 80.5335C155.944 79.3812 156.84 78.3142 157.95 77.4607Z" fill="#E09F26"/>
<path d="M150.778 83.0515C151.077 83.1795 151.376 83.3503 151.504 83.649C151.717 84.1185 151.333 84.6306 151.034 85.0147C150.65 85.4842 150.223 85.9536 149.626 86.1243C149.413 86.2097 149.199 86.2097 149.028 86.3377C148.772 86.4658 148.644 86.7218 148.431 86.8925C147.791 87.4473 146.766 87.1059 146.041 86.6365C145.315 86.2097 144.675 85.6975 144.035 85.1001C143.566 84.6733 143.139 84.1185 143.053 83.4783C143.011 83.0515 143.139 82.6674 143.053 82.2406C142.968 81.8992 142.755 81.5151 142.84 81.1737C142.883 80.9603 143.053 80.7896 143.139 80.6189C143.267 80.3201 143.267 79.936 143.31 79.5946C143.395 79.0398 143.907 77.8875 144.633 78.0155C145.273 78.1009 145.956 79.3812 146.34 79.808C147.705 81.0883 149.156 82.1979 150.778 83.0515Z" fill="#5A78DB"/>
<path d="M150.351 84.8867C149.285 84.3318 148.26 83.777 147.279 83.0942C146.34 82.4113 145.443 81.5151 144.889 80.4908" stroke="#605BB5" stroke-width="1.0498" stroke-miterlimit="10" stroke-linecap="round" stroke-linejoin="round"/>
<path d="M148.645 85.9536C147.194 85.2281 145.871 84.2465 144.804 83.0515C144.463 82.6674 144.164 82.2406 144.121 81.7285" stroke="#605BB5" stroke-width="1.0498" stroke-miterlimit="10" stroke-linecap="round" stroke-linejoin="round"/>
<path d="M39.5317 45.9554L14.3867 67.6373L46.9653 105.419L72.1103 83.7376L39.5317 45.9554Z" fill="white"/>
<path d="M37.9067 51.6665L12.7617 73.3484L45.3403 111.131L70.4853 89.4487L37.9067 51.6665Z" fill="#FABA41"/>
<path d="M37.8945 51.6831L39.5163 45.9643L72.1223 83.777L70.5006 89.4959L37.8945 51.6831Z" fill="white"/>
<path d="M11.3988 71.8186L8.91016 73.9645L42.8543 113.33L45.343 111.184L11.3988 71.8186Z" fill="#E09F26"/>
<path d="M9.38473 71.9979L39.174 46.3057L37.8937 51.7258L11.5186 74.4732C10.8358 75.0707 9.81151 74.9853 9.21402 74.3025C8.61652 73.6196 8.70188 72.5527 9.38473 71.9979Z" fill="white"/>
<path d="M12.3711 70.6749L24.7051 60.0053" stroke="#C3D2E3" stroke-width="1.8763" stroke-miterlimit="10" stroke-linecap="round" stroke-linejoin="round"/>
<path d="M27.8223 58.2555L36.3152 50.9149" stroke="#C3D2E3" stroke-width="1.8763" stroke-miterlimit="10" stroke-linecap="round" stroke-linejoin="round"/>
<path d="M13.4824 71.2723L22.018 63.9317" stroke="#C3D2E3" stroke-width="1.8763" stroke-miterlimit="10" stroke-linecap="round" stroke-linejoin="round"/>
<path d="M39.9414 51.171L52.6168 65.8949" stroke="#C3D2E3" stroke-width="1.8763" stroke-miterlimit="10" stroke-linecap="round" stroke-linejoin="round"/>
<path d="M42.0332 50.5308L67.0425 79.5519" stroke="#C3D2E3" stroke-width="1.8763" stroke-miterlimit="10" stroke-linecap="round" stroke-linejoin="round"/>
<path d="M52.4043 64.6999L69.945 85.0147" stroke="#C3D2E3" stroke-width="1.8763" stroke-miterlimit="10" stroke-linecap="round" stroke-linejoin="round"/>
<path d="M52.5312 67.6874L66.615 83.9904" stroke="#C3D2E3" stroke-width="1.8763" stroke-miterlimit="10" stroke-linecap="round" stroke-linejoin="round"/>
<path d="M38.8401 62.3269L22.5508 76.3728L26.9262 81.447L43.2155 67.4012L38.8401 62.3269Z" fill="white"/>
<path d="M198.655 109.352L169.545 91.1059L140.577 137.32L169.687 155.566L198.655 109.352Z" fill="#C1C9D9"/>
<path d="M198.182 106.205L169.072 87.9587L140.105 134.173L169.214 152.419L198.182 106.205Z" fill="#DCE1F7"/>
<path d="M196.491 100.401L165.754 81.1349L136.786 127.349L167.523 146.615L196.491 100.401Z" fill="white"/>
<path d="M188.248 105.543C187.224 107.207 185.004 107.719 183.34 106.652C181.675 105.628 181.163 103.409 182.23 101.744C183.255 100.08 185.474 99.5679 187.138 100.635C188.803 101.659 189.315 103.878 188.248 105.543Z" fill="#DFE3F5"/>
<path d="M184.536 101.531C184.749 102.385 184.706 103.281 184.408 104.135L183.981 103.75C184.706 103.281 185.517 102.897 186.328 102.598C186.755 102.47 187.182 102.342 187.609 102.257C188.035 102.171 188.462 102.129 188.932 102.129C189.785 102.086 190.681 102.171 191.535 102.385C191.962 102.47 192.389 102.598 192.773 102.769C192.986 102.854 193.157 102.94 193.37 103.025C193.455 103.068 193.584 103.11 193.669 103.238C193.712 103.281 193.712 103.409 193.669 103.452C193.626 103.494 193.541 103.494 193.498 103.452C193.541 103.494 193.584 103.452 193.626 103.452C193.669 103.409 193.626 103.409 193.584 103.366C193.541 103.324 193.413 103.324 193.327 103.281C193.114 103.238 192.901 103.196 192.73 103.153C192.303 103.11 191.919 103.025 191.492 103.025C190.681 102.94 189.871 102.94 189.06 103.025C188.676 103.068 188.249 103.11 187.865 103.196C187.481 103.281 187.054 103.366 186.67 103.452C185.901 103.665 185.133 103.964 184.365 104.305H184.322C184.194 104.391 184.024 104.305 183.938 104.177C183.896 104.092 183.896 104.006 183.938 103.921C184.194 103.196 184.408 102.385 184.536 101.531Z" fill="#FFB52B"/>
<path d="M182.744 114.335C181.72 115.999 179.5 116.511 177.836 115.444C176.172 114.42 175.659 112.201 176.726 110.536C177.751 108.872 179.97 108.36 181.634 109.427C183.256 110.494 183.768 112.67 182.744 114.335Z" fill="#DFE3F5"/>
<path d="M178.987 110.365C179.2 111.219 179.158 112.115 178.859 112.969L178.432 112.585C179.158 112.115 179.969 111.731 180.779 111.432C181.206 111.304 181.633 111.176 182.06 111.091C182.487 111.006 182.913 110.963 183.383 110.963C184.236 110.92 185.133 111.006 185.986 111.219C186.413 111.304 186.84 111.432 187.224 111.603C187.437 111.688 187.608 111.774 187.821 111.859C187.907 111.902 188.035 111.945 188.12 112.073C188.163 112.115 188.163 112.243 188.12 112.286C188.077 112.329 187.992 112.329 187.949 112.286C187.992 112.329 188.035 112.286 188.077 112.286C188.12 112.243 188.077 112.243 188.035 112.201C187.992 112.158 187.864 112.158 187.779 112.115C187.565 112.073 187.352 112.03 187.181 111.987C186.754 111.945 186.37 111.859 185.943 111.859C185.133 111.774 184.322 111.774 183.511 111.859C183.127 111.902 182.7 111.945 182.316 112.03C181.932 112.115 181.505 112.201 181.121 112.286C180.353 112.499 179.584 112.798 178.816 113.14H178.774C178.646 113.225 178.475 113.14 178.389 113.011C178.347 112.926 178.347 112.841 178.389 112.755C178.688 112.03 178.902 111.219 178.987 110.365Z" fill="#FFB52B"/>
<path d="M176.769 123.852C175.745 125.516 173.526 126.028 171.861 124.961C170.197 123.937 169.685 121.718 170.752 120.053C171.776 118.389 173.995 117.877 175.66 118.944C177.324 120.011 177.794 122.187 176.769 123.852Z" fill="#DFE3F5"/>
<path d="M173.012 119.883C173.226 120.736 173.183 121.633 172.884 122.486L172.458 122.102C173.183 121.633 173.994 121.248 174.805 120.95C175.232 120.822 175.658 120.694 176.085 120.608C176.512 120.523 176.939 120.48 177.408 120.48C178.262 120.438 179.158 120.523 180.012 120.736C180.438 120.822 180.865 120.95 181.249 121.12C181.463 121.206 181.633 121.291 181.847 121.376C181.932 121.419 182.06 121.462 182.145 121.59C182.188 121.633 182.188 121.761 182.145 121.803C182.103 121.846 182.017 121.846 181.975 121.803C182.017 121.846 182.06 121.803 182.103 121.803C182.145 121.761 182.103 121.761 182.06 121.718C182.017 121.675 181.889 121.675 181.804 121.633C181.591 121.59 181.377 121.547 181.207 121.504C180.78 121.462 180.396 121.376 179.969 121.376C179.158 121.291 178.347 121.291 177.536 121.376C177.152 121.419 176.725 121.462 176.341 121.547C175.957 121.633 175.53 121.718 175.146 121.803C174.378 122.017 173.61 122.315 172.842 122.657H172.799C172.671 122.742 172.5 122.657 172.415 122.529C172.372 122.443 172.372 122.358 172.415 122.273C172.714 121.547 172.927 120.736 173.012 119.883Z" fill="#FFB52B"/>
<path d="M170.793 133.369C169.769 135.033 167.549 135.546 165.885 134.479C164.22 133.454 163.708 131.235 164.775 129.571C165.799 127.906 168.019 127.394 169.683 128.461C171.348 129.528 171.86 131.705 170.793 133.369Z" fill="#DFE3F5"/>
<path d="M167.081 129.357C167.294 130.211 167.251 131.107 166.953 131.961L166.526 131.576C167.251 131.107 168.062 130.723 168.873 130.424C169.3 130.296 169.727 130.168 170.153 130.083C170.58 129.997 171.007 129.955 171.477 129.955C172.33 129.912 173.226 129.997 174.08 130.211C174.507 130.296 174.933 130.424 175.318 130.595C175.531 130.68 175.702 130.766 175.915 130.851C176 130.894 176.128 130.936 176.214 131.064C176.256 131.107 176.256 131.235 176.214 131.278C176.171 131.32 176.086 131.32 176.043 131.278C176.086 131.32 176.128 131.278 176.171 131.278C176.214 131.235 176.171 131.235 176.128 131.192C176.086 131.15 175.958 131.15 175.872 131.107C175.659 131.064 175.446 131.022 175.275 130.979C174.848 130.936 174.464 130.851 174.037 130.851C173.226 130.766 172.415 130.766 171.605 130.851C171.22 130.894 170.794 130.936 170.41 131.022C170.025 131.107 169.599 131.192 169.215 131.278C168.446 131.491 167.678 131.79 166.91 132.131H166.867C166.739 132.217 166.569 132.131 166.483 132.003C166.441 131.918 166.441 131.833 166.483 131.747C166.782 131.022 166.995 130.253 167.081 129.357Z" fill="#FFB52B"/>
<path d="M49.9727 139.472V75.3695C49.9727 73.4916 51.5091 71.9979 53.3442 71.9979H143.139C145.017 71.9979 146.51 73.5343 146.51 75.3695V139.472C146.51 141.35 144.974 142.843 143.139 142.843H53.3442C51.5091 142.843 49.9727 141.35 49.9727 139.472Z" fill="#286BFF"/>
<path d="M141.562 139.856H55.0104C53.474 139.856 52.2363 138.618 52.2363 137.082V77.7594C52.2363 76.223 53.474 74.9854 55.0104 74.9854H141.562C143.098 74.9854 144.336 76.223 144.336 77.7594V137.125C144.336 138.618 143.055 139.856 141.562 139.856Z" fill="white"/>
<path d="M146.81 134.094H49.7179L33.2441 158.933C33.2441 162.39 36.0609 162.817 39.5178 162.817H157.01C160.467 162.817 163.284 162.39 163.284 158.933L146.81 134.094Z" fill="#286BFF"/>
<path d="M146.81 134.094H49.7179L33.2441 158.933H163.284L146.81 134.094Z" fill="#8F96E3"/>
<path d="M47.7539 146.514C48.3087 145.66 53.6008 136.356 53.6008 136.356L143.609 135.887L147.45 146.514H47.7539Z" fill="#6868E3"/>
<path d="M75.666 155.903C75.9221 155.305 79.2937 148.605 79.2937 148.605L115.741 148.264L118.301 155.903H75.666Z" fill="#6868E3"/>
<path d="M126.495 116.767C126.41 116.895 126.495 126.797 126.495 126.797L129.952 123.126L133.665 126.797L133.537 116.767H126.495Z" fill="#286BFF"/>
<path d="M134.965 118.534C137.665 115.834 137.665 111.456 134.965 108.756C132.265 106.056 127.888 106.056 125.188 108.756C122.488 111.456 122.488 115.834 125.188 118.534C127.888 121.234 132.265 121.234 134.965 118.534Z" fill="#E09F26"/>
<path d="M130.591 108.786L130.932 108.146C131.231 107.591 132.042 107.805 132.042 108.445V109.171C132.042 109.64 132.554 109.939 132.938 109.683L133.578 109.299C134.09 109 134.731 109.597 134.389 110.109L134.005 110.75C133.749 111.134 134.048 111.646 134.517 111.646H135.243C135.883 111.646 136.096 112.457 135.541 112.755L134.901 113.097C134.474 113.31 134.474 113.908 134.901 114.121L135.541 114.463C136.096 114.761 135.883 115.572 135.243 115.572H134.517C134.048 115.572 133.749 116.084 134.005 116.468L134.389 117.109C134.688 117.621 134.09 118.261 133.578 117.92L132.938 117.535C132.554 117.279 132.042 117.578 132.042 118.048V118.773C132.042 119.413 131.231 119.627 130.932 119.072L130.591 118.432C130.377 118.005 129.78 118.005 129.566 118.432L129.225 119.072C128.926 119.627 128.115 119.413 128.115 118.773V118.048C128.115 117.578 127.603 117.279 127.219 117.535L126.579 117.92C126.067 118.218 125.427 117.621 125.768 117.109L126.152 116.468C126.408 116.084 126.11 115.572 125.64 115.572H124.915C124.274 115.572 124.061 114.761 124.616 114.463L125.256 114.121C125.683 113.908 125.683 113.31 125.256 113.097L124.616 112.755C124.061 112.457 124.274 111.646 124.915 111.646H125.64C126.11 111.646 126.408 111.134 126.152 110.75L125.768 110.109C125.469 109.597 126.067 108.957 126.579 109.299L127.219 109.683C127.603 109.939 128.115 109.64 128.115 109.171V108.445C128.115 107.805 128.926 107.591 129.225 108.146L129.566 108.786C129.78 109.213 130.377 109.213 130.591 108.786Z" fill="#FAE54B"/>
<path d="M71.7578 87.1582H73.4629C73.4395 87.7988 73.3105 88.3398 73.0762 88.7812C72.8418 89.2188 72.5078 89.5508 72.0742 89.7773C71.6445 90.0039 71.125 90.1172 70.5156 90.1172C70.043 90.1172 69.623 90.0391 69.2559 89.8828C68.8887 89.7227 68.5762 89.4883 68.3184 89.1797C68.0605 88.8711 67.8652 88.4902 67.7324 88.0371C67.6035 87.5801 67.5391 87.0547 67.5391 86.4609V85.0137C67.5391 84.4199 67.6074 83.8945 67.7441 83.4375C67.8848 82.9805 68.084 82.5977 68.3418 82.2891C68.6035 81.9766 68.918 81.7422 69.2852 81.5859C69.6562 81.4258 70.0742 81.3457 70.5391 81.3457C71.1602 81.3457 71.6797 81.4629 72.0977 81.6973C72.5156 81.9316 72.8379 82.2734 73.0645 82.7227C73.2949 83.168 73.4336 83.7129 73.4805 84.3574H71.7695C71.7578 83.9512 71.7109 83.6328 71.6289 83.4023C71.5508 83.168 71.4258 83.0039 71.2539 82.9102C71.082 82.8125 70.8438 82.7637 70.5391 82.7637C70.3125 82.7637 70.1172 82.8047 69.9531 82.8867C69.7891 82.9648 69.6543 83.0918 69.5488 83.2676C69.4434 83.4434 69.3652 83.6738 69.3145 83.959C69.2676 84.2441 69.2441 84.5918 69.2441 85.002V86.4609C69.2441 86.8633 69.2656 87.207 69.3086 87.4922C69.3516 87.7734 69.4199 88.0039 69.5137 88.1836C69.6074 88.3633 69.7344 88.4941 69.8945 88.5762C70.0586 88.6582 70.2656 88.6992 70.5156 88.6992C70.8047 88.6992 71.0371 88.6562 71.2129 88.5703C71.3926 88.4844 71.5254 88.3301 71.6113 88.1074C71.6973 87.8848 71.7461 87.5684 71.7578 87.1582ZM79.4277 88.582V90H75.7188V88.582H79.4277ZM76.252 81.4688V90H74.5352V81.4688H76.252ZM78.9297 84.9258V86.3027H75.7188V84.9258H78.9297ZM79.416 81.4688V82.8926H75.7188V81.4688H79.416ZM80.4355 81.4688H83.1719C83.7422 81.4688 84.2285 81.5664 84.6309 81.7617C85.0332 81.957 85.3418 82.2461 85.5566 82.6289C85.7715 83.0117 85.8789 83.4844 85.8789 84.0469C85.8789 84.5078 85.8164 84.9023 85.6914 85.2305C85.5664 85.5547 85.3887 85.8262 85.1582 86.0449C84.9277 86.2598 84.6523 86.4316 84.332 86.5605L83.8105 86.8711H81.5898L81.584 85.4473H83.125C83.3594 85.4473 83.5527 85.3965 83.7051 85.2949C83.8613 85.1895 83.9766 85.043 84.0508 84.8555C84.1289 84.6641 84.168 84.4414 84.168 84.1875C84.168 83.918 84.1328 83.6875 84.0625 83.4961C83.9961 83.3008 83.8887 83.1523 83.7402 83.0508C83.5957 82.9453 83.4062 82.8926 83.1719 82.8926H82.1523V90H80.4355V81.4688ZM84.3086 90L82.7441 86.1973L84.543 86.1914L86.1426 89.918V90H84.3086ZM90.168 81.4688V90H88.4629V81.4688H90.168ZM92.2891 81.4688V82.8926H86.3828V81.4688H92.2891ZM95.0664 81.4688V90H93.3613V81.4688H95.0664ZM98.248 81.4688V90H96.5312V81.4688H98.248ZM100.92 85.0957V86.5137H97.8145V85.0957H100.92ZM101.248 81.4688V82.8926H97.8145V81.4688H101.248ZM104.031 81.4688V90H102.326V81.4688H104.031ZM109.562 87.1582H111.268C111.244 87.7988 111.115 88.3398 110.881 88.7812C110.646 89.2188 110.312 89.5508 109.879 89.7773C109.449 90.0039 108.93 90.1172 108.32 90.1172C107.848 90.1172 107.428 90.0391 107.061 89.8828C106.693 89.7227 106.381 89.4883 106.123 89.1797C105.865 88.8711 105.67 88.4902 105.537 88.0371C105.408 87.5801 105.344 87.0547 105.344 86.4609V85.0137C105.344 84.4199 105.412 83.8945 105.549 83.4375C105.689 82.9805 105.889 82.5977 106.146 82.2891C106.408 81.9766 106.723 81.7422 107.09 81.5859C107.461 81.4258 107.879 81.3457 108.344 81.3457C108.965 81.3457 109.484 81.4629 109.902 81.6973C110.32 81.9316 110.643 82.2734 110.869 82.7227C111.1 83.168 111.238 83.7129 111.285 84.3574H109.574C109.562 83.9512 109.516 83.6328 109.434 83.4023C109.355 83.168 109.23 83.0039 109.059 82.9102C108.887 82.8125 108.648 82.7637 108.344 82.7637C108.117 82.7637 107.922 82.8047 107.758 82.8867C107.594 82.9648 107.459 83.0918 107.354 83.2676C107.248 83.4434 107.17 83.6738 107.119 83.959C107.072 84.2441 107.049 84.5918 107.049 85.002V86.4609C107.049 86.8633 107.07 87.207 107.113 87.4922C107.156 87.7734 107.225 88.0039 107.318 88.1836C107.412 88.3633 107.539 88.4941 107.699 88.5762C107.863 88.6582 108.07 88.6992 108.32 88.6992C108.609 88.6992 108.842 88.6562 109.018 88.5703C109.197 88.4844 109.33 88.3301 109.416 88.1074C109.502 87.8848 109.551 87.5684 109.562 87.1582ZM115.428 82.9922L113.594 90H111.783L114.449 81.4688H115.58L115.428 82.9922ZM116.875 90L115.029 82.9922L114.859 81.4688H116.008L118.697 90H116.875ZM116.939 86.8184V88.2422H113.09V86.8184H116.939ZM122.207 81.4688V90H120.502V81.4688H122.207ZM124.328 81.4688V82.8926H118.422V81.4688H124.328ZM130.217 88.582V90H126.508V88.582H130.217ZM127.041 81.4688V90H125.324V81.4688H127.041ZM129.719 84.9258V86.3027H126.508V84.9258H129.719ZM130.205 81.4688V82.8926H126.508V81.4688H130.205Z" fill="#286BFF"/>
<path d="M74.8516 97.2471V98.3589C74.8516 98.8101 74.8018 99.207 74.7021 99.5498C74.6055 99.8896 74.4634 100.174 74.2759 100.402C74.0884 100.631 73.8628 100.802 73.5991 100.917C73.3354 101.031 73.0381 101.088 72.707 101.088C72.3877 101.088 72.0962 101.031 71.8325 100.917C71.5688 100.802 71.3418 100.631 71.1514 100.402C70.9609 100.174 70.813 99.8896 70.7075 99.5498C70.605 99.207 70.5537 98.8101 70.5537 98.3589V97.2471C70.5537 96.7959 70.605 96.4004 70.7075 96.0605C70.8101 95.7178 70.9565 95.4321 71.147 95.2036C71.3374 94.9751 71.5645 94.8037 71.8281 94.6895C72.0918 94.5723 72.3833 94.5137 72.7026 94.5137C73.0337 94.5137 73.3311 94.5723 73.5947 94.6895C73.8613 94.8037 74.0869 94.9751 74.2715 95.2036C74.459 95.4321 74.6025 95.7178 74.7021 96.0605C74.8018 96.4004 74.8516 96.7959 74.8516 97.2471ZM74.0518 98.3589V97.2383C74.0518 96.8867 74.0225 96.585 73.9639 96.333C73.9053 96.0781 73.8188 95.8701 73.7046 95.709C73.5903 95.5479 73.4497 95.4292 73.2827 95.353C73.1157 95.2739 72.9224 95.2344 72.7026 95.2344C72.4946 95.2344 72.3071 95.2739 72.1401 95.353C71.9761 95.4292 71.8354 95.5479 71.7183 95.709C71.6011 95.8701 71.5103 96.0781 71.4458 96.333C71.3843 96.585 71.3535 96.8867 71.3535 97.2383V98.3589C71.3535 98.7134 71.3843 99.0181 71.4458 99.2729C71.5103 99.5249 71.6011 99.7329 71.7183 99.897C71.8384 100.058 71.9819 100.178 72.1489 100.257C72.3159 100.333 72.502 100.372 72.707 100.372C72.9268 100.372 73.1201 100.333 73.2871 100.257C73.457 100.178 73.5977 100.058 73.709 99.897C73.8232 99.7329 73.9082 99.5249 73.9639 99.2729C74.0225 99.0181 74.0518 98.7134 74.0518 98.3589ZM76.9126 94.6016V101H76.104V94.6016H76.9126ZM79.0703 97.48V98.1743H76.7588V97.48H79.0703ZM79.4351 94.6016V95.2959H76.7588V94.6016H79.4351ZM85.9434 100.31V101H83.166V100.31H85.9434ZM83.311 94.6016V101H82.5024V94.6016H83.311ZM85.5698 97.3525V98.0425H83.166V97.3525H85.5698ZM85.8994 94.6016V95.2959H83.166V94.6016H85.8994ZM87.5649 94.6016L88.7778 97.0537L89.9819 94.6016H90.9224L89.2568 97.77L90.9575 101H90.0083L88.7778 98.4995L87.543 101H86.5894L88.2944 97.77L86.6245 94.6016H87.5649ZM95.0312 98.9653H95.8398C95.8193 99.4048 95.73 99.7842 95.5718 100.104C95.4165 100.42 95.1895 100.663 94.8906 100.833C94.5947 101.003 94.2241 101.088 93.7788 101.088C93.4595 101.088 93.1709 101.025 92.9131 100.899C92.6553 100.773 92.4341 100.593 92.2495 100.358C92.0679 100.121 91.9287 99.8369 91.832 99.5059C91.7354 99.1748 91.687 98.8027 91.687 98.3896V97.2075C91.687 96.7974 91.7354 96.4268 91.832 96.0957C91.9316 95.7646 92.0737 95.4819 92.2583 95.2476C92.4458 95.0103 92.6729 94.8286 92.9395 94.7026C93.209 94.5767 93.5137 94.5137 93.8535 94.5137C94.2695 94.5137 94.6211 94.5972 94.9082 94.7642C95.1982 94.9282 95.4209 95.1699 95.5762 95.4893C95.7344 95.8057 95.8223 96.1938 95.8398 96.6538H95.0312C95.0107 96.3169 94.958 96.043 94.873 95.832C94.7881 95.6182 94.6621 95.4614 94.4951 95.3618C94.3311 95.2593 94.1172 95.208 93.8535 95.208C93.6191 95.208 93.4155 95.2549 93.2427 95.3486C93.0728 95.4424 92.9321 95.5771 92.8208 95.7529C92.7124 95.9258 92.6304 96.1353 92.5747 96.3813C92.522 96.6245 92.4956 96.897 92.4956 97.1987V98.3896C92.4956 98.6709 92.5176 98.9331 92.5615 99.1763C92.6084 99.4194 92.6816 99.6333 92.7812 99.8179C92.8838 99.9995 93.0171 100.142 93.1812 100.244C93.3452 100.347 93.5444 100.398 93.7788 100.398C94.0747 100.398 94.3091 100.35 94.4819 100.253C94.6548 100.156 94.7822 100.002 94.8643 99.7915C94.9492 99.5806 95.0049 99.3052 95.0312 98.9653ZM100.375 100.31V101H97.5977V100.31H100.375ZM97.7427 94.6016V101H96.9341V94.6016H97.7427ZM100.001 97.3525V98.0425H97.5977V97.3525H100.001ZM100.331 94.6016V95.2959H97.5977V94.6016H100.331ZM104.726 100.31V101H102.071V100.31H104.726ZM102.216 94.6016V101H101.408V94.6016H102.216ZM109.006 100.31V101H106.352V100.31H109.006ZM106.497 94.6016V101H105.688V94.6016H106.497ZM113.409 100.31V101H110.632V100.31H113.409ZM110.777 94.6016V101H109.968V94.6016H110.777ZM113.036 97.3525V98.0425H110.632V97.3525H113.036ZM113.365 94.6016V95.2959H110.632V94.6016H113.365ZM118.625 94.6016V101H117.812L115.25 96.0649V101H114.442V94.6016H115.25L117.826 99.5498V94.6016H118.625ZM123.227 98.9653H124.035C124.015 99.4048 123.925 99.7842 123.767 100.104C123.612 100.42 123.385 100.663 123.086 100.833C122.79 101.003 122.419 101.088 121.974 101.088C121.655 101.088 121.366 101.025 121.108 100.899C120.851 100.773 120.629 100.593 120.445 100.358C120.263 100.121 120.124 99.8369 120.027 99.5059C119.931 99.1748 119.882 98.8027 119.882 98.3896V97.2075C119.882 96.7974 119.931 96.4268 120.027 96.0957C120.127 95.7646 120.269 95.4819 120.454 95.2476C120.641 95.0103 120.868 94.8286 121.135 94.7026C121.404 94.5767 121.709 94.5137 122.049 94.5137C122.465 94.5137 122.816 94.5972 123.104 94.7642C123.394 94.9282 123.616 95.1699 123.771 95.4893C123.93 95.8057 124.018 96.1938 124.035 96.6538H123.227C123.206 96.3169 123.153 96.043 123.068 95.832C122.983 95.6182 122.857 95.4614 122.69 95.3618C122.526 95.2593 122.312 95.208 122.049 95.208C121.814 95.208 121.611 95.2549 121.438 95.3486C121.268 95.4424 121.127 95.5771 121.016 95.7529C120.908 95.9258 120.826 96.1353 120.77 96.3813C120.717 96.6245 120.691 96.897 120.691 97.1987V98.3896C120.691 98.6709 120.713 98.9331 120.757 99.1763C120.804 99.4194 120.877 99.6333 120.977 99.8179C121.079 99.9995 121.212 100.142 121.376 100.244C121.541 100.347 121.74 100.398 121.974 100.398C122.27 100.398 122.504 100.35 122.677 100.253C122.85 100.156 122.978 100.002 123.06 99.7915C123.145 99.5806 123.2 99.3052 123.227 98.9653ZM128.57 100.31V101H125.793V100.31H128.57ZM125.938 94.6016V101H125.129V94.6016H125.938ZM128.197 97.3525V98.0425H125.793V97.3525H128.197ZM128.526 94.6016V95.2959H125.793V94.6016H128.526Z" fill="#286BFF"/>
<path d="M63.8008 123.254H84.9264" stroke="#605BB5" stroke-width="1.5896" stroke-miterlimit="10" stroke-linecap="round" stroke-linejoin="round"/>
<path d="M93.248 123.254H114.374" stroke="#605BB5" stroke-width="1.5896" stroke-miterlimit="10" stroke-linecap="round" stroke-linejoin="round"/>
<path d="M66.0625 111.603H113.008" stroke="#605BB5" stroke-width="1.5896" stroke-miterlimit="10" stroke-linecap="round" stroke-linejoin="round"/>
<path d="M134.818 45.1961C131.319 44.812 125.344 44.5986 118.43 46.7751C109.894 49.4639 104.389 54.4145 101.828 57.0179C98.7126 55.8229 94.4447 54.6279 89.238 54.3718C78.7819 53.817 70.7157 57.4447 66.832 59.5359C65.509 53.1769 64.1433 46.8178 62.8203 40.4588L130.806 26.0763L134.818 45.1961Z" fill="#3C42B5"/>
<path d="M51.8516 41.5257L95.6392 16.9005L144.036 20.1014L101.187 41.4404L51.8516 41.5257Z" fill="#8F96E3"/>
<path d="M56.0341 67.2606C56.2902 71.2297 57.0157 75.1987 58.2107 79.0398C58.9362 78.1008 60.0885 77.6314 61.2835 77.5034C62.4358 77.3753 63.6308 77.5887 64.7831 77.7594C63.7589 74.8573 63.5881 71.7845 63.1187 68.7544C62.6492 65.7242 61.8383 62.6514 59.8325 60.3468C56.4609 56.5058 55.9061 65.5108 56.0341 67.2606Z" fill="#E09F26"/>
<path d="M58.6805 52.494C58.7232 50.5308 58.4672 48.6103 58.8513 46.6471C59.278 44.7266 60.0036 42.5073 61.3693 41.0563C62.735 39.6479 64.9542 39.0077 66.7894 38.1969C72.9777 35.3801 79.294 32.7767 85.7384 30.4721C88.1284 29.6186 90.5184 28.765 92.6096 27.3993C92.951 27.1859 93.3351 26.7591 93.1644 26.4177C93.0791 26.2043 92.823 26.119 92.6096 26.0336C89.4941 25.0093 88.3418 26.119 85.397 27.5273C81.3426 29.4478 75.325 32.0085 71.2706 33.929C67.8136 35.5508 64.1007 36.7458 60.8571 38.837C59.7475 39.5625 58.6805 40.4161 57.9977 41.5257C57.4856 42.3793 57.3575 43.4036 56.9734 44.2998C55.9492 46.5191 57.1441 56.6764 57.1441 56.6764C57.3148 57.1032 57.5282 57.5727 57.955 57.8288C59.278 58.5116 58.9793 56.8472 58.8513 56.2497C58.6379 55.012 58.6805 53.7317 58.6805 52.494Z" fill="#FABA41"/>
<path d="M58.7222 77.8874C57.7407 75.1134 57.2285 72.1686 57.2285 69.2238" stroke="#FFB52B" stroke-width="1.5896" stroke-miterlimit="10" stroke-linecap="round" stroke-linejoin="round"/>
<path d="M60.2601 75.7535C59.3212 72.5527 58.7664 69.2665 58.5957 65.9803" stroke="#FFB52B" stroke-width="1.5896" stroke-miterlimit="10" stroke-linecap="round" stroke-linejoin="round"/>
<path d="M62.0096 75.9669C61.2414 72.9368 60.6439 69.864 60.2598 66.7911" stroke="#FFB52B" stroke-width="1.5896" stroke-miterlimit="10" stroke-linecap="round" stroke-linejoin="round"/>
<path d="M63.2884 76.4364C62.8189 74.1744 62.3921 71.9552 61.9227 69.6932C61.9227 69.6079 61.88 69.4799 61.752 69.4799" stroke="#FFB52B" stroke-width="1.5896" stroke-miterlimit="10" stroke-linecap="round" stroke-linejoin="round"/>
<path d="M61.0265 58.2129C61.3253 59.7066 60.3864 61.1576 58.8926 61.4564C57.3989 61.7551 55.9478 60.8162 55.6491 59.3225C55.3504 57.8288 56.2893 56.3777 57.783 56.079C59.2341 55.7802 60.6851 56.7191 61.0265 58.2129Z" fill="#FABA41"/>
</svg>
