<svg width="14" height="12" viewBox="0 0 14 12" fill="none" xmlns="http://www.w3.org/2000/svg">
<g clip-path="url(#clip0_181_6279)">
<path d="M13.7143 1.10035V6.16473C13.6722 6.29062 13.6444 6.42348 13.5857 6.53973C13.3428 7.02696 12.9348 7.25651 12.3986 7.2608C11.7959 7.26589 11.1932 7.26214 10.5908 7.26214H10.4352C10.4537 7.3216 10.4649 7.36392 10.4799 7.40464C10.8394 8.38339 11.199 9.36205 11.5588 10.3406C11.6941 10.7087 11.8329 11.0754 11.963 11.4453C12.0402 11.6638 11.9483 11.8738 11.7522 11.9604C11.5454 12.0509 11.3405 11.9711 11.2275 11.7541C11.206 11.7101 11.1873 11.6647 11.1715 11.6183C10.6538 10.2094 10.1338 8.80017 9.62196 7.38856C9.57991 7.27205 9.5183 7.26348 9.41732 7.25839C9.31018 7.25276 9.27375 7.30044 9.24107 7.39098C8.73232 8.79919 8.22152 10.2064 7.70866 11.6127C7.68474 11.6797 7.65498 11.7445 7.61973 11.8063C7.58577 11.8701 7.53337 11.922 7.46937 11.9555C7.40538 11.989 7.33278 12.0023 7.26107 11.9938C7.09259 11.9799 6.9517 11.8928 6.91661 11.7241C6.89511 11.6033 6.90564 11.479 6.94714 11.3636C7.4183 10.0511 7.8975 8.74124 8.37402 7.43062C8.39304 7.37892 8.40884 7.32589 8.42973 7.26187C7.95991 7.26187 7.50937 7.25972 7.05911 7.26562C7.01812 7.26562 6.96616 7.30955 6.93938 7.34597C6.62732 7.79062 6.10714 7.96124 5.60705 7.74508C5.19429 7.56696 4.79786 7.35133 4.39393 7.15312C4.35214 7.13249 4.30821 7.11562 4.24714 7.08937V7.28169C4.24714 8.6924 4.24714 10.1031 4.24714 11.5138C4.24714 11.8457 4.09339 11.9984 3.765 11.9987C2.95714 11.9987 2.14937 11.9987 1.3417 11.9987C1.01357 11.9987 0.859553 11.8428 0.859553 11.5117C0.859553 10.8378 0.857143 10.1636 0.861429 9.48964C0.861429 9.38758 0.839464 9.33187 0.736607 9.29089C0.524732 9.20678 0.343929 9.06535 0.232768 8.86767C0.133929 8.69303 0.0758036 8.49508 0 8.30758V6.67365C0.00925218 6.6397 0.0166732 6.60528 0.0222318 6.57053C0.0803568 6.04499 0.276697 5.57624 0.635625 5.18919C0.827411 4.9824 1.05429 4.8083 1.26455 4.62026C0.34366 3.74142 0.556071 2.48464 1.21259 1.84687C1.55173 1.51313 2.00305 1.31772 2.47848 1.29875C2.95392 1.27979 3.41936 1.43862 3.78402 1.74428C4.53402 2.3716 4.76089 3.61499 3.94286 4.52383L5.16723 5.1316V4.96499C5.16723 3.7508 5.16536 2.5366 5.16723 1.32214C5.16911 0.563029 5.6933 0.00963614 6.43955 0.00588614C8.43911 -0.00241743 10.4387 0.000796856 12.4396 0.00588614C12.8443 0.00588614 13.1815 0.168475 13.4413 0.488029C13.5884 0.66669 13.6532 0.881779 13.7143 1.10035ZM7.08482 6.45294C7.13063 6.45508 7.16116 6.45803 7.19196 6.45803C8.92875 6.45803 10.6654 6.45803 12.4018 6.45803C12.7294 6.45803 12.9107 6.27053 12.9107 5.93839C12.9107 4.40714 12.9107 2.87571 12.9107 1.3441C12.9107 0.979011 12.7353 0.805707 12.3664 0.805707H6.51375C6.13875 0.805707 5.97054 0.9766 5.97027 1.35642C5.97027 2.22696 5.97027 3.09758 5.97027 3.9683C5.97027 4.45044 5.97027 4.93258 5.97161 5.41473C5.97161 5.45892 5.97991 5.52776 6.00777 5.54356C6.16848 5.63437 6.3367 5.71258 6.50786 5.79803C6.7192 5.37535 6.92223 4.96767 7.1258 4.56267C7.20777 4.39928 7.28491 4.23321 7.37518 4.07464C7.46545 3.91606 7.60929 3.85847 7.78473 3.88553C7.95054 3.91231 8.07321 4.01196 8.09759 4.17374C8.11182 4.29129 8.09241 4.41045 8.04161 4.5174C7.74911 5.12356 7.44402 5.72276 7.14348 6.32598C7.125 6.36482 7.10732 6.4058 7.08482 6.45294ZM3.44357 11.1911V11.0036C3.44357 9.52589 3.44357 8.0483 3.44357 6.5708C3.44254 6.50388 3.44567 6.43697 3.45295 6.37044C3.47679 6.18642 3.62813 6.03428 3.81134 6.03455C3.90854 6.03755 4.00386 6.06207 4.09045 6.10633C4.67491 6.39267 5.25402 6.68919 5.83982 6.97232C5.93131 7.01382 6.03348 7.02572 6.13205 7.00633C6.2392 6.98303 6.3083 6.88499 6.31714 6.76794C6.32652 6.63857 6.24589 6.5649 6.13848 6.5116C5.41179 6.15106 4.67786 5.80446 3.96214 5.42303C3.4958 5.17446 3.01446 5.08606 2.49402 5.11151C1.55652 5.15758 0.822053 5.89312 0.805179 6.83356C0.797411 7.26642 0.801161 7.69955 0.805179 8.1324C0.807054 8.40026 0.970714 8.57437 1.23563 8.60517C1.5367 8.63999 1.66259 8.77848 1.66286 9.07821C1.66286 9.73446 1.66286 10.3906 1.66286 11.0467C1.66286 11.0938 1.66688 11.1407 1.66929 11.1905L3.44357 11.1911ZM3.65036 3.25714C3.70045 2.66464 3.22848 2.13481 2.58911 2.10267C2.02366 2.07401 1.48741 2.49481 1.45393 3.15883C1.42554 3.71973 1.84527 4.27178 2.51759 4.30097C2.80597 4.3118 3.08692 4.20811 3.29914 4.01256C3.51136 3.817 3.63762 3.54544 3.65036 3.25714Z" fill="black"/>
<path d="M9.44293 2.52428C8.72909 2.52428 8.01498 2.52696 7.30007 2.52428C7.00007 2.52267 6.80882 2.24973 6.91382 1.98294C6.93439 1.92336 6.96976 1.86998 7.01661 1.82781C7.06347 1.78565 7.12026 1.75607 7.18168 1.74187C7.2424 1.72808 7.3045 1.72134 7.36677 1.72178C8.75034 1.72071 10.1336 1.72071 11.5167 1.72178C11.5525 1.72087 11.5883 1.72239 11.6238 1.72633C11.8472 1.75553 12.0058 1.93714 11.9921 2.1458C11.9779 2.36357 11.8124 2.52241 11.5836 2.52375C10.9547 2.52696 10.3247 2.52508 9.69632 2.52535H9.44186L9.44293 2.52428Z" fill="black"/>
<path d="M10.5138 3.23062C10.8657 3.23062 11.218 3.22473 11.5697 3.23223C11.8729 3.23893 12.0598 3.48616 11.9715 3.75375C11.9513 3.82278 11.912 3.88471 11.8582 3.93239C11.8044 3.98007 11.7381 4.01155 11.6672 4.02321C11.6628 4.02415 11.6585 4.02468 11.654 4.02482C10.8968 4.02482 10.1396 4.03018 9.38235 4.02188C9.20342 4.02 9.07377 3.87134 9.04645 3.69429C9.00708 3.43688 9.18494 3.23679 9.4702 3.23196C9.81842 3.22607 10.1661 3.23036 10.5138 3.23062Z" fill="black"/>
<path d="M10.5127 4.73946C10.8559 4.73946 11.1993 4.73946 11.5424 4.73946C11.8145 4.73946 11.9977 4.90473 11.994 5.14125C11.9913 5.37214 11.8089 5.54035 11.5485 5.54116C10.8578 5.54348 10.1669 5.54348 9.47586 5.54116C9.23908 5.54116 9.0789 5.40723 9.04729 5.20071C9.03035 5.10768 9.04798 5.01166 9.09686 4.93072C9.14575 4.84977 9.22252 4.78947 9.31274 4.76116C9.37267 4.74489 9.43468 4.73758 9.49676 4.73946C9.83533 4.73839 10.1739 4.73946 10.5127 4.73946Z" fill="black"/>
</g>
<defs>
<clipPath id="clip0_181_6279">
<rect width="13.7143" height="12" fill="white"/>
</clipPath>
</defs>
</svg>
