<svg width="27" height="26" viewBox="0 0 27 26" fill="none" xmlns="http://www.w3.org/2000/svg">
<g clip-path="url(#clip0_207_2864)">
<path d="M9.71369 10.406C9.40944 10.1113 9.09972 9.82478 8.80161 9.51916C7.91477 8.60572 7.35129 7.52105 7.18211 6.25628C6.87922 3.99349 7.6112 2.09497 9.26618 0.544375C9.35349 0.462514 9.44423 0.384743 9.53564 0.308339C10.0473 -0.118025 10.7342 -0.109155 11.207 0.358822C12.4745 1.61267 13.7352 2.87312 14.989 4.14016C15.4747 4.63133 15.459 5.36058 14.9713 5.86539C14.5094 6.34292 14.0353 6.81021 13.5667 7.28297C13.5619 7.28774 13.5612 7.29729 13.5667 7.28706L18.7799 12.4867C19.196 12.0692 19.6278 11.6346 20.061 11.2014C20.7077 10.5547 21.409 10.552 22.0523 11.1953C23.2293 12.3709 24.4056 13.5468 25.5812 14.7228C26.202 15.3443 26.2116 16.0088 25.614 16.6602C24.6146 17.7517 23.4351 18.5431 21.9664 18.835C20.5338 19.1188 19.1694 18.8978 17.8794 18.2211C17.8269 18.1938 17.775 18.1631 17.7218 18.1365C17.6919 18.1289 17.6613 18.1243 17.6304 18.1228V18.3896C17.6256 19.3869 17.6236 20.385 17.6161 21.383C17.6065 22.4888 16.9264 23.1669 15.824 23.171C15.4829 23.171 15.1418 23.1792 14.8007 23.171C14.6206 23.1655 14.5278 23.2058 14.4924 23.4063C14.4023 23.8839 14.2829 24.3539 14.1683 24.826C14.0169 25.4481 13.6301 25.8492 12.9998 25.972C12.4001 26.09 11.9083 25.8724 11.5365 25.3963C11.0221 24.738 10.5132 24.0756 10.0159 23.4036C9.96674 23.3266 9.8977 23.2642 9.81605 23.2231C9.7344 23.1821 9.64317 23.1638 9.55201 23.1703C6.95017 23.1767 4.34856 23.1778 1.74717 23.1737C0.888983 23.1737 0.246369 22.703 0.0553579 21.9321C0.0168921 21.7575 -0.000514513 21.5788 0.00351139 21.4C0.000782662 18.3466 0.000782662 15.2934 0.00351139 12.2404C0.00282921 11.1509 0.672731 10.4824 1.7574 10.4824C4.30012 10.4788 6.84216 10.4788 9.38351 10.4824H9.67753L9.71369 10.406ZM12.6471 24.1465C12.7992 23.4827 12.9384 22.8776 13.0775 22.2719C13.1949 21.7602 13.4671 21.5378 13.9964 21.5337C14.5674 21.5297 15.1391 21.5242 15.7101 21.5337C15.9188 21.5385 15.987 21.4819 15.9829 21.2657C15.9829 19.816 15.9932 18.3671 15.9891 16.9181C15.9819 16.7881 15.929 16.6649 15.8397 16.5702C14.4148 15.1381 12.9857 13.7107 11.5522 12.2881C11.4443 12.1885 11.3046 12.1302 11.1579 12.1237C8.07895 12.1151 5.00095 12.1137 1.92385 12.1196C1.83381 12.1196 1.74376 12.1278 1.65849 12.1319V21.5337H6.2523C7.53958 21.5337 8.82685 21.5392 10.1148 21.5337C10.4784 21.5337 10.7608 21.6518 10.9641 21.9547C11.016 22.0324 11.076 22.1047 11.1333 22.1791L12.6471 24.1465ZM10.3208 1.83916C10.2622 1.891 10.1844 1.95513 10.1162 2.02539C8.28929 3.81748 8.28383 6.68469 10.1114 8.51567C12.5868 10.9974 15.0654 13.476 17.5472 15.9515C18.6564 17.0566 19.9983 17.4918 21.5441 17.2476C22.6288 17.075 23.5135 16.5286 24.1991 15.7468L21.0188 12.5699L19.7001 13.8803C19.0957 14.4807 18.391 14.4848 17.79 13.8838C15.9136 12.0091 14.0385 10.1329 12.1648 8.25508C11.5713 7.66021 11.5733 6.95893 12.1648 6.36339C12.6164 5.91042 13.07 5.46086 13.5059 5.02631L10.3208 1.83916Z" fill="black"/>
<path d="M3.27988 14.5584C3.27995 14.4518 3.3013 14.3462 3.34267 14.2478C3.38405 14.1495 3.44463 14.0604 3.52085 13.9857C3.59708 13.9111 3.68743 13.8524 3.78662 13.8131C3.88581 13.7738 3.99183 13.7547 4.0985 13.7569C4.31381 13.7571 4.52026 13.8426 4.67257 13.9948C4.82488 14.147 4.91062 14.3534 4.91098 14.5687C4.92006 14.6818 4.90553 14.7955 4.86832 14.9027C4.83111 15.0099 4.77202 15.1082 4.69481 15.1913C4.6176 15.2744 4.52395 15.3406 4.41981 15.3856C4.31567 15.4306 4.20331 15.4535 4.08985 15.4528C3.9764 15.4521 3.86433 15.4278 3.76076 15.3815C3.65719 15.3352 3.56438 15.2678 3.48822 15.1837C3.41206 15.0996 3.35421 15.0006 3.31834 14.893C3.28248 14.7853 3.26938 14.6714 3.27988 14.5584Z" fill="black"/>
</g>
<defs>
<clipPath id="clip0_207_2864">
<rect width="26.0532" height="26" fill="white"/>
</clipPath>
</defs>
</svg>
