<svg width="20" height="20" viewBox="0 0 20 20" fill="none" xmlns="http://www.w3.org/2000/svg">
<path d="M20.0005 7.46061V18.125C19.9875 18.1671 19.9714 18.2088 19.962 18.2515C19.7766 19.0807 19.2819 19.6319 18.4781 19.9052C18.363 19.9443 18.2432 19.9688 18.1255 20H8.98461C8.94305 19.9846 8.90062 19.9718 8.85752 19.9615C8.0075 19.8052 7.29498 19.0995 7.15279 18.2635C7.11581 18.0479 7.16633 17.7947 7.07258 17.6166C6.97883 17.4385 6.74288 17.3317 6.58715 17.176C4.73033 15.3244 2.88237 13.4639 1.0193 11.6185C0.539598 11.1456 0.104169 10.6576 0 9.96068V9.41379C0.0136803 9.39273 0.024537 9.36996 0.0322923 9.34608C0.103306 8.89924 0.316455 8.48719 0.640121 8.17105C3.01796 5.79251 5.39737 3.41589 7.77833 1.04117C7.88956 0.933098 8.03044 0.860573 8.18303 0.832834C9.66796 0.611474 11.1555 0.405739 12.6415 0.191671C13.0384 0.134899 13.4326 0.0640642 13.8285 0H14.1801C14.3254 0.115628 14.4811 0.220317 14.6139 0.348966C14.9723 0.696892 15.3207 1.05524 15.6822 1.41775C15.9999 1.09899 16.302 0.785437 16.6161 0.484908C16.7963 0.312508 16.9968 0.160942 17.189 0H17.5015C17.5895 0.0509915 17.6731 0.109178 17.7515 0.173963C17.9953 0.406781 17.9875 0.76252 17.7286 1.02555C17.3281 1.43233 16.9208 1.83182 16.5098 2.2412C16.9077 2.63861 17.2859 3.02247 17.6729 3.39957C17.877 3.59697 17.9802 3.81624 17.9005 4.09959C17.8145 4.40532 17.8656 4.66887 18.102 4.89492C18.1809 4.98134 18.2522 5.07439 18.3151 5.17305C18.8769 5.93522 19.4387 6.69774 20.0005 7.46061ZM14.8749 2.26412C14.5243 1.91411 14.2056 1.58702 13.878 1.27451C13.823 1.23462 13.7544 1.21814 13.6873 1.22868C12.013 1.46514 10.3392 1.70577 8.66585 1.95057C8.56614 1.96493 8.47295 2.00863 8.39814 2.0761C6.09808 4.36921 3.80045 6.66493 1.50525 8.96325C1.05576 9.41326 1.05367 9.98463 1.50004 10.4315C3.50113 12.4354 5.50327 14.4375 7.50645 16.4379C7.9299 16.8609 8.51116 16.8676 8.932 16.4478C11.2446 14.1394 13.5547 11.8286 15.8624 9.51535C15.9176 9.46251 15.9555 9.39426 15.9713 9.31951C16.2181 7.62051 16.4612 5.92116 16.7004 4.22146C16.7086 4.16019 16.6921 4.09819 16.6546 4.04906C16.339 3.72145 16.016 3.40061 15.7171 3.09852L14.8738 3.93969C14.9827 4.04385 15.1093 4.15375 15.2275 4.27303C15.4921 4.54022 15.5072 4.90325 15.2686 5.14232C15.0301 5.38139 14.6702 5.36941 14.4004 5.10117C13.874 4.57824 13.3491 4.05358 12.8259 3.52718C12.5581 3.25738 12.5441 2.90216 12.7847 2.65944C13.0253 2.41673 13.3894 2.43183 13.6519 2.70007C13.7733 2.82351 13.8754 2.96622 13.9978 3.11675C14.2712 2.83705 14.4884 2.61309 14.7087 2.39225C14.7612 2.34586 14.8167 2.30305 14.8749 2.26412ZM8.29032 17.9479C8.38199 18.5083 8.75544 18.8276 9.31691 18.8276C12.1416 18.8276 14.9664 18.8276 17.7911 18.8276C18.4161 18.8276 18.8281 18.4151 18.8281 17.7859C18.8281 14.5118 18.8271 11.238 18.825 7.96427C18.8232 7.86958 18.7935 7.77752 18.7396 7.69968C18.4104 7.24707 18.0718 6.80174 17.7354 6.35485C17.7025 6.3111 17.6645 6.27256 17.6145 6.21579C17.6028 6.24696 17.5929 6.27879 17.5848 6.3111C17.4249 7.43769 17.2723 8.56533 17.0989 9.68983C17.0701 9.86766 16.9893 10.033 16.8666 10.1648C14.5078 12.5378 12.1439 14.9051 9.77474 17.2666C9.53161 17.5224 9.22666 17.7113 8.8893 17.815C8.69814 17.8697 8.4971 17.9025 8.29032 17.9479Z" fill="#286BFF"/>
<path d="M7.39585 13.8728C6.97917 13.8728 6.71562 13.4889 6.85312 13.0644C7.03803 12.4962 7.23074 11.9311 7.41929 11.3644C8.13597 9.21433 8.85266 7.06445 9.56934 4.91474C9.68549 4.56629 9.92717 4.38452 10.223 4.4215C10.6017 4.4689 10.8267 4.83818 10.7006 5.221C10.4324 6.04185 10.1558 6.86011 9.88289 7.6794C9.24572 9.58917 8.60855 11.4989 7.97138 13.4087C7.8693 13.7186 7.67398 13.8728 7.39585 13.8728Z" fill="#286BFF"/>
<path d="M10.3379 9.14453C10.3384 8.79689 10.4422 8.45723 10.636 8.16863C10.8298 7.88003 11.1049 7.65548 11.4265 7.52345C11.7481 7.39142 12.1017 7.35786 12.4424 7.42703C12.7831 7.4962 13.0955 7.66498 13.3402 7.91197C13.5848 8.15895 13.7506 8.47303 13.8166 8.81436C13.8825 9.1557 13.8455 9.50892 13.7105 9.82924C13.5754 10.1496 13.3482 10.4226 13.0578 10.6136C12.7673 10.8047 12.4267 10.9052 12.0791 10.9024C11.6161 10.8968 11.174 10.7093 10.8482 10.3803C10.5224 10.0514 10.3391 9.6075 10.3379 9.14453ZM12.0843 9.73048C12.2389 9.73188 12.3877 9.67201 12.4983 9.56396C12.6089 9.45592 12.6722 9.30849 12.6744 9.15391C12.6774 9.07599 12.6648 8.99826 12.6372 8.92531C12.6097 8.85236 12.5678 8.78568 12.514 8.7292C12.4603 8.67272 12.3957 8.62759 12.3242 8.59648C12.2527 8.56537 12.1757 8.54891 12.0978 8.54807C12.0198 8.54724 11.9424 8.56204 11.8703 8.59161C11.7981 8.62118 11.7326 8.66492 11.6777 8.72023C11.6227 8.77555 11.5794 8.84132 11.5503 8.91366C11.5212 8.986 11.5069 9.06344 11.5082 9.14141C11.5073 9.21794 11.5214 9.29391 11.5499 9.36497C11.5783 9.43602 11.6205 9.50076 11.674 9.55549C11.7275 9.61021 11.7913 9.65384 11.8617 9.68387C11.9321 9.71389 12.0078 9.72974 12.0843 9.73048Z" fill="#286BFF"/>
<path d="M5.46842 10.9023C5.00248 10.9041 4.55494 10.7206 4.22425 10.3924C3.89357 10.0641 3.70682 9.61798 3.70509 9.15204C3.70336 8.6861 3.8868 8.23857 4.21505 7.90788C4.54329 7.57719 4.98946 7.39044 5.4554 7.38871C5.68611 7.38786 5.91472 7.43245 6.1282 7.51995C6.34167 7.60745 6.53582 7.73614 6.69956 7.89867C6.8633 8.0612 6.99343 8.25439 7.0825 8.46721C7.17158 8.68003 7.21787 8.90831 7.21872 9.13902C7.21958 9.36973 7.17498 9.59835 7.08749 9.81182C6.99999 10.0253 6.8713 10.2194 6.70877 10.3832C6.54624 10.5469 6.35305 10.677 6.14023 10.7661C5.92741 10.8552 5.69913 10.9015 5.46842 10.9023ZM5.46217 8.55854C5.30747 8.56045 5.1597 8.62303 5.05069 8.73282C4.94168 8.84261 4.88015 8.99082 4.87934 9.14553C4.87893 9.2221 4.89369 9.29799 4.92276 9.36882C4.95184 9.43965 4.99466 9.50402 5.04876 9.55821C5.10285 9.61239 5.16714 9.65533 5.23792 9.68454C5.3087 9.71374 5.38456 9.72863 5.46113 9.72836C5.61597 9.72796 5.76445 9.66666 5.87447 9.55771C5.9845 9.44875 6.04725 9.30089 6.04916 9.14605C6.04507 8.99181 5.98186 8.84504 5.87261 8.73608C5.76336 8.62712 5.61642 8.56431 5.46217 8.56062V8.55854Z" fill="#286BFF"/>
</svg>
