<svg width="23" height="24" viewBox="0 0 23 24" fill="none" xmlns="http://www.w3.org/2000/svg">
<g id="Layer_1" clip-path="url(#clip0_181_5700)">
<path id="Vector" d="M2.62543 0H9.84481C9.77606 0.035625 9.70981 0.0750008 9.63918 0.106251C8.94856 0.413751 8.25043 0.70625 7.56668 1.02938C6.98311 1.30766 6.51752 1.78442 6.25314 2.37443C5.98877 2.96444 5.94283 3.62924 6.12356 4.25C6.36918 5.0975 6.90543 5.70063 7.71668 6.0375C7.96168 6.13875 8.04731 6.26438 8.02106 6.52C8.00543 6.75387 8.00418 6.98848 8.01731 7.2225C8.02004 7.71616 8.12071 8.20436 8.31351 8.65882C8.5063 9.11329 8.78737 9.52496 9.14043 9.87C9.67981 10.4112 10.3604 10.7344 11.0361 11.0575C12.8736 11.9325 14.7904 12.2406 16.7986 11.8075C17.2004 11.7219 17.5942 11.5981 18.0161 11.4856V11.75C18.0161 14.1088 18.0011 16.4675 18.0248 18.8256C18.0329 19.6019 17.5217 20.0206 16.8417 20.0131C15.3342 19.9913 13.8267 20.0062 12.3192 20.0062H12.0154V20.2831C12.0154 21.205 11.9986 22.1269 12.0223 23.0475C12.0342 23.5138 11.8742 23.83 11.4411 24.0025H11.0661C10.8873 23.8681 10.6998 23.7431 10.5317 23.5969C10.0273 23.1594 9.53168 22.7081 9.01918 22.2537C8.49106 22.7244 7.97731 23.1912 7.45668 23.6444C7.29218 23.7729 7.12089 23.8924 6.94356 24.0025H6.61543C6.17043 23.8444 6.00481 23.5244 6.01293 23.0606C6.02918 22.1312 6.01793 21.2013 6.01793 20.2713V20.0062H5.72856C4.87731 20.0062 4.02543 19.9994 3.17418 20.0062C2.43094 20.0256 1.7051 19.7796 1.12668 19.3125C0.409807 18.74 -0.0308176 18.045 0.00168244 17.0669C0.0454324 15.7088 0.012932 14.3488 0.012932 12.9894C0.012932 9.69271 0.012932 6.39583 0.012932 3.09875C0.012932 1.88562 0.542932 0.96125 1.60106 0.37125C1.91356 0.195 2.28231 0.120625 2.62543 0ZM16.0092 16.0125H12.0279V17.9819H16.0092V16.0125ZM5.99481 18V16.0081C5.94106 16.0031 5.90356 15.9969 5.86543 15.9969C4.92835 15.9969 3.99085 15.9969 3.05293 15.9969C2.975 15.9984 2.89737 16.0072 2.82106 16.0231C2.58505 16.0696 2.37368 16.1995 2.22571 16.3891C2.07775 16.5788 2.00309 16.8154 2.01543 17.0556C2.04043 17.5444 2.43731 17.9813 2.92981 17.9931C3.94543 18.01 4.96043 18 5.99481 18Z" fill="#286BFF"/>
<path id="Vector_2" d="M15.1902 0L21.4546 2.7625C21.8989 2.95875 22.0858 3.27875 21.9902 3.67813C21.962 3.79642 21.9054 3.90607 21.8254 3.99764C21.7454 4.08921 21.6443 4.15995 21.5308 4.20375C19.4696 5.11208 17.4071 6.01937 15.3433 6.92562C15.1096 7.02875 14.8789 7.00937 14.6427 6.905C12.601 6.005 10.5594 5.10792 8.5177 4.21375C8.2052 4.07563 8.01207 3.84375 8.0177 3.49313C8.0177 3.13063 8.2327 2.91187 8.55395 2.77125C10.5885 1.87958 12.6221 0.985417 14.6546 0.0887508C14.7085 0.0620925 14.7608 0.0324628 14.8114 0H15.1902Z" fill="#286BFF"/>
<path id="Vector_3" d="M20.0523 6.50626C20.0129 6.93126 20.0092 7.31876 19.9323 7.69751C19.8904 7.89361 19.8083 8.07889 19.6911 8.24165C19.574 8.40441 19.4243 8.54112 19.2517 8.64313C17.8261 9.53188 16.3036 10.0969 14.5886 9.98563C13.4211 9.91001 12.3523 9.52001 11.3342 8.96813C11.1829 8.88626 11.0336 8.80251 10.8873 8.71251C10.3329 8.37188 10.0411 7.87626 10.0223 7.22501C10.0161 6.99938 10.0223 6.77376 10.0223 6.51126C10.3186 6.64126 10.5848 6.76126 10.8554 6.87626C11.9042 7.33751 12.9554 7.79313 14.0004 8.26251C14.6923 8.57501 15.3686 8.56251 16.0579 8.25376C17.2886 7.70188 18.5254 7.16501 19.7598 6.62251C19.8354 6.58876 19.9142 6.56251 20.0523 6.50626Z" fill="#286BFF"/>
</g>
<defs>
<clipPath id="clip0_181_5700">
<rect width="22.0163" height="24" fill="white"/>
</clipPath>
</defs>
</svg>
