<svg width="23" height="24" viewBox="0 0 23 24" fill="none" xmlns="http://www.w3.org/2000/svg">
<g clip-path="url(#clip0_181_5465)">
<path d="M8.66949 1.33514e-05C8.72512 0.0406383 8.78262 0.0781384 8.83512 0.125013C8.91223 0.18684 8.96804 0.271265 8.99472 0.366434C9.0214 0.461603 9.0176 0.562736 8.98387 0.655638C8.95945 0.747338 8.90676 0.829011 8.83326 0.88904C8.75977 0.949069 8.66922 0.984401 8.57449 0.990013C8.48114 0.997212 8.38748 0.999715 8.29387 0.997513C6.39553 0.997513 4.49762 0.997513 2.60012 0.997513C1.81449 0.997513 1.21824 1.45189 1.05324 2.16939C1.02685 2.29933 1.01511 2.43183 1.01824 2.56439C1.01824 6.79689 1.01824 11.0296 1.01824 15.2625C1.01824 15.325 1.02449 15.3844 1.02574 15.4081C1.40512 15.2831 1.78012 15.1425 2.16449 15.0363C2.33324 14.9894 2.52074 15.0019 2.69949 15.0019C7.37033 15.0019 12.0407 15.0019 16.7107 15.0019H17.0126V14.125C17.0126 13.6094 17.0126 13.0944 17.0126 12.5788C17.0126 12.2275 17.2182 11.9981 17.5182 12.0025C17.8182 12.0069 18.0064 12.2231 18.0064 12.5694C18.0089 14.8569 18.0089 17.1448 18.0064 19.4331C18.0064 19.8338 17.8132 20.0038 17.3757 20.0038C15.6887 20.0038 14.0012 20.0038 12.3132 20.0038H12.0126V20.2763C12.0126 21.2919 12.0039 22.3069 12.0176 23.3219C12.022 23.625 11.9382 23.8506 11.6726 24H11.3876C10.9439 23.6588 10.4982 23.3194 10.057 22.9756C9.70887 22.7038 9.36574 22.425 9.01387 22.1444L8.72574 22.3713L6.65387 24H6.37262C6.09262 23.8644 6.00262 23.6356 6.00574 23.3331C6.01512 22.31 6.00949 21.2869 6.00887 20.2631C6.00887 20.1813 6.00199 20.0988 5.99762 20.0038H5.71512C4.68387 20.0038 3.65262 20.0075 2.62199 20.0038C1.07887 19.9975 -0.0130079 18.8788 0.00011706 17.3431C0.0107421 16.07 0.00824236 14.7969 0.00824236 13.5238C0.00824236 9.89876 0.00824236 6.27376 0.00824236 2.64876C0.00824236 1.74564 0.314492 0.982514 1.07074 0.475014C1.40387 0.251889 1.82074 0.153138 2.19887 -0.00186157L8.66949 1.33514e-05ZM5.98762 18.9894V18C5.51824 18 5.05012 18 4.58512 18C4.24199 18 4.02262 17.8063 4.02262 17.51C4.02262 17.2138 4.22387 17.01 4.56949 17.0056C5.22512 16.9981 5.88199 16.9925 6.53699 16.9931C8.12033 16.9931 9.70553 16.9969 11.2926 17.0044C12.0107 17.0044 12.7301 17.0075 13.447 17.0044C13.6782 17.0044 13.862 17.0769 13.9657 17.2919C14.1289 17.6281 13.8839 17.9938 13.4851 18C13.0026 18.0075 12.5207 18 12.027 18V18.9825H16.9989V15.9963H16.7489C12.0551 15.9963 7.36137 15.9963 2.66762 15.9963C2.51938 15.9951 2.37133 16.0068 2.22512 16.0313C1.47512 16.1613 0.981368 16.8369 1.02824 17.6613C1.06637 18.3331 1.68824 18.9694 2.38449 18.9825C3.57512 19.005 4.77137 18.9894 5.98762 18.9894ZM11.0014 18.0125H7.03574V22.4375C7.10387 22.3869 7.14699 22.3563 7.18824 22.3238C7.67574 21.9331 8.16137 21.5406 8.65137 21.1531C8.91199 20.9469 9.10762 20.9481 9.37199 21.1488C9.50324 21.2475 9.62887 21.3531 9.75637 21.4556L11.0014 22.4513V18.0125Z" fill="#9B9B9B"/>
<path d="M15.1372 0L21.5291 2.955C21.5859 2.98062 21.6416 3.00937 21.6984 3.035C21.7907 3.07049 21.87 3.13319 21.9258 3.21478C21.9816 3.29638 22.0113 3.39302 22.0109 3.49187C22.0153 3.71562 21.8953 3.875 21.6922 3.96875C21.2041 4.19438 20.7178 4.42562 20.2247 4.64062C20.0678 4.70875 20.0059 4.78875 20.0084 4.9675C20.0197 5.76438 20.0084 6.56125 20.0141 7.3575C20.0141 8.00125 19.7397 8.475 19.1803 8.795C17.7478 9.62 16.2241 10.0862 14.5553 9.9825C13.1372 9.89312 11.8422 9.42 10.6491 8.66625C10.2416 8.40875 10.0316 8.00313 10.0241 7.52C10.0103 6.66875 10.0128 5.81688 10.0197 4.96563C10.0197 4.8025 9.97407 4.71562 9.82157 4.64812C9.34282 4.43812 8.87345 4.21063 8.39595 3.99625C8.16907 3.895 8.01157 3.75125 8.01469 3.49C8.01782 3.24 8.17594 3.10312 8.38969 3.00375C10.4814 2.04292 12.5712 1.07896 14.6591 0.111876C14.7278 0.0800005 14.7916 0.0375 14.8572 0H15.1372ZM9.72095 3.49438C9.80407 3.53875 9.85032 3.56687 9.89845 3.58937C11.5559 4.35375 13.2109 5.12 14.8734 5.87563C14.9779 5.91154 15.0922 5.90617 15.1928 5.86062C16.5553 5.24062 17.9141 4.61062 19.2734 3.98562C19.6109 3.83 19.9478 3.67313 20.2978 3.50875C20.2616 3.48375 20.2497 3.47312 20.2353 3.46625C18.5378 2.68 16.8384 1.89583 15.1372 1.11375C15.045 1.08372 14.9449 1.08929 14.8566 1.12938C14.4416 1.30938 14.0328 1.50438 13.6222 1.69188L9.72095 3.49438ZM11.0122 5.20437C11.0122 5.9875 11.0003 6.72125 11.0228 7.45438C11.0294 7.53378 11.0527 7.61089 11.0912 7.6806C11.1298 7.75032 11.1828 7.81104 11.2466 7.85875C12.3066 8.51 13.4497 8.93312 14.6997 8.99562C16.1684 9.06937 17.4991 8.62562 18.7484 7.89C18.9547 7.765 19.0184 7.5775 19.0184 7.355C19.0184 6.69875 19.0184 6.0425 19.0184 5.38688C19.0142 5.33003 19.0067 5.27348 18.9959 5.2175L18.7422 5.3325C17.6091 5.85438 16.4741 6.37312 15.3441 6.90125C15.2402 6.95412 15.1252 6.98122 15.0087 6.98024C14.8922 6.97926 14.7776 6.95024 14.6747 6.89563C13.9566 6.555 13.2316 6.22687 12.5097 5.89562L11.0122 5.20437Z" fill="#9B9B9B"/>
</g>
<defs>
<clipPath id="clip0_181_5465">
<rect width="22.0125" height="24" fill="white"/>
</clipPath>
</defs>
</svg>
