<svg width="11" height="13" viewBox="0 0 11 13" fill="none" xmlns="http://www.w3.org/2000/svg">
<path d="M7.5 13H3.5C2.83696 13 2.20107 12.7366 1.73223 12.2678C1.26339 11.7989 1 11.163 1 10.5V4.5C1 4.36739 1.05268 4.24021 1.14645 4.14645C1.24021 4.05268 1.36739 4 1.5 4C1.63261 4 1.75979 4.05268 1.85355 4.14645C1.94732 4.24021 2 4.36739 2 4.5V10.5C2 10.8978 2.15804 11.2794 2.43934 11.5607C2.72064 11.842 3.10218 12 3.5 12H7.5C7.89783 12 8.27936 11.842 8.56066 11.5607C8.84197 11.2794 9 10.8978 9 10.5V4.5C9 4.36739 9.05268 4.24021 9.14645 4.14645C9.24022 4.05268 9.36739 4 9.5 4C9.63261 4 9.75979 4.05268 9.85355 4.14645C9.94732 4.24021 10 4.36739 10 4.5V10.5C10 11.163 9.73661 11.7989 9.26777 12.2678C8.79893 12.7366 8.16304 13 7.5 13Z" fill="#131313"/>
<path d="M10.5 3.00003H0.5C0.367392 3.00003 0.240215 2.94735 0.146447 2.85358C0.0526785 2.75982 0 2.63264 0 2.50003C0 2.36742 0.0526785 2.24025 0.146447 2.14648C0.240215 2.05271 0.367392 2.00003 0.5 2.00003H10.5C10.6326 2.00003 10.7598 2.05271 10.8536 2.14648C10.9473 2.24025 11 2.36742 11 2.50003C11 2.63264 10.9473 2.75982 10.8536 2.85358C10.7598 2.94735 10.6326 3.00003 10.5 3.00003Z" fill="#131313"/>
<path d="M7.50586 3H3.50586C3.37325 3 3.24607 2.94732 3.15231 2.85355C3.05854 2.75979 3.00586 2.63261 3.00586 2.5V1.5C3.00586 1.10218 3.16389 0.720645 3.4452 0.43934C3.7265 0.158035 4.10803 0 4.50586 0H6.50586C6.90369 0 7.28522 0.158035 7.56652 0.43934C7.84783 0.720645 8.00586 1.10218 8.00586 1.5V2.5C8.00586 2.63261 7.95318 2.75979 7.85941 2.85355C7.76565 2.94732 7.63847 3 7.50586 3ZM4.00586 2H7.00586V1.5C7.00586 1.36739 6.95318 1.24022 6.85941 1.14645C6.76565 1.05268 6.63847 1 6.50586 1H4.50586C4.37325 1 4.24607 1.05268 4.15231 1.14645C4.05854 1.24022 4.00586 1.36739 4.00586 1.5V2Z" fill="#131313"/>
<path d="M4.5 9.99997C4.36739 9.99997 4.24021 9.94729 4.14645 9.85352C4.05268 9.75976 4 9.63258 4 9.49997V5.99997C4 5.86736 4.05268 5.74018 4.14645 5.64642C4.24021 5.55265 4.36739 5.49997 4.5 5.49997C4.63261 5.49997 4.75979 5.55265 4.85355 5.64642C4.94732 5.74018 5 5.86736 5 5.99997V9.49997C5 9.63258 4.94732 9.75976 4.85355 9.85352C4.75979 9.94729 4.63261 9.99997 4.5 9.99997Z" fill="#131313"/>
<path d="M6.50195 10C6.36934 10 6.24217 9.94732 6.1484 9.85355C6.05463 9.75979 6.00195 9.63261 6.00195 9.5V6C6.00195 5.86739 6.05463 5.74021 6.1484 5.64645C6.24217 5.55268 6.36934 5.5 6.50195 5.5C6.63456 5.5 6.76174 5.55268 6.85551 5.64645C6.94928 5.74021 7.00195 5.86739 7.00195 6V9.5C7.00195 9.63261 6.94928 9.75979 6.85551 9.85355C6.76174 9.94732 6.63456 10 6.50195 10Z" fill="#131313"/>
</svg>
