<svg width="11" height="12" viewBox="0 0 11 12" fill="none" xmlns="http://www.w3.org/2000/svg">
<g id="Layer 2">
<path id="Vector" d="M6.9209 12H3.22859C2.61655 12 2.02958 11.7569 1.59681 11.3241C1.16403 10.8913 0.920898 10.3043 0.920898 9.69229V4.15383C0.920898 4.03142 0.969525 3.91403 1.05608 3.82747C1.14264 3.74092 1.26003 3.69229 1.38244 3.69229C1.50484 3.69229 1.62224 3.74092 1.70879 3.82747C1.79535 3.91403 1.84398 4.03142 1.84398 4.15383V9.69229C1.84398 10.0595 1.98985 10.4117 2.24952 10.6714C2.50919 10.931 2.86137 11.0769 3.22859 11.0769H6.9209C7.28812 11.0769 7.6403 10.931 7.89997 10.6714C8.15964 10.4117 8.30551 10.0595 8.30551 9.69229V4.15383C8.30551 4.03142 8.35414 3.91403 8.4407 3.82747C8.52725 3.74092 8.64465 3.69229 8.76705 3.69229C8.88946 3.69229 9.00686 3.74092 9.09341 3.82747C9.17997 3.91403 9.22859 4.03142 9.22859 4.15383V9.69229C9.22859 10.3043 8.98546 10.8913 8.55268 11.3241C8.11991 11.7569 7.53294 12 6.9209 12Z" fill="#FF4242"/>
<path id="Vector_2" d="M9.69231 2.76925H0.461539C0.339131 2.76925 0.221737 2.72062 0.135182 2.63406C0.0486263 2.54751 0 2.43011 0 2.30771C0 2.1853 0.0486263 2.06791 0.135182 1.98135C0.221737 1.89479 0.339131 1.84617 0.461539 1.84617H9.69231C9.81472 1.84617 9.93211 1.89479 10.0187 1.98135C10.1052 2.06791 10.1538 2.1853 10.1538 2.30771C10.1538 2.43011 10.1052 2.54751 10.0187 2.63406C9.93211 2.72062 9.81472 2.76925 9.69231 2.76925Z" fill="#FF4242"/>
<path id="Vector_3" d="M6.92631 2.76923H3.234C3.11159 2.76923 2.9942 2.72061 2.90764 2.63405C2.82109 2.54749 2.77246 2.4301 2.77246 2.30769V1.38462C2.77246 1.01739 2.91834 0.66521 3.17801 0.405545C3.43767 0.145879 3.78985 0 4.15708 0H6.00323C6.37045 0 6.72264 0.145879 6.9823 0.405545C7.24197 0.66521 7.38785 1.01739 7.38785 1.38462V2.30769C7.38785 2.4301 7.33922 2.54749 7.25267 2.63405C7.16611 2.72061 7.04872 2.76923 6.92631 2.76923ZM3.69554 1.84615H6.46477V1.38462C6.46477 1.26221 6.41614 1.14481 6.32959 1.05826C6.24303 0.971704 6.12564 0.923077 6.00323 0.923077H4.15708C4.03467 0.923077 3.91728 0.971704 3.83072 1.05826C3.74416 1.14481 3.69554 1.26221 3.69554 1.38462V1.84615Z" fill="#FF4242"/>
<path id="Vector_4" d="M4.1549 9.23073C4.03249 9.23073 3.9151 9.1821 3.82854 9.09555C3.74199 9.00899 3.69336 8.8916 3.69336 8.76919V5.53842C3.69336 5.41601 3.74199 5.29862 3.82854 5.21206C3.9151 5.12551 4.03249 5.07688 4.1549 5.07688C4.27731 5.07688 4.3947 5.12551 4.48125 5.21206C4.56781 5.29862 4.61644 5.41601 4.61644 5.53842V8.76919C4.61644 8.8916 4.56781 9.00899 4.48125 9.09555C4.3947 9.1821 4.27731 9.23073 4.1549 9.23073Z" fill="#FF4242"/>
<path id="Vector_5" d="M5.99962 9.23074C5.87722 9.23074 5.75982 9.18211 5.67327 9.09555C5.58671 9.009 5.53809 8.8916 5.53809 8.7692V5.53843C5.53809 5.41602 5.58671 5.29863 5.67327 5.21207C5.75982 5.12552 5.87722 5.07689 5.99962 5.07689C6.12203 5.07689 6.23943 5.12552 6.32598 5.21207C6.41254 5.29863 6.46116 5.41602 6.46116 5.53843V8.7692C6.46116 8.8916 6.41254 9.009 6.32598 9.09555C6.23943 9.18211 6.12203 9.23074 5.99962 9.23074Z" fill="#FF4242"/>
</g>
</svg>
