<svg width="14" height="19" viewBox="0 0 14 19" fill="none" xmlns="http://www.w3.org/2000/svg">
<g clip-path="url(#clip0_181_6259)">
<path d="M3.38466 1.96089C3.38466 1.8803 3.38466 1.81767 3.38466 1.75556C3.40674 1.26689 3.76965 0.908602 4.26704 0.89115C4.47801 0.88345 4.6895 0.89115 4.93434 0.89115C4.93434 0.788488 4.93178 0.694552 4.93434 0.602156C4.94666 0.218201 5.15661 0.00466403 5.53748 0.00363741C6.51277 0.000557551 7.48806 0.000557551 8.46335 0.00363741C8.84371 0.00363741 9.05365 0.218201 9.06597 0.602156C9.06905 0.690446 9.06597 0.778735 9.06597 0.890636C9.23023 0.890636 9.37396 0.900902 9.52128 0.890636C10.1562 0.839305 10.6434 1.19862 10.6228 1.96397H10.8241C11.5749 1.96397 12.3257 1.96397 13.0765 1.96397C13.6555 1.96397 14.0004 2.3048 14.0004 2.88792C14.0004 7.93239 14.0004 12.9769 14.0004 18.0213C14.0004 18.5993 13.6555 18.9386 13.0765 18.9386H0.92591C0.345357 18.9386 0.00195312 18.5978 0.00195312 18.0187C0.00195312 12.9743 0.00195312 7.92999 0.00195312 2.88587C0.00195312 2.30583 0.345357 1.96653 0.92591 1.96602C1.67021 1.96602 2.41451 1.96602 3.15881 1.96602L3.38466 1.96089ZM3.38466 2.55273H0.980834C0.652317 2.55273 0.597906 2.60663 0.597906 2.93104V17.9679C0.597906 18.2846 0.649237 18.338 0.966462 18.338H13.0364C13.3506 18.338 13.4024 18.2867 13.4024 17.9648V2.92847C13.4024 2.60663 13.3475 2.55273 13.0169 2.55273H10.6177C10.6177 2.83095 10.6177 3.08657 10.6177 3.3422C10.6177 3.60912 10.5114 3.71589 10.2425 3.71589C8.07973 3.71589 5.91733 3.71589 3.75527 3.71589C3.48835 3.71589 3.38672 3.6081 3.38466 3.33758C3.38261 3.08298 3.38415 2.82787 3.38415 2.55273H3.38466ZM9.06649 1.49018C9.06649 1.63442 9.07213 1.74992 9.06649 1.86438C9.05365 2.0733 8.94483 2.18366 8.73437 2.18418C7.57977 2.1876 6.42499 2.1876 5.27005 2.18418C5.0524 2.18418 4.94666 2.0692 4.93742 1.84591C4.93229 1.73246 4.93742 1.61902 4.93742 1.48659C4.72286 1.48659 4.53191 1.48659 4.34096 1.48659C4.07814 1.49018 3.98164 1.58309 3.98164 1.84591C3.97805 2.21754 3.98164 2.58969 3.98164 2.96133C3.98458 3.00937 3.99041 3.0572 3.99909 3.10454H10.0197C10.0197 2.64564 10.0253 2.19804 10.0197 1.75094C10.021 1.71669 10.0154 1.68252 10.003 1.65055C9.99061 1.61858 9.97182 1.58948 9.94778 1.56505C9.92373 1.54061 9.89493 1.52137 9.86316 1.50849C9.83139 1.49562 9.79732 1.48939 9.76305 1.49018C9.53719 1.48351 9.31236 1.49018 9.06597 1.49018H9.06649ZM5.54005 1.57539H8.45667V0.611397H5.53954L5.54005 1.57539Z" fill="black"/>
<path d="M6.98819 10.4376C6.39721 10.4341 5.82054 10.2555 5.33097 9.92446C4.84141 9.5934 4.46091 9.12472 4.23751 8.57758C4.01412 8.03044 3.95784 7.42937 4.0758 6.85027C4.19375 6.27117 4.48064 5.74001 4.90025 5.32384C5.31986 4.90767 5.85336 4.62515 6.43341 4.51197C7.01346 4.39878 7.61405 4.45999 8.15933 4.68788C8.70462 4.91577 9.17015 5.30011 9.49717 5.79238C9.82418 6.28465 9.99801 6.86278 9.9967 7.45377C9.99549 7.84735 9.91667 8.23683 9.76474 8.59991C9.61282 8.96299 9.39078 9.29254 9.11133 9.56969C8.83189 9.84685 8.50052 10.0662 8.1362 10.2151C7.77189 10.364 7.38177 10.4397 6.98819 10.4376ZM9.03784 8.68673C9.56039 7.95116 9.62198 6.53084 8.5466 5.6115C8.08106 5.21809 7.48311 5.01683 6.87444 5.04868C6.26576 5.08053 5.69209 5.34309 5.27015 5.78294C4.32925 6.75823 4.51764 8.13339 4.98372 8.70008C5.23436 8.32359 5.58609 8.02541 5.99853 7.83977C5.31891 7.04158 5.61612 6.17665 6.0745 5.78038C6.33286 5.55449 6.66497 5.43098 7.00814 5.43316C7.35132 5.43533 7.68183 5.56304 7.9373 5.79218C8.52299 6.32089 8.5502 7.07186 8.01635 7.82129C8.20012 7.94603 8.3962 8.0569 8.56457 8.1996C8.73293 8.3423 8.87717 8.51888 9.03784 8.68673ZM8.61025 9.21082C8.36797 8.60512 7.72787 8.23554 6.92249 8.23964C6.25981 8.24221 5.60996 8.6544 5.39026 9.21493C6.19462 10.0557 7.81411 10.0552 8.61025 9.21082ZM7.81103 6.83574C7.81184 6.67481 7.76475 6.51728 7.67576 6.3832C7.58677 6.24911 7.4599 6.14453 7.3113 6.08277C7.1627 6.021 6.99908 6.00484 6.84126 6.03634C6.68345 6.06783 6.53857 6.14557 6.42507 6.25966C6.31156 6.37374 6.23456 6.51901 6.20387 6.67699C6.17318 6.83496 6.19017 6.9985 6.2527 7.14678C6.31522 7.29507 6.42045 7.4214 6.55499 7.5097C6.68953 7.59801 6.84729 7.64429 7.00821 7.64266C7.22159 7.64185 7.42594 7.55644 7.57644 7.40517C7.72694 7.2539 7.8113 7.04912 7.81103 6.83574Z" fill="black"/>
<path d="M8.32989 11.7774H11.7721C11.8362 11.7731 11.9005 11.775 11.9641 11.783C12.1227 11.8138 12.2141 11.9139 12.21 12.0777C12.2059 12.2414 12.1161 12.3394 11.9533 12.3595C11.8958 12.3644 11.8381 12.3658 11.7804 12.3636H4.89431C4.84298 12.3636 4.79165 12.3636 4.74032 12.361C4.66615 12.3575 4.59611 12.3258 4.54453 12.2724C4.49296 12.219 4.46376 12.1479 4.46291 12.0736C4.46206 11.9994 4.48962 11.9276 4.53995 11.873C4.59028 11.8184 4.65957 11.7851 4.73365 11.7799C4.79127 11.7768 4.84901 11.7768 4.90663 11.7799L8.32989 11.7774Z" fill="black"/>
<path d="M8.32753 16.6143H11.7503C11.8209 16.6118 11.8915 16.6142 11.9618 16.6215C12.0301 16.6257 12.0942 16.6562 12.1405 16.7067C12.1868 16.7571 12.2118 16.8235 12.2102 16.892C12.2194 17.046 12.1368 17.1486 11.9915 17.1907C11.9225 17.2051 11.8519 17.2099 11.7816 17.2051H4.8976C4.83365 17.2094 4.76943 17.2065 4.70614 17.1964C4.55214 17.1594 4.45667 17.0573 4.4654 16.8951C4.47412 16.7329 4.56806 16.6384 4.73232 16.6189C4.79617 16.6138 4.86027 16.6122 4.92429 16.6143H8.32753Z" fill="black"/>
<path d="M8.33118 14.7838H4.88893C4.82503 14.789 4.76074 14.7864 4.69747 14.7761C4.54347 14.7381 4.45211 14.6319 4.46391 14.4681C4.46485 14.3993 4.49187 14.3335 4.53951 14.2838C4.58715 14.2342 4.65186 14.2045 4.72057 14.2007C4.77175 14.196 4.82319 14.1946 4.87456 14.1966H11.7955C11.8469 14.1947 11.8983 14.1959 11.9495 14.2002C12.1138 14.2197 12.2015 14.3177 12.2103 14.4799C12.2148 14.5545 12.1896 14.6278 12.1403 14.6838C12.0909 14.7399 12.0214 14.7742 11.9469 14.7792C11.8894 14.7836 11.8316 14.7846 11.7739 14.7823L8.33118 14.7838Z" fill="black"/>
<path d="M2.49147 11.9314C2.77225 11.6465 3.00991 11.4032 3.25066 11.1614C3.4103 11.0023 3.57815 10.9843 3.7075 11.106C3.84661 11.2363 3.83532 11.4093 3.67054 11.5762C3.36872 11.8821 3.06484 12.1861 2.75891 12.4883C2.58284 12.6613 2.43809 12.6582 2.25997 12.4852C2.13575 12.3646 2.01204 12.2429 1.89295 12.1177C1.76052 11.9786 1.75282 11.8097 1.86729 11.6881C1.99151 11.5577 2.15833 11.5592 2.30873 11.7024C2.37435 11.7749 2.43539 11.8513 2.49147 11.9314Z" fill="black"/>
<path d="M2.50245 14.3367C2.76578 14.0703 3.00344 13.8275 3.24419 13.5873C3.41563 13.4159 3.57989 13.3999 3.71335 13.536C3.84681 13.672 3.82885 13.8357 3.65945 14.0072C3.36653 14.3032 3.07171 14.598 2.77502 14.8916C2.57791 15.0867 2.43521 15.0831 2.23399 14.8844C2.11542 14.7669 1.99479 14.6519 1.88186 14.5292C1.75353 14.3906 1.75456 14.2156 1.87519 14.1006C1.99582 13.9856 2.15289 13.9846 2.28943 14.1068C2.36078 14.1694 2.42032 14.2443 2.50245 14.3367Z" fill="black"/>
<path d="M2.49329 16.7652C2.76689 16.4885 3.0066 16.2462 3.24426 16.007C3.4152 15.8366 3.57997 15.8197 3.71343 15.9531C3.84689 16.0866 3.82944 16.2519 3.6621 16.4223C3.36506 16.7231 3.06615 17.0224 2.76535 17.3201C2.58312 17.4997 2.43786 17.4972 2.25204 17.3165C2.12782 17.1959 2.0036 17.0752 1.88605 16.9485C1.75669 16.8093 1.75567 16.6353 1.87424 16.5193C1.99282 16.4033 2.16529 16.4049 2.30286 16.5352C2.37037 16.6085 2.43394 16.6852 2.49329 16.7652Z" fill="black"/>
</g>
<defs>
<clipPath id="clip0_181_6259">
<rect width="14" height="18.935" fill="white"/>
</clipPath>
</defs>
</svg>
