<svg width="8" height="6" viewBox="0 0 8 6" fill="none" xmlns="http://www.w3.org/2000/svg">
<path d="M3.48697 5.42739L0.153077 1.42672C0.0405791 1.29072 -0.0134399 1.11568 0.00284903 0.93993C0.019138 0.764182 0.104407 0.602052 0.239985 0.489042C0.375562 0.376032 0.550397 0.321353 0.726204 0.336979C0.902012 0.352605 1.06446 0.437263 1.17798 0.572412L3.99945 3.95839L6.82091 0.572412C6.93427 0.436742 7.09685 0.351617 7.27294 0.335737C7.44902 0.319857 7.62421 0.374521 7.76001 0.48772C7.89582 0.60092 7.98114 0.763398 7.99723 0.939462C8.01332 1.11553 7.95887 1.29078 7.84583 1.42672L4.51188 5.42739C4.44921 5.5024 4.37083 5.56275 4.28228 5.60415C4.19373 5.64556 4.09718 5.66702 3.99943 5.66702C3.90168 5.66702 3.80512 5.64556 3.71657 5.60415C3.62802 5.56275 3.54964 5.5024 3.48697 5.42739Z" fill="black"/>
</svg>
