<svg width="15" height="15" viewBox="0 0 15 15" fill="none" xmlns="http://www.w3.org/2000/svg">
<path d="M6.81472 2.37056H2.29216C1.94946 2.37056 1.62079 2.5067 1.37846 2.74902C1.13614 2.99135 1 3.32002 1 3.66272V12.7078C1 13.0505 1.13614 13.3792 1.37846 13.6215C1.62079 13.8639 1.94946 14 2.29216 14H11.3373C11.68 14 12.0086 13.8639 12.251 13.6215C12.4933 13.3792 12.6294 13.0505 12.6294 12.7078V8.18528" stroke="#131313" stroke-linecap="round" stroke-linejoin="round"/>
<path d="M11.6569 1.40142C11.9139 1.1444 12.2625 1 12.626 1C12.9895 1 13.3381 1.1444 13.5951 1.40142C13.8521 1.65845 13.9965 2.00705 13.9965 2.37054C13.9965 2.73403 13.8521 3.08264 13.5951 3.33966L7.45737 9.47742L4.87305 10.1235L5.51913 7.53918L11.6569 1.40142Z" stroke="#131313" stroke-linecap="round" stroke-linejoin="round"/>
</svg>
