<svg width="13" height="12" viewBox="0 0 13 12" fill="none" xmlns="http://www.w3.org/2000/svg">
<g clip-path="url(#clip0_171_55)">
<path d="M12.2445 5.66107V5.87662C12.1438 6.18113 11.9311 6.30676 11.6145 6.28731C11.42 6.27519 11.2239 6.28572 11.0287 6.28476C10.8125 6.28476 10.5884 6.31888 10.4168 6.12852C10.2673 6.51115 10.2708 7.0851 10.4232 7.44796C10.4339 7.46674 10.4484 7.48304 10.4658 7.49579C10.4832 7.50854 10.5032 7.51745 10.5243 7.52194C10.7532 7.56403 10.9139 7.68934 10.9768 7.9119C11.0086 8.02191 10.9956 8.14372 11.0039 8.26999L11.0676 8.27445C11.3913 8.29326 11.6173 8.50339 11.639 8.80599C11.6591 9.08691 11.4592 9.32318 11.1505 9.39301C11.1302 9.39986 11.1116 9.41101 11.096 9.4257C11.0803 9.44039 11.0681 9.45828 11.06 9.47815C10.9118 9.90305 10.9123 10.3657 11.0616 10.7903C11.0718 10.8135 11.0869 10.8343 11.1058 10.8513C11.1247 10.8683 11.147 10.8811 11.1713 10.8888C11.4675 10.9596 11.6642 11.2029 11.6384 11.4796C11.6094 11.7896 11.3721 11.9994 11.0463 11.9994C7.98244 11.9994 4.91851 11.9994 1.85447 11.9994C1.44675 11.999 1.05053 11.8642 0.727148 11.6159C0.403771 11.3675 0.171278 11.0195 0.0656652 10.6257C0.0404752 10.5345 0.0210248 10.4417 -0.000976562 10.3496V9.94273C0.00743066 9.92054 0.0144591 9.89786 0.0200684 9.87481C0.155903 9.09934 0.603583 8.59554 1.34749 8.3497C1.37555 8.34045 1.40329 8.32993 1.43964 8.31781C0.787566 7.80764 0.497403 7.15557 0.68585 6.35427C0.883224 5.5163 1.46132 5.05906 2.30726 4.91143V4.79345C2.30726 4.28327 2.3047 3.77309 2.30981 3.26292C2.30981 3.16917 2.27792 3.1325 2.1931 3.10349C1.62808 2.91217 1.06434 2.71639 0.500911 2.52061C0.300985 2.45142 0.202138 2.3261 0.201181 2.14977C0.200224 1.97344 0.299709 1.84781 0.498678 1.77862C1.45313 1.44679 2.40759 1.1155 3.36205 0.784731C3.3917 0.773049 3.42232 0.76398 3.45356 0.757628C3.55209 0.741685 3.6283 0.774528 3.66082 0.873694C3.69334 0.972859 3.65412 1.04556 3.56516 1.09148C3.52535 1.10977 3.48433 1.12532 3.4424 1.13803L0.679791 2.09461C0.641847 2.108 0.604859 2.12426 0.534391 2.15201L2.29705 2.76167C2.30439 2.71894 2.30949 2.69216 2.31331 2.66601C2.32302 2.56567 2.3664 2.47157 2.4364 2.39902C2.5064 2.32648 2.59889 2.27976 2.69882 2.26648C3.41299 2.14221 4.13376 2.05938 4.8575 2.0184C6.22297 1.94484 7.59238 2.02796 8.93892 2.26616C9.17073 2.30729 9.31039 2.46385 9.32952 2.69789C9.32952 2.71607 9.33558 2.73393 9.34036 2.76167L11.1033 2.15041C11.0428 2.12426 11.0185 2.11183 10.9933 2.10322C9.35099 1.53437 7.70844 0.965419 6.06567 0.396359C5.90339 0.337916 5.72562 0.339046 5.5641 0.399548C5.17828 0.536658 4.79054 0.669623 4.40313 0.802907C4.2641 0.850417 4.16558 0.811197 4.13082 0.698958C4.09606 0.586719 4.14995 0.512743 4.29025 0.463958C4.66236 0.3345 5.03702 0.212695 5.40626 0.0749474C5.67239 -0.0265979 5.96647 -0.0272783 6.23307 0.0730343C7.85926 0.639968 9.48662 1.20382 11.1151 1.76459C11.3613 1.84973 11.4369 1.95591 11.4372 2.21514C11.4372 2.58183 11.4391 2.94852 11.4372 3.31521C11.4372 3.38663 11.4503 3.42649 11.5249 3.45774C11.9604 3.63853 12.1125 4.13309 11.8638 4.53166C11.8431 4.56355 11.8208 4.61616 11.8319 4.64613C11.9649 4.987 12.1055 5.32371 12.2445 5.66107ZM7.5168 9.39174H2.20044C2.07704 9.39174 1.95332 9.38823 1.82992 9.39365C1.71605 9.39871 1.60486 9.42983 1.5049 9.48461C1.40494 9.53939 1.31888 9.61637 1.25334 9.70963C1.1878 9.80288 1.14453 9.90993 1.12685 10.0225C1.10918 10.1351 1.11757 10.2503 1.15139 10.3592C1.25247 10.6834 1.53561 10.8779 1.91123 10.8779C4.22297 10.8779 6.5346 10.8779 8.84613 10.8779C9.03075 10.8779 9.11653 10.9331 9.12035 11.0536C9.12418 11.1812 9.04191 11.2367 8.84581 11.2367H3.44208C2.90416 11.2367 2.36593 11.244 1.82801 11.2335C1.08889 11.2194 0.580306 10.4832 0.81722 9.78393C0.97665 9.31744 1.39276 9.03302 1.92303 9.03302C4.94009 9.03302 7.95715 9.03302 10.9742 9.03302C11.018 9.03526 11.0619 9.0343 11.1056 9.03015C11.1521 9.02652 11.1957 9.00571 11.2277 8.97176C11.2598 8.93782 11.2781 8.89316 11.279 8.84648C11.285 8.80006 11.2729 8.75313 11.2451 8.71543C11.2174 8.67773 11.1762 8.65215 11.1301 8.64401C11.0794 8.63406 11.0278 8.62999 10.9761 8.63189H1.93674C1.90103 8.63189 1.865 8.63189 1.82928 8.63348C1.01842 8.66537 0.375279 9.30532 0.359655 10.0916C0.353305 10.2935 0.387742 10.4946 0.460906 10.6829C0.53407 10.8712 0.644458 11.0428 0.785466 11.1874C0.926475 11.3321 1.09521 11.4468 1.28157 11.5247C1.46793 11.6027 1.6681 11.6422 1.8701 11.641C4.91904 11.6423 7.96799 11.6423 11.0169 11.641C11.0488 11.6431 11.0809 11.6421 11.1126 11.6378C11.2143 11.6161 11.2765 11.5504 11.2797 11.4465C11.2837 11.402 11.2712 11.3575 11.2446 11.3216C11.2179 11.2858 11.179 11.261 11.1352 11.252C11.0888 11.2414 11.0412 11.2369 10.9937 11.2386C10.5989 11.2386 10.2045 11.2386 9.81005 11.2386C9.6825 11.2386 9.61044 11.1748 9.60598 11.0699C9.60151 10.965 9.67676 10.885 9.8059 10.8818C9.96119 10.8776 10.1165 10.8818 10.2721 10.8818H10.7092C10.5569 10.4008 10.5549 9.88474 10.7035 9.40258H8.98165C8.97941 9.44817 8.97623 9.48707 8.97623 9.52598C8.97623 9.78904 8.97623 10.0524 8.97623 10.3155C8.97623 10.5655 8.88057 10.6276 8.64557 10.5352C8.54194 10.4944 8.44022 10.4475 8.33372 10.4153C8.27904 10.3995 8.221 10.3995 8.16632 10.4153C8.03878 10.4564 7.91506 10.5148 7.78751 10.56C7.63446 10.6146 7.52828 10.5403 7.51935 10.3767C7.5168 10.333 7.51935 10.289 7.51935 10.245L7.5168 9.39174ZM4.60975 6.03541V6.17379C4.60975 6.44483 4.61198 6.71586 4.60975 6.98689C4.60784 7.16609 4.48731 7.26015 4.33521 7.1782C4.02719 7.00985 3.73735 7.00666 3.42805 7.1782C3.27277 7.26334 3.15511 7.17183 3.15351 6.99295C3.15128 6.71809 3.15351 6.44291 3.15351 6.16805C3.15351 6.12596 3.15 6.08388 3.14841 6.04721C2.87323 6.04721 2.60858 6.0217 2.35126 6.05295C1.96544 6.09982 1.69632 6.50605 1.7636 6.88996C1.83088 7.27386 2.12551 7.51811 2.5311 7.52066C2.99759 7.52385 3.46376 7.52066 3.92994 7.52066C4.07374 7.52066 4.14995 7.58443 4.14899 7.69954C4.14804 7.81465 4.06992 7.8781 3.92771 7.87842C3.45324 7.87842 2.97878 7.88735 2.50495 7.87683C1.66124 7.8577 1.13704 7.00889 1.51648 6.27583C1.73586 5.85238 2.10414 5.66999 2.5751 5.66999C5.08963 5.67148 7.60428 5.67148 10.119 5.66999C10.1548 5.67218 10.1908 5.67165 10.2265 5.6684C10.2514 5.66457 10.288 5.65437 10.2954 5.63651C10.3441 5.52141 10.3865 5.40343 10.436 5.27333H2.58626C2.52663 5.27333 2.46669 5.27333 2.40706 5.2762C1.51425 5.31351 0.838584 6.18177 1.01906 7.05672C1.16988 7.7901 1.77093 8.27445 2.53333 8.27477C5.14352 8.27477 7.75382 8.27477 10.3642 8.27477C10.404 8.27686 10.444 8.27526 10.4835 8.26999C10.5868 8.2499 10.6429 8.18453 10.6448 8.07867C10.6488 8.03198 10.6343 7.98561 10.6045 7.94944C10.5747 7.91328 10.532 7.8902 10.4854 7.88512C10.4344 7.87815 10.3828 7.87591 10.3314 7.87842H4.92733C4.87564 7.8808 4.82383 7.87802 4.77269 7.87013C4.73164 7.86197 4.69487 7.83939 4.66901 7.80649C4.64316 7.77358 4.62992 7.73252 4.63169 7.69071C4.63346 7.6489 4.65012 7.6091 4.67867 7.5785C4.70722 7.5479 4.74577 7.52852 4.78735 7.52385C4.83497 7.51986 4.88277 7.51859 4.93052 7.52002H10.0607C9.91009 7.03705 9.90931 6.51979 10.0584 6.03636L4.60975 6.03541ZM8.97176 3.93603V3.79509C8.97176 3.46837 8.97176 3.14154 8.97176 2.8146C8.97176 2.63763 8.96762 2.63285 8.79033 2.60319C7.93808 2.45869 7.07651 2.37589 6.21234 2.35544C5.06934 2.33004 3.92661 2.41676 2.80053 2.61435C2.70009 2.63189 2.66757 2.67621 2.66821 2.77219C2.67108 3.13091 2.66821 3.48931 2.6698 3.84802C2.67214 3.87762 2.6765 3.90703 2.68287 3.93603H6.91639C6.95624 3.93603 6.9961 3.93603 7.03596 3.93603C7.138 3.94368 7.19698 3.9998 7.20623 4.10184C7.20824 4.12473 7.20571 4.1478 7.19877 4.16971C7.19184 4.19163 7.18064 4.21195 7.16583 4.22953C7.15101 4.2471 7.13287 4.26157 7.11244 4.2721C7.09201 4.28264 7.06971 4.28904 7.0468 4.29092C7.00714 4.29422 6.9673 4.29497 6.92755 4.29315H2.66725C2.66725 4.46119 2.67554 4.61201 2.6647 4.76315C2.65609 4.88464 2.69435 4.91525 2.81648 4.91493C4.82041 4.91111 6.82455 4.91015 8.82891 4.91206H8.9622V4.29889C8.93031 4.29889 8.90576 4.29507 8.88216 4.29507C8.5515 4.29507 8.22085 4.29507 7.89019 4.29507C7.76838 4.29507 7.69281 4.22205 7.69185 4.11778C7.6909 4.01351 7.76424 3.94113 7.88604 3.93826C8.00785 3.93539 8.13316 3.93826 8.25656 3.93826L8.97176 3.93603ZM9.33048 4.91302C9.6943 4.91302 10.0403 4.91525 10.3859 4.91302C10.634 4.91079 10.5632 4.95447 10.6595 4.7217C10.6805 4.67132 10.6914 4.59416 10.6665 4.55111C10.4089 4.12193 10.5524 3.65256 11.0064 3.4469C11.0256 3.43474 11.0417 3.41836 11.0536 3.39902C11.0655 3.37968 11.0728 3.35789 11.075 3.3353C11.0813 3.10062 11.0785 2.86562 11.0778 2.63062C11.0758 2.60162 11.0721 2.57276 11.0667 2.5442C10.501 2.73998 9.94524 2.93098 9.3917 3.12772C9.36237 3.13824 9.33367 3.19787 9.33303 3.23518C9.32825 3.53777 9.33048 3.84101 9.33048 4.14297V4.91302ZM11.0013 4.84096C10.8875 5.12123 10.7669 5.41108 10.6525 5.70188C10.6066 5.8189 10.6608 5.91902 10.7736 5.92094C11.096 5.92668 11.4187 5.92604 11.7414 5.92094C11.7647 5.92205 11.7879 5.91726 11.8089 5.90701C11.8299 5.89676 11.8479 5.88139 11.8614 5.86231C11.8748 5.84324 11.8832 5.82107 11.8858 5.79788C11.8884 5.77468 11.8851 5.75121 11.8763 5.72962C11.7592 5.42607 11.6342 5.12379 11.5182 4.83904L11.0013 4.84096ZM7.88158 10.1605C8.13061 9.97111 8.36688 9.99088 8.60603 10.1411V9.40066H7.88158V10.1605ZM3.51606 6.77357C3.76062 6.60394 4.00072 6.61765 4.24433 6.76942V6.03605H3.51606V6.77357ZM11.2542 3.76512C11.1569 3.7666 11.0642 3.80665 10.9965 3.87647C10.9288 3.94628 10.8916 4.04014 10.8931 4.13739C10.8945 4.23464 10.9346 4.32732 11.0044 4.39505C11.0742 4.46277 11.1681 4.49998 11.2653 4.4985C11.3626 4.49702 11.4553 4.45697 11.523 4.38715C11.5907 4.31734 11.6279 4.22348 11.6264 4.12623C11.625 4.02898 11.5849 3.9363 11.5151 3.86858C11.4453 3.80085 11.3514 3.76364 11.2542 3.76512Z" fill="black"/>
</g>
<defs>
<clipPath id="clip0_171_55">
<rect width="12.2442" height="12" fill="white"/>
</clipPath>
</defs>
</svg>
