<svg width="26" height="26" viewBox="0 0 26 26" fill="none" xmlns="http://www.w3.org/2000/svg">
<path d="M23.8333 0H12.4583C10.3675 0 8.66667 1.70083 8.66667 3.79167V16.7917C8.66667 18.8825 10.3675 20.5833 12.4583 20.5833H26V2.16667C26 0.97175 25.0283 0 23.8333 0ZM12.4583 2.16667H23.8333V13H12.4583C11.8777 13 11.3263 13.1322 10.8333 13.3662V3.79167C10.8333 2.89575 11.5624 2.16667 12.4583 2.16667ZM12.4583 18.4167C11.5624 18.4167 10.8333 17.6876 10.8333 16.7917C10.8333 15.8958 11.5624 15.1667 12.4583 15.1667H23.8333V18.4167H12.4583ZM15.1667 22.75H17.3333V26H3.79167C1.70083 26 0 24.2992 0 22.2083V9.20833C0 7.1175 1.70083 5.41667 3.79167 5.41667H6.5V7.58333H3.79167C2.89575 7.58333 2.16667 8.31242 2.16667 9.20833V18.7828C2.65958 18.5478 3.211 18.4167 3.79167 18.4167H6.73075C6.95933 19.2194 7.34717 19.9561 7.86608 20.5833H3.79167C2.89575 20.5833 2.16667 21.3124 2.16667 22.2083C2.16667 23.1042 2.89575 23.8333 3.79167 23.8333H15.1667V22.75Z" fill="black"/>
</svg>
