<svg width="50" height="50" viewBox="0 0 50 50" fill="none" xmlns="http://www.w3.org/2000/svg">
<circle cx="25" cy="25" r="25" fill="#F6DEB9"/>
<g clip-path="url(#clip0_171_249)">
<path d="M36 18.2371V33.4228C35.9878 33.4416 35.9783 33.4621 35.9719 33.4836C35.8307 34.4963 34.9592 35.2238 33.875 35.2226C27.6242 35.2163 21.3733 35.2144 15.1222 35.217C14.9204 35.2196 14.7191 35.1955 14.5236 35.1456C13.5502 34.8772 13.0006 34.116 13 33.056C13 28.2122 13 23.3686 13 18.5251C13 17.9417 13.2453 17.7003 13.8372 17.7003H19.783C19.783 17.4691 19.783 17.2744 19.783 17.0814C19.801 15.8831 20.6601 15.0149 21.8591 15.0087C23.6178 14.9997 25.3777 14.9964 27.1364 15.0161C27.457 15.0202 27.7732 15.0911 28.0648 15.2242C28.8356 15.5854 29.19 16.2369 29.2153 17.0781C29.221 17.284 29.2153 17.4899 29.2153 17.702H29.5208C31.3927 17.702 33.264 17.7093 35.1358 17.6964C35.5623 17.6913 35.8633 17.8179 36 18.2371ZM21.131 27.1338H17.4813C16.4202 27.1338 15.7147 26.6235 15.3788 25.6147C15.0757 24.7097 14.7741 23.8027 14.4741 22.8939C14.4465 22.8129 14.4178 22.733 14.3852 22.6525L14.3497 22.6593V33.0239C14.3497 33.6383 14.5866 33.8718 15.2094 33.8718H33.8007C34.4196 33.8718 34.6525 33.636 34.6525 33.0166V22.6587C34.606 22.7011 34.5728 22.756 34.5569 22.8168C34.2444 23.7526 33.932 24.6883 33.6195 25.6237C33.2865 26.619 32.5781 27.1327 31.5333 27.1333C30.3957 27.1333 29.2579 27.1333 28.1199 27.1333H27.869C27.869 27.3639 27.869 27.5653 27.869 27.7662C27.8611 28.1938 27.591 28.4779 27.1691 28.4785C25.3874 28.483 23.6058 28.483 21.8242 28.4785C21.4135 28.4785 21.1417 28.1972 21.1321 27.7808C21.1271 27.5766 21.131 27.3656 21.131 27.1338ZM14.6215 19.0574C14.6344 19.1052 14.6417 19.1406 14.6535 19.1744C15.3287 21.2021 16.0038 23.2296 16.679 25.2569C16.8073 25.6389 17.0256 25.7846 17.4413 25.7858C18.609 25.7858 19.7766 25.7858 20.9442 25.7858C21.0005 25.7858 21.0568 25.7768 21.1288 25.7706C21.1288 25.5641 21.1288 25.37 21.1288 25.177C21.1344 24.7112 21.4045 24.4405 21.8737 24.44C23.6253 24.4377 25.3768 24.4377 27.128 24.44C27.5944 24.44 27.8594 24.714 27.8667 25.1826C27.8667 25.3812 27.8667 25.5799 27.8667 25.7869H31.4675C32.0031 25.7869 32.1843 25.6558 32.3536 25.1466C32.8292 23.7213 33.3045 22.296 33.7793 20.8707C33.9796 20.2698 34.1782 19.6684 34.3808 19.0568L14.6215 19.0574ZM21.131 17.6885H27.869C27.869 17.4697 27.8729 17.2615 27.869 17.0544C27.8594 16.6319 27.5843 16.3607 27.1578 16.3534C26.9108 16.3489 26.6638 16.3534 26.4174 16.3534C24.9066 16.3534 23.3958 16.3534 21.8849 16.3534C21.4033 16.3534 21.1366 16.6229 21.1321 17.1034C21.1293 17.2902 21.131 17.477 21.131 17.6885ZM22.4892 27.1186H26.5035V25.7976H22.4892V27.1186Z" fill="#8F5700"/>
</g>
<defs>
<clipPath id="clip0_171_249">
<rect width="23" height="20.2223" fill="white" transform="translate(13 15)"/>
</clipPath>
</defs>
</svg>
