<svg width="24" height="26" viewBox="0 0 24 26" fill="none" xmlns="http://www.w3.org/2000/svg">
<g clip-path="url(#clip0_207_2937)">
<path d="M11.1868 0H12.304C12.3768 0.0199101 12.4507 0.0355103 12.5254 0.0467189C15.7266 0.366302 18.3876 3.14302 18.5514 6.34359C18.5505 6.42635 18.57 6.50805 18.6082 6.58149C18.6463 6.65493 18.7019 6.71787 18.7701 6.76474C20.1825 7.84198 21.5834 8.93547 22.9999 10.008C23.3418 10.2666 23.4914 10.5632 23.4908 10.9965C23.4799 15.6594 23.4799 20.3222 23.4908 24.9851C23.4908 25.48 23.3222 25.8131 22.8658 26.0007H0.622269C0.225498 25.826 -0.00064774 25.5558 2.93432e-05 25.0886C0.00770295 20.3585 0.00770295 15.6284 2.93432e-05 10.8983C-0.00635551 10.7382 0.0274783 10.579 0.0984428 10.4353C0.169407 10.2916 0.275241 10.168 0.406279 10.0757C1.84982 8.96932 3.28591 7.85349 4.72878 6.74578C4.79044 6.70417 4.84111 6.64827 4.87648 6.58283C4.91185 6.5174 4.93087 6.44437 4.9319 6.37C5.08425 3.63864 6.9855 1.18083 9.60378 0.354791C10.1184 0.192968 10.66 0.115781 11.1868 0ZM6.53456 6.82771C6.52711 9.68839 8.86102 12.0304 11.7271 12.0413C12.4122 12.0434 13.091 11.9105 13.7247 11.6501C14.3584 11.3897 14.9346 11.007 15.4203 10.5238C15.906 10.0406 16.2917 9.46646 16.5554 8.83411C16.819 8.20176 16.9555 7.52365 16.9569 6.83854C16.9637 3.97854 14.6264 1.63245 11.7644 1.625C10.3811 1.62194 9.05319 2.16824 8.07253 3.14382C7.09187 4.1194 6.53869 5.44444 6.53456 6.82771ZM11.7359 17.5473L3.15795 24.354H20.3152L11.7359 17.5473ZM5.10795 8.50552L2.12269 10.8117C2.14018 10.8354 2.15918 10.858 2.17956 10.8794C4.68116 12.8844 7.18253 14.8902 9.68368 16.8966C9.79675 16.9873 9.86852 16.9643 9.9667 16.8824C10.3479 16.573 10.7325 16.269 11.1177 15.9663C11.5809 15.6027 11.9004 15.6054 12.3683 15.9737C12.8118 16.3238 13.2539 16.6752 13.7035 17.0314L21.3681 10.809L18.3788 8.51229C17.5209 11.6675 14.7604 13.6358 11.8145 13.6669C8.82784 13.6987 5.96987 11.7135 5.10795 8.50552ZM1.65482 12.5436V23.4745L8.51232 18.0334C6.2143 16.1972 3.94675 14.3813 1.65482 12.5436ZM15.0089 18.0666L21.8475 23.4894V12.5206L15.0089 18.0666Z" fill="black"/>
<path d="M14 6.25C14 6.52609 13.7761 6.75 13.5 6.75H12.9377C12.7296 7.65922 11.9747 8.3625 11.0346 8.48125L13.2892 10.0922C13.5141 10.2528 13.5661 10.5652 13.4057 10.7897C13.3094 10.9266 13.1422 11 12.986 11C12.8854 11 12.7838 10.9697 12.6958 10.907L9.19596 8.40698C9.03265 8.26719 8.9577 8.05469 9.0241 7.84688C9.09027 7.62656 9.28283 7.5 9.50016 7.5H10.7501C11.2613 7.5 11.7007 7.19063 11.8941 6.75H9.50016C9.22408 6.75 9.00018 6.52609 9.00018 6.25C9.00018 5.97391 9.22408 5.75 9.50016 5.75H11.8938C11.7001 5.30937 11.261 5 10.7501 5H9.50016C9.22408 5 9.00018 4.77609 9.00018 4.5C9.00018 4.22391 9.22408 4 9.50016 4H13.5C13.7761 4 14 4.22391 14 4.5C14 4.77609 13.7761 5 13.5 5H12.6191C12.7697 5.22437 12.8764 5.47859 12.9385 5.75H13.5C13.7765 5.75 14 5.97344 14 6.25Z" fill="black"/>
</g>
<defs>
<clipPath id="clip0_207_2937">
<rect width="23.4928" height="26" fill="white"/>
</clipPath>
</defs>
</svg>
