<svg width="13" height="16" viewBox="0 0 13 16" fill="none" xmlns="http://www.w3.org/2000/svg">
<path d="M6.50068 12.0216L5.0278 13.3168C4.14877 14.0892 3.27245 14.8674 2.38891 15.6361C1.97737 15.9941 1.49995 16.0904 0.981916 15.9141C0.371377 15.7097 0 15.1759 0 14.5135C0 11.8558 0 9.19803 0 6.54029C0 5.11526 0 3.68993 0 2.2643C0 0.946788 0.942657 0.000454313 2.25218 0C5.08421 0 7.91639 0 10.7487 0C12.0601 0 13 0.946788 13 2.2652C13 6.34282 13 10.4203 13 14.4976C13 15.3108 12.4513 15.921 11.6517 15.9891C11.2455 16.0241 10.8877 15.8851 10.58 15.6138C9.43018 14.5998 8.2801 13.5864 7.12972 12.5736L6.50068 12.0216ZM1.4467 14.5285C1.52071 14.469 1.56448 14.4376 1.60554 14.3999C2.89671 13.2632 4.18713 12.1264 5.47679 10.9894C6.11441 10.426 6.88514 10.426 7.52411 10.9894C8.80896 12.124 10.095 13.257 11.3823 14.3886C11.4306 14.4308 11.4811 14.4699 11.5497 14.5248C11.5538 14.4472 11.5587 14.4026 11.5587 14.3577C11.5569 10.3143 11.5545 6.27088 11.5515 2.2275C11.5515 1.75001 11.2519 1.45517 10.7753 1.45517C7.92617 1.45517 5.07699 1.45517 2.22781 1.45517C2.16026 1.45316 2.09268 1.45803 2.0261 1.4697C1.65834 1.54648 1.44715 1.83315 1.44715 2.25566C1.44715 6.28785 1.44715 10.32 1.44715 14.3522L1.4467 14.5285Z" fill="#286BFF"/>
<path d="M11.2569 1.33333H1.32434V15.3333L6.62169 10.6666L11.919 15.3333V2.66667C11.919 1.06667 11.4776 1.11111 11.2569 1.33333Z" fill="#286BFF"/>
</svg>
