<svg width="12" height="12" viewBox="0 0 12 12" fill="none" xmlns="http://www.w3.org/2000/svg">
<g clip-path="url(#clip0_166_1279)">
<path d="M6.35527 12H5.6522C5.61786 11.9932 5.5841 11.985 5.54975 11.9797C5.22244 11.929 4.88984 11.9017 4.56869 11.8247C1.48899 11.087 -0.494868 7.99237 0.107803 4.87832C0.358207 3.58315 0.963227 2.47908 1.93725 1.59049C3.32694 0.324967 4.9691 -0.17995 6.82995 0.0566569C8.01533 0.207251 9.06098 0.693675 9.95515 1.48452C11.0099 2.41626 11.6695 3.57552 11.9123 4.96551C11.9516 5.19096 11.9742 5.41935 12.0045 5.64656V6.35109C11.9971 6.39249 11.9886 6.43358 11.983 6.47527C11.9537 6.69162 11.9375 6.91032 11.897 7.12462C11.6819 8.29658 11.1146 9.37511 10.2707 10.2164C9.37391 11.1217 8.29656 11.6918 7.03779 11.9087C6.81175 11.9466 6.58278 11.9695 6.35527 12ZM5.64398 5.64157V3.8773L3.62197 3.73727C3.4742 4.36183 3.39137 4.99998 3.37479 5.64157H5.64398ZM6.36114 5.63981H8.63268C8.61671 5.00397 8.53486 4.37149 8.38844 3.75253L6.36114 3.88023V5.63981ZM2.63532 5.63981C2.72163 4.96013 2.80657 4.29062 2.89013 3.63129C2.44128 3.51798 1.98011 3.40056 1.51952 3.28959C1.49163 3.28284 1.43673 3.31895 1.41853 3.34977C1.01038 4.04789 0.772343 4.8323 0.723685 5.63951L2.63532 5.63981ZM11.2853 6.35697H9.3698C9.2835 7.02451 9.19846 7.68355 9.1147 8.33407L10.5737 8.67812C10.9903 7.97122 11.2341 7.17592 11.2853 6.35697ZM11.2853 5.63951C11.2345 4.82195 10.9911 4.02798 10.5749 3.32247L9.12087 3.64715C9.20365 4.30794 9.28731 4.97343 9.37127 5.63981L11.2853 5.63951ZM8.63209 6.35843H6.36408V8.08337L8.38375 8.22222C8.52939 7.61096 8.61269 6.9865 8.63239 6.35843H8.63209ZM3.37391 6.35843C3.39886 6.99281 3.47313 7.61221 3.62109 8.20989L5.64663 8.08396V6.35697L3.37391 6.35843ZM2.88896 8.32144C2.805 7.66153 2.72192 7.01072 2.63914 6.36019H0.721924C0.771239 7.14798 1.0004 7.914 1.39182 8.59944C1.40679 8.62616 1.46844 8.64612 1.5019 8.63907C1.6387 8.60972 1.77197 8.56334 1.90877 8.53281C2.23902 8.45707 2.57045 8.38838 2.88925 8.31998L2.88896 8.32144ZM6.35909 3.16982L8.20615 3.05827C8.0714 2.75356 7.96073 2.47468 7.82687 2.20696C7.61404 1.78159 7.34661 1.39381 6.97556 1.08763C6.79414 0.938207 6.59687 0.816675 6.35909 0.756789V3.16982ZM5.64604 11.1989V8.79172L3.82981 8.90004C3.9804 9.49009 4.44246 10.298 4.86958 10.7201C5.08828 10.937 5.33516 11.1102 5.64604 11.1989ZM3.81483 3.04565L5.64604 3.16718V0.734479C4.60861 1.17481 4.20203 2.07955 3.81483 3.04565ZM8.18501 8.91296L6.36173 8.79348V11.1983C6.59609 11.132 6.81224 11.0131 6.99376 10.8507C7.58557 10.3385 7.90906 9.65918 8.18501 8.91296ZM3.0874 9.00103L1.83538 9.26523C2.45185 10.0308 3.18574 10.5818 4.07287 10.9309C3.88558 10.6182 3.68743 10.3235 3.52685 10.0097C3.36422 9.69265 3.23888 9.35506 3.0874 9.00191V9.00103ZM7.92756 10.9182C8.81146 10.5859 9.5383 10.0443 10.1501 9.29165L8.89336 9.01747C8.66262 9.70909 8.36202 10.3467 7.92756 10.9191V10.9182ZM7.95691 1.0841C8.38257 1.65214 8.67848 2.28358 8.90246 2.96463L10.1515 2.70219C9.54153 1.95802 8.82526 1.41964 7.95662 1.0844L7.95691 1.0841ZM3.11323 2.94349C3.33399 2.26332 3.63342 1.64538 4.04733 1.0841C3.18926 1.41905 2.47886 1.94599 1.88206 2.67107L3.11323 2.94349Z" fill="#445479"/>
</g>
<defs>
<clipPath id="clip0_166_1279">
<rect width="12.0044" height="12" fill="white"/>
</clipPath>
</defs>
</svg>
