<svg width="28" height="28" viewBox="0 0 28 28" fill="none" xmlns="http://www.w3.org/2000/svg">
<g id="Group 43809">
<circle id="Ellipse 19" cx="14" cy="14" r="14" fill="white"/>
<g id="Vector">
<path d="M13.9086 17.0162L12.7965 17.9876C12.1327 18.5669 11.471 19.1505 10.8039 19.7271C10.4931 19.9956 10.1326 20.0678 9.74144 19.9356C9.28043 19.7823 9 19.3819 9 18.8851C9 16.8918 9 14.8985 9 12.9052C9 11.8364 9 10.7674 9 9.69822C9 8.71009 9.7118 8.00034 10.7006 8C12.8391 8 14.9776 8 17.1163 8C18.1065 8 18.8162 8.71009 18.8162 9.6989C18.8162 12.7571 18.8162 15.8152 18.8162 18.8732C18.8162 19.4831 18.4019 19.9407 17.7981 19.9918C17.4915 20.0181 17.2213 19.9138 16.9889 19.7104C16.1207 18.9499 15.2523 18.1898 14.3836 17.4302L13.9086 17.0162ZM10.0924 18.8964C10.1483 18.8517 10.1813 18.8282 10.2123 18.7999C11.1873 17.9474 12.1617 17.0948 13.1355 16.242C13.617 15.8195 14.1989 15.8195 14.6814 16.242C15.6516 17.093 16.6227 17.9428 17.5947 18.7914C17.6312 18.8231 17.6693 18.8524 17.7211 18.8936C17.7242 18.8354 17.7279 18.802 17.7279 18.7682C17.7266 15.7357 17.7247 12.7032 17.7225 9.67062C17.7225 9.31251 17.4962 9.09137 17.1364 9.09137C14.985 9.09137 12.8336 9.09137 10.6822 9.09137C10.6312 9.08987 10.5802 9.09352 10.5299 9.10228C10.2522 9.15986 10.0927 9.37487 10.0927 9.69175C10.0927 12.7159 10.0927 15.74 10.0927 18.7642L10.0924 18.8964Z" fill="#286BFF"/>
<path d="M17.5 9H10V19.5L14 16L18 19.5V10C18 8.8 17.6667 8.83333 17.5 9Z" fill="#286BFF"/>
</g>
</g>
</svg>
