<svg width="34" height="34" viewBox="0 0 34 34" fill="none" xmlns="http://www.w3.org/2000/svg">
<g filter="url(#filter0_d_205_1491)">
<ellipse cx="17" cy="17" rx="13" ry="13" fill="#286BFF"/>
<path d="M29.75 17C29.75 24.0416 24.0416 29.75 17 29.75C9.95837 29.75 4.25 24.0416 4.25 17C4.25 9.95837 9.95837 4.25 17 4.25C24.0416 4.25 29.75 9.95837 29.75 17Z" stroke="white" stroke-width="0.5"/>
</g>
<g clip-path="url(#clip0_205_1491)">
<path d="M18.2285 18.5235C18.2285 18.6919 18.0922 18.8282 17.9238 18.8282H16.0957C15.9281 18.8282 15.791 18.6911 15.791 18.5235V17.6094H12.1348V20.3516C12.1348 20.8391 12.5615 21.2657 13.0488 21.2657H20.9707C21.458 21.2657 21.8848 20.8389 21.8848 20.3516V17.6094H18.2285V18.5235ZM20.9707 13.9532H19.4473V13.0391C19.4473 12.5518 19.0207 12.125 18.5332 12.125H15.4863C14.9988 12.125 14.5723 12.5518 14.5723 13.0391V13.9532H13.0488C12.5615 13.9532 12.1348 14.3797 12.1348 14.8672V17H21.8848V14.8672C21.8848 14.3797 21.4582 13.9532 20.9707 13.9532ZM18.5332 13.9532H15.4863V13.0391H18.5332V13.9532Z" fill="white"/>
</g>
<defs>
<filter id="filter0_d_205_1491" x="0" y="0" width="34" height="34" filterUnits="userSpaceOnUse" color-interpolation-filters="sRGB">
<feFlood flood-opacity="0" result="BackgroundImageFix"/>
<feColorMatrix in="SourceAlpha" type="matrix" values="0 0 0 0 0 0 0 0 0 0 0 0 0 0 0 0 0 0 127 0" result="hardAlpha"/>
<feOffset/>
<feGaussianBlur stdDeviation="2"/>
<feComposite in2="hardAlpha" operator="out"/>
<feColorMatrix type="matrix" values="0 0 0 0 0 0 0 0 0 0 0 0 0 0 0 0 0 0 0.25 0"/>
<feBlend mode="normal" in2="BackgroundImageFix" result="effect1_dropShadow_205_1491"/>
<feBlend mode="normal" in="SourceGraphic" in2="effect1_dropShadow_205_1491" result="shape"/>
</filter>
<clipPath id="clip0_205_1491">
<rect width="9.75" height="9.75001" fill="white" transform="translate(12.1348 12.125)"/>
</clipPath>
</defs>
</svg>
