<svg width="12" height="11" viewBox="0 0 12 11" fill="none" xmlns="http://www.w3.org/2000/svg">
<g clip-path="url(#clip0_166_1276)">
<path d="M12.0001 3.63168V9.30322C11.9929 9.31203 11.987 9.32194 11.9828 9.33257C11.8182 10.1574 11.2402 10.6338 10.3998 10.6338C7.46651 10.6338 4.53319 10.6338 1.59987 10.6338C1.4749 10.6355 1.35005 10.6251 1.22709 10.6027C0.497382 10.4591 0.00190793 9.84713 0.00132087 9.08748C-0.000440292 7.3492 -0.000440292 5.61103 0.00132087 3.87296C0.00250072 3.7676 0.0101468 3.66242 0.024216 3.558C0.129592 2.7188 0.894232 2.01463 1.74047 1.99291C2.30639 1.97853 2.8732 1.98704 3.43941 1.98528H3.58764V1.84527C3.58764 1.55174 3.58764 1.25821 3.58764 0.966444C3.5894 0.400816 3.95279 0.0136528 4.51607 0.00836932C5.50448 -0.00102357 6.49269 -0.00102357 7.4807 0.00836932C8.04427 0.0133593 8.40884 0.399935 8.41089 0.964976C8.41089 1.26173 8.41089 1.55878 8.41089 1.85554C8.41089 1.89634 8.41471 1.93743 8.41706 1.98557H8.56939C9.11624 1.98557 9.66337 1.97589 10.2099 1.99174C11.072 2.01669 11.77 2.60814 11.957 3.45292C11.972 3.51162 11.9864 3.5718 12.0001 3.63168ZM0.704907 5.83666V6.41872C0.704907 7.29343 0.704907 8.16824 0.704907 9.04315C0.704907 9.59029 1.04011 9.92374 1.58872 9.92785C1.89311 9.92785 2.19779 9.92785 2.50247 9.92785C5.13483 9.92785 7.76679 9.92785 10.3984 9.92785C10.9619 9.92785 11.2942 9.5944 11.2942 9.0317C11.2942 8.00847 11.2942 6.98523 11.2942 5.96199V5.85104C11.1225 5.91151 10.9687 5.98049 10.8078 6.02041C9.74086 6.28458 8.67213 6.54435 7.60398 6.80588C7.51328 6.8279 7.39117 6.82731 7.34274 6.88602C7.29431 6.94472 7.32161 7.06213 7.31779 7.15577C7.29842 7.64068 6.96321 7.98029 6.48505 7.98939C6.16217 7.99555 5.83665 7.99614 5.5126 7.98939C5.16623 7.98205 4.89619 7.82677 4.76175 7.50536C4.69718 7.34979 4.69366 7.16516 4.68338 6.99227C4.6781 6.89981 4.64933 6.86576 4.56597 6.84551C3.78489 6.65795 3.00264 6.47537 2.22509 6.27401C1.72169 6.1431 1.19774 6.0794 0.704907 5.83666ZM7.3583 6.13517C7.34979 6.13517 7.36945 6.13723 7.38765 6.13253C8.48584 5.86386 9.58373 5.59459 10.6813 5.32474C11.0453 5.23463 11.2816 4.93964 11.293 4.56157C11.301 4.30004 11.301 4.03792 11.293 3.77668C11.2849 3.54865 11.2048 3.32906 11.0641 3.14941C10.8152 2.82653 10.4826 2.68593 10.077 2.68652C7.87491 2.68906 5.67277 2.68955 3.47053 2.68798C2.93161 2.68798 2.39269 2.68211 1.85377 2.68975C1.20214 2.7009 0.711071 3.1999 0.705494 3.85006C0.703145 4.06874 0.703732 4.28742 0.705494 4.50609C0.709016 4.93846 0.948241 5.23991 1.36622 5.3403C2.22215 5.5491 3.07798 5.75819 3.93371 5.96757C4.17881 6.02627 4.42449 6.08498 4.67311 6.14574C4.67986 6.11962 4.68543 6.10523 4.68749 6.09026C4.74884 5.64439 5.06908 5.35292 5.5214 5.3447C5.84164 5.33883 6.16188 5.34001 6.48182 5.3447C6.75451 5.34881 6.99286 5.44714 7.14696 5.6758C7.23737 5.81024 7.28609 5.97344 7.3583 6.13517ZM7.7073 1.97677C7.7073 1.62688 7.7073 1.29138 7.7073 0.955877C7.7073 0.776825 7.64067 0.710195 7.45692 0.709901C6.48476 0.708727 5.51269 0.708727 4.54073 0.709901C4.35815 0.709901 4.29475 0.777119 4.29416 0.9594C4.29416 1.2679 4.29416 1.57581 4.29416 1.88489C4.29578 1.91558 4.29911 1.94616 4.30414 1.97647L7.7073 1.97677ZM6.61421 6.67321C6.61421 6.51676 6.61244 6.3606 6.61421 6.20357C6.61421 6.09467 6.56196 6.04653 6.45688 6.04682H5.54342C5.43833 6.04682 5.3855 6.09496 5.38609 6.20386C5.38785 6.51226 5.38785 6.82076 5.38609 7.12935C5.38609 7.23796 5.43804 7.2858 5.54371 7.28551C5.84839 7.28551 6.15298 7.28551 6.45746 7.28551C6.56343 7.28551 6.61626 7.23796 6.61479 7.12906C6.61245 6.97789 6.61421 6.82555 6.61421 6.6735V6.67321Z" fill="#445479"/>
</g>
<defs>
<clipPath id="clip0_166_1276">
<rect width="12" height="10.6336" fill="white"/>
</clipPath>
</defs>
</svg>
