<svg width="12" height="16" viewBox="0 0 12 16" fill="none" xmlns="http://www.w3.org/2000/svg">
<g clip-path="url(#clip0_171_14)">
<path d="M9.95768 12.222C10.0729 12.3337 10.2202 12.4727 10.3632 12.618C10.5061 12.7633 10.5006 12.877 10.3632 13.0168C9.98328 13.3998 9.60167 13.7813 9.21834 14.1612C9.07855 14.3002 8.96055 14.3002 8.82234 14.1612C8.68414 14.0222 8.53643 13.8709 8.39031 13.7216C8.30239 13.7692 8.22795 13.8175 8.14716 13.8511C7.85095 13.9735 7.55672 14.1034 7.25339 14.2052C7.12429 14.2483 7.08192 14.299 7.09261 14.4293C7.10449 14.5766 7.09737 14.7259 7.09459 14.8744C7.09103 15.0688 7.00391 15.1583 6.81304 15.1591C6.27342 15.1607 5.7338 15.1607 5.19419 15.1591C4.99341 15.1591 4.90867 15.0716 4.9063 14.8665C4.90392 14.6982 4.90273 14.5299 4.9063 14.3616C4.9063 14.2871 4.8861 14.2562 4.81007 14.2265C4.43862 14.0808 4.07271 13.9204 3.70127 13.7719C3.67694 13.7642 3.65118 13.7621 3.62594 13.7658C3.60069 13.7695 3.57662 13.7789 3.55554 13.7933C3.42288 13.9121 3.30249 14.044 3.17419 14.1679C3.03915 14.2982 2.92075 14.299 2.7873 14.1679C2.40186 13.7825 2.01734 13.3961 1.63375 13.0088C1.50148 12.8754 1.50148 12.7542 1.63375 12.6215C1.77948 12.4738 1.93114 12.3321 2.05549 12.2117C1.8666 11.7563 1.68958 11.3294 1.50624 10.8867C1.34229 10.8867 1.15459 10.8867 0.966883 10.8867C0.711066 10.8867 0.642558 10.8182 0.642558 10.56C0.642558 8.60901 0.642558 6.65818 0.642558 4.70748V4.49483C0.55227 4.49483 0.475049 4.49483 0.398225 4.49483C0.323026 4.49655 0.249008 4.47591 0.185558 4.43551C0.122107 4.39511 0.072081 4.33678 0.0418249 4.26792C0.00702461 4.20139 -0.00704742 4.12595 0.00142244 4.05135C0.00989231 3.97674 0.0405162 3.90638 0.0893455 3.84935C0.38793 3.46127 0.687438 3.07318 0.987871 2.6851C1.08766 2.55561 1.18587 2.42414 1.28804 2.29782C1.47733 2.06695 1.76324 2.06893 1.94659 2.30574C2.33625 2.80509 2.72077 3.30881 3.10964 3.80856C3.2225 3.95389 3.26804 4.10675 3.17973 4.27703C3.09657 4.44057 2.95401 4.50354 2.77502 4.49562C2.72077 4.49324 2.66652 4.49562 2.5992 4.49562V5.58779L2.63167 5.62105C2.67697 5.55879 2.72562 5.49904 2.7774 5.44206C2.92669 5.29237 3.04113 5.29514 3.19597 5.44721C3.31477 5.56601 3.43119 5.68877 3.55554 5.80361C3.57398 5.81837 3.59558 5.82869 3.61865 5.83377C3.64172 5.83885 3.66565 5.83856 3.68859 5.83291C4.08459 5.66105 4.48059 5.48206 4.9055 5.29158C4.9055 5.14229 4.89798 4.94429 4.90946 4.74787C4.91421 4.66471 4.95975 4.58432 4.98866 4.50235C5.0057 4.46882 5.01758 4.43291 5.02391 4.39583C5.02575 3.74243 5.02575 3.08889 5.02391 2.43523C5.0208 2.41572 5.01563 2.39661 5.00846 2.3782C4.93718 2.3782 4.86432 2.38177 4.79185 2.3782C4.62593 2.3683 4.49643 2.29584 4.42753 2.1406C4.39538 2.07295 4.38346 1.99745 4.39323 1.92319C4.403 1.84892 4.43402 1.77907 4.48257 1.72203C4.88174 1.20485 5.27814 0.685698 5.68127 0.171689C5.85551 -0.0504673 6.14498 -0.0524472 6.31962 0.169313C6.72671 0.68649 7.12905 1.20749 7.52663 1.73233C7.72819 1.99963 7.56385 2.34534 7.22884 2.37741C7.14964 2.38454 7.07281 2.37741 6.9853 2.37741C6.98253 2.44038 6.97817 2.48869 6.97817 2.53581C6.97817 3.13496 6.97579 3.73411 6.98055 4.33326C6.98055 4.40018 7.02292 4.46592 7.04232 4.53126C7.06778 4.59933 7.08506 4.67018 7.0938 4.74233C7.10093 4.94033 7.09657 5.13833 7.09657 5.28841C7.52386 5.48047 7.92263 5.66105 8.32417 5.83568C8.34509 5.83952 8.36659 5.83867 8.38713 5.83319C8.40768 5.82771 8.42675 5.81774 8.44298 5.804C8.57009 5.6852 8.68929 5.56007 8.81284 5.43889C8.95975 5.29554 9.07578 5.29475 9.22111 5.43889C9.27576 5.49314 9.32051 5.55769 9.37001 5.6167L9.40565 5.58858V3.8933C9.33556 3.8933 9.26428 3.89528 9.193 3.8933C9.02747 3.88736 8.89481 3.82242 8.81918 3.66877C8.74354 3.51512 8.76809 3.36306 8.87501 3.22525C9.26863 2.71639 9.65909 2.20476 10.0559 1.69827C10.246 1.45592 10.5311 1.46067 10.722 1.70381C11.112 2.20317 11.4969 2.70609 11.8854 3.20664C11.9939 3.34643 12.0391 3.49572 11.9575 3.66204C11.8759 3.82836 11.7254 3.89647 11.5429 3.89409C11.4886 3.89409 11.4348 3.89409 11.3591 3.89409V4.09209C11.3591 6.22627 11.3591 8.36032 11.3591 10.4942C11.3591 10.5485 11.3611 10.6031 11.3564 10.6574C11.3437 10.8019 11.2637 10.8823 11.1164 10.8863C10.9283 10.8914 10.7402 10.8835 10.5521 10.8918C10.5282 10.8954 10.5054 10.9044 10.4855 10.9181C10.4656 10.9318 10.4491 10.9499 10.4372 10.971C10.2788 11.3714 10.1264 11.7773 9.95768 12.222ZM1.1237 10.4119C1.31219 10.4119 1.48921 10.4119 1.66622 10.4119C1.86422 10.4119 1.94025 10.4677 1.98025 10.6554C2.08434 11.145 2.2772 11.6114 2.5493 12.0315C2.65543 12.1966 2.64315 12.2814 2.50059 12.4243C2.37189 12.553 2.23963 12.6782 2.12954 12.7855L3.01222 13.6765C3.12746 13.5553 3.24983 13.4246 3.37377 13.2983C3.5199 13.1514 3.60029 13.1427 3.77809 13.2563C4.19096 13.5199 4.64657 13.7095 5.12449 13.8167C5.332 13.8638 5.37754 13.9212 5.37872 14.1335C5.37872 14.3145 5.37872 14.4954 5.37872 14.6724H6.61979C6.61979 14.478 6.61979 14.295 6.61979 14.1125C6.61979 13.9299 6.67444 13.8606 6.85026 13.8226C7.34467 13.7164 7.81564 13.5211 8.24022 13.2464C8.39625 13.1459 8.48614 13.1569 8.62118 13.292C8.74988 13.4215 8.87422 13.5557 8.99183 13.6785L9.886 12.7839C9.76997 12.6766 9.64088 12.5618 9.51772 12.4414C9.34744 12.2754 9.3415 12.2065 9.4698 12.0026C9.72824 11.5973 9.91273 11.1493 10.0147 10.6796C10.0606 10.4645 10.1284 10.4131 10.3541 10.4123C10.5259 10.4123 10.6974 10.4123 10.8756 10.4123V9.18466C10.6855 9.18466 10.5034 9.18466 10.3212 9.18466C10.139 9.18466 10.0591 9.12447 10.0206 8.9435C9.91626 8.45393 9.72357 7.98748 9.45198 7.567C9.34506 7.39989 9.35496 7.31554 9.49871 7.17496C9.629 7.04824 9.76522 6.92785 9.88204 6.81856L8.98787 5.92399C8.87264 6.04279 8.7475 6.17704 8.61761 6.30574C8.48772 6.43444 8.39783 6.45028 8.23666 6.34534C7.82033 6.07677 7.35963 5.88423 6.876 5.77668C6.66097 5.72837 6.62058 5.67372 6.62018 5.4484C6.62018 5.27218 6.62018 5.09596 6.62018 4.92132H5.3807C5.3807 5.11061 5.3807 5.28841 5.3807 5.46622C5.3807 5.66936 5.33358 5.72956 5.13637 5.7743C4.65267 5.88112 4.19155 6.07227 3.77413 6.339C3.59712 6.45265 3.51831 6.44354 3.371 6.29188C3.24507 6.16199 3.12706 6.02497 3.0344 5.9228C2.7176 6.23604 2.42892 6.51681 2.12994 6.81183C2.24557 6.92271 2.37189 7.04111 2.49465 7.16308C2.6487 7.31673 2.65701 7.39355 2.53821 7.57967C2.27525 7.98792 2.08811 8.44027 1.98579 8.91498C1.94025 9.12764 1.87016 9.1807 1.64484 9.18149C1.47337 9.18149 1.3015 9.18149 1.1237 9.18149V10.4119ZM9.32843 3.4181H9.5399C9.82541 3.4181 9.89154 3.48305 9.89154 3.76381C9.89154 4.32811 9.89154 4.89241 9.89154 5.45711C9.89154 5.67451 9.84125 5.91409 9.9161 6.10298C9.98659 6.28079 10.1933 6.40474 10.3382 6.55245L10.3596 6.57343C10.5022 6.72193 10.5038 6.83717 10.3596 6.98329C10.2155 7.12942 10.0686 7.26683 9.94738 7.38563C10.1347 7.83667 10.3117 8.26356 10.4919 8.69837H10.8839V3.82163C10.8839 3.77727 10.8839 3.73253 10.8839 3.68817C10.8926 3.49889 10.9726 3.42048 11.1611 3.41731C11.2463 3.41731 11.3314 3.41731 11.4474 3.41731C11.0792 2.94211 10.7346 2.4974 10.3861 2.04477C10.0325 2.50334 9.69156 2.94528 9.32843 3.4181ZM1.50821 8.69916C1.68919 8.26356 1.86659 7.83588 2.05509 7.38167C1.93312 7.26287 1.78502 7.12506 1.64206 6.98171C1.49911 6.83836 1.4995 6.72035 1.64484 6.57225C1.76601 6.44869 1.8856 6.32276 2.01391 6.20634C2.04848 6.17583 2.07546 6.13769 2.09272 6.09493C2.10997 6.05218 2.11702 6.00599 2.1133 5.96003C2.10855 5.41078 2.11014 4.86113 2.1133 4.31148C2.1133 4.10912 2.20122 4.02438 2.40436 4.02042C2.48356 4.02042 2.56276 4.02042 2.67285 4.02042L1.61553 2.65263L0.557418 4.01963H0.709877C1.07341 4.022 1.11697 4.06635 1.11697 4.43345V8.69916H1.50821ZM5.4995 4.42236H6.50138V4.30712C6.50138 3.60462 6.50138 2.90224 6.50138 2.2C6.50138 1.98022 6.57702 1.90459 6.79284 1.90221C6.86966 1.90221 6.94688 1.90221 7.06054 1.90221C6.69503 1.42701 6.3509 0.983491 5.99965 0.528882L4.94154 1.90102H5.15815C5.43535 1.90102 5.49911 1.9624 5.4995 2.23842V4.42117V4.42236Z" fill="black"/>
<path d="M3.11133 9.7915C3.11322 9.21971 3.28463 8.66131 3.60389 8.18695C3.92315 7.71258 4.37592 7.34355 4.90493 7.12653C5.43394 6.90951 6.01543 6.85424 6.57585 6.96772C7.13627 7.08121 7.65045 7.35834 8.05336 7.76407C8.45626 8.1698 8.72979 8.6859 8.83936 9.2471C8.94892 9.8083 8.88959 10.3894 8.66888 10.9169C8.44817 11.4444 8.07598 11.8945 7.5994 12.2105C7.12281 12.5264 6.56323 12.6939 5.99144 12.6918C5.22535 12.6877 4.4921 12.3802 3.95227 11.8366C3.41245 11.293 3.11006 10.5576 3.11133 9.7915ZM3.58653 9.79744C3.58739 10.275 3.7298 10.7416 3.99575 11.1383C4.2617 11.535 4.63927 11.8439 5.08074 12.0261C5.52221 12.2082 6.00777 12.2554 6.47606 12.1617C6.94435 12.068 7.37436 11.8376 7.71176 11.4996C8.04915 11.1616 8.27878 10.7312 8.37164 10.2627C8.46449 9.79428 8.4164 9.30881 8.23344 8.86767C8.05048 8.42653 7.74087 8.04952 7.34372 7.78428C6.94657 7.51904 6.47971 7.37748 6.00213 7.37748C5.36095 7.37821 4.7463 7.63355 4.29332 8.08735C3.84034 8.54114 3.58611 9.15625 3.58653 9.79744Z" fill="black"/>
</g>
<defs>
<clipPath id="clip0_171_14">
<rect width="12" height="15.1593" fill="white"/>
</clipPath>
</defs>
</svg>
