<svg width="40" height="40" viewBox="0 0 40 40" fill="none" xmlns="http://www.w3.org/2000/svg">
<circle cx="20" cy="20" r="20" fill="#FFE2E2"/>
<g clip-path="url(#clip0_637_905)">
<path d="M19.7103 31.9999C19.6865 31.9199 19.6579 31.8415 19.6247 31.7649C19.1353 30.7805 18.6416 29.7986 18.1559 28.8124C18.1019 28.7019 18.0727 28.581 18.0703 28.458C18.0637 27.5289 18.0637 26.5997 18.0703 25.6705C18.0743 25.5404 18.1058 25.4126 18.1628 25.2955C18.4091 24.7824 18.6678 24.2755 18.9209 23.7655C18.9547 23.6986 18.9834 23.628 19.0247 23.5318H15.2416V23.2436C15.2416 21.518 15.2416 19.793 15.2453 18.0674C15.2453 17.8843 15.1959 17.8211 15.0078 17.7861C12.6953 17.3543 10.9884 15.2805 10.9991 12.9243C11.0097 10.5568 12.7191 8.50927 15.0372 8.08677C15.1734 8.0624 15.3078 8.02927 15.4434 8.00052H16.4291C16.4631 8.01737 16.499 8.03036 16.5359 8.03927C17.5766 8.16427 18.4734 8.5899 19.2622 9.27802C19.3619 9.35708 19.485 9.40101 19.6122 9.40302C21.8216 9.41052 24.0316 9.40865 26.2416 9.40865H26.5309V9.74365C26.5309 12.0861 26.5324 14.4286 26.5353 16.7711C26.5372 16.9253 26.5733 17.077 26.6409 17.2155C27.5059 18.9624 28.3816 20.7043 29.2466 22.4511C29.3142 22.5893 29.3508 22.7405 29.3541 22.8943C29.3637 23.7843 29.3637 24.6745 29.3541 25.5649C29.3521 25.7186 29.3174 25.8701 29.2522 26.0093C28.9622 26.6143 28.6547 27.2105 28.3559 27.8105C27.6609 29.2064 26.9666 30.6022 26.2728 31.998L19.7103 31.9999ZM23.7872 25.963C23.3184 25.0255 22.8578 24.1155 22.4122 23.198C22.3425 23.0524 22.3054 22.8932 22.3034 22.7318C22.2953 21.373 22.2966 20.0143 22.3003 18.6549C22.3003 18.3355 22.1834 18.0924 21.8928 17.9499C21.4078 17.7155 20.8872 18.0749 20.8859 18.6436C20.8859 20.0261 20.8859 21.4086 20.8809 22.7911C20.8783 22.9212 20.8474 23.0492 20.7903 23.1661C20.3859 23.993 19.9697 24.8143 19.5641 25.6399C19.5119 25.7428 19.4829 25.8559 19.4791 25.9711C19.4716 26.6974 19.4728 27.4243 19.4791 28.1505C19.4787 28.2506 19.5 28.3495 19.5416 28.4405C19.8684 29.1055 20.2053 29.7655 20.5309 30.4311C20.55 30.4848 20.5868 30.5303 20.6352 30.5601C20.6836 30.59 20.7407 30.6025 20.7972 30.5955C22.2655 30.5905 23.7339 30.5905 25.2022 30.5955C25.2625 30.6016 25.3231 30.5874 25.3744 30.5552C25.4257 30.5229 25.4647 30.4744 25.4853 30.4174C26.2791 28.8174 27.0803 27.2211 27.8747 25.6218C27.9238 25.5171 27.9496 25.403 27.9503 25.2874C27.957 24.5845 27.957 23.8816 27.9503 23.1786C27.9475 23.0555 27.918 22.9344 27.8641 22.8236C27.4766 22.0324 27.0803 21.2449 26.6859 20.4568C26.6534 20.3943 26.6134 20.3318 26.5766 20.2693L26.5272 20.2824V23.5324H24.1466C24.4541 24.1511 24.7447 24.7343 25.0422 25.3318L23.7872 25.963ZM19.4747 22.108V21.8255C19.4747 20.7318 19.4634 19.638 19.4791 18.5449C19.4847 18.2335 19.5592 17.9273 19.6973 17.6481C19.8354 17.369 20.0337 17.124 20.2778 16.9306C20.522 16.7373 20.8059 16.6005 21.1093 16.53C21.4126 16.4595 21.7278 16.4571 22.0322 16.523C22.4953 16.618 22.9123 16.8678 23.2146 17.2313C23.5168 17.5948 23.6864 18.0504 23.6953 18.523C23.7109 19.6318 23.7003 20.7411 23.7016 21.8505V22.1005H25.1103V10.8318H20.4159L20.4941 11.0193C20.7781 11.6943 20.9084 12.4241 20.8756 13.1558C20.8427 13.8874 20.6475 14.6026 20.3041 15.2494C19.9606 15.8963 19.4776 16.4587 18.89 16.8958C18.3024 17.3329 17.6249 17.6338 16.9066 17.7768C16.7016 17.818 16.6434 17.8824 16.6447 18.0861C16.6541 19.3436 16.6491 20.6011 16.6497 21.8586C16.6497 21.9405 16.6572 22.0224 16.6609 22.1086L19.4747 22.108ZM19.4747 12.9443C19.4754 12.2451 19.2688 11.5614 18.881 10.9796C18.4931 10.3979 17.9415 9.94421 17.2958 9.67599C16.6501 9.40776 15.9394 9.33704 15.2535 9.47276C14.5676 9.60848 13.9374 9.94455 13.4425 10.4385C12.9476 10.9324 12.6103 11.562 12.4733 12.2476C12.3362 12.9332 12.4056 13.6441 12.6725 14.2903C12.9395 14.9365 13.3921 15.489 13.9731 15.878C14.5541 16.267 15.2374 16.4749 15.9366 16.4755C16.8739 16.4755 17.7729 16.1037 18.4364 15.4417C19.0999 14.7797 19.4738 13.8816 19.4759 12.9443H19.4747Z" fill="#FF2C2C"/>
<path d="M15.9811 13.8931L14.8955 15C14.5586 14.6631 14.2348 14.3406 13.908 14.0144L14.9705 12.9762L13.8711 11.8975C14.2255 11.545 14.5498 11.2231 14.8898 10.8844L15.9473 11.9694L17.003 10.8713L18.003 11.8713L16.9211 12.9375L18.0167 14L17.0461 14.97L15.9811 13.8931Z" fill="#FF2C2C"/>
</g>
<defs>
<clipPath id="clip0_637_905">
<rect width="18.3606" height="24" fill="white" transform="translate(11 8)"/>
</clipPath>
</defs>
</svg>
