<svg width="40" height="40" viewBox="0 0 40 40" fill="none" xmlns="http://www.w3.org/2000/svg">
<circle cx="20" cy="20" r="20" fill="#FEFFD1"/>
<g clip-path="url(#clip0_637_906)">
<path d="M23.5547 9.99868H23.8672C24.4151 10.2278 24.2797 10.7232 24.3 11.1706C24.6583 11.1706 25.0021 11.1638 25.3448 11.1732C25.5396 11.1737 25.7339 11.1943 25.9245 11.2346C26.9245 11.4742 27.576 12.3185 27.5771 13.3737C27.5802 15.8209 27.5802 18.2688 27.5771 20.7174C27.572 20.7739 27.5837 20.8305 27.6107 20.8803C27.6376 20.9302 27.6787 20.971 27.7286 20.9976C28.7286 21.6409 29.4224 22.5263 29.7724 23.6653C29.8766 23.9982 29.9286 24.3461 30.0016 24.6867V25.5461C29.9874 25.5888 29.9757 25.6322 29.9667 25.6763C29.6651 27.7013 28.5458 29.0617 26.6255 29.7539C26.2818 29.8778 25.9083 29.9195 25.5484 29.9992H24.6875C24.6451 29.9853 24.602 29.9738 24.5583 29.9648C22.7083 29.7044 21.4026 28.7148 20.6234 27.0221C20.5891 26.9476 20.5562 26.8721 20.5229 26.7961H20.276C17.4583 26.7961 14.6405 26.7961 11.8224 26.7961C11.0036 26.7961 10.3318 26.3273 10.0891 25.5903C10.0547 25.4862 10.0297 25.3789 10 25.2732V13.0456C10.0094 13.0289 10.0255 13.0133 10.0276 12.9935C10.1411 12.0648 11.0042 11.1237 12.276 11.1669C12.6052 11.1778 12.9349 11.1669 13.2781 11.1669C13.2974 10.7174 13.1641 10.2242 13.7109 9.99503H14.0234C14.5776 10.2252 14.4307 10.732 14.4599 11.1565H16.5693C16.5693 10.9273 16.5531 10.7065 16.5734 10.4888C16.5964 10.2367 16.7885 10.1054 16.9901 9.99503H17.3026C17.8568 10.2252 17.7099 10.732 17.7391 11.1565H19.8438C19.863 10.7179 19.7292 10.2242 20.276 9.99503H20.5885C21.1427 10.2252 20.9958 10.732 21.025 11.1565H23.125C23.1333 10.7179 23.012 10.2294 23.5547 9.99868ZM20.25 25.6237C20.1406 23.9185 20.6771 22.4909 21.9687 21.3961C23.2604 20.3013 24.7547 20.0101 26.3958 20.394V16.2617H11.1719V24.9044C11.1719 25.4117 11.3854 25.6237 11.8974 25.6237H20.25ZM28.8281 25.12C28.8289 24.3863 28.6122 23.6688 28.2054 23.0582C27.7985 22.4476 27.2198 21.9713 26.5423 21.6895C25.8649 21.4077 25.1191 21.3331 24.3992 21.4751C23.6794 21.617 23.0177 21.9692 22.4979 22.4871C21.9782 23.0049 21.6236 23.6653 21.479 24.3846C21.3344 25.104 21.4063 25.85 21.6857 26.5285C21.965 27.207 22.4391 27.7875 23.0483 28.1966C23.6574 28.6056 24.3741 28.8249 25.1078 28.8268C26.0924 28.8276 27.0371 28.4378 27.7346 27.7429C28.4321 27.0479 28.8254 26.1046 28.8281 25.12ZM13.2812 12.3424C12.8984 12.3424 12.5474 12.3424 12.1958 12.3424C11.5911 12.3456 11.1755 12.756 11.1724 13.3575C11.1698 13.8784 11.1724 14.3992 11.1724 14.92C11.1744 14.9671 11.1787 15.014 11.1854 15.0607H26.4062C26.4062 14.4528 26.4146 13.8627 26.4036 13.269C26.3953 12.8445 26.0984 12.4409 25.6802 12.3898C25.2292 12.3351 24.7661 12.3773 24.2984 12.3773C24.2984 12.545 24.2984 12.72 24.2984 12.8956C24.2927 13.2554 24.0417 13.5169 23.7068 13.5133C23.3719 13.5096 23.1339 13.2528 23.1276 12.9028C23.1245 12.7221 23.1276 12.5414 23.1276 12.3534H21.0156C21.0156 12.5331 21.0156 12.7008 21.0156 12.869C21.0125 13.2482 20.7719 13.5127 20.4307 13.5133C20.0896 13.5138 19.8469 13.2492 19.8438 12.8706C19.8438 12.6976 19.8438 12.5247 19.8438 12.3581H17.7344C17.7344 12.5497 17.7344 12.7252 17.7344 12.9008C17.7281 13.2508 17.4833 13.5086 17.1568 13.5133C16.8219 13.5179 16.5688 13.2565 16.5635 12.8971C16.5635 12.7169 16.5635 12.5367 16.5635 12.3554H14.4526C14.4526 12.5502 14.4562 12.732 14.4526 12.9138C14.4448 13.2596 14.1922 13.5159 13.863 13.5133C13.5339 13.5107 13.2901 13.2528 13.2823 12.9039C13.2812 12.7237 13.2812 12.5429 13.2812 12.3424Z" fill="#8D8F00"/>
<path d="M13.5699 21.5229C13.4079 21.5229 13.2454 21.5276 13.0834 21.5229C12.9284 21.5229 12.7798 21.4614 12.6702 21.3518C12.5606 21.2422 12.499 21.0935 12.499 20.9385C12.499 20.7836 12.5606 20.6349 12.6702 20.5253C12.7798 20.4157 12.9284 20.3542 13.0834 20.3542C13.4146 20.3474 13.7459 20.3464 14.0766 20.3542C14.2315 20.3542 14.38 20.4157 14.4895 20.5252C14.599 20.6347 14.6605 20.7832 14.6605 20.938C14.6605 21.0929 14.599 21.2414 14.4895 21.3509C14.38 21.4604 14.2315 21.5219 14.0766 21.5219C13.9063 21.5286 13.7386 21.5229 13.5699 21.5229Z" fill="#8D8F00"/>
<path d="M17.0688 20.3516C17.2251 20.3516 17.3813 20.3479 17.5376 20.3516C17.6143 20.3508 17.6905 20.3651 17.7617 20.3938C17.8329 20.4224 17.8977 20.4648 17.9525 20.5185C18.0074 20.5722 18.0511 20.6362 18.0812 20.7068C18.1113 20.7774 18.1272 20.8532 18.1279 20.9299C18.1287 21.0067 18.1144 21.0828 18.0858 21.154C18.0571 21.2252 18.0147 21.2901 17.961 21.3449C17.9073 21.3997 17.8433 21.4434 17.7727 21.4735C17.7021 21.5036 17.6263 21.5195 17.5496 21.5203C17.219 21.5279 16.8879 21.5279 16.5563 21.5203C16.4013 21.5193 16.2531 21.4568 16.1442 21.3466C16.0353 21.2363 15.9746 21.0873 15.9756 20.9323C15.9766 20.7773 16.0391 20.629 16.1493 20.5201C16.2596 20.4112 16.4086 20.3506 16.5636 20.3516C16.7313 20.3474 16.9001 20.3516 17.0688 20.3516Z" fill="#8D8F00"/>
<path d="M20.508 21.5234C20.3517 21.5234 20.1955 21.5271 20.0392 21.5234C19.9624 21.5228 19.8865 21.5071 19.8157 21.4771C19.745 21.4472 19.6809 21.4036 19.627 21.3488C19.5182 21.2382 19.4578 21.089 19.459 20.9339C19.4602 20.7787 19.5231 20.6305 19.6336 20.5216C19.7442 20.4128 19.8935 20.3524 20.0486 20.3536C20.3666 20.3484 20.6847 20.3484 21.0028 20.3536C21.346 20.3594 21.6022 20.6167 21.5991 20.9432C21.596 21.2698 21.3387 21.5161 20.9934 21.524C20.8335 21.526 20.6705 21.5234 20.508 21.5234Z" fill="#8D8F00"/>
<path d="M17.0564 17.7193C17.2256 17.7193 17.3949 17.7115 17.5636 17.7193C17.712 17.7242 17.8529 17.7858 17.9572 17.8914C18.0616 17.997 18.1215 18.1386 18.1246 18.287C18.1307 18.4355 18.0782 18.5805 17.9785 18.6907C17.8787 18.8008 17.7396 18.8674 17.5913 18.876C17.227 18.8967 16.8618 18.8967 16.4975 18.876C16.3494 18.8646 16.2118 18.7953 16.1144 18.6833C16.0169 18.5712 15.9675 18.4253 15.9767 18.2771C15.9828 18.1324 16.0428 17.9953 16.145 17.8927C16.2472 17.7901 16.3841 17.7296 16.5288 17.7229C16.7043 17.7109 16.8803 17.7198 17.0564 17.7193Z" fill="#8D8F00"/>
<path d="M20.5271 18.8802C20.3453 18.8802 20.1625 18.8937 19.9812 18.8771C19.8331 18.8647 19.6955 18.7959 19.5967 18.6849C19.4979 18.5739 19.4456 18.4291 19.4505 18.2806C19.4555 18.1321 19.5173 17.9912 19.6233 17.887C19.7292 17.7828 19.8712 17.7233 20.0198 17.7208C20.3578 17.7104 20.6969 17.7104 21.0349 17.7208C21.1826 17.7245 21.3233 17.7845 21.4283 17.8886C21.5332 17.9926 21.5944 18.1328 21.5993 18.2805C21.6042 18.4282 21.5525 18.5722 21.4548 18.683C21.357 18.7938 21.2206 18.8631 21.0734 18.8766C20.8927 18.8937 20.7094 18.8802 20.5271 18.8802Z" fill="#8D8F00"/>
<path d="M24.0029 17.7187C24.1721 17.7187 24.3419 17.712 24.5107 17.7187C24.659 17.7224 24.8004 17.7827 24.9057 17.8873C25.011 17.9919 25.0722 18.1329 25.0768 18.2812C25.0848 18.4296 25.034 18.5752 24.9355 18.6864C24.8369 18.7977 24.6985 18.8656 24.5502 18.8755C24.186 18.8962 23.8208 18.8962 23.4565 18.8755C23.3084 18.8652 23.1703 18.7971 23.0719 18.686C22.9735 18.5748 22.9227 18.4295 22.9305 18.2812C22.9353 18.1333 22.9965 17.9927 23.1016 17.8884C23.2066 17.784 23.3475 17.7237 23.4956 17.7198C23.6643 17.712 23.8336 17.7187 24.0029 17.7187Z" fill="#8D8F00"/>
<path d="M13.5722 24.1552C13.3967 24.1552 13.2201 24.1677 13.0457 24.1552C12.8959 24.1467 12.7554 24.0804 12.6535 23.9704C12.5515 23.8604 12.4962 23.7152 12.4991 23.5653C12.502 23.4153 12.5629 23.2724 12.669 23.1664C12.7751 23.0604 12.9181 22.9996 13.068 22.9969C13.4061 22.987 13.7451 22.9865 14.0832 22.9969C14.2307 23.0012 14.3711 23.0616 14.4755 23.1659C14.58 23.2702 14.6407 23.4105 14.6452 23.5581C14.6498 23.7056 14.5978 23.8493 14.4999 23.9598C14.402 24.0703 14.2656 24.1393 14.1186 24.1526C13.9378 24.1698 13.754 24.1557 13.5722 24.1557V24.1552Z" fill="#8D8F00"/>
<path d="M17.0518 22.9922C17.2211 22.9922 17.3904 22.9854 17.5596 22.9922C17.708 22.9959 17.8494 23.0563 17.9546 23.161C18.0598 23.2657 18.1209 23.4068 18.1252 23.5552C18.133 23.7036 18.0819 23.8492 17.9832 23.9603C17.8845 24.0714 17.746 24.1392 17.5976 24.149C17.2334 24.1696 16.8682 24.1696 16.5039 24.149C16.3557 24.1388 16.2175 24.0708 16.119 23.9596C16.0205 23.8484 15.9696 23.703 15.9773 23.5547C15.9826 23.4067 16.0441 23.2664 16.1493 23.1622C16.2545 23.0581 16.3955 22.998 16.5435 22.9943C16.7127 22.9854 16.8825 22.9922 17.0518 22.9922Z" fill="#8D8F00"/>
<path d="M25.7036 24.5313C26.152 24.5313 26.5739 24.5313 26.9963 24.5313C27.3906 24.5313 27.6577 24.7714 27.6557 25.1198C27.6536 25.4682 27.3885 25.7021 26.9906 25.7026C26.3919 25.7026 25.7933 25.7026 25.1947 25.7026C24.765 25.7026 24.5327 25.4688 24.5322 25.0385C24.5322 24.4333 24.5322 23.8281 24.5322 23.2229C24.5322 22.8438 24.7749 22.5797 25.1161 22.5786C25.4572 22.5776 25.7015 22.8391 25.7031 23.2203C25.7051 23.6484 25.7036 24.0771 25.7036 24.5313Z" fill="#8D8F00"/>
</g>
<defs>
<clipPath id="clip0_637_906">
<rect width="20" height="20" fill="white" transform="translate(10 10)"/>
</clipPath>
</defs>
</svg>
