<svg width="18" height="20" viewBox="0 0 18 20" fill="none" xmlns="http://www.w3.org/2000/svg">
<g clip-path="url(#clip0_206_1846)">
<path d="M7.86355 20C7.63959 19.8766 7.38907 19.7838 7.19896 19.6203C7.04271 19.488 6.96511 19.2698 6.85001 19.0917C6.81719 19.0396 6.7849 18.974 6.73594 18.9531C6.08751 18.6776 5.92865 18.2 6.24688 17.6406C6.17813 17.3281 6.12188 17.0677 6.0547 16.7641C5.85522 16.7219 5.8422 16.5141 5.84324 16.2859C5.84688 15.5969 5.87188 14.9062 5.69636 14.2286C5.54629 13.6349 5.28893 13.0736 4.93699 12.5724C4.23569 11.5889 3.77523 10.4544 3.59271 9.26041C3.20209 6.7427 4.48594 4.52447 6.87397 3.63801C8.18074 3.15312 9.52448 3.0026 10.8734 3.41718C12.7005 3.97916 13.7026 5.27551 13.9891 7.13801C14.0521 7.54583 14.0219 7.9677 14.0412 8.38281C14.0439 8.47221 14.0626 8.56041 14.0964 8.64322C14.4177 9.37499 14.7438 10.1042 15.0672 10.8365C15.2458 11.2422 15.0521 11.5838 14.6109 11.6448C14.4823 11.6625 14.3537 11.6792 14.1943 11.7005V11.9995C14.1943 12.338 14.1974 12.6766 14.1943 13.0146C14.1976 13.3081 14.0843 13.591 13.8792 13.8011C13.6741 14.0111 13.3941 14.1312 13.1005 14.1349C12.8208 14.1443 12.5406 14.1437 12.2609 14.1349C12.0771 14.1297 12.0037 14.2016 12.0052 14.387C12.0109 15.038 12.0052 15.6891 12.0052 16.3396C12.0052 16.6463 11.9578 16.7083 11.649 16.7948C11.6794 16.9207 11.6826 17.0516 11.6586 17.1788C11.6345 17.3061 11.5837 17.4267 11.5094 17.5328C11.4912 17.5594 11.5172 17.6292 11.5396 17.6698C11.8287 18.2042 11.6281 18.738 11.0594 18.9458C11.0156 18.9615 10.9552 18.9922 10.9443 19.0286C10.7802 19.5573 10.4083 19.8526 9.8948 20H7.86355ZM14.4896 11.0469C14.4583 10.9703 14.4333 10.9052 14.4047 10.8417C14.0964 10.1463 13.7859 9.4526 13.4813 8.75832C13.4442 8.66934 13.4234 8.57444 13.4198 8.47812C13.399 8.01249 13.4427 7.53593 13.3609 7.08124C13.0708 5.46197 12.15 4.36874 10.5333 3.94999C9.24428 3.61562 7.9849 3.8026 6.78334 4.34166C4.97761 5.1526 4.02032 6.76301 4.14792 8.73749C4.22605 9.9401 4.64115 11.0292 5.29636 12.0333C5.50499 12.3391 5.69761 12.6555 5.87344 12.9812C6.28386 13.7838 6.45001 14.6479 6.45313 15.5443C6.45313 15.7495 6.45313 15.9547 6.45313 16.1615H11.401V15.9432C11.401 15.4354 11.401 14.9281 11.401 14.4203C11.401 13.8297 11.7016 13.5292 12.2865 13.5276C12.5073 13.5276 12.7287 13.5276 12.95 13.5276C13.4146 13.5276 13.5807 13.3588 13.5818 12.8891C13.5818 12.4271 13.5818 11.9646 13.5818 11.5026C13.5818 11.2495 13.6604 11.1635 13.9073 11.1271C14.0974 11.0969 14.2839 11.0739 14.4896 11.0469ZM8.87761 17.2729H10.6724C10.7308 17.2751 10.7893 17.2734 10.8474 17.2677C10.9058 17.2616 10.96 17.2347 11.0001 17.1919C11.0402 17.149 11.0636 17.0931 11.0658 17.0345C11.068 16.9758 11.049 16.9183 11.0122 16.8726C10.9754 16.8268 10.9234 16.7959 10.8656 16.7854C10.814 16.7771 10.7617 16.7738 10.7094 16.7755C9.4941 16.7755 8.27883 16.7755 7.06355 16.7755C6.99897 16.7755 6.91563 16.763 6.87397 16.7969C6.80157 16.8568 6.70313 16.9531 6.70938 17.0245C6.7172 17.1088 6.81355 17.1979 6.89324 17.2594C6.9349 17.2917 7.01876 17.2724 7.08386 17.2724L8.87761 17.2729ZM8.90053 17.8812C8.26355 17.8812 7.62657 17.8812 6.98959 17.8812C6.8073 17.8812 6.69897 17.9792 6.69844 18.1255C6.69792 18.2719 6.80261 18.3729 6.98698 18.3734C8.25417 18.376 9.52188 18.3781 10.7891 18.3672C10.8429 18.3591 10.8942 18.3391 10.9392 18.3087C10.9843 18.2782 11.022 18.2381 11.0495 18.1911C11.1297 18.0349 10.9854 17.8823 10.7703 17.8812C10.1484 17.8792 9.52448 17.8812 8.90053 17.8812ZM10.3037 18.9969H7.47032C7.60105 19.2344 7.78282 19.3766 8.03178 19.3818C8.59636 19.3927 9.16094 19.3922 9.72553 19.3818C9.97709 19.3792 10.162 19.2422 10.3037 18.9969Z" fill="#686868"/>
<path d="M8.76055 0C8.9168 0.0911458 8.96888 0.225521 8.96524 0.40573C8.95638 0.944271 8.96524 1.48281 8.96159 2.02031C8.96159 2.26302 8.8543 2.39115 8.66159 2.39062C8.46888 2.3901 8.36368 2.26354 8.36263 2.01979C8.36263 1.48125 8.36784 0.942708 8.35951 0.405208C8.35638 0.225521 8.40743 0.0927088 8.56784 0.000521342L8.76055 0Z" fill="#686868"/>
<path d="M16.0997 8.36251C16.3789 8.36251 16.658 8.36251 16.9372 8.36251C17.1596 8.36563 17.2882 8.48074 17.2887 8.66667C17.2893 8.85261 17.1627 8.97084 16.9387 8.97188C16.3742 8.97605 15.8094 8.97605 15.2445 8.97188C15.0294 8.97188 14.8924 8.83751 14.8986 8.65938C14.9049 8.48126 15.0356 8.3672 15.2429 8.36407C15.5283 8.35886 15.8143 8.36251 16.0997 8.36251Z" fill="#686868"/>
<path d="M1.18907 8.94011C0.909901 8.94011 0.630736 8.94324 0.351569 8.94011C0.128131 8.93699 0.00104802 8.82292 6.35377e-06 8.63594C-0.00103531 8.44896 0.126049 8.33126 0.348965 8.32969C0.913896 8.32553 1.47865 8.32553 2.04324 8.32969C2.25782 8.32969 2.39636 8.46459 2.39063 8.64219C2.3849 8.8198 2.24949 8.93542 2.04584 8.93907C1.76042 8.94428 1.47448 8.94011 1.18907 8.94011Z" fill="#686868"/>
<path d="M3.00979 5.69167C2.89365 5.63958 2.82594 5.61927 2.765 5.58437C2.28653 5.30937 1.80875 5.03316 1.33167 4.75573C1.12802 4.63698 1.0676 4.46927 1.16396 4.30625C1.26031 4.14323 1.43062 4.11562 1.62333 4.22604C2.11344 4.50573 2.60146 4.79062 3.09 5.07344C3.23583 5.15781 3.32646 5.28177 3.25146 5.44323C3.20354 5.54531 3.0874 5.6151 3.00979 5.69167Z" fill="#686868"/>
<path d="M16.18 4.56251C16.1456 4.60417 16.0935 4.7099 16.0086 4.76042C15.5091 5.06094 15.0034 5.35157 14.4982 5.63907C14.3315 5.73386 14.1633 5.6849 14.0768 5.5349C13.9904 5.3849 14.0331 5.21615 14.1987 5.11823C14.7013 4.82188 15.205 4.52813 15.7133 4.24115C15.9367 4.11459 16.1904 4.25782 16.18 4.56251Z" fill="#686868"/>
<path d="M1.36781 13.138C1.2902 13.0625 1.17614 12.9927 1.1251 12.8911C1.06051 12.763 1.1251 12.6307 1.24645 12.5552C1.43968 12.4354 1.63968 12.3255 1.83656 12.2115C2.1402 12.0359 2.44333 11.8583 2.74854 11.6844C2.95166 11.5688 3.13031 11.6026 3.22041 11.7688C3.31052 11.9349 3.25062 12.087 3.05062 12.2042C2.57354 12.4819 2.09506 12.7587 1.6152 13.0344C1.53463 13.0733 1.45205 13.1079 1.36781 13.138Z" fill="#686868"/>
<path d="M13.1695 1.39114C13.1174 1.50833 13.0971 1.57604 13.0653 1.63698C12.791 2.1158 12.515 2.5934 12.2372 3.06979C12.1164 3.27812 11.9518 3.33698 11.7888 3.2401C11.6258 3.14323 11.5961 2.97292 11.7148 2.76562C11.9954 2.27604 12.2775 1.78819 12.5612 1.30208C12.6424 1.16198 12.7726 1.08437 12.92 1.1526C13.0221 1.19792 13.0919 1.31302 13.1695 1.39114Z" fill="#686868"/>
<path d="M5.70712 3.00937C5.63629 3.08177 5.57014 3.19114 5.47378 3.23854C5.33628 3.30624 5.20295 3.24635 5.12326 3.11302C4.9592 2.8401 4.80191 2.56302 4.64201 2.28697C4.50868 2.05677 4.3717 1.8276 4.24253 1.59427C4.14201 1.41302 4.18264 1.23906 4.33629 1.1526C4.48993 1.06614 4.66285 1.11875 4.76597 1.29427C5.05556 1.78802 5.34202 2.28333 5.62535 2.7802C5.65838 2.85441 5.68571 2.93102 5.70712 3.00937Z" fill="#686868"/>
<path d="M8.98461 4.60469C9.2294 4.64011 9.50128 4.66823 9.76586 4.72084C10.0054 4.76823 10.0836 4.92292 10.0112 5.15365C9.94242 5.3724 9.99138 5.52917 10.1513 5.60261C10.3205 5.68073 10.4721 5.61198 10.594 5.40261C10.708 5.20573 10.8799 5.15834 11.0685 5.28594C11.4973 5.5729 11.8586 5.94966 12.1273 6.39011C12.2482 6.5875 12.194 6.74636 11.9857 6.85625C11.7773 6.96615 11.6982 7.11667 11.7705 7.28907C11.8388 7.45105 11.9898 7.50313 12.2174 7.44219C12.445 7.38125 12.5851 7.46354 12.6341 7.69219C12.7348 8.1914 12.7277 8.70636 12.6133 9.20261C12.5612 9.43646 12.4049 9.5198 12.1768 9.45105C11.9487 9.3823 11.7903 9.43386 11.7195 9.6073C11.6518 9.77292 11.7195 9.90729 11.9278 10.0292C12.1362 10.151 12.1773 10.3146 12.0383 10.5177C11.7584 10.9275 11.398 11.2759 10.9789 11.5417C10.7544 11.6844 10.5935 11.6396 10.4669 11.4057C10.3601 11.2083 10.2065 11.137 10.0398 11.2083C9.88357 11.2766 9.82367 11.4302 9.87836 11.6349C9.94815 11.8953 9.86846 12.0297 9.60076 12.0833C9.11354 12.1775 8.61191 12.1673 8.12888 12.0536C7.89138 12.0016 7.80961 11.851 7.87471 11.6177C7.9445 11.3682 7.89867 11.2323 7.71846 11.1609C7.55075 11.0932 7.41534 11.1609 7.29711 11.3661C7.17888 11.5714 7.01742 11.6151 6.82471 11.4865C6.39556 11.1998 6.03318 10.8241 5.76221 10.3849C5.64138 10.1911 5.69347 10.0234 5.89451 9.91615C6.1143 9.79636 6.18513 9.65573 6.11326 9.48438C6.04138 9.31302 5.90961 9.26615 5.65492 9.32813C5.43461 9.38021 5.29034 9.29063 5.2419 9.06407C5.14336 8.57114 5.15189 8.06279 5.2669 7.57344C5.32472 7.32292 5.46742 7.24584 5.71482 7.31719C5.93669 7.38177 6.08878 7.32969 6.16013 7.16459C6.23148 6.99948 6.16482 6.85209 5.9643 6.73802C5.75076 6.61563 5.70388 6.45313 5.84346 6.25157C6.12579 5.83564 6.49108 5.48258 6.91638 5.21459C7.13097 5.07969 7.29919 5.12709 7.41638 5.3474C7.52471 5.55105 7.67003 5.625 7.83305 5.56042C8.00805 5.49219 8.06482 5.34948 8.00649 5.12292C7.94138 4.8724 8.02575 4.72709 8.27523 4.6875C8.50232 4.65209 8.7294 4.63542 8.98461 4.60469ZM8.55076 11.5172H9.23253C9.26221 11.1099 9.44086 10.7979 9.82367 10.6469C10.2065 10.4958 10.5607 10.6052 10.8862 10.9073C11.0534 10.7333 11.2127 10.5682 11.3742 10.401C11.0966 10.0776 11.0044 9.73438 11.1726 9.35417C11.3409 8.97396 11.6742 8.81615 12.0815 8.79011V8.09011C11.6601 8.06146 11.3523 7.87813 11.2034 7.49323C11.0544 7.10834 11.1617 6.75782 11.4534 6.45157L10.9502 5.9625C10.8815 6.01198 10.831 6.05261 10.7763 6.08698C10.6568 6.16361 10.5211 6.21151 10.38 6.22691C10.2389 6.24232 10.0961 6.22481 9.96289 6.17576C9.82967 6.12671 9.70963 6.04746 9.61219 5.94422C9.51475 5.84098 9.44256 5.71656 9.40128 5.58073C9.36795 5.46875 9.36222 5.31094 9.28617 5.2599C9.19919 5.20104 9.04815 5.23542 8.92472 5.23229C8.83513 5.22969 8.74555 5.23229 8.65805 5.23229C8.59555 6.11771 7.68878 6.48802 7.00128 5.8724L6.53253 6.37136C7.06586 7.1625 6.8169 7.72865 5.80857 8V8.67188C6.22523 8.69844 6.53461 8.88021 6.68149 9.26511C6.82836 9.65 6.7268 10.0036 6.42836 10.3146L6.92628 10.8099C7.65492 10.2432 8.35492 10.5521 8.55076 11.5172Z" fill="#686868"/>
<path d="M8.95757 6.47969C9.46416 6.48135 9.9494 6.68393 10.3068 7.04298C10.6642 7.40203 10.8645 7.8882 10.8638 8.3948C10.8576 9.44427 9.98622 10.3094 8.94247 10.3016C8.43565 10.2996 7.95039 10.0963 7.59344 9.73653C7.23648 9.37674 7.03707 8.88989 7.03908 8.38308C7.04108 7.87627 7.24433 7.39101 7.60412 7.03405C7.96391 6.6771 8.45076 6.47769 8.95757 6.47969ZM10.2518 8.39011C10.2539 8.04439 10.1189 7.71193 9.87625 7.46562C9.63365 7.2193 9.30328 7.07921 8.95757 7.07605C8.78304 7.07047 8.60917 7.09994 8.44624 7.16271C8.2833 7.22549 8.1346 7.32029 8.00893 7.44152C7.88326 7.56276 7.78318 7.70795 7.71459 7.86853C7.646 8.02911 7.6103 8.20181 7.60961 8.37642C7.60891 8.55103 7.64323 8.72401 7.71053 8.88513C7.77784 9.04625 7.87677 9.19224 8.00146 9.31447C8.12616 9.4367 8.2741 9.53269 8.43653 9.59676C8.59896 9.66083 8.77259 9.69169 8.94715 9.6875C9.29185 9.68778 9.62261 9.55136 9.86688 9.30816C10.1112 9.06495 10.249 8.73481 10.2503 8.39011H10.2518Z" fill="#686868"/>
</g>
<defs>
<clipPath id="clip0_206_1846">
<rect width="17.288" height="20" fill="white"/>
</clipPath>
</defs>
</svg>
