<svg width="28" height="28" viewBox="0 0 28 28" fill="none" xmlns="http://www.w3.org/2000/svg">
<circle cx="14" cy="14" r="14" fill="#C7C9FF"/>
<g clip-path="url(#clip0_163_1076)">
<path d="M16.217 8.15417C16.5447 8.08921 16.8416 7.99135 17.1415 7.97803C17.608 7.95781 18.069 8.08536 18.4588 8.3425C18.8486 8.59964 19.1472 8.97325 19.3122 9.41009C19.6554 10.2971 19.4055 11.2881 18.6793 11.9223C18.4453 12.1268 18.4361 12.1539 18.4861 12.4903C19.0366 12.4021 19.4751 12.5849 19.7874 13.0563C20.0285 12.9633 20.2923 12.9467 20.5432 13.0088C20.8016 13.0693 21.0323 13.2147 21.1984 13.4218C21.3645 13.6288 21.4563 13.8856 21.4593 14.151C21.471 14.7548 21.4668 15.3586 21.4593 15.9629C21.4543 16.0659 21.4237 16.1661 21.3702 16.2544C20.8876 17.0689 20.3983 17.8784 19.9127 18.6912C19.8648 18.7786 19.7933 18.8507 19.7063 18.8993C19.6193 18.9479 19.5204 18.971 19.4209 18.9661C18.4473 18.9644 17.4736 18.9644 16.4998 18.9661C16.403 18.9705 16.307 18.9478 16.2225 18.9004C16.138 18.8531 16.0685 18.7831 16.0217 18.6983C15.5324 17.8817 15.0398 17.0672 14.5559 16.2477C14.5009 16.1483 14.4711 16.0369 14.4693 15.9233C14.4601 15.4498 14.4693 14.9759 14.4647 14.5021C14.4613 14.408 14.483 14.3147 14.5277 14.2318C14.5723 14.149 14.6383 14.0795 14.7187 14.0307C15.0935 13.7808 15.4683 13.526 15.8485 13.2774C15.8868 13.257 15.9182 13.2258 15.939 13.1877C15.9597 13.1495 15.9688 13.1062 15.9651 13.0629C15.9572 12.7768 15.9672 12.4903 15.9601 12.2043C15.9592 12.173 15.9522 12.1421 15.9394 12.1136C15.9266 12.085 15.9083 12.0592 15.8855 12.0377C14.9411 11.3423 14.6363 9.97476 15.3858 8.92413C15.4003 8.8966 15.4086 8.86621 15.4101 8.83512C15.4115 8.80402 15.4061 8.773 15.3942 8.74424C15.3607 8.66395 15.3041 8.59544 15.2316 8.54745C15.1591 8.49946 15.0739 8.47418 14.9869 8.47482C14.3206 8.46982 13.6544 8.47482 12.9744 8.47482C12.946 8.81295 12.8174 9.09736 12.5334 9.29391C12.3432 9.42637 12.1124 9.48729 11.8817 9.46589C11.382 9.42675 11.0243 9.04947 10.9589 8.48648C10.946 8.47919 10.9319 8.47425 10.9172 8.4719C10.261 8.4719 9.60511 8.46649 8.94883 8.4719C8.82249 8.47421 8.7019 8.52515 8.61216 8.61411C8.52242 8.70308 8.47044 8.82322 8.46703 8.94953C8.46412 8.99617 8.46703 9.04323 8.46703 9.08987V19.851C8.46703 20.2853 8.64776 20.4648 9.08417 20.4648H14.8482C15.2647 20.4648 15.4196 20.3253 15.4675 19.9134C15.4802 19.7859 15.5415 19.6682 15.6386 19.5846C15.7358 19.501 15.8613 19.4579 15.9893 19.4642C16.1172 19.4705 16.2379 19.5258 16.3263 19.6185C16.4147 19.7113 16.4642 19.8344 16.4644 19.9626C16.4835 20.7567 15.8127 21.45 14.9965 21.4617C14.2727 21.4717 13.549 21.4642 12.8253 21.4642H9.06043C8.10267 21.4642 7.46721 20.8283 7.4668 19.8685V9.06072C7.4668 8.10295 8.10392 7.47041 9.06501 7.47C10.9868 7.47 12.9081 7.47541 14.8295 7.46667C15.4166 7.46417 15.8826 7.6678 16.2178 8.15459C16.2262 8.16625 16.2399 8.17458 16.217 8.15417ZM15.958 14.4055C15.7914 14.5171 15.6498 14.6045 15.5178 14.7036C15.4846 14.7392 15.4665 14.7864 15.4675 14.8352C15.4629 15.1267 15.4612 15.4182 15.4675 15.7097C15.4694 15.7862 15.4903 15.861 15.5282 15.9275C15.9097 16.5717 16.2978 17.2121 16.6796 17.8563C16.6974 17.893 16.726 17.9233 16.7617 17.9431C16.7973 17.9628 16.8382 17.9711 16.8787 17.9667C17.6024 17.9625 18.326 17.9625 19.0495 17.9667C19.1428 17.9667 19.1994 17.9438 19.249 17.8596C19.6329 17.2105 20.0231 16.565 20.4091 15.9171C20.439 15.8697 20.4565 15.8156 20.4599 15.7596C20.4641 15.2441 20.4666 14.729 20.457 14.2139C20.457 14.1381 20.4028 14.0253 20.3433 13.9982C20.3011 13.9842 20.2562 13.9799 20.2121 13.9856C20.1679 13.9914 20.1257 14.0071 20.0885 14.0315C20.0172 14.0939 19.9725 14.1812 19.9635 14.2755C19.946 14.4979 19.9635 14.7228 19.956 14.9464C19.9477 15.2524 19.7299 15.4694 19.4459 15.4648C19.1686 15.4598 18.9633 15.242 18.9587 14.9435C18.9554 14.7457 18.9587 14.5479 18.9587 14.3501C18.9587 14.1364 18.9708 13.922 18.95 13.7104C18.942 13.6272 18.8733 13.5085 18.805 13.4856C18.7368 13.4627 18.6147 13.5135 18.5444 13.5689C18.4948 13.6076 18.4723 13.7055 18.4711 13.7771C18.4636 14.1673 18.469 14.5579 18.4648 14.948C18.4619 15.2429 18.2487 15.4623 17.9714 15.4648C17.687 15.4677 17.4683 15.245 17.4667 14.9431C17.4646 14.5108 17.4667 14.079 17.4667 13.6467C17.4692 12.8453 17.472 12.0437 17.475 11.2419C17.475 11.1295 17.4563 11.0387 17.3322 10.9958C17.124 10.9229 16.9661 11.025 16.9653 11.249C16.9623 12.2173 16.9605 13.1855 16.9599 14.1535C16.9599 14.4188 16.9632 14.6845 16.9561 14.9497C16.9478 15.2549 16.7271 15.4715 16.4431 15.4648C16.1666 15.4586 15.9634 15.24 15.9584 14.9406C15.9559 14.7761 15.958 14.6099 15.958 14.4055ZM18.3574 10.6419C18.571 10.2962 18.4648 9.64953 18.0359 9.27767C17.816 9.08619 17.5361 8.97766 17.2445 8.97089C16.953 8.96412 16.6683 9.05954 16.4398 9.24061C15.9992 9.58624 15.8381 10.2138 16.0746 10.6618C16.6197 9.70367 17.8973 9.77862 18.3574 10.6419Z" fill="#0007B7"/>
<path d="M10.4556 11.2802C10.6793 11.0541 10.875 10.8538 11.0732 10.6556C11.3085 10.4216 11.6104 10.4058 11.8194 10.6165C12.0285 10.8272 12.0126 11.1262 11.7778 11.3627C11.4738 11.6681 11.1684 11.9734 10.8617 12.2788C10.6035 12.5345 10.3278 12.5337 10.0705 12.2788C9.92263 12.1326 9.77438 11.9873 9.62947 11.8374C9.41668 11.6184 9.41293 11.3144 9.61656 11.1137C9.82019 10.913 10.1163 10.9221 10.3295 11.1282C10.3744 11.1765 10.4165 11.2272 10.4556 11.2802Z" fill="#0007B7"/>
<path d="M10.4574 14.2751C10.6802 14.0507 10.8763 13.8504 11.0754 13.6505C11.3094 13.4177 11.6134 13.4048 11.8216 13.6159C12.0298 13.8271 12.0123 14.1223 11.7858 14.3513C11.4746 14.6653 11.162 14.9778 10.848 15.2887C10.6048 15.5285 10.3242 15.5252 10.0793 15.2837C9.92732 15.1338 9.77575 14.9843 9.62709 14.831C9.41555 14.6124 9.41388 14.3068 9.61918 14.1073C9.82447 13.9078 10.1189 13.9195 10.3321 14.126C10.3729 14.1673 10.4062 14.2143 10.4574 14.2751Z" fill="#0007B7"/>
<path d="M10.4493 17.2867C10.6829 17.0493 10.8782 16.8482 11.0769 16.65C11.3096 16.4176 11.6157 16.4059 11.8231 16.6183C12.0305 16.8307 12.0113 17.1243 11.7839 17.3537C11.4764 17.6641 11.1675 17.9729 10.8574 18.2802C10.6076 18.5301 10.3273 18.5301 10.0775 18.2827C9.92589 18.1328 9.77348 17.9833 9.62523 17.8301C9.41702 17.6161 9.41369 17.3179 9.60983 17.1172C9.80596 16.9165 10.1145 16.9165 10.3331 17.1288C10.3758 17.1785 10.4146 17.2312 10.4493 17.2867Z" fill="#0007B7"/>
</g>
<defs>
<clipPath id="clip0_163_1076">
<rect width="14" height="14" fill="white" transform="translate(7.4668 7.46667)"/>
</clipPath>
</defs>
</svg>
