<svg width="24" height="22" viewBox="0 0 24 22" fill="none" xmlns="http://www.w3.org/2000/svg">
<g id="Layer_1" clip-path="url(#clip0_181_5471)">
<path id="Vector" d="M24 3.71204V19.2271C23.9859 19.2548 23.9747 19.284 23.9665 19.314C23.7611 20.4013 22.9433 21.0993 21.8302 21.0999C15.2777 21.1042 8.72503 21.1018 2.17216 21.0928C1.83752 21.0905 1.50726 21.0166 1.20349 20.8762C0.362809 20.4782 0 19.7643 0 18.849C0 13.8895 0 8.93011 0 3.97093V3.77661C0.0509529 3.82806 0.0874067 3.89206 0.105672 3.96213C0.898216 6.33585 1.69037 8.70976 2.48213 11.0839C2.83437 12.1324 3.57056 12.6643 4.67895 12.6649H8.48433C8.48433 12.8932 8.48433 13.0946 8.48433 13.2965C8.4902 13.785 8.76906 14.0691 9.25633 14.0703C11.0837 14.0726 12.9112 14.0726 14.739 14.0703C15.2286 14.0703 15.5092 13.7867 15.5145 13.3001C15.5145 13.0922 15.5145 12.885 15.5145 12.6649H19.2929C20.4359 12.6649 21.1615 12.1435 21.5237 11.0651C22.3178 8.68236 23.112 6.30082 23.9061 3.92045C23.9313 3.85117 23.9689 3.78131 24 3.71204Z" fill="#286BFF"/>
<path id="Vector_2" d="M1.22656 2.82382H7.09726C7.09726 2.51032 7.06732 2.20563 7.10255 1.90916C7.23464 0.793731 8.06123 0.0270169 9.18253 0.0152755C11.0569 -0.00468492 12.9316 -0.00468492 14.8067 0.0152755C16.0113 0.0276039 16.8861 0.927582 16.9201 2.13284C16.926 2.35123 16.9201 2.56903 16.9201 2.81031H22.7902C22.7544 2.91951 22.7315 2.99759 22.7033 3.07508C21.8685 5.58383 21.0335 8.09199 20.1983 10.5996C20.0269 11.1144 19.8279 11.2588 19.2895 11.2588H15.5147C15.5147 11.0269 15.5182 10.8115 15.5147 10.5954C15.5059 10.1493 15.2211 9.85515 14.7814 9.85457C12.9302 9.85065 11.079 9.85065 9.22774 9.85457C8.77334 9.85457 8.49214 10.1481 8.4851 10.6101C8.48157 10.8191 8.4851 11.0281 8.4851 11.2594H8.30545C7.07926 11.2594 5.85267 11.2594 4.6257 11.2594C4.2077 11.2594 3.97346 11.1044 3.84489 10.7199C2.97603 8.12388 2.11049 5.52727 1.24828 2.93008C1.23908 2.89509 1.23183 2.85961 1.22656 2.82382ZM15.5153 2.8109C15.5153 2.60543 15.5153 2.42637 15.5153 2.24731C15.5153 1.68255 15.2481 1.41602 14.6846 1.41544C13.6775 1.41544 12.6709 1.41544 11.6647 1.41544C10.8527 1.41544 10.0414 1.41544 9.2295 1.41544C8.86375 1.41544 8.57433 1.60623 8.52149 1.93793C8.47688 2.22207 8.5121 2.51972 8.5121 2.80973L15.5153 2.8109Z" fill="#286BFF"/>
<path id="Vector_3" d="M14.0958 12.6537H9.9082V11.2741H14.0958V12.6537Z" fill="#286BFF"/>
</g>
<defs>
<clipPath id="clip0_181_5471">
<rect width="24" height="21.1028" fill="white"/>
</clipPath>
</defs>
</svg>
