<svg width="28" height="28" viewBox="0 0 28 28" fill="none" xmlns="http://www.w3.org/2000/svg">
<circle cx="14" cy="14" r="14" fill="#FFE1B5"/>
<g clip-path="url(#clip0_163_1087)">
<path d="M19.4182 11.1583H7.49283C7.49045 11.2143 7.48608 11.2628 7.48608 11.3113C7.48608 13.5724 7.48608 15.8336 7.48608 18.0949C7.48608 18.6824 7.70868 19.1578 8.24373 19.4301C8.43454 19.5271 8.66987 19.5677 8.88731 19.5756C9.43349 19.5955 9.98087 19.58 10.5274 19.5832C10.8017 19.5832 11.0045 19.7565 11.0283 19.997C11.0561 20.2661 10.8912 20.5161 10.6169 20.5193C9.86797 20.5276 9.11031 20.5658 8.37134 20.4724C7.40617 20.3508 6.64693 19.4575 6.5547 18.4848C6.54 18.3318 6.53244 18.1776 6.53244 18.0237C6.53085 15.0071 6.53085 11.9905 6.53244 8.97394C6.53244 8.09941 6.86953 7.39105 7.60573 6.89495C7.9638 6.65552 8.38625 6.53074 8.81695 6.53719C11.894 6.53507 14.971 6.53507 18.048 6.53719C19.2274 6.53957 20.2741 7.39979 20.4967 8.52952C20.5242 8.67603 20.5375 8.82487 20.5364 8.97394C20.5392 10.2663 20.5364 11.5578 20.54 12.8505C20.54 13.1041 20.4366 13.2794 20.2101 13.3828C19.9835 13.4861 19.7831 13.4396 19.5983 13.2897C19.4695 13.1852 19.4182 13.0469 19.419 12.8823C19.421 12.3655 19.419 11.8488 19.419 11.332L19.4182 11.1583ZM7.50118 10.1875H19.4182C19.4182 9.763 19.4226 9.34681 19.4182 8.93061C19.4075 8.09584 18.7945 7.49042 17.9582 7.49003H8.90917C8.22863 7.49003 7.69874 7.90543 7.53537 8.56331C7.51691 8.62511 7.50597 8.68891 7.50277 8.75332C7.49999 9.22994 7.50118 9.70536 7.50118 10.1875Z" fill="#8F5600"/>
<path d="M15.6215 20.5075C13.5588 20.4876 12.1453 19.5876 11.1893 17.9364C10.9965 17.6037 10.8613 17.2368 10.7099 16.8814C10.6866 16.8131 10.6896 16.7385 10.7182 16.6723C11.547 14.8378 12.9479 13.7211 14.9466 13.4524C17.2847 13.1344 19.5136 14.4387 20.4621 16.5928C20.4907 16.6496 20.5075 16.7116 20.5112 16.7752C20.515 16.8387 20.5057 16.9023 20.4839 16.9621C19.797 18.8948 18.4812 20.0933 16.4293 20.426C16.1216 20.4761 15.808 20.4896 15.6215 20.5075ZM15.6386 19.53C17.3805 19.4354 18.6812 18.6491 19.4858 17.0773C19.5089 17.0372 19.5207 16.9915 19.52 16.9452C19.5193 16.8989 19.5061 16.8536 19.4818 16.8142C18.6721 15.2579 17.3925 14.3973 15.6386 14.3973C13.8896 14.3973 12.6144 15.254 11.8014 16.8011C11.7744 16.8473 11.7604 16.9 11.761 16.9536C11.7616 17.0072 11.7769 17.0596 11.805 17.1052C12.612 18.6543 13.9031 19.4322 15.6386 19.53Z" fill="#8F5600"/>
<path d="M14.1862 9.56198C13.8471 9.56198 13.6006 9.32824 13.5986 9.00546C13.5967 8.68268 13.8463 8.44298 14.1949 8.44338C14.534 8.44338 14.7808 8.67711 14.7832 8.99989C14.7856 9.32267 14.5352 9.56198 14.1862 9.56198Z" fill="#8F5600"/>
<path d="M15.9665 8.44337C16.3139 8.44337 16.5504 8.66638 16.5528 8.99671C16.5548 9.33341 16.3163 9.56198 15.9633 9.56198C15.6171 9.56198 15.3802 9.33818 15.377 9.00864C15.3742 8.67194 15.6131 8.44337 15.9665 8.44337Z" fill="#8F5600"/>
<path d="M17.6278 9.56198C17.2871 9.56198 17.0494 9.32824 17.0518 8.99791C17.0542 8.66757 17.2943 8.44139 17.6524 8.44377C17.9911 8.44377 18.232 8.68228 18.2288 9.00785C18.2256 9.33341 17.9855 9.56198 17.6278 9.56198Z" fill="#8F5600"/>
<path d="M15.6175 18.8638C14.5586 18.8435 13.7039 17.9682 13.725 16.9255C13.7465 15.8669 14.6238 15.0139 15.6672 15.0373C16.7214 15.0612 17.5685 15.9285 17.5526 16.9676C17.5363 18.0246 16.6606 18.8825 15.6175 18.8638ZM14.7124 16.9398C14.7103 17.123 14.7626 17.3028 14.8626 17.4564C14.9626 17.6099 15.1059 17.7304 15.2743 17.8026C15.4427 17.8747 15.6288 17.8953 15.809 17.8618C15.9891 17.8283 16.1553 17.7421 16.2865 17.6142C16.4177 17.4862 16.5081 17.3223 16.5461 17.143C16.5842 16.9638 16.5683 16.7773 16.5004 16.6071C16.4325 16.4368 16.3157 16.2906 16.1647 16.1867C16.0137 16.0828 15.8354 16.0261 15.6521 16.0235C15.4061 16.0208 15.169 16.1157 14.9929 16.2874C14.8167 16.4592 14.7159 16.6938 14.7124 16.9398Z" fill="#8F5600"/>
</g>
<defs>
<clipPath id="clip0_163_1087">
<rect width="14.0064" height="14" fill="white" transform="translate(6.5332 6.53333)"/>
</clipPath>
</defs>
</svg>
