<svg width="40" height="40" viewBox="0 0 40 40" fill="none" xmlns="http://www.w3.org/2000/svg">
<circle cx="20" cy="20" r="20" fill="#C7C9FF"/>
<g clip-path="url(#clip0_205_1519)">
<path d="M23.1683 11.6488C23.6364 11.556 24.0606 11.4162 24.4889 11.3972C25.1554 11.3683 25.814 11.5505 26.3708 11.9179C26.9276 12.2852 27.3543 12.8189 27.59 13.443C28.0802 14.7101 27.7233 16.1259 26.6858 17.0319C26.3515 17.324 26.3384 17.3627 26.4098 17.8434C27.1962 17.7172 27.8226 17.9784 28.2688 18.6518C28.6132 18.519 28.9902 18.4953 29.3485 18.584C29.7177 18.6704 30.0473 18.8782 30.2845 19.174C30.5218 19.4698 30.653 19.8366 30.6573 20.2158C30.6739 21.0783 30.668 21.9409 30.6573 22.8041C30.6502 22.9513 30.6064 23.0945 30.53 23.2205C29.8405 24.3841 29.1415 25.5406 28.4479 26.7018C28.3794 26.8265 28.2772 26.9295 28.153 26.999C28.0287 27.0684 27.8874 27.1015 27.7453 27.0944C26.3545 27.092 24.9634 27.092 23.5722 27.0944C23.434 27.1007 23.2968 27.0682 23.1761 27.0006C23.0554 26.933 22.9561 26.833 22.8893 26.7119C22.1903 25.5453 21.4865 24.3817 20.7953 23.211C20.7166 23.069 20.6741 22.9099 20.6715 22.7476C20.6585 22.0712 20.6715 21.3942 20.665 20.7172C20.6601 20.5829 20.6911 20.4496 20.7549 20.3312C20.8187 20.2128 20.9129 20.1136 21.0279 20.0438C21.5633 19.6869 22.0987 19.3228 22.6418 18.9677C22.6965 18.9385 22.7415 18.894 22.7711 18.8395C22.8007 18.785 22.8137 18.7231 22.8084 18.6613C22.7971 18.2526 22.8113 17.8434 22.8012 17.4347C22.8 17.39 22.7899 17.3459 22.7717 17.3051C22.7534 17.2643 22.7273 17.2274 22.6947 17.1967C21.3455 16.2033 20.9101 14.2497 21.9809 12.7488C22.0016 12.7094 22.0134 12.666 22.0155 12.6216C22.0175 12.5772 22.0098 12.5329 21.9928 12.4918C21.945 12.3771 21.8642 12.2792 21.7605 12.2106C21.6569 12.1421 21.5352 12.106 21.411 12.1069C20.4592 12.0997 19.5073 12.1069 18.5359 12.1069C18.4955 12.5899 18.3116 12.9962 17.9059 13.277C17.6343 13.4662 17.3045 13.5533 16.9749 13.5227C16.2611 13.4668 15.7501 12.9278 15.6567 12.1235C15.6382 12.1131 15.6181 12.1061 15.5972 12.1027C14.6596 12.1027 13.7227 12.095 12.7852 12.1027C12.6047 12.106 12.4324 12.1788 12.3042 12.3059C12.176 12.433 12.1017 12.6046 12.0969 12.7851C12.0927 12.8517 12.0969 12.9189 12.0969 12.9855V28.3585C12.0969 28.979 12.3551 29.2354 12.9785 29.2354H21.2129C21.8078 29.2354 22.0291 29.0361 22.0975 28.4478C22.1158 28.2656 22.2033 28.0975 22.342 27.978C22.4808 27.8586 22.6601 27.797 22.8429 27.806C23.0257 27.8151 23.1981 27.894 23.3244 28.0265C23.4508 28.1589 23.5213 28.3349 23.5216 28.518C23.549 29.6524 22.5906 30.6429 21.4247 30.6595C20.3908 30.6738 19.3568 30.6631 18.3229 30.6631H12.9446C11.5764 30.6631 10.6686 29.7547 10.668 28.3835V12.9439C10.668 11.5757 11.5781 10.672 12.9511 10.6714C15.6965 10.6714 18.4413 10.6792 21.1861 10.6667C22.0249 10.6631 22.6906 10.954 23.1695 11.6494C23.1814 11.6661 23.201 11.678 23.1683 11.6488ZM22.7982 20.5792C22.5603 20.7387 22.358 20.8636 22.1695 21.0052C22.1219 21.0561 22.0961 21.1235 22.0975 21.1931C22.0909 21.6096 22.0886 22.026 22.0975 22.4424C22.1002 22.5517 22.1301 22.6586 22.1843 22.7535C22.7292 23.6738 23.2837 24.5887 23.8292 25.509C23.8545 25.5614 23.8954 25.6047 23.9463 25.633C23.9973 25.6612 24.0557 25.673 24.1135 25.6667C25.1474 25.6607 26.1812 25.6607 27.2147 25.6667C27.3479 25.6667 27.4288 25.634 27.4996 25.5138C28.0481 24.5864 28.6055 23.6643 29.157 22.7387C29.1997 22.671 29.2246 22.5937 29.2295 22.5138C29.2355 21.7773 29.2391 21.0415 29.2254 20.3056C29.2254 20.1973 29.148 20.0361 29.063 19.9974C29.0026 19.9774 28.9385 19.9712 28.8755 19.9795C28.8124 19.9877 28.7521 20.0101 28.6989 20.045C28.5971 20.1342 28.5332 20.2589 28.5204 20.3936C28.4955 20.7113 28.5204 21.0325 28.5097 21.352C28.4978 21.7892 28.1867 22.0992 27.781 22.0926C27.3848 22.0855 27.0915 21.7743 27.085 21.3478C27.0802 21.0652 27.085 20.7827 27.085 20.5001C27.085 20.1949 27.1022 19.8886 27.0725 19.5864C27.0612 19.4674 26.963 19.2978 26.8655 19.2651C26.7679 19.2324 26.5936 19.305 26.4931 19.3841C26.4223 19.4394 26.3902 19.5792 26.3884 19.6815C26.3777 20.239 26.3854 20.797 26.3795 21.3544C26.3753 21.7755 26.0707 22.089 25.6745 22.0926C25.2682 22.0968 24.9559 21.7785 24.9535 21.3472C24.9505 20.7297 24.9535 20.1128 24.9535 19.4953C24.9571 18.3504 24.961 17.2052 24.9654 16.0599C24.9654 15.8993 24.9386 15.7696 24.7614 15.7083C24.4639 15.6042 24.2385 15.75 24.2373 16.07C24.2329 17.4533 24.2303 18.8364 24.2295 20.2193C24.2295 20.5983 24.2343 20.9778 24.2242 21.3567C24.2123 21.7928 23.897 22.1021 23.4913 22.0926C23.0963 22.0837 22.806 21.7714 22.7988 21.3437C22.7953 21.1087 22.7982 20.8713 22.7982 20.5792ZM26.226 15.2027C26.5311 14.7089 26.3794 13.7851 25.7667 13.2538C25.4526 12.9803 25.0526 12.8252 24.6362 12.8156C24.2197 12.8059 23.813 12.9422 23.4865 13.2009C22.8571 13.6946 22.6269 14.5911 22.9648 15.2312C23.7435 13.8624 25.5686 13.9695 26.226 15.2027Z" fill="#0007B7"/>
<path d="M14.938 16.1146C15.2575 15.7916 15.5371 15.5055 15.8202 15.2223C16.1564 14.888 16.5876 14.8654 16.8863 15.1664C17.1849 15.4674 17.1623 15.8945 16.8268 16.2324C16.3925 16.6687 15.9563 17.1049 15.518 17.5411C15.1492 17.9064 14.7554 17.9052 14.3878 17.5411C14.1766 17.3323 13.9648 17.1247 13.7578 16.9106C13.4538 16.5977 13.4484 16.1634 13.7393 15.8767C14.0302 15.5899 14.4532 15.603 14.7578 15.8975C14.8219 15.9664 14.8821 16.0389 14.938 16.1146Z" fill="#0007B7"/>
<path d="M14.9406 20.393C15.2588 20.0724 15.539 19.7862 15.8234 19.5007C16.1577 19.1682 16.592 19.1497 16.8894 19.4513C17.1869 19.7529 17.1619 20.1747 16.8383 20.5019C16.3937 20.9504 15.9471 21.3968 15.4986 21.841C15.1512 22.1836 14.7502 22.1789 14.4004 21.8338C14.1833 21.6197 13.9667 21.4061 13.7544 21.1872C13.4522 20.8749 13.4498 20.4382 13.7431 20.1533C14.0364 19.8683 14.4569 19.885 14.7615 20.1801C14.8198 20.239 14.8674 20.3062 14.9406 20.393Z" fill="#0007B7"/>
<path d="M14.9284 24.6952C15.2622 24.3561 15.5412 24.0688 15.8249 23.7857C16.1575 23.4537 16.5947 23.4371 16.891 23.7404C17.1872 24.0438 17.1599 24.4632 16.835 24.791C16.3956 25.2344 15.9544 25.6756 15.5114 26.1146C15.1545 26.4716 14.7541 26.4716 14.3972 26.1182C14.1807 25.904 13.9629 25.6905 13.7512 25.4716C13.4537 25.1658 13.449 24.7398 13.7292 24.4531C14.0094 24.1664 14.4502 24.1664 14.7625 24.4698C14.8234 24.5406 14.8789 24.616 14.9284 24.6952Z" fill="#0007B7"/>
</g>
<defs>
<clipPath id="clip0_205_1519">
<rect width="20" height="20" fill="white" transform="translate(10.668 10.6667)"/>
</clipPath>
</defs>
</svg>
