<svg width="50" height="50" viewBox="0 0 50 50" fill="none" xmlns="http://www.w3.org/2000/svg">
<circle cx="25" cy="25" r="25" fill="#CCF0BF"/>
<g clip-path="url(#clip0_171_287)">
<path d="M20.0821 25.5379C20.0917 25.5096 20.095 25.5028 20.0962 25.4961C20.1498 25.02 20.0758 24.6585 19.6189 24.3264C18.8283 23.752 18.4645 22.8896 18.4081 21.9097C18.4052 21.8691 18.4019 21.8284 18.3973 21.7669C17.9766 21.7934 17.5818 21.7522 17.2932 21.4071C17.1345 21.2239 17.048 20.9892 17.0498 20.7469C17.0498 20.1702 17.4367 19.8133 18.1827 19.7145C18.0771 19.5015 17.9732 19.2954 17.8721 19.0881C17.2864 17.8857 17.8348 16.5585 19.0954 16.1123C19.2129 16.0662 19.3222 16.0014 19.419 15.9203C19.9341 15.5125 20.4859 15.1861 21.1438 15.0647C21.8198 14.9294 22.5209 15.0019 23.155 15.2725C23.5052 15.4231 23.8514 15.5811 24.1936 15.7464C25.5451 16.3998 26.1189 17.9157 25.5446 19.3044L25.3751 19.7139C26.1805 19.8319 26.5611 20.1917 26.538 20.7977C26.5148 21.4037 26.1167 21.7042 25.2057 21.7815C25.1735 22.0074 25.1537 22.2379 25.1063 22.4627C24.916 23.3697 24.4223 24.0773 23.6554 24.5902C23.5255 24.6766 23.4775 24.763 23.486 24.9126C23.4989 25.1165 23.4893 25.321 23.4893 25.5446C23.892 25.613 24.2862 25.6813 24.6804 25.7474C25.4243 25.8722 26.1692 25.9931 26.9124 26.1218C26.9827 26.1351 27.055 26.1341 27.1249 26.1187C27.1947 26.1034 27.2608 26.0741 27.3191 26.0326C27.4961 25.9201 27.6992 25.8551 27.9087 25.844C29.0309 25.8265 30.1531 25.8321 31.2753 25.8372C31.8565 25.84 32.2919 26.2771 32.2987 26.8577C32.3038 27.1876 32.2987 27.5174 32.2987 27.8687C32.8742 27.8687 33.4282 27.8918 33.9845 27.863C34.7713 27.8218 35.0282 28.1166 35.0186 28.8937C34.9938 30.9834 35.0102 33.0731 35.0102 35.1627C35.0102 35.7586 34.7696 36.0026 34.1811 36.0026H14.5083C14.0904 36.0026 14 35.9116 14 35.4943C14 33.2216 14 30.9488 14 28.6757C14 27.3547 14.8116 26.4217 16.1196 26.2128C17.4005 26.0077 18.6792 25.7886 19.9601 25.5746C20.0014 25.5646 20.0421 25.5523 20.0821 25.5379ZM26.8701 26.8159C26.8467 26.8035 26.8221 26.7935 26.7967 26.786C25.6632 26.5957 24.5297 26.4048 23.395 26.2212C23.3152 26.2203 23.2373 26.2459 23.1736 26.2941C22.9076 26.4726 22.811 26.6985 22.9873 27.0012C23.0358 27.0842 23.0437 27.1898 23.0861 27.2791C23.1781 27.4795 23.151 27.6552 23.0189 27.832C22.8754 28.024 22.7557 28.2335 22.6145 28.4272C22.5764 28.4716 22.5525 28.5264 22.546 28.5845C22.5394 28.6426 22.5505 28.7014 22.5778 28.7531C22.7585 29.1737 22.928 29.5988 23.0861 30.0284C23.1287 30.1385 23.1402 30.2583 23.1194 30.3746C22.7992 31.791 22.4682 33.2047 22.1446 34.62C22.0994 34.8182 22.0192 34.9752 21.7961 34.9775C21.5731 34.9797 21.4866 34.8306 21.4409 34.6296C21.1235 33.2414 20.7959 31.856 20.4864 30.4661C20.4569 30.2968 20.4713 30.1227 20.5282 29.9606C20.6328 29.6235 20.765 29.2955 20.9236 28.9802C21.0761 28.6893 21.0173 28.4803 20.8428 28.2211C20.3085 27.4304 20.3644 27.741 20.6485 26.8487C20.7553 26.5132 20.4497 26.171 20.0979 26.2314C18.8554 26.4409 17.6129 26.6753 16.3619 26.8459C15.1109 27.0164 14.654 27.8963 14.6676 28.7955C14.6998 30.8851 14.6777 32.9748 14.6777 35.0645V35.3051H17.3971V29.5766H18.0709V35.309H24.1659V35.0458C24.1659 32.8997 24.1659 30.7535 24.1659 28.6074C24.1659 28.1471 24.4438 27.8692 24.9001 27.8675C25.4858 27.8675 26.0721 27.8675 26.6577 27.8675C26.7255 27.8675 26.7933 27.8613 26.8667 27.8579L26.8701 26.8159ZM19.545 18.8927C19.3863 19.209 19.2417 19.497 19.0988 19.7862C19.0876 19.8122 19.0826 19.8404 19.0841 19.8686C19.0954 20.6441 19.0474 21.4263 19.1332 22.1938C19.2789 23.4973 20.4701 24.4789 21.7967 24.4783C23.1234 24.4778 24.3004 23.4934 24.4574 22.1887C24.5319 21.5675 24.4613 20.9321 24.5138 20.3086C24.5607 19.7602 24.2574 19.3654 24.0423 18.8899C23.3798 19.4338 22.6456 19.7275 21.812 19.732C20.9682 19.7371 20.2272 19.4411 19.545 18.8927ZM34.2969 28.56H24.8437C24.8437 28.8988 24.8437 29.2236 24.8437 29.5472C24.8538 30.5107 25.5875 31.246 26.5515 31.2545C27.1655 31.2601 27.7799 31.2545 28.3938 31.2545C28.4503 31.2545 28.5023 31.2472 28.5706 31.2421C28.5706 30.9201 28.5706 30.6107 28.5706 30.3017C28.5706 30.0244 28.6954 29.9024 28.9727 29.9002C29.3681 29.9002 29.7634 29.9002 30.1588 29.9002C30.4908 29.9002 30.6021 30.0131 30.6038 30.3452C30.6038 30.6451 30.6038 30.9456 30.6038 31.2556H32.5387C32.6161 31.2556 32.694 31.2556 32.7714 31.2505C33.5259 31.1941 34.1833 30.6321 34.2856 29.8815C34.3454 29.4534 34.2969 29.0112 34.2969 28.56ZM28.5588 31.9334C27.898 31.9334 27.2496 31.9334 26.6018 31.9334C25.9958 31.9455 25.4077 31.7271 24.9566 31.3223C24.9266 31.3005 24.8947 31.2816 24.8612 31.2658V33.9552H34.3189V31.2483C34.272 31.2833 34.2443 31.3014 34.2195 31.3228C33.7377 31.7509 33.1724 31.9441 32.5308 31.9345C31.9593 31.9283 31.3877 31.9345 30.8156 31.9345H30.6162C30.5479 32.8709 30.226 33.2888 29.5878 33.2888C28.9496 33.2888 28.6277 32.872 28.5588 31.9334ZM21.1822 17.5429C20.4989 16.4868 19.4168 16.5438 18.8548 16.9979C18.2245 17.5062 18.1353 18.4307 18.6769 19.1073C18.8187 18.8249 18.9531 18.5476 19.0954 18.2749C19.2304 18.0162 19.4309 17.9704 19.6692 18.141C19.8753 18.2895 20.0719 18.4522 20.2837 18.5928C20.5905 18.8023 20.9376 18.9454 21.3029 19.013C21.6682 19.0806 22.0435 19.0712 22.405 18.9853C22.9088 18.8724 23.321 18.5985 23.7215 18.2929C24.2298 17.9066 24.3201 17.932 24.6093 18.5087C24.6996 18.6894 24.7923 18.869 24.8917 19.0622C25.3836 18.1404 24.9515 16.8934 23.975 16.3947C23.5933 16.197 23.2014 16.0196 22.8009 15.8633C21.9741 15.5453 21.1732 15.6374 20.3588 16.0892C20.9699 16.2948 21.4217 16.6393 21.7301 17.1826L21.1822 17.5429ZM34.3223 34.659H24.8606V35.3113H34.3223V34.659ZM31.621 27.8602C31.621 27.5372 31.621 27.2344 31.621 26.9323C31.621 26.6301 31.5007 26.5127 31.1957 26.5121C30.4615 26.5121 29.7273 26.5121 28.9931 26.5121H28.3859C28.94 26.8617 29.2851 27.3028 29.4748 27.8608L31.621 27.8602ZM21.7651 33.0143L21.8086 33.0188C21.8196 32.9964 21.8288 32.9732 21.8362 32.9494C22.0334 32.1022 22.2316 31.25 22.423 30.3989C22.4397 30.3107 22.4317 30.2196 22.3999 30.1357C22.2587 29.7592 22.11 29.3868 21.9537 29.0186C21.93 28.9621 21.8498 28.8887 21.8029 28.8937C21.7668 28.9014 21.7329 28.9171 21.7035 28.9396C21.6742 28.962 21.6503 28.9908 21.6335 29.0236C21.4759 29.3919 21.3291 29.7652 21.1856 30.1396C21.1565 30.21 21.1474 30.2869 21.1591 30.3622C21.3573 31.2472 21.5618 32.1305 21.7651 33.0143ZM21.8012 26.712C22.1294 26.3799 22.4428 26.0659 22.7523 25.7479C22.7852 25.7129 22.8051 25.6677 22.8088 25.6197C22.8144 25.4232 22.8088 25.2244 22.8088 25.003C22.1461 25.2047 21.4383 25.2047 20.7756 25.003C20.7756 25.2171 20.7705 25.4068 20.779 25.596C20.7828 25.657 20.8071 25.7149 20.8479 25.7604C21.1551 26.0716 21.4663 26.3782 21.8012 26.712ZM29.2489 30.5869C29.2489 31.167 29.2433 31.7289 29.2517 32.2909C29.2519 32.3335 29.2607 32.3757 29.2775 32.4149C29.2943 32.4541 29.3188 32.4895 29.3496 32.5191C29.3804 32.5486 29.4167 32.5717 29.4566 32.5869C29.4964 32.6021 29.5389 32.6092 29.5816 32.6077C29.7685 32.6032 29.9091 32.4998 29.9142 32.3191C29.9295 31.7447 29.9199 31.1698 29.9199 30.5869H29.2489ZM28.7406 27.8574C28.478 27.3536 28.1035 27.0452 27.5625 26.9272V27.8574H28.7406ZM21.2692 27.1684C21.1421 27.3621 21.1433 27.5343 21.2969 27.7083C21.3833 27.8197 21.4625 27.9364 21.5341 28.0579C21.6809 28.2759 21.9006 28.2753 22.0475 28.0579C22.1339 27.9291 22.2197 27.7998 22.3056 27.671C22.4569 27.4451 22.4564 27.4231 22.2988 27.1797C21.7973 27.6038 21.7973 27.6038 21.2726 27.1684H21.2692ZM18.3951 20.417C18.172 20.4233 17.9274 20.3363 17.7958 20.5695C17.7691 20.6267 17.7552 20.6891 17.7552 20.7522C17.7552 20.8154 17.7691 20.8778 17.7958 20.9349C17.9303 21.1659 18.1726 21.079 18.3928 21.084L18.3951 20.417ZM25.1825 20.4272V21.0778C25.6643 21.1123 25.8603 21.0118 25.8603 20.7486C25.8603 20.4854 25.6541 20.3837 25.1825 20.4272Z" fill="#207900"/>
</g>
<defs>
<clipPath id="clip0_171_287">
<rect width="21.0186" height="21" fill="white" transform="translate(14 15)"/>
</clipPath>
</defs>
</svg>
