<svg width="21" height="26" viewBox="0 0 21 26" fill="none" xmlns="http://www.w3.org/2000/svg">
<path d="M4.33333 13H9.75V15.1667H4.33333V13ZM15.1667 8.66667H4.33333V10.8333H15.1667V8.66667ZM15.1667 4.33333H4.33333V6.5H15.1667V4.33333ZM18.4167 21.0643V26L16.25 23.8333L14.0833 26V21.0643C13.2571 20.5896 12.6111 19.8551 12.2458 18.975C11.8805 18.0949 11.8165 17.1187 12.0638 16.1985C12.311 15.2783 12.8556 14.4656 13.6128 13.8871C14.3699 13.3086 15.2971 12.9967 16.25 13C16.6162 13.0046 16.9803 13.0563 17.3333 13.1538V3.25C17.3333 2.96268 17.2192 2.68713 17.016 2.48397C16.8129 2.2808 16.5373 2.16667 16.25 2.16667H3.25C2.96268 2.16667 2.68713 2.2808 2.48397 2.48397C2.2808 2.68713 2.16667 2.96268 2.16667 3.25V21.6667H11.9167V23.8333H0V3.25C0 2.38805 0.34241 1.5614 0.951903 0.951903C1.5614 0.34241 2.38805 0 3.25 0L16.25 0C17.112 0 17.9386 0.34241 18.5481 0.951903C19.1576 1.5614 19.5 2.38805 19.5 3.25V14.4972C19.9244 14.9737 20.2368 15.5391 20.4144 16.1521C20.5919 16.765 20.6302 17.4098 20.5263 18.0394C20.4225 18.669 20.1791 19.2674 19.8141 19.7908C19.4491 20.3142 18.9716 20.7493 18.4167 21.0643ZM18.4167 17.3333C18.4167 16.9048 18.2896 16.4859 18.0515 16.1296C17.8134 15.7733 17.4751 15.4956 17.0791 15.3316C16.6832 15.1676 16.2476 15.1247 15.8273 15.2083C15.407 15.2919 15.0209 15.4983 14.7179 15.8013C14.4149 16.1043 14.2086 16.4903 14.125 16.9106C14.0414 17.3309 14.0843 17.7666 14.2483 18.1625C14.4122 18.5584 14.69 18.8968 15.0463 19.1349C15.4026 19.3729 15.8215 19.5 16.25 19.5C16.8246 19.5 17.3757 19.2717 17.7821 18.8654C18.1884 18.4591 18.4167 17.908 18.4167 17.3333Z" fill="black"/>
</svg>
