<svg width="12" height="12" viewBox="0 0 12 12" fill="none" xmlns="http://www.w3.org/2000/svg">
<g clip-path="url(#clip0_171_69)">
<path d="M12.0002 1.87501V2.15626C11.9417 2.40844 11.7945 2.60157 11.6133 2.78126C10.4366 3.95167 9.26255 5.12459 8.09109 6.3C8.06172 6.33125 8.03391 6.3625 7.99734 6.39969C8.26203 6.66407 8.52297 6.92126 8.77859 7.18313C8.83328 7.23907 8.88109 7.24563 8.95359 7.22626C10.2289 6.88563 11.5645 7.65625 11.9064 8.93094C11.9514 9.09875 11.9689 9.27469 12.0002 9.44532V9.72657C11.9933 9.75219 11.9861 9.77782 11.9798 9.80375C11.9236 10.0338 11.8808 10.2684 11.8073 10.4913C11.7314 10.7241 11.5414 10.7547 11.3658 10.5794C11.0366 10.2513 10.708 9.92271 10.3798 9.59376C10.3505 9.56469 10.3198 9.53688 10.3105 9.52782L9.51078 10.325C9.54766 10.3526 9.58313 10.382 9.61703 10.4131C9.94391 10.7381 10.2698 11.0639 10.5948 11.3903C10.743 11.54 10.708 11.7178 10.5167 11.8047C10.471 11.8266 10.4234 11.8445 10.3745 11.8581C10.1823 11.9066 9.98953 11.9519 9.79703 11.9984H9.32828C9.31121 11.9901 9.29329 11.9836 9.27484 11.9791C7.87984 11.7853 6.95047 10.5597 7.18453 9.17219C7.23078 8.89813 7.16828 8.74501 6.97828 8.58001C6.77297 8.40157 6.59016 8.19751 6.37266 7.97938C6.34921 8.02042 6.32234 8.05941 6.29234 8.09594C5.39651 8.99448 4.4987 9.89157 3.59891 10.7872C3.52834 10.858 3.44296 10.9123 3.34891 10.9463C2.37391 11.2753 1.39641 11.5975 0.420156 11.9228C0.310469 11.9591 0.205782 11.9759 0.114532 11.8856C0.0232815 11.7953 0.0410939 11.6897 0.0773439 11.5803C0.401094 10.6075 0.722031 9.63376 1.04953 8.66219C1.08216 8.56716 1.13553 8.48059 1.20578 8.40876C2.09995 7.50813 2.99693 6.61011 3.89672 5.71469C3.93434 5.68286 3.97424 5.65383 4.01609 5.62782C3.96797 5.57657 3.94234 5.54782 3.91547 5.52063C3.69172 5.29688 3.46453 5.07657 3.24641 4.84751C3.17516 4.77282 3.11328 4.75782 3.01328 4.78313C1.82859 5.08282 0.596407 4.44219 0.169532 3.3C0.0939068 3.09782 0.0582813 2.88063 0.00390625 2.67032V2.20157C0.0629687 1.97626 0.110157 1.74688 0.184844 1.52688C0.269844 1.27688 0.450782 1.24219 0.637032 1.42813C0.968907 1.75896 1.30037 2.09032 1.63141 2.42219C1.65516 2.44594 1.68172 2.46719 1.69391 2.47907L2.47859 1.69376C2.46609 1.68032 2.44578 1.65719 2.42422 1.63563C2.08443 1.29563 1.74484 0.955735 1.40547 0.615943C1.25672 0.466255 1.28828 0.282818 1.47609 0.20188C1.55026 0.167192 1.62733 0.139063 1.70641 0.117818C1.89391 0.0734429 2.08609 0.0378186 2.27609 -0.0015564H2.58078C2.72953 0.0253186 2.88078 0.0431303 3.02703 0.0806303C3.3371 0.159764 3.62851 0.299302 3.88456 0.491247C4.14061 0.683192 4.35627 0.923773 4.51918 1.19921C4.68209 1.47464 4.78906 1.77951 4.83395 2.09635C4.87884 2.4132 4.86077 2.73578 4.78078 3.04563C4.76891 3.09251 4.77703 3.16688 4.80734 3.19844C5.05734 3.45751 5.31234 3.70938 5.56703 3.96282C5.58513 3.97801 5.60459 3.9915 5.62516 4.00313C5.65641 3.965 5.68391 3.92626 5.71703 3.89313C6.87328 2.73563 8.02953 1.57803 9.18578 0.420319C9.37516 0.228756 9.57203 0.0581307 9.84391 5.72205e-06H10.1252C10.4002 0.0625057 10.5989 0.236568 10.788 0.433756C11.038 0.695839 11.2947 0.952505 11.5583 1.20376C11.7577 1.39532 11.9377 1.59563 12.0002 1.87501ZM2.34641 9.34376C2.37488 9.30522 2.40534 9.26819 2.43766 9.23282C3.14099 8.52782 3.84505 7.82355 4.54984 7.12001C4.57649 7.09143 4.60466 7.06431 4.63422 7.03876C4.67877 7.0002 4.73629 6.97996 4.79517 6.98214C4.85406 6.98432 4.90992 7.00874 4.95151 7.05049C4.99309 7.09223 5.01731 7.14819 5.01926 7.20708C5.02121 7.26597 5.00076 7.32341 4.96203 7.36782C4.9367 7.39738 4.90978 7.42554 4.88141 7.45219C4.17162 8.16219 3.46203 8.87198 2.75266 9.58157C2.72328 9.61063 2.69578 9.64188 2.68141 9.65751L3.36328 10.345L10.2923 3.41407L9.58828 2.70813C9.5701 2.74391 9.54798 2.77756 9.52234 2.80844C8.63443 3.69844 7.74557 4.58792 6.85578 5.47688C6.72047 5.61188 6.58766 5.75001 6.44953 5.88063C6.4283 5.90254 6.40284 5.9199 6.37469 5.93167C6.34655 5.94345 6.31631 5.94938 6.2858 5.94912C6.2553 5.94886 6.22516 5.9424 6.19723 5.93015C6.16929 5.91789 6.14413 5.90009 6.12328 5.87782C6.03172 5.78407 6.02953 5.65751 6.12109 5.55094C6.14641 5.51969 6.17516 5.49469 6.20266 5.46719C7.19682 4.47282 8.1912 3.47896 9.18578 2.48563C9.21848 2.45815 9.25411 2.43436 9.29203 2.41469L8.59609 1.71876L1.65953 8.65313L2.34641 9.34376ZM5.26141 4.32407C4.96516 4.02876 4.67266 3.73032 4.37172 3.44126C4.25203 3.32594 4.22734 3.21469 4.28141 3.05469C4.4233 2.63475 4.41797 2.17902 4.26632 1.7625C4.11466 1.34599 3.82571 0.993527 3.44703 0.763131C2.99828 0.489694 2.51516 0.410006 1.98078 0.528131C2.02078 0.570943 2.04797 0.601881 2.07703 0.631256C2.3687 0.923964 2.6613 1.21678 2.95484 1.50969C3.09516 1.65094 3.09547 1.77251 2.95484 1.91282C2.60484 2.26448 2.25411 2.61521 1.90266 2.96501C1.76203 3.10532 1.64297 3.10407 1.49953 2.96157C1.2062 2.6699 0.913385 2.37719 0.621094 2.08344C0.591719 2.05407 0.560469 2.02657 0.522656 1.99126C0.511406 2.03344 0.501719 2.06251 0.496094 2.09219C0.319531 3.03157 0.888594 3.98844 1.80391 4.28938C2.21781 4.43041 2.66733 4.42677 3.07891 4.27907C3.20953 4.23313 3.31422 4.25251 3.40641 4.35532C3.45078 4.40438 3.50016 4.44907 3.54703 4.49626L4.31609 5.26688L5.26141 4.32407ZM11.4717 10.0184C11.5375 9.76091 11.5458 9.49206 11.4961 9.23094C11.262 8.02751 10.0845 7.34032 8.91766 7.72844C8.78141 7.77376 8.67922 7.74907 8.58016 7.64782C8.30703 7.36876 8.02922 7.09407 7.75297 6.81813C7.72391 6.78907 7.69266 6.76251 7.67828 6.74938L6.73391 7.68469C7.02609 7.97563 7.31828 8.27407 7.61984 8.56344C7.73922 8.67844 7.76766 8.79001 7.71359 8.94969C7.62722 9.20563 7.59475 9.47667 7.61823 9.74576C7.6417 10.0149 7.72062 10.2762 7.85 10.5133C7.97939 10.7504 8.15645 10.9582 8.37004 11.1235C8.58363 11.2889 8.82913 11.4082 9.09109 11.4741C9.39255 11.5532 9.70921 11.5541 10.0111 11.4766C9.97359 11.4369 9.94859 11.4084 9.92047 11.3828C9.62547 11.0859 9.33026 10.7898 9.03484 10.4944C8.89766 10.3559 8.89734 10.2363 9.03328 10.0997C9.3862 9.74574 9.73974 9.3923 10.0939 9.03938C10.2289 8.90501 10.3517 8.90594 10.4886 9.04188C10.7848 9.33646 11.0805 9.63178 11.3755 9.92782C11.402 9.95469 11.4305 9.97969 11.4717 10.0184ZM10.6517 3.05907C10.9083 2.80657 11.1783 2.55313 11.433 2.28501C11.5802 2.13063 11.5689 1.88751 11.4158 1.73094C11.0391 1.34553 10.6582 0.964485 10.273 0.587818C10.102 0.420318 9.85641 0.427505 9.68234 0.591568C9.58297 0.685318 9.4886 0.78438 9.39172 0.88063C9.23547 1.03688 9.07922 1.19313 8.93047 1.33751C9.51328 1.91969 10.0833 2.49032 10.6517 3.05907ZM2.88766 10.6106L1.38984 9.1125C1.31859 9.32751 1.24172 9.55563 1.17109 9.78532C1.16848 9.80111 1.16939 9.81729 1.17377 9.83269C1.17814 9.84809 1.18587 9.86232 1.19641 9.87438C1.50307 10.1856 1.81266 10.4948 2.12516 10.8019C2.13871 10.8133 2.15463 10.8215 2.17177 10.826C2.1889 10.8305 2.20682 10.8311 2.22422 10.8278C2.44922 10.7575 2.67391 10.6813 2.88766 10.6106ZM0.646406 11.3534L1.64859 11.0209L0.979844 10.3516C0.875157 10.6713 0.764531 11 0.646406 11.3534Z" fill="black"/>
<path d="M5.54133 6.22908C5.57162 6.22853 5.60171 6.23408 5.6298 6.24541C5.6579 6.25674 5.68342 6.27361 5.70486 6.29501C5.72629 6.31642 5.7432 6.34192 5.75456 6.37C5.76593 6.39808 5.77153 6.42816 5.77102 6.45845C5.77145 6.51954 5.74795 6.57838 5.70555 6.62236C5.66315 6.66634 5.60521 6.69197 5.54414 6.69376C5.51289 6.69381 5.48194 6.68767 5.45306 6.67571C5.42419 6.66375 5.39796 6.6462 5.37589 6.62407C5.35382 6.60194 5.33634 6.57567 5.32446 6.54677C5.31257 6.51786 5.30652 6.48689 5.30664 6.45564C5.30713 6.42534 5.31359 6.39543 5.32566 6.36764C5.33773 6.33984 5.35516 6.3147 5.37696 6.29365C5.39876 6.2726 5.42451 6.25606 5.45271 6.24498C5.48092 6.2339 5.51103 6.2285 5.54133 6.22908Z" fill="black"/>
</g>
<defs>
<clipPath id="clip0_171_69">
<rect width="12" height="12" fill="white"/>
</clipPath>
</defs>
</svg>
