<svg width="12" height="14" viewBox="0 0 12 14" fill="none" xmlns="http://www.w3.org/2000/svg">
<g clip-path="url(#clip0_166_1267)">
<path d="M5.35844 13.6701C5.15536 13.653 4.95261 13.635 4.74986 13.6186C3.80391 13.5438 2.87266 13.3912 1.97248 13.0822C1.44473 12.9012 0.93969 12.6754 0.516153 12.2993C0.303048 12.1099 0.13704 11.8871 0.0545373 11.6112C-0.0977758 11.1038 0.0752473 10.6849 0.427972 10.3265C0.780697 9.96814 1.22962 9.74334 1.69725 9.56197C2.31619 9.32181 2.95784 9.16582 3.61152 9.05626C3.64091 9.05125 3.6693 9.04157 3.70872 9.03155C3.68467 8.98879 3.6673 8.95406 3.64659 8.92166C3.18731 8.20351 2.71968 7.49105 2.26909 6.76656C1.68623 5.82729 1.47145 4.80352 1.66785 3.71395C1.94977 2.1484 2.82557 1.00839 4.28156 0.381767C5.78198 -0.262892 7.23797 -0.0841914 8.57271 0.867097C9.49795 1.52612 10.0735 2.43432 10.3036 3.54393C10.5408 4.68862 10.351 5.77151 9.73009 6.76656C9.27917 7.49005 8.81221 8.20285 8.35259 8.92199C8.33189 8.95539 8.31452 8.98879 8.29013 9.03222C8.55735 9.08666 8.81321 9.13242 9.06673 9.19221C9.79055 9.36156 10.501 9.57066 11.134 9.97816C11.4827 10.2023 11.784 10.4718 11.9283 10.88C12.0726 11.2882 11.9951 11.6593 11.7506 12.002C11.5061 12.3447 11.157 12.5728 10.7863 12.7612C10.026 13.147 9.20935 13.3558 8.3723 13.478C7.83252 13.5568 7.2864 13.5926 6.74329 13.6484C6.69953 13.6527 6.65644 13.6627 6.61302 13.6701H5.35844ZM5.99608 11.1218C6.03483 11.0641 6.06289 11.025 6.08794 10.9846C7.04591 9.48348 7.99987 7.97838 8.96318 6.48197C9.72642 5.29554 9.82495 4.05866 9.197 2.80174C8.61914 1.64737 7.65416 0.974987 6.36718 0.845053C5.00772 0.707437 3.90813 1.22517 3.08944 2.31708C2.226 3.46845 2.17189 5.13621 2.94414 6.34336C3.62399 7.40554 4.30316 8.46783 4.98166 9.53024C5.31802 10.054 5.65138 10.5787 5.99742 11.1218H5.99608ZM5.99408 12.8891C6.49511 12.8557 6.99614 12.8354 7.49717 12.7889C8.36562 12.7108 9.21938 12.5458 10.0357 12.2238C10.4082 12.0768 10.7706 11.9081 11.0458 11.6002C11.2516 11.3684 11.2489 11.1699 11.0458 10.9381C10.8547 10.7197 10.6116 10.5727 10.354 10.4495C9.56876 10.0717 8.72603 9.90234 7.86994 9.78877C7.83653 9.78443 7.78376 9.82217 7.76104 9.85558C7.66084 10.0019 7.56765 10.1535 7.47245 10.3032C7.10503 10.8797 6.73761 11.4564 6.37019 12.0334C6.26564 12.2004 6.12735 12.2889 5.92594 12.2572C5.78164 12.2341 5.6958 12.1363 5.62198 12.02C5.1695 11.3074 4.71679 10.5958 4.26386 9.88497C4.21676 9.81082 4.17668 9.76973 4.07514 9.79211C3.88942 9.83353 3.69803 9.84856 3.51031 9.88296C2.80553 10.0132 2.11143 10.1836 1.48281 10.5417C1.28391 10.6575 1.10147 10.7995 0.940359 10.9639C0.745291 11.1609 0.755312 11.3724 0.940359 11.5808C1.02529 11.6774 1.12125 11.7637 1.22628 11.838C1.64581 12.1323 2.12179 12.3036 2.60979 12.4422C3.7154 12.7585 4.84873 12.8621 5.99542 12.8891H5.99408Z" fill="#445479"/>
<path d="M7.99955 4.43946C8.00015 4.83482 7.88353 5.22149 7.66445 5.5506C7.44537 5.87971 7.13365 6.13649 6.76868 6.28851C6.40371 6.44052 6.00187 6.48094 5.61394 6.40466C5.226 6.32837 4.86939 6.13881 4.58915 5.85993C4.30891 5.58104 4.11763 5.22535 4.03947 4.83779C3.96131 4.45023 3.99978 4.0482 4.15003 3.6825C4.30027 3.3168 4.55555 3.00384 4.88359 2.78316C5.21164 2.56249 5.59774 2.44401 5.9931 2.44269C6.52357 2.44268 7.03246 2.65275 7.40846 3.02694C7.78447 3.40113 7.99699 3.90899 7.99955 4.43946ZM7.19791 4.43946C7.19826 4.12143 7.07226 3.81629 6.84763 3.59115C6.623 3.36602 6.31814 3.23935 6.00011 3.23899C5.68208 3.23864 5.37694 3.36463 5.15181 3.58926C4.92667 3.81389 4.8 4.11876 4.79964 4.43679C4.79497 5.09213 5.34877 5.6456 6.00412 5.63926C6.65947 5.63291 7.20091 5.09214 7.19891 4.44046L7.19791 4.43946Z" fill="#445479"/>
</g>
<defs>
<clipPath id="clip0_166_1267">
<rect width="12" height="13.6701" fill="white"/>
</clipPath>
</defs>
</svg>
