<svg width="14" height="14" viewBox="0 0 14 14" fill="none" xmlns="http://www.w3.org/2000/svg">
<circle cx="7" cy="7" r="6.5" stroke="#286BFF"/>
<path d="M9.40736 11H4.59386C4.52225 10.9777 4.44613 10.9644 4.38019 10.9311C4.11897 10.8002 4 10.5805 4 10.2923C4 8.94356 4 7.5948 4 6.24598C4 6.04913 4.04872 5.99982 4.24302 5.99982H4.66704C4.66704 5.78458 4.66704 5.57854 4.66704 5.37368C4.66587 4.73559 4.87308 4.1748 5.32176 3.72006C5.93362 3.09998 6.67834 2.87692 7.52931 3.06535C8.5605 3.29369 9.31481 4.22176 9.32949 5.28797C9.33242 5.49617 9.33125 5.70455 9.33203 5.91275V6.00021C9.49424 6.00021 9.6451 6.00021 9.79596 6.00021C9.93293 6.00021 9.99946 6.06381 9.99946 6.19921C9.99946 7.57138 9.99946 8.94362 9.99946 10.3159C9.99946 10.5429 9.91532 10.7376 9.72552 10.8654C9.63238 10.9296 9.51439 10.9562 9.40736 11ZM8.33117 5.99747C8.33117 5.7566 8.33411 5.52258 8.33117 5.28895C8.32949 5.01026 8.23286 4.74047 8.05723 4.52407C7.71951 4.10436 7.27827 3.92454 6.74898 4.02883C6.21441 4.13332 5.86572 4.46478 5.71623 4.98957C5.62368 5.31517 5.67886 5.65211 5.67162 5.98417C5.67162 5.98789 5.67768 5.9918 5.68257 5.99747H8.33117ZM6.99415 9.66767C7.09316 9.66767 7.19217 9.66767 7.29099 9.66767C7.44654 9.66571 7.51346 9.58686 7.49566 9.43463C7.46266 9.15025 7.43135 8.86581 7.40174 8.58131C7.40127 8.56817 7.40346 8.55508 7.40816 8.54281C7.41287 8.53054 7.42 8.51934 7.42913 8.50989C7.6068 8.35081 7.6835 8.1567 7.65943 7.91759C7.62245 7.53897 7.21761 7.25348 6.84857 7.35269C6.58364 7.42391 6.41066 7.59336 6.35177 7.85909C6.2958 8.11209 6.37251 8.33124 6.56818 8.50676C6.57836 8.51701 6.58632 8.52926 6.59157 8.54272C6.59682 8.55618 6.59925 8.57058 6.5987 8.58502C6.56935 8.87227 6.53648 9.15912 6.50439 9.44598C6.48874 9.58549 6.55585 9.66434 6.69752 9.66806C6.79633 9.66963 6.89534 9.66767 6.99415 9.66767Z" fill="#286BFF"/>
</svg>
