<svg width="16" height="17" viewBox="0 0 16 17" fill="none" xmlns="http://www.w3.org/2000/svg">
<g clip-path="url(#clip0_206_1869)">
<path d="M2.83094 17.0014C2.58605 16.939 2.33394 16.8956 2.09809 16.8107C0.849727 16.3616 0.0441403 15.2465 0.00709149 13.9191C-0.00555933 13.46 0.00257307 13.0005 0.00257307 12.5415C0.00257307 9.44294 0.00257307 6.34439 0.00257307 3.24584C0.00257307 2.13347 0.439931 1.24114 1.33724 0.584198C1.86434 0.199233 2.50176 -0.00505148 3.15444 0.00180765C4.64332 -0.00210808 6.13175 -0.00210808 7.61973 0.00180765C7.93012 0.00180765 8.14112 0.197443 8.14564 0.478472C8.15016 0.769441 7.94277 0.970951 7.62108 0.971403C6.16036 0.974114 4.69964 0.96824 3.23847 0.974114C2.29463 0.97818 1.59793 1.40018 1.17503 2.25049C1.03662 2.53538 0.966833 2.84872 0.971265 3.16542C0.971265 6.72361 0.971265 10.2815 0.971265 13.8391C0.973524 15.0879 1.94402 16.0232 3.2213 16.0272C4.65988 16.0322 6.09846 16.0272 7.53704 16.0272C7.82124 16.0272 8.00874 16.1714 8.06205 16.4144C8.1122 16.6444 7.99428 16.85 7.74578 16.9688C7.73215 16.9771 7.71942 16.9868 7.70783 16.9977L2.83094 17.0014Z" fill="#E00000"/>
<path d="M14.0841 8.99382H13.8447C10.6856 8.99382 7.52648 8.99382 4.36739 8.99382C4.27366 8.99647 4.17995 8.98813 4.08817 8.96897C3.98198 8.94158 3.88839 8.87861 3.82301 8.79057C3.75764 8.70252 3.72443 8.59472 3.72892 8.48515C3.73341 8.37558 3.77534 8.27086 3.8477 8.18846C3.92007 8.10606 4.0185 8.05096 4.12657 8.03236C4.21428 8.02021 4.30281 8.01508 4.39134 8.017C7.53898 8.017 10.6866 8.017 13.8343 8.017H14.0787C14.0096 7.94245 13.9716 7.89817 13.9305 7.8566C13.2501 7.17587 12.5693 6.49528 11.8883 5.81485C11.7754 5.70235 11.6859 5.58171 11.6886 5.41183C11.686 5.32269 11.709 5.23467 11.755 5.15826C11.801 5.08184 11.868 5.02024 11.9479 4.9808C12.0252 4.93602 12.1139 4.91513 12.203 4.92076C12.2921 4.92639 12.3776 4.95829 12.4486 5.01243C12.5018 5.052 12.5516 5.09614 12.5972 5.14436C13.5758 6.12208 14.5539 7.10011 15.5313 8.07845C15.8354 8.38207 15.834 8.6265 15.5281 8.93283C14.5423 9.91929 13.5567 10.9056 12.5715 11.8918C12.4111 12.0531 12.2344 12.1425 12.0062 12.0576C11.9343 12.032 11.8695 11.9897 11.8172 11.9341C11.7649 11.8785 11.7266 11.8112 11.7054 11.7378C11.6843 11.6645 11.681 11.5871 11.6958 11.5122C11.7105 11.4373 11.7429 11.367 11.7903 11.3071C11.8321 11.2555 11.8774 11.2067 11.9258 11.1612C12.5945 10.4919 13.2635 9.8229 13.9328 9.15422C13.9752 9.11084 14.015 9.06657 14.0841 8.99382Z" fill="#E00000"/>
</g>
<defs>
<clipPath id="clip0_206_1869">
<rect width="15.7593" height="17" fill="white"/>
</clipPath>
</defs>
</svg>
