<svg width="16" height="14" viewBox="0 0 16 14" fill="none" xmlns="http://www.w3.org/2000/svg">
<g clip-path="url(#clip0_206_1887)">
<path d="M15.923 2.24146V12.7546C15.9145 12.7676 15.908 12.7818 15.9035 12.7967C15.8058 13.4978 15.2024 14.0014 14.4518 14.0006C10.1244 13.9962 5.79688 13.9949 1.46922 13.9967C1.3295 13.9985 1.19016 13.9819 1.05478 13.9473C0.380937 13.7615 0.000389506 13.2345 0 12.5007C0 9.14727 0 5.79401 0 2.44089C0 2.03697 0.169825 1.86987 0.579585 1.86987H4.69588C4.69588 1.70979 4.69588 1.57502 4.69588 1.44142C4.70834 0.611771 5.30312 0.0107635 6.13316 0.00647889C7.35075 0.0002468 8.56913 -0.00209004 9.78672 0.0115427C10.0086 0.0144025 10.2275 0.0634857 10.4294 0.15566C10.963 0.405723 11.2084 0.85677 11.2259 1.43908C11.2298 1.58164 11.2259 1.7242 11.2259 1.87104H11.4374C12.7333 1.87104 14.0288 1.87611 15.3247 1.86715C15.62 1.86364 15.8283 1.95128 15.923 2.24146ZM5.62914 8.40071H3.10241C2.36781 8.40071 1.87936 8.04743 1.64683 7.34905C1.43702 6.72246 1.22824 6.09458 1.02051 5.4654C1.00142 5.40931 0.981555 5.354 0.958964 5.2983L0.934425 5.30298V12.4784C0.934425 12.9038 1.09841 13.0654 1.52959 13.0654H14.4004C14.8289 13.0654 14.9901 12.9022 14.9901 12.4734V5.30259C14.958 5.33192 14.935 5.36993 14.9239 5.41204C14.7076 6.05992 14.4913 6.70766 14.275 7.35528C14.0444 8.04432 13.554 8.39993 12.8307 8.40032C12.0431 8.40032 11.2554 8.40032 10.4676 8.40032H10.2939C10.2939 8.56002 10.2939 8.69946 10.2939 8.83852C10.2884 9.13454 10.1014 9.33124 9.80931 9.33163C8.57588 9.33475 7.34244 9.33475 6.10901 9.33163C5.82467 9.33163 5.63654 9.13688 5.62992 8.84865C5.62641 8.70726 5.62914 8.56119 5.62914 8.40071ZM1.12256 2.80936C1.13151 2.84247 1.13658 2.86701 1.14476 2.89038C1.61216 4.29416 2.07957 5.69781 2.54698 7.10132C2.63579 7.3658 2.78691 7.46668 3.07476 7.46746C3.88311 7.46746 4.69147 7.46746 5.49982 7.46746C5.53877 7.46746 5.57772 7.46123 5.62758 7.45694C5.62758 7.31399 5.62758 7.17961 5.62758 7.04601C5.63147 6.7235 5.81844 6.53615 6.14329 6.53576C7.35595 6.5342 8.56848 6.5342 9.78088 6.53576C10.1038 6.53576 10.2872 6.72545 10.2923 7.04991C10.2923 7.1874 10.2923 7.3249 10.2923 7.46824H12.7851C13.1559 7.46824 13.2814 7.37748 13.3986 7.02498C13.7279 6.03823 14.0569 5.05149 14.3856 4.06474C14.5243 3.64875 14.6618 3.23236 14.802 2.80897L1.12256 2.80936ZM5.62914 1.86169H10.2939C10.2939 1.71018 10.2966 1.56606 10.2939 1.42272C10.2872 1.1302 10.0968 0.942461 9.80152 0.937397C9.63053 0.934281 9.45954 0.937397 9.28893 0.937397C8.24298 0.937397 7.19703 0.937397 6.15107 0.937397C5.81766 0.937397 5.63303 1.12397 5.62992 1.45661C5.62797 1.58592 5.62914 1.71524 5.62914 1.86169ZM6.5694 8.3902H9.34853V7.47564H6.5694V8.3902Z" fill="#535353"/>
</g>
<defs>
<clipPath id="clip0_206_1887">
<rect width="15.923" height="14" fill="white"/>
</clipPath>
</defs>
</svg>
