<svg width="18" height="20" viewBox="0 0 18 20" fill="none" xmlns="http://www.w3.org/2000/svg">
<g clip-path="url(#clip0_206_1807)">
<path d="M8.6766 19.9898C6.32932 19.9898 3.98205 19.9687 1.63477 20C0.656137 20.0126 -0.00952673 19.288 0.000103125 18.3701C0.027789 15.8808 0.0127426 13.3909 0.00792767 10.901C0.00792767 10.1739 0.317888 9.66717 0.994987 9.3855C1.02614 9.36659 1.05297 9.34132 1.07371 9.31135C1.09445 9.28138 1.10864 9.24738 1.11536 9.21156C1.12612 9.09934 1.12874 8.9865 1.12318 8.87391C1.14425 8.30334 1.53787 7.92115 2.11145 7.92838C4.26635 7.95288 6.39865 8.37081 8.40336 9.1616C8.49074 9.19987 8.58511 9.21963 8.68051 9.21963C8.77592 9.21963 8.87028 9.19987 8.95767 9.1616C10.9481 8.37667 13.0644 7.95924 15.2038 7.92958C15.8406 7.91935 16.227 8.30575 16.2378 8.94613C16.2412 8.98358 16.2412 9.02124 16.2378 9.05868C16.2023 9.26693 16.2884 9.36383 16.4876 9.4517C17.0395 9.69545 17.3417 10.1475 17.3441 10.7481C17.3549 13.3506 17.3549 15.9533 17.3441 18.5561C17.3441 19.3795 16.688 19.988 15.831 19.9892C13.4468 19.9924 11.062 19.9926 8.6766 19.9898ZM9.03772 19.0731C9.11356 19.0503 9.17134 19.0364 9.22671 19.0166C11.1381 18.3201 13.1513 17.9439 15.1852 17.9031C15.462 17.8971 15.5132 17.8429 15.5132 17.542C15.5132 14.6984 15.5132 11.8547 15.5132 9.01113C15.5132 8.69515 15.4608 8.64339 15.1418 8.65001C13.1239 8.70028 11.1292 9.09413 9.24356 9.81463C9.08286 9.87481 9.03471 9.95245 9.03531 10.1222C9.04133 13.0264 9.04274 15.9302 9.03953 18.8336L9.03772 19.0731ZM8.31006 19.025C8.31006 19.0364 8.31006 19.0214 8.31006 19.0069C8.31006 16.0213 8.30866 13.0358 8.30585 10.0506C8.29977 10.0076 8.28363 9.96664 8.25874 9.93108C8.23384 9.89552 8.20091 9.86635 8.16261 9.84592C6.26175 9.10172 4.24496 8.69713 2.20414 8.65062C1.87672 8.64279 1.82857 8.69335 1.82857 9.02919C1.82857 11.8568 1.82857 14.6843 1.82857 17.5119C1.82857 17.8538 1.87311 17.8959 2.22159 17.9025C3.36103 17.9154 4.49588 18.0492 5.60709 18.3015C6.50988 18.514 7.40125 18.7794 8.31548 19.025H8.31006ZM10.9866 19.1688V19.2591C11.0467 19.2591 11.1069 19.2669 11.1641 19.2669C12.7069 19.2669 14.2497 19.2669 15.7925 19.2669C16.3341 19.2669 16.62 18.9738 16.6212 18.4243C16.6212 17.7173 16.6212 17.0101 16.6212 16.3027C16.6212 14.4891 16.6212 12.6759 16.6212 10.8631C16.6212 10.5658 16.534 10.3214 16.2318 10.1294V10.4255C16.2318 12.788 16.2318 15.1506 16.2318 17.5131C16.2318 18.266 15.8906 18.6031 15.1316 18.6296C14.6728 18.6376 14.2148 18.6695 13.7594 18.7253C12.8379 18.8553 11.9146 19.019 10.9896 19.1688H10.9866ZM1.11596 10.1222C0.81503 10.3292 0.725353 10.5724 0.725353 10.8715C0.728964 13.3765 0.728964 15.8814 0.725353 18.3864C0.725353 18.9925 0.9992 19.2669 1.60588 19.2675H6.3528C6.31064 19.2206 6.25415 19.1888 6.1921 19.1773C4.89259 18.8541 3.56242 18.6699 2.224 18.6277C1.45 18.6055 1.11355 18.2666 1.11355 17.5005C1.11355 15.146 1.11355 12.7915 1.11355 10.437L1.11596 10.1222Z" fill="#686868"/>
<path d="M4.5739 4.53085L2.8983 3.97472C2.8983 4.18357 2.89108 4.36233 2.90312 4.53927C2.90613 4.58261 2.9633 4.63617 3.00664 4.65965C3.43517 4.88956 3.62776 5.25068 3.62054 5.73037C3.61693 5.96329 3.62054 6.19621 3.62054 6.42974C3.61633 6.69877 3.48452 6.8384 3.22211 6.84141C2.77071 6.84683 2.31931 6.84622 1.86791 6.84141C1.63318 6.84141 1.48151 6.71743 1.47308 6.49654C1.45653 6.1662 1.46014 5.83516 1.48392 5.50527C1.51461 5.13632 1.71744 4.85706 2.04486 4.68432C2.1556 4.62414 2.20255 4.56395 2.1887 4.44358C2.18539 4.38343 2.18539 4.32316 2.1887 4.26302C2.1887 4.0981 2.23986 3.89528 2.16342 3.77851C2.08699 3.66175 1.86249 3.66597 1.7361 3.57448C1.62536 3.49564 1.50559 3.36804 1.48031 3.24406C1.44239 3.05266 1.59225 2.93951 1.7674 2.86609C2.91014 2.3882 4.05228 1.90812 5.19382 1.42582C6.27357 0.971412 7.35512 0.523023 8.43186 0.0607898C8.51217 0.021842 8.60007 0.00105685 8.68932 -8.73713e-05C8.77857 -0.00123159 8.86698 0.0172922 8.94826 0.0541684C11.1679 0.994283 13.3892 1.93059 15.6121 2.86308C15.7927 2.93951 15.9263 3.04364 15.913 3.2591C15.8998 3.46615 15.7584 3.5474 15.5814 3.60578C14.6967 3.89708 13.8129 4.19099 12.9302 4.48751C12.8893 4.50136 12.8484 4.51821 12.7894 4.54108L13.3106 6.10232C13.4466 6.50858 13.3473 6.6753 12.926 6.74571C11.5772 6.97081 10.232 7.22059 8.87724 7.40777C8.48242 7.46133 8.0593 7.34276 7.65304 7.27836C6.59978 7.11105 5.54651 6.92748 4.49565 6.75595C4.00573 6.6765 3.91365 6.53747 4.06652 6.07403C4.23204 5.56666 4.39876 5.06169 4.5739 4.53085ZM4.82427 6.0638C4.90673 6.08306 4.96451 6.09991 5.02289 6.10954C5.96421 6.26543 6.90492 6.42793 7.84805 6.57298C8.20074 6.62715 8.56607 6.70118 8.91395 6.66205C9.68976 6.57478 10.4583 6.42131 11.2293 6.29552C11.6573 6.2245 12.0852 6.14927 12.5324 6.07283C12.412 5.71652 12.2675 5.38971 12.2037 5.04966C12.0906 4.44237 11.7066 4.12158 11.1643 3.93139C11.1427 3.92417 11.1216 3.91574 11.1041 3.90732C10.0364 3.4824 8.92779 3.40656 7.7993 3.52814C6.99881 3.61481 6.23445 3.82907 5.55554 4.27987C5.4662 4.33238 5.39453 4.41033 5.3497 4.50376C5.16794 5.01114 5.00483 5.52573 4.82427 6.0638ZM2.85738 3.20373C3.51943 3.42642 4.14597 3.63888 4.77432 3.84051C4.8345 3.85977 4.92719 3.82305 4.99159 3.78814C5.30757 3.61661 5.6061 3.40716 5.93472 3.26452C7.0596 2.77701 8.24829 2.68914 9.45202 2.79146C10.5059 2.88053 11.5062 3.15558 12.3771 3.79717C12.4133 3.81765 12.4534 3.83051 12.4948 3.83496C12.5362 3.83941 12.5781 3.83536 12.6178 3.82305C13.183 3.64249 13.7451 3.45411 14.3079 3.26573C14.3656 3.24232 14.4221 3.2158 14.477 3.18628C14.412 3.15558 14.3795 3.13873 14.3464 3.12609C12.5059 2.34969 10.6644 1.57549 8.82187 0.803492C8.71151 0.770532 8.593 0.778219 8.48783 0.825158C6.68665 1.57749 4.88707 2.33484 3.08909 3.0972C3.02229 3.12429 2.95849 3.15739 2.85918 3.20433L2.85738 3.20373ZM2.8983 6.11195C2.8983 5.92116 2.90733 5.75564 2.8983 5.59194C2.88506 5.40175 2.74483 5.28739 2.54742 5.28438C2.35 5.28137 2.20014 5.39212 2.1863 5.5787C2.17245 5.75444 2.18329 5.93199 2.18329 6.11195H2.8983Z" fill="#686868"/>
<path d="M14.3572 13.9886C14.6582 14.012 14.8158 14.1228 14.8345 14.3545C14.8532 14.5862 14.7202 14.7373 14.4319 14.7584C13.001 14.8621 11.586 15.1229 10.2122 15.536C10.1032 15.5691 9.94495 15.5877 9.8661 15.5324C9.75047 15.4487 9.67122 15.3241 9.64462 15.1839C9.62355 15.0033 9.7686 14.8896 9.94555 14.8444C10.5926 14.6807 11.2335 14.4869 11.8884 14.3629C12.7087 14.2082 13.5339 14.1107 14.3572 13.9886Z" fill="#686868"/>
<path d="M14.1942 15.4625C14.2845 15.4547 14.3747 15.4403 14.4638 15.4409C14.5552 15.4358 14.6449 15.4662 14.7144 15.5258C14.7838 15.5853 14.8275 15.6694 14.8364 15.7605C14.8436 15.8072 14.841 15.855 14.8287 15.9006C14.8165 15.9463 14.7949 15.989 14.7653 16.0259C14.7357 16.0628 14.6987 16.0931 14.6568 16.115C14.6148 16.1369 14.5688 16.1498 14.5216 16.1529C14.0299 16.2131 13.5309 16.2317 13.0452 16.3238C12.1545 16.4923 11.2715 16.703 10.385 16.8944C10.2695 16.9241 10.1517 16.9443 10.0329 16.9546C9.82223 16.9642 9.69162 16.8516 9.6513 16.6476C9.61519 16.467 9.72593 16.2955 9.92815 16.2419C10.5011 16.0909 11.0717 15.9206 11.6525 15.8116C12.4951 15.6551 13.3419 15.5462 14.1876 15.4168L14.1942 15.4625Z" fill="#686868"/>
<path d="M14.2498 12.7072C14.3243 12.6979 14.3992 12.6925 14.4742 12.6909C14.5654 12.688 14.6541 12.7206 14.7215 12.782C14.7889 12.8433 14.8298 12.9286 14.8354 13.0196C14.841 13.0647 14.8376 13.1106 14.8251 13.1543C14.8126 13.1981 14.7915 13.2389 14.7629 13.2743C14.7343 13.3097 14.6988 13.339 14.6586 13.3604C14.6184 13.3818 14.5744 13.3948 14.529 13.3987C14.1492 13.4481 13.7665 13.474 13.3855 13.5191C12.3701 13.6398 11.3671 13.8481 10.3876 14.1414C10.2877 14.1709 10.1841 14.1914 10.0812 14.2125C9.86636 14.257 9.70206 14.1661 9.64428 13.9717C9.5865 13.7773 9.69483 13.5847 9.91512 13.5257C10.5393 13.359 11.1598 13.1724 11.7923 13.0497C12.603 12.8932 13.424 12.7909 14.2407 12.6651L14.2498 12.7072Z" fill="#686868"/>
<path d="M2.95382 12.6759C4.45382 12.7661 5.9383 13.0298 7.37754 13.4619C7.6243 13.536 7.73083 13.6937 7.68569 13.9073C7.64296 14.1095 7.43652 14.2377 7.19096 14.1848C6.9454 14.1318 6.69984 14.0475 6.45368 13.9813C5.29115 13.6741 4.10219 13.4775 2.90267 13.3939C2.64326 13.3747 2.48136 13.2182 2.49942 13.0075C2.51747 12.7969 2.69442 12.6639 2.95382 12.6759Z" fill="#686868"/>
<path d="M2.84976 15.4228C4.30429 15.5092 5.74485 15.7558 7.14527 16.1583C7.23916 16.1854 7.33305 16.2095 7.42815 16.2311C7.51111 16.2446 7.58608 16.2885 7.63839 16.3543C7.6907 16.42 7.7166 16.503 7.71103 16.5868C7.71646 16.6675 7.69138 16.7472 7.64076 16.8102C7.59014 16.8732 7.51768 16.9148 7.43778 16.9269C7.3205 16.9472 7.20015 16.9409 7.08569 16.9082C5.72434 16.5028 4.32265 16.2479 2.90573 16.1481C2.65415 16.1294 2.51091 15.9844 2.51993 15.7701C2.51877 15.6806 2.5526 15.5942 2.61421 15.5294C2.67583 15.4645 2.76035 15.4263 2.84976 15.4228Z" fill="#686868"/>
<path d="M2.94471 14.0235C4.3613 14.1182 5.76333 14.3672 7.12587 14.7662C7.21829 14.7959 7.31315 14.8175 7.40935 14.8306C7.60135 14.8504 7.69043 14.9732 7.71029 15.1417C7.72955 15.3223 7.64408 15.4812 7.4575 15.5131C7.31049 15.535 7.16045 15.5241 7.01814 15.4812C5.69141 15.0922 4.32681 14.8464 2.94772 14.7481C2.66424 14.7277 2.50956 14.5868 2.5222 14.3605C2.53484 14.1342 2.70397 14.0132 2.94471 14.0235Z" fill="#686868"/>
<path d="M2.92629 10.712C3.60399 10.7951 4.28169 10.8733 4.95758 10.963C5.19171 10.9943 5.31569 11.1568 5.29523 11.3644C5.27477 11.5721 5.12069 11.7033 4.87994 11.6786C4.18599 11.6094 3.49565 11.5281 2.8017 11.4433C2.71128 11.4297 2.62969 11.3814 2.5742 11.3088C2.51871 11.2361 2.49367 11.1447 2.50438 11.0539C2.52965 10.8552 2.69637 10.7271 2.92629 10.712Z" fill="#686868"/>
<path d="M3.05515 9.59073C3.37594 9.62323 3.69673 9.65092 4.01813 9.69004C4.24564 9.71712 4.37925 9.87541 4.35999 10.0843C4.35729 10.1315 4.34494 10.1776 4.32371 10.2199C4.30249 10.2621 4.27282 10.2996 4.23656 10.3299C4.2003 10.3602 4.1582 10.3828 4.11287 10.3963C4.06754 10.4097 4.01993 10.4137 3.97299 10.4081C3.59903 10.3864 3.22588 10.3531 2.85352 10.3082C2.80428 10.3055 2.75613 10.2926 2.71219 10.2703C2.66825 10.2479 2.62949 10.2165 2.59841 10.1783C2.56733 10.14 2.54462 10.0956 2.53175 10.048C2.51888 10.0004 2.51614 9.95062 2.5237 9.9019C2.54717 9.70388 2.69162 9.59013 2.92093 9.59133C2.96547 9.59133 3.01061 9.59555 3.05575 9.59735L3.05515 9.59073Z" fill="#686868"/>
</g>
<defs>
<clipPath id="clip0_206_1807">
<rect width="17.3512" height="20" fill="white"/>
</clipPath>
</defs>
</svg>
