<svg width="17" height="17" viewBox="0 0 17 17" fill="none" xmlns="http://www.w3.org/2000/svg">
<path d="M8.49964 9.27273C11.0496 9.27273 13.136 7.18636 13.136 4.63636C13.136 2.08636 11.0496 0 8.49964 0C5.94964 0 3.86328 2.08636 3.86328 4.63636C3.86328 7.18636 5.94964 9.27273 8.49964 9.27273ZM8.49964 0.772727C10.6246 0.772727 12.3633 2.51136 12.3633 4.63636C12.3633 6.76136 10.6246 8.5 8.49964 8.5C6.37464 8.5 4.63601 6.76136 4.63601 4.63636C4.63601 2.51136 6.37464 0.772727 8.49964 0.772727Z" fill="#686868"/>
<path d="M11.9773 10.0455H5.02273C2.24091 10.0455 0 12.2864 0 15.0682V17H0.772727V15.0682C0.772727 12.7114 2.66591 10.8182 5.02273 10.8182H11.9773C14.3341 10.8182 16.2273 12.7114 16.2273 15.0682V17H17V15.0682C17 12.2864 14.7591 10.0455 11.9773 10.0455Z" fill="#686868"/>
</svg>
