<svg width="24" height="22" viewBox="0 0 24 22" fill="none" xmlns="http://www.w3.org/2000/svg">
<g clip-path="url(#clip0_163_1135)">
<path d="M24 3.37762V19.2236C23.9872 19.2432 23.9774 19.2646 23.9706 19.287C23.8233 20.3438 22.9139 21.1029 21.7826 21.1017C15.2601 21.095 8.73738 21.0931 2.21448 21.0958C2.00389 21.0985 1.79387 21.0734 1.58982 21.0213C0.574169 20.7412 0.000587084 19.9469 0 18.8408C0 13.7864 0 8.73222 0 3.67821C0 3.0694 0.255969 2.81754 0.873582 2.81754H7.07789C7.07789 2.57625 7.07789 2.37312 7.07789 2.17175C7.09667 0.921259 7.99315 0.0153882 9.24423 0.00893029C11.0795 -0.000463054 12.9159 -0.00398527 14.7511 0.0165627C15.0856 0.0208732 15.4155 0.0948542 15.7198 0.233785C16.5241 0.610693 16.8939 1.29054 16.9204 2.16823C16.9262 2.3831 16.9204 2.59797 16.9204 2.8193H17.2391C19.1924 2.8193 21.145 2.82694 23.0982 2.81343C23.5432 2.80815 23.8573 2.94024 24 3.37762ZM8.48454 12.6612H4.67613C3.56889 12.6612 2.83268 12.1287 2.48219 11.0761C2.16595 10.1316 1.85127 9.18525 1.53816 8.23692C1.50939 8.15238 1.47945 8.06901 1.4454 7.98506L1.40842 7.9921V18.8074C1.40842 19.4485 1.65558 19.6921 2.30548 19.6921H21.7051C22.3509 19.6921 22.5939 19.4461 22.5939 18.7997V7.99152C22.5454 8.03572 22.5108 8.09302 22.4941 8.15649C22.1681 9.133 21.8421 10.1093 21.516 11.0854C21.1685 12.124 20.4294 12.66 19.3391 12.6606C18.1521 12.6606 16.9648 12.6606 15.7773 12.6606H15.5155C15.5155 12.9013 15.5155 13.1115 15.5155 13.3211C15.5072 13.7672 15.2254 14.0637 14.7851 14.0643C12.926 14.069 11.0669 14.069 9.20783 14.0643C8.77926 14.0643 8.4957 13.7708 8.48572 13.3363C8.48043 13.1232 8.48454 12.9031 8.48454 12.6612ZM1.69198 4.23359C1.70548 4.28349 1.71311 4.32048 1.72544 4.3557C2.42994 6.47155 3.13444 8.58721 3.83894 10.7027C3.9728 11.1013 4.20059 11.2534 4.63444 11.2545C5.85284 11.2545 7.07123 11.2545 8.28963 11.2545C8.34834 11.2545 8.40705 11.2451 8.48219 11.2387C8.48219 11.0232 8.48219 10.8207 8.48219 10.6193C8.48807 10.1332 8.76987 9.85081 9.25949 9.85022C11.0873 9.84787 12.9149 9.84787 14.7423 9.85022C15.229 9.85022 15.5055 10.1361 15.5131 10.6252C15.5131 10.8324 15.5131 11.0397 15.5131 11.2557H19.2705C19.8294 11.2557 20.0184 11.1189 20.1951 10.5876C20.6914 9.10032 21.1873 7.61304 21.6828 6.12576C21.8918 5.49875 22.099 4.87116 22.3104 4.233L1.69198 4.23359ZM8.48454 2.80521H15.5155C15.5155 2.57684 15.5196 2.35962 15.5155 2.14357C15.5055 1.70267 15.2184 1.41969 14.7734 1.41206C14.5157 1.40736 14.2579 1.41206 14.0008 1.41206C12.4243 1.41206 10.8477 1.41206 9.27123 1.41206C8.76869 1.41206 8.49041 1.69328 8.48572 2.19465C8.48278 2.38956 8.48454 2.58447 8.48454 2.80521ZM9.90176 12.6453H14.0906V11.2669H9.90176V12.6453Z" fill="#9B9B9B"/>
</g>
<defs>
<clipPath id="clip0_163_1135">
<rect width="24" height="21.1016" fill="white"/>
</clipPath>
</defs>
</svg>
