<svg width="36" height="36" viewBox="0 0 36 36" fill="none" xmlns="http://www.w3.org/2000/svg">
<circle cx="18" cy="18" r="18" fill="#286BFF"/>
<path fill-rule="evenodd" clip-rule="evenodd" d="M16.4565 11.6257C16.6961 10.821 17.3988 10 18.4397 10C19.4808 10 20.1829 10.8211 20.4243 11.6242C20.4255 11.6257 20.4271 11.6276 20.4292 11.6298C20.4341 11.635 20.4397 11.6397 20.4451 11.6434C20.4491 11.6462 20.4515 11.6474 20.4518 11.6475C21.0577 11.897 21.7709 12.2955 22.3287 13.0251C22.891 13.7606 23.2567 14.7815 23.2567 16.2059C23.2567 17.6261 23.4066 18.4049 23.6272 18.9395C23.8207 19.4083 24.0751 19.7164 24.4371 20.1548C24.49 20.2189 24.5452 20.2857 24.6028 20.3562C25.2699 21.1734 24.64 22.3214 23.6123 22.3214H13.2704C12.2445 22.3214 11.6039 21.1795 12.2766 20.3562C12.3343 20.2857 12.3895 20.2188 12.4424 20.1547C12.8043 19.7163 13.0588 19.4081 13.2524 18.9394C13.4732 18.4047 13.6234 17.6259 13.6243 16.2059M16.4565 11.6257C16.4555 11.6268 16.4544 11.6281 16.453 11.6296C16.4484 11.6343 16.443 11.6389 16.4376 11.6426C16.4327 11.646 16.4297 11.6474 16.4297 11.6474C15.8235 11.897 15.1097 12.2949 14.5519 13.0243C13.9896 13.7595 13.6243 14.7806 13.6243 16.2059M18.4397 11.0714C18.0272 11.0714 17.6333 11.4154 17.4809 11.9398L17.4805 11.9411C17.3822 12.2761 17.1101 12.526 16.8373 12.6382C16.8373 12.6382 16.8373 12.6382 16.8373 12.6382C16.3256 12.849 15.8023 13.1531 15.403 13.6752C15.0081 14.1915 14.6957 14.9719 14.6957 16.2059C14.6949 17.687 14.5407 18.6269 14.2427 19.3484C13.9834 19.9761 13.6215 20.4123 13.2624 20.8451C13.2102 20.908 13.1581 20.9708 13.1063 21.0341C13.085 21.0602 13.079 21.0817 13.0775 21.0978C13.0759 21.116 13.0793 21.1379 13.0908 21.1603C13.1107 21.1993 13.1603 21.25 13.2704 21.25H23.6123C23.7184 21.25 23.7672 21.201 23.7875 21.161C23.8093 21.118 23.8066 21.0753 23.773 21.0341C23.7213 20.9708 23.6692 20.9081 23.617 20.8452C23.2579 20.4124 22.8959 19.9761 22.6369 19.3483C22.339 18.6266 22.1853 17.687 22.1853 16.2059C22.1853 14.9735 21.8728 14.1928 21.4775 13.6758C21.0778 13.1531 20.5544 12.8485 20.0437 12.6382C19.768 12.5248 19.4987 12.2713 19.401 11.942L19.4006 11.9406C19.2462 11.4151 18.8521 11.0714 18.4397 11.0714Z" fill="white"/>
<path fill-rule="evenodd" clip-rule="evenodd" d="M16.2974 21.25C16.5933 21.25 16.8331 21.4899 16.8331 21.7857V22.3215C16.8331 22.7477 17.0025 23.1564 17.3039 23.4578C17.6053 23.7593 18.0141 23.9285 18.4403 23.9285C18.8665 23.9285 19.2753 23.7593 19.5767 23.4578C19.8781 23.1564 20.0474 22.7477 20.0474 22.3215V21.7857C20.0474 21.4899 20.2873 21.25 20.5831 21.25C20.879 21.25 21.1189 21.4899 21.1189 21.7857V22.3215C21.1189 23.0319 20.8366 23.7132 20.3344 24.2155C19.832 24.7178 19.1507 25 18.4403 25C17.7299 25 17.0486 24.7178 16.5463 24.2155C16.0439 23.7132 15.7617 23.0319 15.7617 22.3215V21.7857C15.7617 21.4899 16.0016 21.25 16.2974 21.25Z" fill="white"/>
</svg>
