<svg width="12" height="16" viewBox="0 0 12 16" fill="none" xmlns="http://www.w3.org/2000/svg">
<g clip-path="url(#clip0_171_65)">
<path d="M4.90467 11.3648H2.15105C1.61809 11.3648 1.33962 11.089 1.33651 10.5578C1.33651 10.509 1.33651 10.4601 1.33651 10.4042C1.17529 10.3931 1.02562 10.394 0.880389 10.3709C0.638669 10.3364 0.417298 10.2164 0.256385 10.0328C0.0954725 9.84915 0.00566318 9.61394 0.00322801 9.36979C-0.00343396 8.79819 -0.0012133 8.22615 0.00322801 7.65455C0.00322801 7.34987 0.243947 7.07717 0.54951 7.06385C0.904815 7.04653 1.26012 7.04608 1.61543 7.06385C1.9241 7.07851 2.15771 7.34499 2.1666 7.65099C2.17062 7.79953 2.12055 7.94447 2.0257 8.05885C1.93085 8.17323 1.79767 8.24925 1.65096 8.27278C1.56265 8.28469 1.47357 8.28988 1.38448 8.28832C1.10157 8.29099 0.81821 8.29099 0.534854 8.29321C0.523615 8.29545 0.512815 8.2995 0.502876 8.3052C0.502876 8.70225 0.484223 9.10064 0.510427 9.49636C0.525084 9.71843 0.752035 9.88498 0.978098 9.9023C1.08824 9.91074 1.20016 9.9023 1.3334 9.9023C1.3334 9.83968 1.3334 9.78105 1.3334 9.72243C1.33562 9.21612 1.62165 8.93231 2.13284 8.93187H5.10231V8.2559C5.03746 8.25324 4.97839 8.2488 4.91977 8.24835C4.56446 8.24524 4.20916 8.25546 3.85385 8.23814C3.50923 8.22203 3.18142 8.08452 2.92846 7.84993C2.6755 7.61533 2.5137 7.2988 2.47171 6.95637C2.26564 5.30509 2.06711 3.65247 1.8637 2.00075C1.82683 1.70318 1.77887 1.40916 1.86103 1.10937C2.03558 0.46938 2.59607 0.00970336 3.26138 0.00703857C5.08854 -6.75434e-05 6.91555 -6.75434e-05 8.74241 0.00703857C9.60714 0.0123682 10.2769 0.78427 10.1756 1.64233C9.99264 3.19058 9.799 4.73749 9.60847 6.2844C9.57516 6.55443 9.5534 6.82668 9.49788 7.09183C9.43069 7.40386 9.26262 7.68508 9.01962 7.89203C8.77663 8.09898 8.47224 8.22015 8.15349 8.2368C7.79819 8.25368 7.44288 8.24435 7.08758 8.24702H6.89793V8.93231H9.82476C10.3919 8.93231 10.6602 9.19879 10.6651 9.76551V9.87743C11.1691 10.0107 11.5165 9.75618 11.5187 9.25564C11.5187 8.94031 11.5187 8.62498 11.5187 8.28921C11.2407 8.28921 10.9813 8.28921 10.7192 8.28921C10.5918 8.29242 10.4643 8.28648 10.3377 8.27145C10.191 8.2471 10.0584 8.16965 9.96513 8.05384C9.87184 7.93804 9.82441 7.79196 9.83187 7.64344C9.84475 7.34232 10.073 7.08029 10.3733 7.06607C10.733 7.04875 11.0954 7.04875 11.4552 7.06607C11.7581 7.08162 11.993 7.35654 11.9943 7.66299C11.997 8.21282 11.997 8.76251 11.9943 9.31205C11.9912 9.9365 11.5502 10.378 10.9284 10.394C10.8463 10.394 10.7641 10.394 10.6708 10.394C10.6677 10.4615 10.6633 10.5152 10.6628 10.5689C10.6597 11.0868 10.3773 11.3684 9.85541 11.3684H7.09513C7.09513 11.65 7.09513 11.9151 7.09513 12.1798C7.09513 12.4689 7.02495 12.5649 6.7527 12.6795C6.73458 12.6876 6.71861 12.6999 6.70604 12.7153C6.69348 12.7308 6.68467 12.7489 6.68031 12.7683C6.67542 13.1831 6.67675 13.5984 6.67675 14.0345C7.0294 14.0345 7.36605 14.0301 7.7027 14.0345C7.93294 14.033 8.15582 14.1156 8.32945 14.2668C8.50308 14.418 8.6155 14.6274 8.64559 14.8557C8.66824 15.0014 8.6638 15.1515 8.67313 15.3189C8.90585 15.3189 9.13236 15.3189 9.35887 15.3189C9.56805 15.3189 9.66976 15.402 9.66976 15.5601C9.66976 15.7182 9.55873 15.7968 9.35354 15.7968H2.6547C2.62716 15.7968 2.59918 15.7968 2.57164 15.7968C2.42552 15.7839 2.32604 15.6836 2.33448 15.5499C2.3438 15.4046 2.42952 15.3278 2.57164 15.3229C2.82036 15.3176 3.06907 15.3229 3.33999 15.3229C3.33999 15.2075 3.33999 15.1093 3.33999 15.012C3.35109 14.4462 3.75836 14.0416 4.32596 14.0349C4.6524 14.0318 4.97884 14.0349 5.32526 14.0349C5.32526 13.6708 5.3226 13.3243 5.32526 12.9744C5.32526 12.8189 5.34747 12.6839 5.13029 12.6288C4.96329 12.5866 4.90334 12.4139 4.90289 12.2393C4.90422 11.9537 4.90467 11.6713 4.90467 11.3648ZM6.00834 0.479151C5.14184 0.479151 4.27622 0.479151 3.40972 0.479151C3.27686 0.476234 3.14421 0.491171 3.01533 0.523564C2.48726 0.675457 2.23011 1.14535 2.31316 1.75559C2.39399 2.34895 2.46283 2.94408 2.53522 3.53878C2.67157 4.64555 2.8017 5.75278 2.94605 6.85822C3.018 7.41383 3.42704 7.75936 3.98531 7.75981C5.32896 7.75981 6.67261 7.75981 8.01626 7.75981C8.57986 7.75981 8.98846 7.4045 9.05863 6.84134C9.26353 5.20131 9.46442 3.56054 9.66132 1.91903C9.68664 1.71117 9.71551 1.49444 9.68308 1.29102C9.60447 0.793596 9.18432 0.477374 8.63937 0.476042C7.76266 0.478262 6.88727 0.480483 6.00834 0.480483V0.479151Z" fill="black"/>
<path d="M5.99531 6.81431C5.46338 6.81237 4.94398 6.65276 4.50276 6.35565C4.06155 6.05854 3.71834 5.63727 3.51653 5.14512C3.31472 4.65296 3.26337 4.11202 3.36897 3.59068C3.47457 3.06934 3.73239 2.59102 4.10982 2.2162C4.48725 1.84138 4.96734 1.58689 5.4894 1.4849C6.01146 1.38291 6.55203 1.43801 7.04278 1.64323C7.53352 1.84845 7.9524 2.19458 8.24644 2.63784C8.54049 3.0811 8.69649 3.6016 8.69474 4.13353C8.69133 4.8467 8.40524 5.52941 7.8992 6.03195C7.39316 6.53449 6.70848 6.81585 5.99531 6.81431ZM6.2378 4.45241C6.29421 4.42798 6.34484 4.408 6.39458 4.38446C6.54847 4.31452 6.68095 4.20483 6.77838 4.06669C6.87581 3.92855 6.93467 3.76694 6.9489 3.5985C6.96314 3.43006 6.93224 3.26087 6.85937 3.10833C6.78651 2.9558 6.67432 2.82544 6.53435 2.73066C6.39438 2.63588 6.23168 2.5801 6.063 2.56908C5.89431 2.55806 5.72574 2.59218 5.57462 2.66793C5.42351 2.74369 5.2953 2.85834 5.20321 3.00009C5.11111 3.14184 5.05845 3.30557 5.05064 3.47443C5.04487 3.63255 5.13192 3.74624 5.2696 3.75868C5.40728 3.77112 5.50854 3.67296 5.53119 3.51396C5.53519 3.48687 5.53119 3.45845 5.5383 3.43135C5.55695 3.33845 5.6032 3.25334 5.67101 3.18715C5.73881 3.12096 5.82501 3.07677 5.91833 3.06036C6.01166 3.04395 6.10776 3.05609 6.19408 3.09518C6.2804 3.13427 6.35291 3.1985 6.40213 3.27946C6.50206 3.44868 6.50295 3.67163 6.36305 3.80487C6.26042 3.89251 6.13876 3.95502 6.00774 3.98741C5.83276 4.03671 5.76791 4.08734 5.76525 4.26632C5.76214 4.45508 5.76125 4.64383 5.76525 4.83259C5.76924 4.98581 5.86207 5.07953 5.99886 5.08086C6.13565 5.08219 6.23114 4.98937 6.23736 4.83703C6.2418 4.71001 6.2378 4.58254 6.2378 4.45241ZM5.99886 5.83233C6.06315 5.83047 6.12414 5.80348 6.16873 5.75714C6.21333 5.7108 6.23797 5.64882 6.23736 5.58451C6.23874 5.55259 6.23365 5.52072 6.22239 5.49082C6.21113 5.46092 6.19393 5.43361 6.17183 5.41053C6.14973 5.38745 6.1232 5.36909 6.09381 5.35654C6.06443 5.344 6.03281 5.33753 6.00086 5.33753C5.96891 5.33753 5.93729 5.344 5.90791 5.35654C5.87852 5.36909 5.85198 5.38745 5.82988 5.41053C5.80779 5.43361 5.79059 5.46092 5.77933 5.49082C5.76807 5.52072 5.76297 5.55259 5.76436 5.58451C5.76201 5.61653 5.76636 5.64868 5.77713 5.67893C5.78791 5.70917 5.80487 5.73683 5.82694 5.76015C5.849 5.78347 5.87569 5.80194 5.90529 5.81436C5.93489 5.82679 5.96676 5.83291 5.99886 5.83233Z" fill="black"/>
</g>
<defs>
<clipPath id="clip0_171_65">
<rect width="12" height="15.7969" fill="white"/>
</clipPath>
</defs>
</svg>
