<svg width="36" height="36" viewBox="0 0 36 36" fill="none" xmlns="http://www.w3.org/2000/svg">
<circle cx="18" cy="18" r="18" fill="#286BFF"/>
<path d="M23.3771 16.7799H22.3645V14.3678C22.3645 11.9594 20.4095 10 18.0019 10C15.5943 10 13.6374 11.9607 13.6374 14.3707C13.6374 14.7177 13.9196 14.9989 14.2666 14.9989C14.6136 14.9989 14.8953 14.7177 14.8953 14.3707C14.8953 12.6535 16.2876 11.2565 18.0023 11.2565C19.7171 11.2565 21.1094 12.6522 21.1094 14.3678V16.7799H12.6341C12.2871 16.7799 12 17.0555 12 17.4024V24.6901C12 25.5561 12.7104 26.26 13.5765 26.26H22.4348C23.3008 26.26 24 25.5561 24 24.6901V17.4024C24 17.0555 23.7241 16.7799 23.3771 16.7799ZM22.7448 24.6901C22.7448 24.8633 22.608 25.0049 22.4348 25.0049H13.5765C13.4033 25.0049 13.2552 24.8633 13.2552 24.6901V18.035H22.7448V24.6901Z" fill="white"/>
<path d="M18.0026 23.4022C18.3496 23.4022 18.6302 23.1209 18.6302 22.7739V20.5123C18.6302 20.1653 18.3495 19.884 18.0026 19.884C17.6556 19.884 17.375 20.1653 17.375 20.5123V22.7739C17.375 23.1209 17.6556 23.4022 18.0026 23.4022Z" fill="white"/>
</svg>
