<svg width="16" height="20" viewBox="0 0 16 20" fill="none" xmlns="http://www.w3.org/2000/svg">
<g id="Layer_1" clip-path="url(#clip0_207_3914)">
<path id="Vector" d="M13.7114 20H1.52393C1.51381 19.9919 1.50258 19.9852 1.49059 19.9802C0.465592 19.7135 0.000488281 19.1146 0.000488281 18.0615V5.92083C0.000488281 4.54132 0.000488281 3.16198 0.000488281 1.78281C0.000488281 1.17604 0.241113 0.673438 0.744238 0.335417C0.974967 0.179167 1.26195 0.109375 1.52549 0H9.37705C9.37705 1.32778 9.37705 2.65556 9.37705 3.98333C9.37705 5.12188 10.1182 5.85833 11.2625 5.85833H15.2369V10.7172C15.2369 13.2036 15.2369 15.6901 15.2369 18.1766C15.2369 18.9844 14.7901 19.6349 14.0672 19.8953C13.951 19.9375 13.8312 19.9656 13.7114 20ZM7.61768 8.24219C6.46629 8.24219 5.3149 8.24219 4.16351 8.24219C3.88903 8.24219 3.68017 8.34636 3.56663 8.59844C3.3859 8.99844 3.68591 9.41354 4.15518 9.41458C5.5215 9.41458 6.88764 9.41458 8.25362 9.41458C9.19667 9.41458 10.1397 9.41458 11.0828 9.41458C11.3489 9.41458 11.5515 9.31042 11.6651 9.06719C11.8515 8.66719 11.5567 8.24427 11.0922 8.24323C9.93417 8.2408 8.77601 8.24045 7.61768 8.24219ZM7.59632 11.7578C8.75431 11.7578 9.91212 11.7578 11.0698 11.7578C11.3093 11.7578 11.5047 11.6802 11.6317 11.4734C11.6877 11.389 11.7189 11.2906 11.7219 11.1894C11.7248 11.0881 11.6994 10.9881 11.6484 10.9005C11.5317 10.6865 11.3453 10.588 11.1041 10.588H8.21663C6.86247 10.588 5.50952 10.588 4.15778 10.588C3.89163 10.588 3.68903 10.6922 3.5734 10.9323C3.38434 11.3307 3.67757 11.7589 4.14268 11.7599C5.29372 11.7599 6.44528 11.7578 7.59684 11.7578H7.59632ZM7.59632 14.1016C8.75431 14.1016 9.91212 14.1016 11.0698 14.1016C11.3343 14.1016 11.5385 14.0063 11.6578 13.7635C11.8515 13.3656 11.563 12.9302 11.1 12.9302C9.98122 12.9266 8.86038 12.9302 7.74372 12.9302C6.54684 12.9302 5.34997 12.9302 4.15309 12.9302C3.8958 12.9302 3.69632 13.0266 3.58018 13.2589C3.37653 13.6604 3.66924 14.1005 4.14372 14.1016C5.2958 14.1036 6.44736 14.1016 7.59893 14.1016H7.59632ZM6.43955 16.4453C7.20066 16.4453 7.96143 16.4453 8.72184 16.4453C9.10466 16.4453 9.36768 16.2104 9.37341 15.8693C9.37914 15.5281 9.11299 15.2745 8.72132 15.2745C7.20639 15.2745 5.69129 15.2745 4.17601 15.2745C3.78174 15.2745 3.51455 15.513 3.51507 15.8599C3.51559 16.2068 3.78174 16.4448 4.17653 16.4453C4.93313 16.446 5.68834 16.446 6.44216 16.4453H6.43955Z" fill="#286BFF"/>
<path id="Vector_2" d="M14.8277 4.67864C14.8158 4.68317 14.8034 4.6858 14.7907 4.68645C13.574 4.68645 12.3579 4.68958 11.1417 4.68645C11.0648 4.68876 10.9882 4.67555 10.9165 4.64759C10.8448 4.61964 10.7794 4.57753 10.7243 4.52376C10.6693 4.47 10.6256 4.40568 10.5959 4.33467C10.5662 4.26365 10.5512 4.18738 10.5516 4.11041C10.5464 2.88801 10.5516 1.6651 10.5516 0.442701C10.5518 0.431926 10.5547 0.421368 10.56 0.411972L14.8277 4.67864Z" fill="#286BFF"/>
</g>
<defs>
<clipPath id="clip0_207_3914">
<rect width="15.237" height="20" fill="white"/>
</clipPath>
</defs>
</svg>
