<svg width="14" height="14" viewBox="0 0 14 14" fill="none" xmlns="http://www.w3.org/2000/svg">
<path fill-rule="evenodd" clip-rule="evenodd" d="M6.45556 4.35556C6.53333 4.04444 6.61111 3.88889 6.61111 3.65556V3.5C6.68889 3.11111 6.68889 2.8 6.61111 2.72222C6.61111 2.72222 6.61111 2.72222 6.61111 2.64444L6.53333 2.56667C6.53333 2.56667 6.53333 2.64444 6.45556 2.64444C6.3 3.11111 6.3 3.65556 6.45556 4.35556ZM4.12222 9.72222C3.96667 9.8 3.81111 9.87778 3.73333 9.95556C3.18889 10.4222 2.8 10.9667 2.72222 11.2C3.18889 11.1222 3.65556 10.6556 4.12222 9.72222ZM11.2778 8.55556C11.2 8.47778 10.8889 8.24444 9.8 8.24444H9.64444C9.64444 8.24444 9.64444 8.24444 9.64444 8.32222C10.1889 8.55556 10.7333 8.71111 11.1222 8.71111H11.2778H11.3556C11.3556 8.71111 11.3556 8.71111 11.3556 8.63333C11.3556 8.63333 11.2778 8.63333 11.2778 8.55556ZM12.4444 0H1.55556C0.7 0 0 0.7 0 1.55556V12.4444C0 13.3 0.7 14 1.55556 14H12.4444C13.3 14 14 13.3 14 12.4444V1.55556C14 0.7 13.3 0 12.4444 0ZM11.5889 9.17778C11.4333 9.25556 11.2 9.33333 10.8889 9.33333C10.2667 9.33333 9.33333 9.17778 8.55556 8.78889C7.23333 8.94444 6.22222 9.1 5.44444 9.41111C5.36667 9.41111 5.36667 9.41111 5.28889 9.48889C4.35556 11.1222 3.57778 11.9 2.95556 11.9C2.8 11.9 2.72222 11.9 2.64444 11.8222L2.25556 11.5889V11.5111C2.17778 11.3556 2.17778 11.2778 2.17778 11.1222C2.25556 10.7333 2.72222 10.0333 3.65556 9.48889C3.81111 9.41111 4.04444 9.25556 4.35556 9.1C4.58889 8.71111 4.82222 8.24444 5.13333 7.7C5.52222 6.92222 5.75556 6.14444 5.98889 5.44444C5.67778 4.51111 5.52222 3.96667 5.83333 2.87778C5.91111 2.56667 6.14444 2.25556 6.45556 2.25556H6.61111C6.76667 2.25556 6.92222 2.33333 7.07778 2.41111C7.62222 2.95556 7.38889 4.2 7.07778 5.21111V5.28889C7.38889 6.14444 7.85556 6.84444 8.32222 7.31111C8.55556 7.46667 8.71111 7.62222 9.02222 7.77778C9.41111 7.77778 9.72222 7.7 10.0333 7.7C10.9667 7.7 11.5889 7.85556 11.8222 8.24444C11.9 8.4 11.9 8.55556 11.9 8.71111C11.8222 8.78889 11.7444 9.02222 11.5889 9.17778ZM6.53333 6.14444C6.37778 6.68889 6.06667 7.31111 5.75556 8.01111C5.6 8.32222 5.44444 8.55556 5.28889 8.86667H5.36667H5.44444C6.45556 8.47778 7.38889 8.24444 8.01111 8.16667C7.85556 8.08889 7.77778 8.01111 7.7 7.93333C7.31111 7.46667 6.84444 6.84444 6.53333 6.14444Z" fill="white"/>
</svg>
