<svg width="12" height="10" viewBox="0 0 12 10" fill="none" xmlns="http://www.w3.org/2000/svg">
<g clip-path="url(#clip0_166_1273)">
<path d="M12.0003 9.00184C11.9557 9.21343 11.8876 9.4127 11.7394 9.5791C11.5641 9.78224 11.3172 9.90996 11.05 9.93568C10.9839 9.9417 10.9175 9.94435 10.8511 9.9436C7.61773 9.9436 4.38439 9.94419 1.15105 9.94536C0.771879 9.94536 0.454923 9.82797 0.218967 9.52334C0.0752494 9.33583 -0.000591655 9.1051 0.00384769 8.86889C0.00149987 8.24408 -0.00348925 7.61926 0.00384769 6.99474C0.0164672 6.06647 0.725802 5.31282 1.65378 5.26528C2.14121 5.24131 2.62964 5.2464 3.11647 5.28054C3.32014 5.29433 3.42579 5.26792 3.54847 5.08949C3.87716 4.61346 4.3523 4.36783 4.93309 4.36108C5.66679 4.35286 6.40195 4.34493 7.13418 4.36694C7.74197 4.38543 8.20918 4.68449 8.53054 5.19954C8.58718 5.28993 8.63619 5.32779 8.74126 5.29433C8.80861 5.27397 8.87869 5.26408 8.94904 5.26499C9.45617 5.26499 9.96623 5.23769 10.4698 5.28054C11.2329 5.34598 11.8595 5.97667 11.9757 6.73237C11.982 6.7621 11.9898 6.79149 11.9992 6.82042L12.0003 9.00184ZM3.91209 9.23339H8.08563C8.08798 9.20815 8.09121 9.18966 8.09121 9.17088C8.09121 8.15222 8.09854 7.13356 8.08827 6.11519C8.08211 5.49302 7.62986 5.06483 6.99771 5.06102C6.33445 5.05662 5.6709 5.05309 5.00764 5.06483C4.83664 5.06544 4.66763 5.10162 4.51137 5.17107C4.09786 5.36741 3.91091 5.71694 3.91121 6.17183C3.91238 7.15146 3.91238 8.13099 3.91121 9.11042L3.91209 9.23339ZM3.20774 9.23339V6.23229C3.20774 5.9664 3.20774 5.96229 2.93275 5.95935C2.55025 5.95524 2.16785 5.95524 1.78555 5.95935C1.69207 5.95935 1.59897 5.97128 1.50851 5.99486C1.00578 6.1328 0.7079 6.52576 0.705552 7.05402C0.702911 7.64303 0.705552 8.23234 0.705552 8.82164C0.705552 9.11189 0.834683 9.24014 1.12787 9.24014C1.77978 9.24014 2.4314 9.24014 3.08272 9.24014C3.12117 9.24043 3.15902 9.23691 3.20774 9.23427V9.23339ZM8.79379 9.22634C8.80942 9.23186 8.82554 9.23589 8.84192 9.23838C9.54803 9.23838 10.2544 9.24102 10.9605 9.23632C11.1592 9.23632 11.2948 9.08342 11.2954 8.87447C11.2977 8.25816 11.2989 7.64186 11.2954 7.02556C11.2925 6.4568 10.8696 6.00396 10.3387 5.97256C10.012 5.95319 9.68391 5.95906 9.35639 5.95847C9.20437 5.95847 9.05264 5.97021 8.90091 5.97491C8.81991 5.97726 8.79027 6.00748 8.79056 6.09641C8.79467 7.0913 8.79321 8.08618 8.7935 9.08137L8.79379 9.22634Z" fill="#445479"/>
<path d="M6.00469 3.38446e-07C6.55757 0.00101078 7.08747 0.22131 7.47811 0.612557C7.86875 1.0038 8.08823 1.53404 8.08838 2.08692C8.08662 3.23354 7.14309 4.1753 5.99971 4.17061C4.85632 4.16591 3.91602 3.22561 3.91602 2.07988C3.91804 1.52736 4.13902 0.99817 4.53054 0.608302C4.92206 0.218435 5.45217 -0.000314065 6.00469 3.38446e-07ZM6.00264 0.702879C5.63584 0.701945 5.2837 0.846759 5.02367 1.10546C4.76365 1.36417 4.61704 1.71557 4.61611 2.08237C4.61517 2.44917 4.75999 2.80131 5.01869 3.06134C5.2774 3.32136 5.6288 3.46797 5.9956 3.4689C6.75424 3.47477 7.38345 2.84967 7.38492 2.08956C7.38558 1.90765 7.3503 1.72739 7.28112 1.55914C7.21195 1.39089 7.11022 1.23796 6.98179 1.10912C6.85336 0.980283 6.70075 0.878074 6.53273 0.80836C6.3647 0.738647 6.18456 0.702801 6.00264 0.702879Z" fill="#445479"/>
<path d="M2.34921 1.93871C2.76178 1.94025 3.1571 2.10444 3.44935 2.39565C3.7416 2.68686 3.90721 3.08158 3.91022 3.49414C3.91433 4.35022 3.20294 5.06219 2.3454 5.06043C1.48786 5.05867 0.774707 4.34288 0.785272 3.49003C0.788678 3.07747 0.954943 2.68295 1.24786 2.3924C1.54078 2.10184 1.93663 1.93878 2.34921 1.93871ZM2.36242 2.64306C1.89638 2.62897 1.51134 3.0011 1.4905 3.48299C1.47201 3.94082 1.85412 4.3376 2.3319 4.35638C2.78884 4.37458 3.18445 3.99247 3.20558 3.51351C3.22583 3.05804 2.83815 2.65803 2.36242 2.64365V2.64306Z" fill="#445479"/>
<path d="M11.2175 3.49825C11.2175 4.35902 10.5058 5.06601 9.64918 5.06014C9.23662 5.05598 8.84225 4.88973 8.55123 4.59728C8.26021 4.30483 8.09589 3.90965 8.09375 3.49708C8.09375 2.63807 8.80573 1.93049 9.66297 1.93754C10.5202 1.94458 11.2196 2.64452 11.2175 3.49825ZM9.6395 2.64247C9.16347 2.65744 8.77609 3.05833 8.79722 3.51381C8.81952 3.99364 9.21542 4.37487 9.67148 4.35579C10.1499 4.33583 10.5317 3.93876 10.5123 3.48152C10.4918 2.99934 10.1044 2.62897 9.6395 2.64364V2.64247Z" fill="#445479"/>
</g>
<defs>
<clipPath id="clip0_166_1273">
<rect width="12" height="9.94536" fill="white"/>
</clipPath>
</defs>
</svg>
