<svg width="26" height="26" viewBox="0 0 26 26" fill="none" xmlns="http://www.w3.org/2000/svg">
<path d="M12.9854 12.9789C13.8415 12.9789 14.6783 12.725 15.3902 12.2494C16.102 11.7738 16.6568 11.0978 16.9844 10.3069C17.312 9.51594 17.3977 8.64563 17.2307 7.80599C17.0637 6.96635 16.6514 6.19509 16.0461 5.58975C15.4407 4.9844 14.6695 4.57216 13.8298 4.40514C12.9902 4.23813 12.1199 4.32384 11.329 4.65146C10.538 4.97907 9.86202 5.53386 9.38641 6.24567C8.91079 6.95748 8.65693 7.79435 8.65693 8.65043C8.65693 9.79841 9.11296 10.8994 9.92471 11.7111C10.7365 12.5229 11.8374 12.9789 12.9854 12.9789ZM12.9854 6.4862C13.4134 6.4862 13.8319 6.61313 14.1878 6.85094C14.5437 7.08875 14.8211 7.42676 14.9849 7.82222C15.1487 8.21768 15.1915 8.65284 15.108 9.07266C15.0245 9.49248 14.8184 9.8781 14.5157 10.1808C14.2131 10.4835 13.8274 10.6896 13.4076 10.7731C12.9878 10.8566 12.5526 10.8137 12.1572 10.6499C11.7617 10.4861 11.4237 10.2087 11.1859 9.85282C10.9481 9.49691 10.8212 9.07848 10.8212 8.65043C10.8212 8.07644 11.0492 7.52596 11.455 7.12009C11.8609 6.71422 12.4114 6.4862 12.9854 6.4862ZM17.3139 23.8325L25.9708 25.9405V14.5837C25.9706 13.8867 25.746 13.2082 25.3303 12.6487C24.9146 12.0892 24.3299 11.6784 23.6626 11.4769L21.3902 10.7194C21.5564 10.0445 21.641 9.35204 21.6423 8.65693C21.6423 6.36097 20.7303 4.15904 19.1068 2.53556C17.4833 0.912066 15.2814 0 12.9854 0C10.6894 0 8.48751 0.912066 6.86402 2.53556C5.24053 4.15904 4.32846 6.36097 4.32846 8.65693C4.33167 9.09619 4.36784 9.5346 4.43668 9.96845C3.94525 9.77254 3.41331 9.70003 2.88738 9.75727C2.36145 9.81451 1.85756 9.99976 1.41979 10.2968C0.982015 10.5938 0.623702 10.9936 0.376193 11.4612C0.128684 11.9288 -0.000479605 12.4499 1.33819e-06 12.9789V23.5317L8.63853 26L17.3139 23.8325ZM8.39397 4.06659C9.61378 2.86409 11.2594 2.19233 12.9722 2.19765C14.6851 2.20296 16.3265 2.88491 17.5388 4.09496C18.7511 5.305 19.4361 6.94508 19.4447 8.65793C19.4532 10.3708 18.7846 12.0176 17.5844 13.2397L12.9854 17.7402L8.39397 13.2483C7.17645 12.0307 6.49246 10.3794 6.49246 8.65747C6.49246 6.93557 7.17645 5.2842 8.39397 4.06659ZM2.16423 12.9789C2.16287 12.8004 2.20634 12.6245 2.29066 12.4672C2.37499 12.3099 2.49747 12.1762 2.64686 12.0786C2.80313 11.976 2.98316 11.9154 3.16963 11.9025C3.35611 11.8896 3.54277 11.9249 3.71166 12.005L5.26341 12.5655C5.67858 13.3877 6.22171 14.1386 6.87252 14.7904L12.9854 20.7701L19.1069 14.7828C19.7088 14.1817 20.2193 13.4956 20.6219 12.7462L23.0209 13.5481C23.2469 13.6127 23.4457 13.7492 23.5872 13.9368C23.7288 14.1244 23.8054 14.353 23.8055 14.588V23.1897L17.3139 21.6034L8.67857 23.7676L2.16423 21.902V12.9789Z" fill="black"/>
</svg>
