<svg width="50" height="50" viewBox="0 0 50 50" fill="none" xmlns="http://www.w3.org/2000/svg">
<circle cx="25" cy="25" r="25" fill="#BAE5F4"/>
<g clip-path="url(#clip0_171_259)">
<path d="M24.6281 37C24.2037 36.9389 23.7769 36.8905 23.3561 36.8117C21.2158 36.4123 19.3757 35.4406 17.8193 33.9234C17.5405 33.6513 17.5166 33.2648 17.7551 33.0061C18.0028 32.7358 18.4009 32.7248 18.6907 33.0061C19.513 33.8089 20.4721 34.4584 21.5227 34.9239C22.8334 35.5135 24.2645 35.7859 25.7001 35.7189C28.4587 35.5837 30.7569 34.4725 32.5493 32.3713C33.7552 30.9569 34.486 29.3094 34.6811 27.4565C35.037 24.0832 33.9472 21.2421 31.3513 19.0546C29.2354 17.2708 26.7507 16.6018 24.0001 16.9754C21.9942 17.2476 20.2697 18.1147 18.802 19.4974C18.6253 19.6637 18.4467 19.816 18.1905 19.797C17.9343 19.7781 17.7374 19.6649 17.645 19.4148C17.5527 19.1647 17.5839 18.9146 17.7845 18.7164C19.6274 16.8792 22.0777 15.7782 24.6752 15.6203V13.2702H24.4165C23.7817 13.2702 23.147 13.2702 22.5122 13.2702C22.1129 13.2702 21.8255 12.9956 21.8279 12.6323C21.8303 12.2691 22.1184 12.0031 22.5214 12.0024C24.3927 12.0024 26.2642 12.0024 28.1358 12.0024C28.5554 12.0024 28.8422 12.2709 28.8379 12.6464C28.833 13.0133 28.548 13.2683 28.1401 13.2708C27.4405 13.2738 26.7409 13.2708 26.0414 13.275C26.0201 13.2795 25.9995 13.287 25.9802 13.2971V15.6105C28.4202 15.7842 30.5765 16.6666 32.4013 18.2615L33.7797 16.8916C33.5962 16.721 33.384 16.5333 33.1828 16.3339C32.8832 16.0361 32.866 15.6441 33.1296 15.3836C33.3932 15.1231 33.7839 15.1457 34.0836 15.4448C34.7934 16.1505 35.5013 16.858 36.2074 17.5674C36.5077 17.8695 36.5322 18.2615 36.2772 18.5232C36.0222 18.7849 35.6161 18.7648 35.3042 18.4584C35.1128 18.27 34.9232 18.0798 34.733 17.8909C34.7269 17.8848 34.719 17.8817 34.7386 17.8946L33.4072 19.2142C33.7528 19.7035 34.1448 20.2043 34.4756 20.7431C35.3056 22.0808 35.8133 23.5932 35.9586 25.1608C36.2686 28.4685 35.2963 31.3495 32.9994 33.7485C31.2754 35.5495 29.1467 36.5915 26.6694 36.9107C26.4444 36.9401 26.2199 36.9719 25.9967 37.0012L24.6281 37Z" fill="#004259"/>
<path d="M25.3524 24.06C25.6251 24.1297 25.9028 24.1786 26.1676 24.2771C26.3321 24.3382 26.4226 24.3156 26.5412 24.1958C27.5714 23.1566 28.6059 22.121 29.6447 21.0892C29.9297 20.8048 30.2165 20.7498 30.4972 20.9167C30.8537 21.1289 30.9185 21.5839 30.625 21.8952C30.3865 22.1502 30.1358 22.3917 29.8857 22.6388C29.0693 23.4552 28.2547 24.274 27.4334 25.0849C27.3203 25.1968 27.2897 25.2788 27.3576 25.4378C27.8578 26.6089 27.239 27.9934 26.0569 28.3731C24.7684 28.7878 23.4683 28.0637 23.1735 26.7673C22.8635 25.4054 23.9183 24.1071 25.3524 24.06ZM25.3524 25.3668C25.1674 25.3636 24.9857 25.4153 24.8301 25.5155C24.6746 25.6157 24.5524 25.7599 24.4789 25.9296C24.4054 26.0994 24.3841 26.2872 24.4175 26.4691C24.4509 26.6511 24.5376 26.819 24.6666 26.9516C24.7956 27.0842 24.961 27.1755 25.142 27.214C25.323 27.2524 25.5112 27.2362 25.683 27.1674C25.8547 27.0987 26.0022 26.9804 26.1066 26.8278C26.2111 26.6751 26.2678 26.4948 26.2697 26.3098C26.2703 26.0643 26.1748 25.8284 26.0038 25.6523C25.8327 25.4762 25.5996 25.374 25.3542 25.3675L25.3524 25.3668Z" fill="#004259"/>
<path d="M18.0268 25.6677C18.9612 25.6677 19.8958 25.6677 20.8306 25.6677C21.2771 25.6677 21.5645 25.9221 21.559 26.3068C21.5553 26.678 21.2667 26.9354 20.8404 26.9354C18.9553 26.9379 17.0695 26.9379 15.1831 26.9354C14.8291 26.9354 14.5655 26.7403 14.4891 26.4364C14.4583 26.2963 14.477 26.1499 14.5418 26.0219C14.6067 25.894 14.7138 25.7924 14.845 25.7344C14.9651 25.6875 15.0934 25.6655 15.2223 25.6696C16.1573 25.6653 17.0917 25.6677 18.0268 25.6677Z" fill="#004259"/>
<path d="M16.546 22.862C15.6287 22.862 14.7114 22.862 13.791 22.862C13.6535 22.8658 13.5165 22.845 13.3862 22.8009C13.2562 22.7499 13.1476 22.6559 13.0784 22.5347C13.0092 22.4134 12.9836 22.2721 13.0058 22.1343C13.0284 21.9973 13.0949 21.8714 13.1953 21.7754C13.2957 21.6795 13.4245 21.6187 13.5623 21.6023C13.6105 21.5943 13.6591 21.5901 13.7079 21.5894H19.3639C19.6134 21.5894 19.8256 21.664 19.9712 21.8817C20.031 21.9691 20.0674 22.0702 20.0771 22.1756C20.0868 22.281 20.0693 22.3872 20.0264 22.4839C19.9835 22.5807 19.9166 22.6649 19.832 22.7285C19.7474 22.7921 19.648 22.833 19.5431 22.8473C19.4463 22.8585 19.3488 22.8632 19.2514 22.8614L16.546 22.862Z" fill="#004259"/>
<path d="M16.5317 31.0009C15.5965 31.0009 14.6619 31.0009 13.7279 31.0009C13.29 31.0009 13.0075 30.7563 13.0001 30.3894C12.9928 30.0071 13.2827 29.7368 13.7205 29.7362C15.6061 29.7338 17.4916 29.7338 19.3772 29.7362C19.7337 29.7362 19.9948 29.9338 20.0694 30.2377C20.1002 30.3778 20.0815 30.5242 20.0167 30.6522C19.9518 30.7801 19.8447 30.8817 19.7135 30.9397C19.5929 30.9851 19.4644 31.0059 19.3356 31.0009C18.4006 31.0033 17.4661 31.0009 16.5317 31.0009Z" fill="#004259"/>
<path d="M30.4955 32.164C30.3506 32.0839 30.1848 32.0276 30.0674 31.9194C29.7727 31.6522 29.4956 31.3654 29.2192 31.0785C28.955 30.8034 28.955 30.4059 29.207 30.1612C29.4589 29.9166 29.8387 29.9246 30.1059 30.1802C30.4048 30.4656 30.6975 30.7589 30.9841 31.0602C31.1841 31.2693 31.2116 31.5237 31.0923 31.7812C30.9804 32.0179 30.7756 32.1206 30.4955 32.164Z" fill="#004259"/>
<path d="M32.0656 25.6683C32.2601 25.6683 32.4552 25.664 32.6496 25.6683C32.7328 25.667 32.8153 25.6821 32.8926 25.7128C32.9699 25.7434 33.0404 25.7889 33.1001 25.8468C33.1597 25.9047 33.2074 25.9737 33.2404 26.05C33.2734 26.1263 33.2911 26.2084 33.2924 26.2915C33.2936 26.3746 33.2785 26.4572 33.2479 26.5344C33.2173 26.6117 33.1718 26.6822 33.1139 26.7419C33.056 26.8016 32.987 26.8493 32.9107 26.8823C32.8344 26.9153 32.7523 26.9329 32.6692 26.9342C32.2644 26.9464 31.8583 26.9458 31.4529 26.9342C31.3674 26.9343 31.2828 26.917 31.2041 26.8835C31.1255 26.85 31.0544 26.8009 30.9953 26.7392C30.9362 26.6775 30.8901 26.6044 30.86 26.5244C30.8298 26.4444 30.8162 26.3592 30.8199 26.2737C30.8303 25.9331 31.1092 25.6763 31.4816 25.6696C31.6761 25.6647 31.8712 25.6677 32.0656 25.6683Z" fill="#004259"/>
<path d="M25.9581 33.0422C25.9581 33.2531 25.9679 33.4647 25.9581 33.6745C25.9488 33.8296 25.8826 33.9758 25.7721 34.085C25.6616 34.1943 25.5147 34.2589 25.3595 34.2665C25.0433 34.2781 24.7375 34.0487 24.718 33.7252C24.6917 33.2641 24.6917 32.8019 24.718 32.3407C24.7351 32.0191 25.0409 31.7745 25.3472 31.7806C25.506 31.7878 25.6564 31.8536 25.7694 31.9653C25.8823 32.0771 25.9498 32.2267 25.9588 32.3854C25.9685 32.6037 25.9588 32.8232 25.9581 33.0422Z" fill="#004259"/>
<path d="M25.9576 19.5836C25.9576 19.7952 25.968 20.0074 25.9576 20.2184C25.9482 20.3739 25.882 20.5205 25.7717 20.6305C25.6613 20.7405 25.5145 20.8062 25.359 20.8152C25.0477 20.8293 24.7352 20.5932 24.7162 20.2697C24.6896 19.8072 24.6896 19.3435 24.7162 18.8809C24.7352 18.5526 25.033 18.3269 25.3559 18.3361C25.5118 18.3409 25.6601 18.4041 25.7716 18.5132C25.883 18.6223 25.9494 18.7692 25.9576 18.925C25.968 19.1439 25.9576 19.3641 25.9576 19.5836Z" fill="#004259"/>
</g>
<defs>
<clipPath id="clip0_171_259">
<rect width="23.4498" height="25" fill="white" transform="translate(13 12)"/>
</clipPath>
</defs>
</svg>
