<svg width="18" height="22" viewBox="0 0 18 22" fill="none" xmlns="http://www.w3.org/2000/svg">
<path d="M8.99915 16.5297L6.96019 18.3106C5.74331 19.3726 4.53018 20.4427 3.30706 21.4996C2.73735 21.9919 2.07644 22.1243 1.35931 21.8819C0.514113 21.6008 0 20.8668 0 19.956C0 16.3017 0 12.6473 0 8.9929C0 7.03349 0 5.07366 0 3.11341C0 1.30183 1.30496 0.000624681 3.11778 0C7.03827 0 10.959 0 14.8799 0C16.6952 0 17.9964 1.30183 17.9964 3.11466C17.9964 8.72137 17.9964 14.3279 17.9964 19.9342C17.9964 21.0524 17.2368 21.8913 16.1299 21.985C15.5677 22.0331 15.0723 21.842 14.6463 21.469C13.0546 20.0747 11.4625 18.6813 9.86995 17.2887L8.99915 16.5297ZM2.00273 19.9767C2.10517 19.8948 2.16577 19.8517 2.22261 19.7999C4.01003 18.2369 5.79641 16.6738 7.58175 15.1104C8.46442 14.3358 9.53137 14.3358 10.4159 15.1104C12.1946 16.6704 13.9749 18.2284 15.7569 19.7843C15.8238 19.8424 15.8937 19.8961 15.9887 19.9717C15.9943 19.8648 16.0012 19.8036 16.0012 19.7418C15.9987 14.1821 15.9954 8.62247 15.9912 3.06281C15.9912 2.40627 15.5764 2.00085 14.9167 2.00085C10.9725 2.00085 7.02828 2.00085 3.08405 2.00085C2.99053 1.99809 2.89698 2.00479 2.80481 2.02084C2.2957 2.12641 2.00335 2.52059 2.00335 3.10154C2.00335 8.64579 2.00335 14.19 2.00335 19.7343L2.00273 19.9767Z" fill="#9B9B9B"/>
</svg>
