<svg width="18" height="22" viewBox="0 0 18 22" fill="none" xmlns="http://www.w3.org/2000/svg">
<g id="Shortlisted_active">
<g id="2">
<path d="M8.93843 16.5297L6.91323 18.3106C5.70456 19.3726 4.49962 20.4427 3.28475 21.4996C2.71888 21.9919 2.06243 22.1243 1.35013 21.8819C0.510644 21.6008 0 20.8668 0 19.956C0 16.3017 0 12.6473 0 8.9929C0 7.03349 0 5.07366 0 3.11341C0 1.30183 1.29615 0.000624681 3.09675 0C6.99079 0 10.885 0 14.7795 0C16.5826 0 17.875 1.30183 17.875 3.11466C17.875 8.72137 17.875 14.3279 17.875 19.9342C17.875 21.0524 17.1205 21.8913 16.021 21.985C15.4626 22.0331 14.9706 21.842 14.5474 21.469C12.9665 20.0747 11.3851 18.6813 9.80336 17.2887L8.93843 16.5297ZM1.98921 19.9767C2.09097 19.8948 2.15115 19.8517 2.20762 19.7999C3.98298 18.2369 5.7573 16.6738 7.53059 15.1104C8.40731 14.3358 9.46707 14.3358 10.3456 15.1104C12.1123 16.6704 13.8806 18.2284 15.6506 19.7843C15.717 19.8424 15.7865 19.8961 15.8808 19.9717C15.8864 19.8648 15.8932 19.8036 15.8932 19.7418C15.8907 14.1821 15.8874 8.62247 15.8833 3.06281C15.8833 2.40627 15.4713 2.00085 14.8161 2.00085C10.8985 2.00085 6.98086 2.00085 3.06324 2.00085C2.97036 1.99809 2.87743 2.00479 2.78589 2.02084C2.28021 2.12641 1.98983 2.52059 1.98983 3.10154C1.98983 8.64579 1.98983 14.19 1.98983 19.7343L1.98921 19.9767Z" fill="#286BFF"/>
<path d="M15.4782 1.83333H1.82096V21.0833L9.10482 14.6666L16.3887 21.0833V3.66667C16.3887 1.46667 15.7817 1.52778 15.4782 1.83333Z" fill="#286BFF"/>
</g>
</g>
</svg>
