<svg width="36" height="36" viewBox="0 0 36 36" fill="none" xmlns="http://www.w3.org/2000/svg">
<circle cx="18" cy="18" r="18" fill="#286BFF"/>
<g clip-path="url(#clip0_207_4213)">
<path d="M13.9191 26C13.7319 25.9659 13.5426 25.9439 13.3595 25.8978C12.6035 25.7104 11.9454 25.257 11.5121 24.6251C11.0789 23.9931 10.9012 23.2273 11.0132 22.4753C11.1253 21.7233 11.5192 21.0383 12.119 20.5524C12.7188 20.0665 13.4821 19.814 14.2617 19.8437C15.0413 19.8734 15.782 20.183 16.3411 20.713C16.9001 21.2431 17.238 21.9559 17.2895 22.7141C17.341 23.4723 17.1025 24.2223 16.6199 24.8194C16.1374 25.4165 15.445 25.8185 14.6762 25.9479L14.3697 26H13.9191ZM14.1475 25.3989C14.6493 25.4005 15.1402 25.2571 15.5583 24.9868C15.9764 24.7166 16.3028 24.3316 16.4963 23.8807C16.6897 23.4297 16.7415 22.933 16.645 22.4534C16.5486 21.9738 16.3083 21.5328 15.9545 21.1863C15.6006 20.8397 15.1493 20.6031 14.6574 20.5065C14.1655 20.4098 13.6552 20.4574 13.1912 20.6432C12.7271 20.8291 12.33 21.1448 12.0501 21.5505C11.7703 21.9561 11.6203 22.4335 11.6191 22.9223C11.6249 23.5749 11.8927 24.1994 12.3652 24.6623C12.8377 25.1251 13.4774 25.3895 14.1475 25.3989Z" fill="white"/>
<path d="M21.1976 23.1006V21.6539C21.1976 21.183 21.4033 20.9746 21.8909 20.9666C22.3023 20.9666 22.7138 20.9666 23.1252 20.9786H23.3783C23.3783 20.9065 23.3783 20.8564 23.3783 20.8043C23.3783 17.792 23.3783 14.7797 23.3783 11.7674C23.3783 11.6252 23.3392 11.5671 23.1911 11.6011C23.1514 11.6051 23.1114 11.6051 23.0717 11.6011H14.6945C14.6513 11.6011 14.6081 11.6011 14.5443 11.6011V18.9869C14.5443 19.051 14.5443 19.1151 14.5443 19.1773C14.54 19.2513 14.5063 19.3208 14.4501 19.371C14.394 19.4211 14.3201 19.448 14.2439 19.4458C14.1683 19.4461 14.0951 19.4191 14.0388 19.3698C13.9826 19.3205 13.9471 19.2526 13.9395 19.1793C13.9395 19.1292 13.9395 19.0811 13.9395 19.033V11.7734C13.9395 11.7193 13.9395 11.6652 13.9395 11.6111C13.9392 11.5282 13.9566 11.446 13.9905 11.3699C14.0245 11.2938 14.0742 11.2254 14.1366 11.1689C14.199 11.1125 14.2728 11.0692 14.3532 11.0418C14.4336 11.0145 14.519 11.0037 14.604 11.01H22.2859C22.613 11.01 22.938 11.01 23.2651 11.01C23.3794 11.0111 23.4928 11.0307 23.6005 11.0681C23.717 11.1029 23.8185 11.1742 23.8892 11.271C23.9599 11.3677 23.9958 11.4845 23.9914 11.6031C23.9914 12.0039 23.9914 12.3846 23.9914 12.7753C23.9914 15.6607 23.9914 18.5454 23.9914 21.4295C23.9924 21.5044 23.9774 21.5788 23.9473 21.6478C23.9172 21.7168 23.8726 21.7789 23.8165 21.8302C23.2178 22.4053 22.6212 22.9864 22.0164 23.5554C21.8609 23.6697 21.667 23.7226 21.4732 23.7037H17.9553C17.8868 23.7082 17.818 23.7082 17.7495 23.7037C17.6761 23.6976 17.6077 23.6647 17.5581 23.6116C17.5084 23.5584 17.4813 23.489 17.4821 23.4172C17.4827 23.341 17.5123 23.2677 17.5651 23.2115C17.6179 23.1552 17.6902 23.12 17.7681 23.1126C17.8133 23.1126 17.8586 23.1126 17.9038 23.1126H21.177L21.1976 23.1006ZM23.1602 21.5717C22.7323 21.5717 22.3188 21.5717 21.9032 21.5717C21.8209 21.5717 21.8024 21.6058 21.8045 21.6779C21.8045 22.0486 21.8045 22.4173 21.8189 22.788C21.8212 22.8149 21.8253 22.8417 21.8312 22.8681L23.1602 21.5717Z" fill="white"/>
<path d="M18.9074 12.8795H15.4944C15.2537 12.8795 15.122 12.7453 15.1529 12.5409C15.16 12.4746 15.191 12.4129 15.2403 12.3667C15.2896 12.3205 15.3541 12.2928 15.4224 12.2884C15.4718 12.2884 15.5232 12.2884 15.5726 12.2884H22.1106C22.2485 12.2882 22.3862 12.2996 22.5221 12.3225C22.5803 12.3285 22.6339 12.3559 22.6721 12.3991C22.7103 12.4423 22.7302 12.498 22.7278 12.5549C22.7356 12.6201 22.7191 12.6859 22.6814 12.7403C22.6436 12.7947 22.5871 12.8342 22.5221 12.8515C22.4306 12.8735 22.3365 12.8836 22.2423 12.8815H18.9074V12.8795Z" fill="white"/>
<path d="M18.5918 18.1213H15.5059C15.2713 18.1213 15.1417 17.9971 15.1623 17.7947C15.1662 17.7256 15.196 17.6603 15.2461 17.6111C15.2961 17.562 15.3629 17.5325 15.4338 17.5282C15.4894 17.5282 15.545 17.5282 15.5984 17.5282H21.5831C21.6516 17.5243 21.7203 17.5243 21.7888 17.5282C21.8649 17.5323 21.9363 17.5648 21.9884 17.6189C22.0405 17.673 22.0692 17.7446 22.0686 17.8187C22.0652 17.8924 22.035 17.9625 21.9833 18.0165C21.9317 18.0705 21.862 18.1048 21.7868 18.1133C21.7367 18.1163 21.6866 18.1163 21.6366 18.1133L18.5918 18.1213Z" fill="white"/>
<path d="M18.1291 14.194C17.2569 14.194 16.3846 14.194 15.5143 14.194C15.425 14.1952 15.3373 14.1715 15.2613 14.1258C15.2114 14.0914 15.1744 14.042 15.1559 13.9853C15.1373 13.9285 15.1382 13.8675 15.1584 13.8112C15.1724 13.7574 15.2033 13.7091 15.2468 13.6732C15.2903 13.6372 15.3443 13.6154 15.4012 13.6109C15.4615 13.6079 15.5219 13.6079 15.5822 13.6109H20.6493C20.7244 13.6084 20.7995 13.6131 20.8736 13.6249C20.9438 13.6366 21.0072 13.6731 21.0516 13.7274C21.096 13.7818 21.1183 13.8501 21.1143 13.9195C21.1117 13.9826 21.0867 14.0428 21.0435 14.09C21.0004 14.1371 20.9418 14.1682 20.8777 14.1779C20.8178 14.1873 20.7572 14.1906 20.6966 14.1879L18.1291 14.194Z" fill="white"/>
<path d="M17.4432 16.2137C18.083 16.2137 18.7249 16.2137 19.3667 16.2137C19.4785 16.2172 19.5852 16.2599 19.6671 16.334C19.6997 16.3699 19.7222 16.4134 19.7324 16.4602C19.7427 16.5071 19.7404 16.5557 19.7257 16.6015C19.711 16.6472 19.6845 16.6885 19.6486 16.7213C19.6128 16.7541 19.5688 16.7774 19.521 16.7888C19.4441 16.8104 19.3645 16.8212 19.2845 16.8209L15.497 16.8048C15.2912 16.8048 15.1822 16.7207 15.1514 16.5684C15.1398 16.5229 15.1397 16.4754 15.151 16.4298C15.1624 16.3843 15.1849 16.3421 15.2166 16.3068C15.2484 16.2716 15.2884 16.2444 15.3332 16.2275C15.3781 16.2105 15.4265 16.2045 15.4744 16.2097C16.0154 16.2097 16.5565 16.2097 17.0976 16.2097L17.4432 16.2137Z" fill="white"/>
<path d="M16.5936 15.5044H15.5424C15.4878 15.5059 15.4333 15.5012 15.3798 15.4904C15.3131 15.4768 15.2533 15.441 15.2108 15.389C15.1684 15.337 15.1459 15.2722 15.1474 15.2059C15.1419 15.1396 15.1615 15.0738 15.2024 15.0207C15.2433 14.9675 15.3028 14.9308 15.3696 14.9173C15.418 14.9059 15.4678 14.9006 15.5177 14.9013C16.2439 14.9013 16.9578 14.9013 17.6943 14.9013C17.7788 14.9016 17.8625 14.9173 17.9412 14.9474C17.9989 14.9665 18.0478 15.005 18.0791 15.0561C18.1104 15.1071 18.122 15.1673 18.1119 15.2259C18.1095 15.2877 18.0852 15.3467 18.0432 15.3931C18.0012 15.4394 17.9441 15.4703 17.8815 15.4804C17.7981 15.4957 17.7133 15.5031 17.6285 15.5024L16.5936 15.5044Z" fill="white"/>
<path d="M13.8015 23.4753L14.8733 22.1689C14.9927 22.0246 15.1079 21.8783 15.2416 21.7461C15.2892 21.6973 15.3531 21.6665 15.4219 21.6592C15.4906 21.652 15.5598 21.6687 15.617 21.7065C15.6743 21.7442 15.716 21.8005 15.7346 21.8654C15.7533 21.9302 15.7477 21.9994 15.7189 22.0607C15.6853 22.1261 15.6446 22.1879 15.5975 22.245C15.1141 22.8461 14.6326 23.4292 14.1471 24.0203C13.9414 24.2668 13.7789 24.2748 13.5505 24.0484C13.2584 23.7618 12.9642 23.4753 12.6782 23.1807C12.6149 23.1141 12.5721 23.0315 12.5548 22.9423C12.5474 22.8832 12.5603 22.8234 12.5916 22.7722C12.6229 22.7211 12.6707 22.6815 12.7276 22.6598C12.7838 22.6313 12.8481 22.622 12.9103 22.6332C12.9726 22.6445 13.0292 22.6757 13.0712 22.7219C13.2769 22.9223 13.4826 23.1226 13.6883 23.337C13.7287 23.381 13.7665 23.4271 13.8015 23.4753Z" fill="white"/>
</g>
<defs>
<clipPath id="clip0_207_4213">
<rect width="13" height="15" fill="white" transform="translate(11 11)"/>
</clipPath>
</defs>
</svg>
