<svg width="18" height="21" viewBox="0 0 18 21" fill="none" xmlns="http://www.w3.org/2000/svg">
<path d="M15.1362 10.6452C15.0609 10.5704 14.9716 10.5112 14.8734 10.471C14.7752 10.4307 14.67 10.4102 14.5639 10.4105C14.4578 10.4109 14.3528 10.4322 14.2549 10.4731C14.157 10.5141 14.0681 10.5739 13.9933 10.6492C13.9185 10.7246 13.8593 10.8139 13.8191 10.912C13.7788 11.0102 13.7583 11.1154 13.7586 11.2215C13.759 11.3277 13.7803 11.4327 13.8212 11.5306C13.8622 11.6285 13.922 11.7174 13.9974 11.7921C14.6808 12.4683 15.2233 13.2734 15.5935 14.1607C15.9637 15.048 16.1541 15.9999 16.1539 16.9614C16.1539 17.9467 13.3189 19.3844 8.88467 19.3844C4.45043 19.3844 1.61543 17.9467 1.61543 16.9614C1.61415 16.0063 1.8011 15.0603 2.16559 14.1775C2.53007 13.2947 3.06495 12.4924 3.73967 11.8164C3.8901 11.665 3.97454 11.4603 3.97454 11.2469C3.97454 11.0336 3.8901 10.8288 3.73967 10.6775C3.58833 10.5271 3.38362 10.4426 3.17024 10.4426C2.95686 10.4426 2.75215 10.5271 2.60082 10.6775C1.77302 11.5007 1.11687 12.48 0.670427 13.5587C0.223981 14.6374 -0.00388267 15.7939 5.00509e-05 16.9614C5.00509e-05 19.5864 4.57967 20.9998 8.88467 20.9998C13.1897 20.9998 17.7693 19.5864 17.7693 16.9614C17.7724 15.7864 17.5411 14.6226 17.089 13.538C16.6369 12.4535 15.973 11.4701 15.1362 10.6452Z" fill="#9B9B9B"/>
<path d="M8.88431 11.3077C10.0025 11.3077 11.0957 10.9761 12.0254 10.3548C12.9552 9.7336 13.6799 8.85059 14.1078 7.81748C14.5357 6.78438 14.6477 5.64758 14.4295 4.55084C14.2114 3.4541 13.6729 2.44668 12.8822 1.65598C12.0915 0.865271 11.0841 0.326794 9.98733 0.10864C8.89059 -0.109515 7.75379 0.00244972 6.72068 0.430376C5.68758 0.858302 4.80457 1.58297 4.18331 2.51274C3.56206 3.44251 3.23047 4.53562 3.23047 5.65385C3.23047 7.15334 3.82614 8.59142 4.88644 9.65172C5.94674 10.712 7.38482 11.3077 8.88431 11.3077ZM8.88431 1.61539C9.68305 1.61539 10.4638 1.85224 11.128 2.29599C11.7921 2.73974 12.3097 3.37046 12.6154 4.1084C12.921 4.84633 13.001 5.65833 12.8452 6.44171C12.6894 7.2251 12.3047 7.94468 11.7399 8.50947C11.1751 9.07426 10.4556 9.45889 9.67218 9.61471C8.88879 9.77054 8.07679 9.69056 7.33886 9.3849C6.60093 9.07924 5.97021 8.56162 5.52646 7.8975C5.08271 7.23337 4.84585 6.45258 4.84585 5.65385C4.84585 4.58278 5.27133 3.55558 6.02869 2.79822C6.78605 2.04087 7.81325 1.61539 8.88431 1.61539Z" fill="#9B9B9B"/>
</svg>
