<svg width="14" height="14" viewBox="0 0 14 14" fill="none" xmlns="http://www.w3.org/2000/svg">
<path d="M10.2599 14C9.71521 13.996 9.17286 13.9276 8.64418 13.7963C6.81844 13.3558 4.93838 12.2383 3.35117 10.6497C1.76397 9.06114 0.645125 7.18073 0.204622 5.35674C-0.259212 3.43802 0.0716008 1.79649 1.13508 0.733019L1.43873 0.429368C1.71423 0.154418 2.08756 0 2.47678 0C2.86601 0 3.23934 0.154418 3.51484 0.429368L5.25979 2.17397C5.53491 2.44938 5.68944 2.82274 5.68944 3.21202C5.68944 3.60131 5.53491 3.97467 5.25979 4.25008L4.22905 5.28047C4.72318 6.14755 5.39525 7.01533 6.18955 7.80962C6.98385 8.60392 7.85232 9.27634 8.71905 9.77047L9.74944 8.73973C9.88574 8.60338 10.0476 8.49522 10.2257 8.42142C10.4038 8.34762 10.5947 8.30964 10.7875 8.30964C10.9803 8.30964 11.1712 8.34762 11.3493 8.42142C11.5274 8.49522 11.6892 8.60338 11.8256 8.73973L13.5702 10.4843C13.8453 10.7596 13.9999 11.133 13.9999 11.5222C13.9999 11.9115 13.8453 12.2848 13.5702 12.5601L13.2662 12.8637C12.5164 13.6149 11.4787 14 10.2599 14ZM2.47678 1.04398C2.42118 1.04371 2.36609 1.05453 2.31473 1.07582C2.26336 1.0971 2.21676 1.12843 2.17766 1.16795L1.87366 1.4716C1.07727 2.26799 0.844658 3.56094 1.21865 5.11019C1.61458 6.75137 2.63383 8.45662 4.08836 9.91081C5.54289 11.365 7.2478 12.3832 8.88933 12.7805C10.4389 13.1545 11.7312 12.9219 12.5276 12.1255L12.8312 11.8219C12.9106 11.7425 12.9551 11.6348 12.9551 11.5226C12.9551 11.4103 12.9106 11.3027 12.8312 11.2233L11.087 9.47866C11.0076 9.39932 10.8999 9.35476 10.7877 9.35476C10.6754 9.35476 10.5678 9.39932 10.4884 9.47866L9.18218 10.7848C9.10381 10.8633 9.00251 10.9147 8.89296 10.9317C8.7834 10.9488 8.67127 10.9305 8.57279 10.8796C7.502 10.3259 6.42251 9.51975 5.45096 8.54821C4.47942 7.57666 3.67502 6.49786 3.11995 5.42708C3.06898 5.32863 3.05065 5.21652 3.06761 5.10697C3.08458 4.99742 3.13596 4.8961 3.21432 4.81768L4.52086 3.5115C4.6002 3.4321 4.64476 3.32444 4.64476 3.2122C4.64476 3.09995 4.6002 2.9923 4.52086 2.9129L2.77626 1.16795C2.73703 1.12849 2.69036 1.09722 2.63895 1.07594C2.58754 1.05466 2.53242 1.0438 2.47678 1.04398Z" fill="#535353"/>
<path d="M10.8172 7.72048C10.6787 7.72048 10.5458 7.66545 10.4479 7.5675C10.3499 7.46954 10.2949 7.33668 10.2949 7.19815C10.2939 6.28181 9.92941 5.40328 9.28149 4.7553C8.63357 4.10731 7.75508 3.74278 6.83874 3.74168C6.70021 3.74168 6.56735 3.68665 6.46939 3.58869C6.37144 3.49073 6.31641 3.35787 6.31641 3.21934C6.31641 3.08081 6.37144 2.94795 6.46939 2.84999C6.56735 2.75204 6.70021 2.69701 6.83874 2.69701C9.32053 2.69701 11.3395 4.7167 11.3395 7.19815C11.3395 7.33668 11.2845 7.46954 11.1865 7.5675C11.0886 7.66545 10.9557 7.72048 10.8172 7.72048Z" fill="#535353"/>
<path d="M13.0249 7.72047C12.8864 7.72047 12.7535 7.66544 12.6556 7.56748C12.5576 7.46952 12.5026 7.33666 12.5026 7.19813C12.5026 4.07491 9.96057 1.53392 6.83874 1.53392C6.70021 1.53392 6.56735 1.47889 6.46939 1.38093C6.37144 1.28298 6.31641 1.15012 6.31641 1.01159C6.31641 0.873054 6.37144 0.740196 6.46939 0.642239C6.56735 0.544282 6.70021 0.48925 6.83874 0.48925C10.5379 0.48925 13.5473 3.49895 13.5473 7.19813C13.5473 7.33666 13.4922 7.46952 13.3943 7.56748C13.2963 7.66544 13.1635 7.72047 13.0249 7.72047Z" fill="#535353"/>
</svg>
