<svg width="28" height="28" viewBox="0 0 28 28" fill="none" xmlns="http://www.w3.org/2000/svg">
<circle cx="14" cy="14" r="14" fill="#BFFBFF"/>
<g clip-path="url(#clip0_163_1100)">
<path d="M16.6276 6.53333C16.7679 6.5686 16.9101 6.59676 17.0476 6.64051C17.9377 6.92407 18.5605 7.75012 18.5646 8.68336C18.5726 10.4282 18.5682 12.173 18.5668 13.9181C18.5668 14.2489 18.3268 14.4923 18.015 14.4901C17.7033 14.4879 17.4753 14.2459 17.4753 13.9096C17.4753 12.196 17.4753 10.483 17.4753 8.77059C17.4753 8.17641 17.105 7.73344 16.5352 7.63965C16.4627 7.62971 16.3896 7.62568 16.3164 7.62762C14.1158 7.62762 11.9152 7.62762 9.71457 7.62762C9.02906 7.62707 8.56121 8.09192 8.56121 8.77551C8.56121 11.9463 8.56121 15.1172 8.56121 18.2881C8.56121 18.9717 9.02605 19.439 9.70965 19.4398C10.4707 19.4409 11.2316 19.4409 11.9923 19.4398C12.3234 19.4398 12.5466 19.6069 12.6004 19.8932C12.6518 20.1666 12.4973 20.4023 12.1927 20.518C12.1848 20.5224 12.1774 20.5276 12.1706 20.5336H9.40887C9.38447 20.5232 9.35922 20.515 9.3334 20.509C8.27246 20.3507 7.47047 19.4426 7.4691 18.3723C7.46473 15.1458 7.46473 11.92 7.4691 8.69485C7.4691 7.70336 8.1691 6.83165 9.13187 6.59594C9.22375 6.57352 9.31645 6.55438 9.40887 6.5336L16.6276 6.53333Z" fill="#00828B"/>
<path d="M15.9723 20.5333C15.8082 20.5002 15.6417 20.4743 15.4801 20.4327C14.694 20.2317 14.0448 19.7929 13.4799 19.2296C13.1649 18.9154 12.8811 18.5687 12.5983 18.2244C12.4258 18.0144 12.4228 17.7765 12.5762 17.5665C13.1378 16.7976 13.7911 16.1231 14.6365 15.6634C15.829 15.0154 16.996 15.1029 18.1275 15.8215C18.8409 16.2748 19.4127 16.8772 19.91 17.5545C20.0528 17.7492 20.0741 17.9718 19.9327 18.1678C19.2943 19.0497 18.5467 19.815 17.5265 20.252C17.2336 20.3772 16.908 20.4259 16.5968 20.5098C16.5695 20.5169 16.5451 20.5254 16.5191 20.5331L15.9723 20.5333ZM13.7109 17.8783C14.164 18.4095 14.6428 18.8796 15.257 19.1891C15.9112 19.5185 16.5675 19.5202 17.2257 19.194C17.7143 18.9504 18.1188 18.6004 18.489 18.2066C18.5877 18.1016 18.6804 17.9917 18.7794 17.8815C18.3594 17.3869 17.9148 16.9458 17.3575 16.636C16.8456 16.3522 16.3067 16.2322 15.7278 16.3959C14.875 16.6371 14.2843 17.2318 13.7118 17.8783H13.7109Z" fill="#00828B"/>
<path d="M13.0186 10.9083C12.0848 10.9083 11.151 10.91 10.2175 10.9083C9.81306 10.9083 9.54755 10.5293 9.68864 10.1649C9.77286 9.94747 9.97083 9.81622 10.2246 9.81594C10.999 9.81485 11.7732 9.81485 12.5474 9.81594C13.6361 9.81594 14.7246 9.81594 15.8131 9.81594C16.2068 9.81594 16.4693 10.1714 16.3509 10.5332C16.2774 10.7615 16.0693 10.9083 15.8076 10.9083C14.8779 10.9083 13.9483 10.9083 13.0186 10.9083Z" fill="#00828B"/>
<path d="M13.021 13.0958C12.0872 13.0958 11.1535 13.0975 10.2199 13.0958C9.81498 13.0958 9.54892 12.7185 9.68919 12.3537C9.77287 12.135 9.97138 12.0037 10.2243 12.0034C10.9077 12.0022 11.5913 12.0022 12.2751 12.0034C13.4547 12.0034 14.6343 12.0034 15.8139 12.0034C16.2082 12.0034 16.4702 12.3567 16.3537 12.7193C16.2785 12.9525 16.069 13.0958 15.7959 13.0961C14.8704 13.0959 13.9454 13.0958 13.021 13.0958Z" fill="#00828B"/>
<path d="M11.624 15.2833C11.1641 15.2833 10.7039 15.2833 10.2437 15.2833C9.89781 15.2833 9.65527 15.0564 9.65527 14.7365C9.65527 14.4165 9.89699 14.1896 10.2421 14.1896C11.1718 14.1896 12.1014 14.1896 13.0311 14.1896C13.374 14.1896 13.6201 14.4176 13.6201 14.7365C13.6201 15.0553 13.3759 15.2833 13.032 15.2833C12.5625 15.2833 12.0932 15.2833 11.624 15.2833Z" fill="#00828B"/>
<path d="M16.2705 18.92C16.0647 18.9197 15.8636 18.8582 15.6928 18.7433C15.522 18.6285 15.3891 18.4655 15.311 18.2751C15.233 18.0847 15.2132 17.8753 15.2543 17.6737C15.2954 17.472 15.3954 17.287 15.5417 17.1423C15.688 16.9975 15.8741 16.8995 16.0762 16.8606C16.2783 16.8217 16.4874 16.8438 16.677 16.9239C16.8666 17.004 17.0281 17.1386 17.141 17.3107C17.254 17.4827 17.3133 17.6845 17.3115 17.8903C17.3085 18.1644 17.1975 18.4263 17.0026 18.619C16.8077 18.8118 16.5446 18.92 16.2705 18.92Z" fill="#00828B"/>
</g>
<defs>
<clipPath id="clip0_163_1100">
<rect width="12.5617" height="14" fill="white" transform="translate(7.4668 6.53333)"/>
</clipPath>
</defs>
</svg>
