<svg width="17" height="14" viewBox="0 0 17 14" fill="none" xmlns="http://www.w3.org/2000/svg">
<g clip-path="url(#clip0_181_6260)">
<path d="M0 4.72075C0.157922 4.27996 0.479842 4.11119 0.93452 4.14069C1.16056 4.15544 1.38833 4.14329 1.63129 4.14329C1.63563 4.08082 1.64213 4.02919 1.64257 3.97756C1.64257 3.78797 1.63866 3.59794 1.64474 3.40835C1.65515 3.08816 1.8391 2.90291 2.15668 2.90247C3.67994 2.90031 5.2032 2.89467 6.72645 2.90551C7.35728 2.90985 7.86098 3.19055 8.23366 3.70207C8.26186 3.74068 8.28876 3.78016 8.32694 3.83222C8.36468 3.78189 8.39592 3.74068 8.42629 3.69946C8.7994 3.18882 9.30268 2.90768 9.9335 2.90334C11.4568 2.8925 12.98 2.89814 14.5033 2.90031C14.8208 2.90031 15.0078 3.08946 15.0156 3.40618C15.0213 3.63395 15.0196 3.86129 15.0217 4.08906C15.0261 4.10702 15.0324 4.12447 15.0404 4.14112C15.2629 4.14112 15.4951 4.15327 15.7254 4.13852C16.1797 4.10989 16.5025 4.27692 16.66 4.71858V13.41C16.5298 13.7861 16.286 14 15.8669 13.9996C10.8423 13.997 5.81782 13.9961 0.793517 13.997C0.707064 13.9983 0.620782 13.9888 0.536676 13.9688C0.245127 13.8933 0.0924107 13.6789 0 13.41V4.72075ZM14.5284 3.38926H14.3475C12.9106 3.38926 11.4738 3.38926 10.0372 3.38926C9.16514 3.38926 8.5764 3.97366 8.57554 4.84744C8.57264 7.47745 8.57264 10.1075 8.57554 12.7375C8.57554 12.7869 8.58204 12.836 8.58682 12.9015C8.60832 12.8882 8.62903 12.8737 8.64886 12.8581C9.23196 12.2806 9.9387 12.0338 10.7539 12.042C11.9466 12.0533 13.1401 12.0451 14.3323 12.0451H14.5293C14.5293 11.3682 14.5293 10.7179 14.5293 10.0676C14.5269 10.0026 14.5299 9.93761 14.5384 9.87319C14.5476 9.8183 14.5757 9.76837 14.6178 9.73207C14.66 9.69577 14.7136 9.67541 14.7692 9.67453C14.8248 9.67365 14.879 9.69231 14.9223 9.72726C14.9656 9.76222 14.9952 9.81125 15.0061 9.86581C15.0147 9.91376 15.0183 9.96246 15.017 10.0112C15.017 10.6676 15.017 11.3236 15.017 11.98C15.017 12.3596 14.8386 12.5331 14.456 12.5331H10.6329C10.1122 12.5331 9.63501 12.6763 9.22762 13.0021C9.05408 13.1397 8.90874 13.311 8.75038 13.4672L8.78292 13.5106H15.7922C16.1137 13.5106 16.1732 13.452 16.1732 13.1353V5.01664C16.1732 4.96761 16.1732 4.91859 16.1732 4.87043C16.1615 4.74027 16.0864 4.6457 15.9615 4.64092C15.6543 4.62964 15.3467 4.63745 15.02 4.63745V4.85958C15.02 6.11255 15.02 7.36523 15.02 8.61762C15.0223 8.68267 15.0195 8.7478 15.0117 8.81242C15.0038 8.86885 14.9759 8.92056 14.933 8.95812C14.8902 8.99569 14.8353 9.01661 14.7783 9.01708C14.7213 9.01756 14.666 8.99755 14.6226 8.9607C14.5791 8.92385 14.5503 8.87261 14.5414 8.81632C14.5327 8.75192 14.5297 8.68689 14.5323 8.62196C14.5323 6.95162 14.5323 5.28144 14.5323 3.61139L14.5284 3.38926ZM2.1441 3.38926V12.0455H6.02492C6.77418 12.0455 7.42366 12.2984 7.96814 12.8164C7.99634 12.8433 8.03018 12.865 8.07791 12.9032C8.08138 12.8303 8.08528 12.7826 8.08528 12.7349C8.08528 10.1104 8.08528 7.48598 8.08528 4.86175C8.08528 3.96888 7.49915 3.39099 6.60324 3.39056H2.1441V3.38926ZM7.91695 13.5097C7.8471 13.4204 7.80675 13.3627 7.76076 13.3102C7.30391 12.7922 6.72689 12.5357 6.0388 12.5344C4.74331 12.5318 3.4474 12.5344 2.15191 12.5344C1.84821 12.5344 1.66469 12.3609 1.64517 12.0594C1.64127 11.9943 1.643 11.9292 1.643 11.8641V4.90124C1.643 4.85785 1.6391 4.81446 1.643 4.77108C1.65385 4.66782 1.6161 4.62574 1.50677 4.62921C1.28985 4.63658 1.07292 4.62921 0.855992 4.62921C0.552295 4.62921 0.48765 4.69646 0.48765 5.00493V13.1401C0.48765 13.4486 0.549257 13.5097 0.857727 13.5097H7.91651H7.91695Z" fill="black"/>
<path d="M12.9828 1.50721V0.498064H3.23669C3.35559 0.823938 3.35559 1.18133 3.23669 1.50721H3.42758C4.07836 1.50721 4.72914 1.50721 5.37992 1.50721C5.44475 1.50487 5.50962 1.5107 5.57299 1.52456C5.62684 1.53579 5.67453 1.56678 5.70665 1.61144C5.73877 1.65609 5.753 1.71116 5.74653 1.76578C5.747 1.82419 5.72455 1.88045 5.68398 1.92247C5.64342 1.9645 5.58799 1.98893 5.5296 1.99052C5.44283 1.99789 5.35606 1.99442 5.26929 1.99442C4.47751 1.99442 3.68573 1.99919 2.89395 1.98965C2.77259 1.98386 2.65518 1.94467 2.55467 1.87641C2.33775 1.73151 2.13904 1.56404 1.93513 1.40221C1.63143 1.16099 1.63143 0.83213 1.93253 0.594378C2.14512 0.426477 2.3564 0.255974 2.5781 0.10022C2.65988 0.0414914 2.75693 0.0077345 2.8575 0.0030377C6.68061 -0.0018793 10.5039 -0.00303698 14.3273 -0.000433865C14.7073 -0.000433865 14.9347 0.22517 14.9347 0.60696C14.9368 0.861632 14.9347 1.11674 14.9347 1.37184C14.9347 1.77446 14.7134 1.99529 14.3104 1.99529C12.3473 1.99529 10.3841 1.99529 8.4208 1.99529C7.84074 1.99529 7.26024 1.99529 6.68018 1.99529C6.48364 1.99529 6.35436 1.86513 6.41119 1.70548C6.43896 1.62868 6.53093 1.56447 6.60859 1.52065C6.65892 1.49202 6.73571 1.50851 6.80079 1.50851H12.9828V1.50721ZM13.486 1.50721C13.7815 1.50721 14.0578 1.51198 14.3333 1.502C14.3603 1.49511 14.385 1.48139 14.405 1.46216C14.4251 1.44293 14.4399 1.41884 14.4479 1.39223C14.4583 1.12672 14.4561 0.860765 14.4479 0.595247C14.4479 0.560105 14.3993 0.496327 14.3724 0.49546C14.0769 0.488518 13.7815 0.491122 13.4843 0.491122L13.486 1.50721ZM2.73993 1.40612C2.87008 1.12411 2.87008 0.871177 2.73429 0.596114L2.21366 0.998296L2.73993 1.40612Z" fill="black"/>
<path d="M11.5512 4.64787C12.1911 4.64787 12.8306 4.64787 13.4705 4.65047C13.5504 4.64747 13.6295 4.6675 13.6983 4.70817C13.732 4.73368 13.7581 4.76796 13.7737 4.80727C13.7892 4.84659 13.7937 4.88942 13.7866 4.93109C13.7795 4.97277 13.761 5.01169 13.7333 5.04361C13.7056 5.07553 13.6696 5.09922 13.6293 5.11209C13.5618 5.1309 13.4916 5.13867 13.4215 5.13508C12.1746 5.13508 10.9276 5.13508 9.68041 5.13508C9.65307 5.13508 9.62617 5.13508 9.59884 5.13508C9.4253 5.12771 9.3125 5.03139 9.3125 4.88909C9.3125 4.74678 9.42183 4.64873 9.59928 4.6483C10.2496 4.647 10.9004 4.64787 11.5512 4.64787Z" fill="black"/>
<path d="M11.5556 6.11255C12.1951 6.11255 12.835 6.10908 13.4749 6.11602C13.5646 6.11537 13.652 6.14468 13.7231 6.19932C13.8506 6.31429 13.7916 6.52254 13.6255 6.57807C13.5631 6.59521 13.4984 6.60238 13.4337 6.59933C12.1813 6.59933 10.9288 6.59933 9.67612 6.59933C9.64358 6.59933 9.61104 6.59933 9.5785 6.59933C9.41711 6.58805 9.30994 6.48696 9.31255 6.34943C9.31515 6.2119 9.42188 6.11428 9.58717 6.11341C10.2432 6.11125 10.8996 6.11255 11.5556 6.11255Z" fill="black"/>
<path d="M11.5583 7.57681C12.1982 7.57681 12.8381 7.57247 13.4776 7.58158C13.5768 7.58452 13.6714 7.62373 13.7436 7.69178C13.8494 7.80718 13.7774 7.99548 13.6234 8.0432C13.5607 8.05953 13.4959 8.06655 13.4312 8.06403C12.1788 8.06403 10.9263 8.06403 9.67361 8.06403C9.65191 8.06403 9.63022 8.06403 9.60853 8.06403C9.42371 8.05795 9.30787 7.9586 9.31264 7.81066C9.31741 7.66271 9.42631 7.57724 9.60636 7.57681C10.2571 7.57594 10.9078 7.57594 11.5583 7.57681Z" fill="black"/>
<path d="M11.5499 9.04106H13.4059C13.4597 9.04106 13.5144 9.04106 13.5682 9.04454C13.6251 9.0491 13.6785 9.07393 13.7187 9.11451C13.7589 9.1551 13.7831 9.20875 13.7871 9.26572C13.7911 9.32269 13.7745 9.3792 13.7404 9.42499C13.7063 9.47078 13.6569 9.50281 13.6011 9.51526C13.5429 9.52671 13.4835 9.53123 13.4241 9.52871H9.68128C9.65438 9.52871 9.62705 9.52871 9.60015 9.52871C9.42661 9.52134 9.31337 9.42633 9.31251 9.28359C9.31164 9.14085 9.42183 9.04237 9.59798 9.04193C10.2488 9.0389 10.8995 9.04106 11.5499 9.04106Z" fill="black"/>
<path d="M11.5529 10.5057C12.1929 10.5057 12.8328 10.5023 13.4723 10.5088C13.5622 10.5079 13.6499 10.5367 13.7218 10.5908C13.855 10.7105 13.789 10.9244 13.6124 10.9756C13.5493 10.9901 13.4845 10.996 13.4198 10.993C12.1726 10.993 10.9254 10.993 9.67825 10.993C9.64571 10.993 9.61317 10.993 9.58107 10.993C9.41881 10.9825 9.31121 10.8828 9.31251 10.7457C9.31381 10.6086 9.42054 10.5079 9.58497 10.5075C10.241 10.5044 10.8969 10.5057 11.5529 10.5057Z" fill="black"/>
<path d="M5.12431 4.64787C5.7586 4.64787 6.39289 4.64787 7.02719 4.65047C7.10714 4.64733 7.18629 4.66753 7.25496 4.70861C7.2887 4.73406 7.31479 4.7683 7.33037 4.80759C7.34596 4.84687 7.35043 4.88969 7.34331 4.93135C7.33619 4.97301 7.31774 5.01191 7.28999 5.04379C7.26224 5.07566 7.22626 5.09929 7.18598 5.11209C7.1184 5.1309 7.04822 5.13867 6.97816 5.13508C5.73098 5.13508 4.48394 5.13508 3.23705 5.13508C3.20972 5.13508 3.18238 5.13508 3.15548 5.13508C2.98194 5.12771 2.86914 5.03139 2.86914 4.88909C2.86914 4.74678 2.97891 4.64873 3.15592 4.6483C3.8119 4.647 4.46789 4.64787 5.12431 4.64787Z" fill="black"/>
<path d="M5.1195 6.11212H6.97423C7.02836 6.11046 7.08254 6.11206 7.13649 6.1169C7.19161 6.12031 7.24349 6.14408 7.28206 6.18361C7.32063 6.22314 7.34312 6.2756 7.34517 6.33079C7.35392 6.38537 7.34176 6.44124 7.31112 6.48724C7.28048 6.53324 7.23361 6.56599 7.17987 6.57895C7.11709 6.59479 7.05237 6.60151 6.98768 6.59891C5.74078 6.59891 4.49374 6.59891 3.24656 6.59891C2.99753 6.59891 2.87692 6.52168 2.87128 6.35942C2.86564 6.19716 2.98929 6.11082 3.24917 6.11082L5.1195 6.11212Z" fill="black"/>
<path d="M5.10739 7.57681C5.74732 7.57681 6.38725 7.57681 7.02675 7.57898C7.10684 7.5759 7.18611 7.5961 7.25496 7.63712C7.28857 7.66262 7.31454 7.69685 7.33006 7.73608C7.34558 7.77531 7.35004 7.81804 7.34298 7.85964C7.33591 7.90123 7.31758 7.94009 7.28998 7.97199C7.26237 8.0039 7.22655 8.02763 7.18641 8.0406C7.11888 8.05965 7.04866 8.06742 6.9786 8.0636C5.73141 8.0636 4.48423 8.0636 3.23705 8.0636C3.21015 8.0636 3.18282 8.0636 3.15592 8.0636C2.98238 8.05622 2.86914 7.96034 2.86914 7.8176C2.86914 7.67486 2.97934 7.57725 3.15548 7.57681C3.80626 7.57551 4.45704 7.57681 5.10739 7.57681Z" fill="black"/>
<path d="M5.10482 9.04106H6.97516C7.02931 9.03924 7.08352 9.04113 7.13742 9.0467C7.19251 9.05089 7.24407 9.07541 7.28208 9.1155C7.32009 9.1556 7.34182 9.2084 7.34307 9.26363C7.35098 9.3184 7.33795 9.37414 7.30659 9.41973C7.27523 9.46532 7.22784 9.49742 7.17386 9.50962C7.1108 9.52457 7.04599 9.53085 6.98123 9.52828C5.73434 9.52828 4.4873 9.52828 3.24012 9.52828C3.20237 9.52828 3.16419 9.52828 3.12645 9.52828C2.97373 9.5157 2.87134 9.41808 2.86917 9.28619C2.867 9.1543 2.97417 9.04366 3.13643 9.04323C3.79241 9.04063 4.4484 9.04323 5.10482 9.04323V9.04106Z" fill="black"/>
<path d="M5.10782 10.5053C5.74775 10.5053 6.38725 10.5053 7.02719 10.5079C7.10714 10.5048 7.18629 10.525 7.25496 10.5661C7.28856 10.5916 7.31451 10.6259 7.33 10.6651C7.34549 10.7044 7.34992 10.7471 7.34281 10.7887C7.3357 10.8303 7.31732 10.8692 7.28966 10.901C7.26201 10.9329 7.22615 10.9566 7.18598 10.9695C7.1184 10.9884 7.04822 10.9961 6.97816 10.9925C5.73127 10.9925 4.48423 10.9925 3.23705 10.9925C3.20972 10.9925 3.18282 10.9925 3.15548 10.9925C2.98194 10.9852 2.86914 10.8893 2.86914 10.7465C2.86914 10.6038 2.97934 10.5066 3.15592 10.5058C3.8067 10.5045 4.45704 10.5058 5.10782 10.5053Z" fill="black"/>
</g>
<defs>
<clipPath id="clip0_181_6260">
<rect width="16.66" height="14" fill="white"/>
</clipPath>
</defs>
</svg>
