<svg width="12" height="12" viewBox="0 0 12 12" fill="none" xmlns="http://www.w3.org/2000/svg">
<g clip-path="url(#clip0_171_378)">
<path d="M0.599288 6.29579V6.66696C0.599288 6.7111 0.601221 6.75557 0.599288 6.79971C0.591555 6.91344 0.511328 6.99303 0.408224 6.99303C0.299965 6.99303 0.231336 6.92021 0.230047 6.79487C0.22747 6.59769 0.230047 6.40018 0.230047 6.20299C0.2314 6.16685 0.23 6.13066 0.225859 6.09473C0.198149 5.91076 0.233591 5.84922 0.411767 5.79154C1.01987 5.59436 1.62818 5.39835 2.23671 5.20353C2.28586 5.19097 2.33738 5.19097 2.38653 5.20353C2.47546 5.22383 2.56148 5.25508 2.66781 5.28795V5.13168C2.66781 4.31007 2.67329 3.48846 2.66555 2.66718C2.66169 2.28666 2.79089 1.98572 3.1118 1.7721C3.13941 1.7512 3.1587 1.72117 3.16625 1.68737C3.28418 1.08356 3.52067 0.866402 4.12157 0.785208C5.2657 0.628941 6.40919 0.46623 7.55235 0.307064C8.27344 0.206537 8.99387 0.0998892 9.71657 0.00999557C10.282 -0.0605661 10.7135 0.290953 10.7908 0.855447C11.0056 2.42155 11.2219 3.98776 11.4397 5.55408C11.6059 6.77608 11.773 7.99926 11.9407 9.22361C11.9576 9.34556 11.9502 9.46964 11.9189 9.58872C11.8877 9.70779 11.8333 9.81953 11.7587 9.91749C11.6842 10.0155 11.591 10.0977 11.4845 10.1596C11.3781 10.2214 11.2605 10.2616 11.1384 10.2778C10.9077 10.3101 10.677 10.3462 10.4451 10.3713C10.3652 10.38 10.3484 10.41 10.3484 10.4844C10.3484 10.7215 10.3597 10.9612 10.3323 11.1958C10.2778 11.6614 9.90634 11.9894 9.43561 11.9955C8.83954 12.0036 8.24347 11.9987 7.6474 11.9987H3.95016C2.95156 11.9987 1.95274 11.9987 0.953707 11.9987C0.502628 11.9987 0.142731 11.741 0.0515485 11.3269C-0.0240084 10.9996 -0.0194766 10.6588 0.0647588 10.3336C0.149497 10.0182 0.36666 9.80583 0.675005 9.69789C0.883468 9.62475 1.09644 9.56386 1.30877 9.50264C1.38223 9.48137 1.42025 9.44658 1.40543 9.36796C1.40447 9.35993 1.40447 9.35182 1.40543 9.34379C1.42541 9.11825 1.39383 8.92494 1.22017 8.74321C1.02072 8.53443 0.959829 8.2496 0.953063 7.96027C0.951452 7.87972 0.949519 7.79917 0.953063 7.71862C0.958487 7.61959 0.931943 7.52143 0.877346 7.43863C0.82247 7.3413 0.791649 7.23227 0.787452 7.12062C0.774242 6.9041 0.783586 6.68597 0.783586 6.46848C0.785841 6.31834 0.781653 6.31383 0.599288 6.29579ZM4.47921 11.6211C4.51143 11.6243 4.52561 11.6272 4.54108 11.6272C6.15594 11.6272 7.77091 11.6272 9.38599 11.6272C9.73461 11.6272 9.96917 11.3875 9.97014 11.0405C9.97207 10.5411 9.96821 10.0417 9.96821 9.54227C9.96821 7.2306 9.96821 4.91892 9.96821 2.60725C9.96821 2.25121 9.73461 2.0144 9.38213 2.0144C7.46504 2.0144 5.54795 2.0144 3.63086 2.0144C3.26871 2.0144 3.0364 2.24799 3.03576 2.61337C3.03576 3.51134 3.03576 4.40931 3.03318 5.3076C3.03318 5.39331 3.06283 5.42488 3.13951 5.44872C3.50392 5.56278 3.86607 5.68425 4.23015 5.79863C4.3339 5.83085 4.40414 5.88756 4.40479 6.00001C4.40543 6.11245 4.32971 6.17174 4.23015 6.20428C4.13059 6.23682 4.03297 6.27613 3.93147 6.29869C3.84094 6.31931 3.82289 6.36796 3.8245 6.45237C3.82966 6.68178 3.83127 6.91151 3.8245 7.14091C3.8216 7.22694 3.81677 7.33424 3.76683 7.39352C3.63795 7.54334 3.65632 7.71218 3.65857 7.88262C3.66244 8.18033 3.60992 8.47192 3.41725 8.69939C3.26452 8.87983 3.22393 9.06574 3.24551 9.28386C3.24921 9.31188 3.24921 9.34026 3.24551 9.36828C3.23262 9.4469 3.26742 9.48105 3.34217 9.50232C3.55096 9.56192 3.76103 9.62218 3.96402 9.69564C4.31844 9.82162 4.56073 10.0691 4.6052 10.4431C4.65063 10.8346 4.69863 11.2367 4.47921 11.6211ZM3.55354 1.62873H9.32671C9.9579 1.62873 10.3529 2.02149 10.3529 2.64945C10.3529 5.04576 10.3529 7.44196 10.3529 9.83805V9.99496C10.6081 9.96113 10.851 9.93406 11.092 9.8954C11.2313 9.87493 11.3569 9.80064 11.4419 9.68851C11.5269 9.57638 11.5645 9.43536 11.5467 9.29579C11.5286 9.12792 11.5051 8.96038 11.4822 8.79316C11.3009 7.4614 11.1192 6.12964 10.9371 4.79788C10.7586 3.48631 10.5804 2.17464 10.4025 0.862858C10.3821 0.715481 10.3048 0.581967 10.1871 0.490954C10.0694 0.399941 9.92072 0.358677 9.77295 0.376014C9.52131 0.406301 9.27065 0.444965 9.01965 0.479118L6.28096 0.854158C5.52346 0.957906 4.76662 1.06069 4.00913 1.16734C3.89291 1.18317 3.7852 1.23701 3.70278 1.32047C3.62037 1.40393 3.5679 1.51232 3.55354 1.62873ZM3.27 7.7183H1.34035C1.29427 8.15101 1.39158 8.5238 1.76919 8.76577C2.11459 8.98841 2.47997 8.99131 2.82826 8.77318C3.2149 8.53024 3.3164 8.15649 3.27 7.71701V7.7183ZM2.50284 11.6169C2.94297 11.6169 3.36956 11.6266 3.79519 11.613C4.05649 11.605 4.24111 11.3901 4.25432 11.1111C4.26237 10.9461 4.26141 10.7805 4.25432 10.6158C4.24498 10.3903 4.14058 10.2182 3.95081 10.0955C3.87992 10.0497 3.83578 10.053 3.78616 10.1312C3.65471 10.3384 3.51487 10.5401 3.37633 10.7434C3.27967 10.8858 3.15916 10.9106 3.01546 10.8217C2.84921 10.7189 2.68295 10.6152 2.50284 10.5034V11.6169ZM2.10589 11.6288V10.5056L1.63838 10.8092C1.48727 10.9058 1.41284 10.8923 1.30974 10.7409C1.16958 10.5346 1.02846 10.3291 0.892811 10.1203C0.853181 10.0591 0.815805 10.0523 0.75491 10.0836C0.536458 10.1957 0.410801 10.3706 0.397913 10.6165C0.389858 10.7689 0.395013 10.9222 0.395657 11.075C0.395657 11.403 0.606699 11.6188 0.93502 11.6269C1.09161 11.6308 1.24852 11.6269 1.40543 11.6269L2.10589 11.6288ZM3.44592 6.45914C3.09601 6.57256 2.76286 6.67824 2.43196 6.78907C2.33415 6.82532 2.22658 6.82532 2.12877 6.78907C1.81527 6.67695 1.49758 6.57674 1.16829 6.46687C1.16829 6.714 1.16281 6.94663 1.17119 7.17861C1.17474 7.27527 1.24981 7.33037 1.34454 7.33069C1.98099 7.33327 2.61722 7.33327 3.25325 7.33069C3.30191 7.33119 3.3489 7.31299 3.38452 7.27983C3.42014 7.24667 3.44166 7.20109 3.44463 7.15251C3.44882 6.92697 3.44592 6.70176 3.44592 6.45785V6.45914ZM3.59413 6.02063C3.23198 5.90464 2.90463 5.80798 2.58371 5.69327C2.40919 5.62382 2.21493 5.62255 2.03952 5.68973C1.71571 5.80959 1.38256 5.90431 1.04682 6.01193C1.06261 6.02643 1.06744 6.0348 1.07421 6.03706C1.31457 6.11535 1.56234 6.17528 1.79336 6.27484C2.1365 6.42273 2.46804 6.44722 2.80603 6.27484C2.84336 6.26005 2.88183 6.24831 2.92106 6.23972L3.59413 6.02063ZM2.33047 9.94309C2.49833 9.81711 2.65653 9.70015 2.81377 9.58029C2.83928 9.56276 2.85733 9.53633 2.86435 9.50618C2.87015 9.40372 2.86661 9.30062 2.86661 9.20911C2.67909 9.24133 2.50284 9.29128 2.32595 9.29353C2.14907 9.29579 1.96638 9.25068 1.78015 9.22555C1.77667 9.27223 1.77721 9.31912 1.78176 9.3657C1.79304 9.43014 1.79658 9.51101 1.83718 9.5471C1.99119 9.68565 2.16002 9.80873 2.33047 9.94309ZM3.13081 10.4438L3.46686 9.93052C3.35506 9.89669 3.26033 9.86608 3.164 9.8403C3.13827 9.83257 3.11056 9.83511 3.08667 9.84739C2.94716 9.9476 2.81022 10.052 2.66169 10.1631L3.13081 10.4438ZM1.55622 10.4438L1.987 10.1619C1.85458 10.0549 1.73472 9.95597 1.61164 9.8606C1.60048 9.85289 1.58789 9.84748 1.57461 9.84472C1.56132 9.84195 1.54762 9.84187 1.53431 9.84449C1.43507 9.87059 1.33713 9.90345 1.22403 9.93825C1.33841 10.1126 1.44345 10.2724 1.55622 10.4444V10.4438Z" fill="black"/>
<path d="M7.91247 10.5382C7.71593 10.679 7.52583 10.8133 7.33734 10.9503C7.25357 11.0112 7.16593 11.0714 7.06218 11.0147C6.96552 10.9628 6.97261 10.8623 6.97293 10.7679C6.97293 10.3168 6.971 9.86575 6.97519 9.41467C6.97713 9.37757 6.97036 9.34054 6.95542 9.30652C6.94048 9.2725 6.91779 9.24245 6.88916 9.21878C6.44034 8.79734 6.26828 8.28021 6.43164 7.68543C6.5966 7.08453 7.00419 6.7082 7.61637 6.5761C8.27752 6.43304 8.95446 6.76652 9.27602 7.37805C9.42784 7.66921 9.48118 8.00175 9.42803 8.32578C9.37487 8.64982 9.21809 8.94789 8.9812 9.17528C8.9484 9.20337 8.92244 9.23858 8.9053 9.27822C8.88816 9.31787 8.88029 9.3609 8.88229 9.40404C8.88712 9.86672 8.88422 10.3294 8.88454 10.7924C8.88454 10.8813 8.89614 10.9825 8.80206 11.0279C8.70282 11.0759 8.60874 11.0344 8.5211 10.9722C8.3207 10.8304 8.12093 10.6883 7.91247 10.5382ZM7.90828 9.22361C8.13769 9.22399 8.36206 9.15634 8.55302 9.0292C8.74398 8.90207 8.89295 8.72116 8.9811 8.50936C9.06924 8.29756 9.0926 8.06438 9.04822 7.8393C9.00384 7.61422 8.89371 7.40736 8.73176 7.24488C8.56982 7.08239 8.36332 6.97157 8.13839 6.92644C7.91347 6.88131 7.68021 6.90389 7.46812 6.99133C7.25602 7.07877 7.07462 7.22714 6.94685 7.41767C6.81908 7.6082 6.75068 7.83235 6.75029 8.06176C6.75131 8.36892 6.87351 8.66327 7.09035 8.88083C7.30718 9.09839 7.60112 9.22157 7.90828 9.22361ZM8.50693 9.5007C8.13988 9.65102 7.72984 9.65838 7.35764 9.52132V10.494C7.4543 10.4248 7.53356 10.3652 7.6154 10.3088C7.90538 10.1032 7.89443 10.0433 8.24917 10.3114C8.32939 10.3719 8.41317 10.4286 8.50693 10.496V9.5007Z" fill="black"/>
<path d="M6.55933 3.82676H8.88884C8.92904 3.82487 8.96932 3.82605 9.00934 3.8303C9.05226 3.83382 9.09223 3.85358 9.12109 3.88555C9.14995 3.91753 9.16552 3.9593 9.16464 4.00236C9.1696 4.0451 9.15831 4.08815 9.133 4.12295C9.10769 4.15775 9.07022 4.18175 9.02803 4.1902C8.97687 4.20076 8.92459 4.20487 8.8724 4.20244C7.331 4.20244 5.7896 4.20244 4.2482 4.20244C4.19997 4.20354 4.15172 4.20106 4.10385 4.19503C4.00429 4.17957 3.95757 4.11158 3.95596 4.01782C3.95137 3.97288 3.96481 3.92795 3.99332 3.89291C4.02184 3.85787 4.0631 3.83558 4.10804 3.83095C4.1479 3.826 4.18812 3.8246 4.22822 3.82676H6.55933Z" fill="black"/>
<path d="M6.55374 5.1568C5.76113 5.1568 4.9683 5.1568 4.17526 5.1568C4.01609 5.1568 3.9175 5.05692 3.96518 4.92868C3.98581 4.8723 4.05476 4.82783 4.11082 4.79272C4.14014 4.77403 4.18911 4.78627 4.22939 4.78627H8.88968C9.0859 4.78627 9.16967 4.8433 9.16645 4.9725C9.16323 5.10171 9.07559 5.15777 8.88388 5.15777L6.55374 5.1568Z" fill="black"/>
<path d="M7.02975 5.73772H8.88852C8.92873 5.73588 8.96903 5.73728 9.00902 5.74191C9.05192 5.74541 9.09189 5.76505 9.12089 5.79686C9.14989 5.82867 9.16575 5.87028 9.16528 5.91332C9.17038 5.95606 9.15929 5.99915 9.13417 6.0341C9.10906 6.06905 9.07177 6.09333 9.02964 6.10213C8.97868 6.11338 8.92649 6.11804 8.87434 6.11598C7.64311 6.11598 6.41187 6.11598 5.18064 6.11598C4.97476 6.11598 4.8926 6.06121 4.89356 5.92492C4.89453 5.78863 4.97508 5.7374 5.18354 5.7374L7.02975 5.73772Z" fill="black"/>
<path d="M5.20687 3.24584C4.86469 3.24584 4.52284 3.24584 4.18066 3.24584C4.03213 3.24584 3.95287 3.17722 3.95512 3.05542C3.95706 2.93943 4.03277 2.87209 4.17615 2.87177C4.86029 2.87048 5.54432 2.87048 6.22824 2.87177C6.37517 2.87177 6.44412 2.93621 6.44508 3.05639C6.44508 3.18269 6.37388 3.24552 6.22115 3.24584C5.88349 3.24649 5.54518 3.24584 5.20687 3.24584Z" fill="black"/>
<path d="M5.34889 6.6982C5.55027 6.6982 5.75164 6.6982 5.95301 6.6982C6.09253 6.6982 6.16986 6.76877 6.16728 6.88605C6.1647 7.00333 6.09092 7.06648 5.95753 7.06712C5.54704 7.06841 5.13645 7.06841 4.72576 7.06712C4.59076 7.06712 4.52084 7.00268 4.51955 6.88508C4.51826 6.76748 4.58689 6.70014 4.72092 6.69885C4.93035 6.69659 5.13946 6.6982 5.34889 6.6982Z" fill="black"/>
<path d="M5.30312 8.9797C5.1098 8.9797 4.91648 8.98164 4.72316 8.9797C4.58784 8.9797 4.51953 8.91526 4.51856 8.79702C4.5176 8.67877 4.5859 8.61078 4.71962 8.61014C5.10132 8.60778 5.48312 8.60778 5.86504 8.61014C5.99649 8.61014 6.07092 8.68038 6.07221 8.79347C6.0735 8.90656 5.99875 8.97777 5.86858 8.9797C5.68138 8.98164 5.49257 8.9797 5.30312 8.9797Z" fill="black"/>
<path d="M5.23238 7.64934C5.39735 7.64934 5.56263 7.64934 5.7276 7.64934C5.88354 7.64934 5.95604 7.71023 5.95765 7.83492C5.95926 7.95962 5.88644 8.02824 5.73437 8.02824C5.39606 8.02996 5.05786 8.02996 4.71976 8.02824C4.5738 8.02824 4.50356 7.9638 4.50195 7.84266C4.50195 7.71603 4.57219 7.65224 4.72491 7.64934C4.89407 7.64773 5.06322 7.64934 5.23238 7.64934Z" fill="black"/>
<path d="M5.85353 9.93953C5.72465 9.93953 5.59577 9.94211 5.46689 9.93953C5.33801 9.93695 5.27357 9.87123 5.26874 9.76007C5.26455 9.6415 5.33157 9.56675 5.46206 9.56481C5.72304 9.5603 5.98402 9.5603 6.245 9.56481C6.37904 9.56707 6.44477 9.63699 6.44283 9.7562C6.4409 9.87542 6.37098 9.93728 6.23695 9.94018C6.11065 9.94147 5.98209 9.93953 5.85353 9.93953Z" fill="black"/>
<path d="M5.85499 10.8929C5.72611 10.8929 5.59723 10.8958 5.46835 10.8929C5.33399 10.8891 5.26697 10.823 5.26858 10.7048C5.27019 10.5865 5.33914 10.5221 5.47318 10.5211C5.73094 10.5187 5.98784 10.5187 6.24388 10.5211C6.37566 10.5211 6.44429 10.591 6.443 10.7096C6.44171 10.8282 6.37856 10.8881 6.24968 10.8923C6.1208 10.8965 5.98741 10.8926 5.85499 10.8929Z" fill="black"/>
<path d="M8.71356 8.08817C8.71248 8.24686 8.66443 8.40168 8.57548 8.53311C8.48653 8.66453 8.36065 8.76667 8.21373 8.82665C8.0668 8.88663 7.90541 8.90177 7.74989 8.87015C7.59438 8.83853 7.45171 8.76156 7.33988 8.64897C7.22804 8.53637 7.15205 8.39318 7.12149 8.23746C7.09093 8.08173 7.10716 7.92044 7.16813 7.77393C7.22911 7.62742 7.33211 7.50224 7.46413 7.41418C7.59615 7.32612 7.7513 7.27913 7.90999 7.27913C8.12314 7.28207 8.32665 7.36843 8.47687 7.51967C8.62709 7.67092 8.71206 7.87501 8.71356 8.08817ZM7.90387 8.49253C8.13134 8.49446 8.33884 8.29277 8.34239 8.06691C8.34359 7.98155 8.31946 7.89776 8.27305 7.82612C8.22664 7.75448 8.16004 7.69819 8.08166 7.66439C8.00328 7.63059 7.91664 7.62077 7.83268 7.63619C7.74873 7.65161 7.67123 7.69158 7.60998 7.75103C7.54872 7.81048 7.50647 7.88675 7.48855 7.97021C7.47063 8.05367 7.47786 8.14057 7.50931 8.21992C7.54076 8.29928 7.59503 8.36753 7.66526 8.41605C7.73549 8.46457 7.81852 8.49119 7.90387 8.49253Z" fill="black"/>
</g>
<defs>
<clipPath id="clip0_171_378">
<rect width="11.9507" height="12" fill="white"/>
</clipPath>
</defs>
</svg>
