<svg width="12" height="12" viewBox="0 0 12 12" fill="none" xmlns="http://www.w3.org/2000/svg">
<g clip-path="url(#clip0_171_58)">
<path d="M7.35445 5.85332L8.40424 6.92641L10.8145 9.39186C11.1271 9.71114 11.4394 10.0304 11.7512 10.3497C12.0753 10.6837 12.0705 11.0898 11.7445 11.4189C11.6381 11.5264 11.5308 11.6337 11.4227 11.7408C11.081 12.0818 10.6804 12.0856 10.3371 11.7497L7.2475 8.72809C6.80817 8.29834 6.36789 7.86987 5.9308 7.43789C5.87142 7.37882 5.82895 7.36669 5.74913 7.40788C4.16872 8.22076 2.31755 7.92415 1.08961 6.64162C0.265882 5.78149 -0.0958574 4.74032 0.0216363 3.55453C0.192449 1.83044 1.38175 0.49427 3.06657 0.0986866C5.20573 -0.403535 7.40171 1.04406 7.78612 3.20109C7.9509 4.10851 7.79848 5.04499 7.35445 5.85332ZM7.58018 3.92777C7.59359 1.95783 5.96241 0.292487 4.00429 0.278439C1.93602 0.263433 0.284081 1.86428 0.268756 3.89903C0.252792 5.91845 1.87823 7.57071 3.89254 7.5854C5.93208 7.59881 7.56645 5.97784 7.58018 3.92777ZM10.7771 10.3296C10.7493 10.1042 10.727 9.90207 10.6976 9.70092C10.6874 9.66277 10.6663 9.62839 10.6369 9.60194C9.91558 8.86229 9.19338 8.1237 8.47033 7.38617C8.43732 7.35304 8.395 7.33076 8.349 7.32231C8.14818 7.2923 7.94639 7.26612 7.74397 7.24824C7.69166 7.24628 7.64043 7.26354 7.59998 7.29677C7.49557 7.38904 7.40426 7.496 7.3005 7.58923C7.23856 7.64478 7.22834 7.70257 7.24015 7.78079C7.26633 7.95001 7.27687 8.1221 7.30944 8.29004C7.32292 8.37 7.35879 8.4445 7.41288 8.50491C8.07921 9.16422 8.75384 9.81394 9.41698 10.4771C9.57854 10.6393 9.74456 10.7434 9.97412 10.7434C10.042 10.7439 10.1096 10.7524 10.1756 10.7686C10.3004 10.7986 10.3943 10.7657 10.4767 10.6642C10.5517 10.5716 10.6452 10.4946 10.7276 10.4088C10.7472 10.3845 10.7639 10.3579 10.7771 10.3296ZM6.96175 8.09209L7.00166 8.07102C6.98633 7.94554 6.97611 7.81911 6.9544 7.69491C6.94552 7.65622 6.94733 7.61583 6.95964 7.57809C6.97196 7.54035 6.99432 7.50667 7.02432 7.48067C7.1763 7.33381 7.31902 7.17736 7.4761 7.03656C7.532 6.99067 7.60205 6.96552 7.67437 6.96536C7.80783 6.96536 7.94065 6.99314 8.11114 7.01389L7.18524 6.14801C7.04156 6.31436 6.88193 6.5238 6.69643 6.70803C6.51093 6.89225 6.3034 7.05221 6.1329 7.19907L6.96175 8.09209ZM10.0124 11.0218L9.99743 11.0438C10.2161 11.2504 10.4259 11.4681 10.6574 11.6597C10.8046 11.7813 11.0226 11.7449 11.1733 11.6035C11.3186 11.4672 11.4607 11.3264 11.5964 11.1804C11.7601 11.0045 11.7586 10.7622 11.5964 10.5853C11.505 10.4851 11.407 10.3909 11.3132 10.2932C11.2193 10.1955 11.1302 10.0991 11.0389 10.0017C11.0226 10.0979 11.0252 10.1964 11.0466 10.2916C11.0785 10.4132 11.0341 10.4956 10.9479 10.5761C10.8052 10.7092 10.6746 10.8561 10.5293 10.9863C10.4759 11.0295 10.4097 11.0538 10.341 11.0556C10.2324 11.0575 10.1223 11.0345 10.0124 11.0218Z" fill="black"/>
<path d="M1.02051 3.92678C1.02243 2.32305 2.32539 1.01849 3.92082 1.02296C4.30277 1.02199 4.68115 1.09646 5.03425 1.2421C5.38735 1.38773 5.70821 1.60166 5.97843 1.87161C6.24864 2.14155 6.46289 2.46221 6.60887 2.81516C6.75485 3.16811 6.8297 3.54642 6.82911 3.92838C6.82911 5.53976 5.52837 6.84209 3.92369 6.84017C3.15242 6.83865 2.41332 6.53089 1.8689 5.98456C1.32449 5.43823 1.01932 4.69805 1.02051 3.92678ZM3.34261 4.37696C3.31068 4.26553 3.31068 4.16145 3.25991 4.09568C3.11486 3.90927 3.02079 3.68833 2.98693 3.45457C2.97083 3.35759 2.94094 3.2634 2.89818 3.17488C2.75418 2.87412 2.73854 2.57209 2.89818 2.27804C3.13412 1.84318 3.51023 1.60021 3.99968 1.55392C4.31704 1.52391 4.57885 1.64363 4.74902 1.92683C4.82597 2.05454 4.90547 2.18225 4.97251 2.31539C5.01078 2.38952 5.03697 2.46928 5.0501 2.55166C5.08202 2.75791 5.03317 2.95426 4.96389 3.1487C4.92797 3.25365 4.90137 3.36156 4.88439 3.47117C4.8448 3.70392 4.77105 3.92231 4.60407 4.09376C4.52138 4.17869 4.52138 4.26425 4.54341 4.37504C4.92654 4.34854 5.25539 4.45742 5.51592 4.74349C5.77645 5.02956 5.82051 5.37981 5.79273 5.76006C6.36296 5.26072 6.7777 4.17039 6.4265 3.11007C6.05646 1.99484 4.99838 1.25092 3.84196 1.29913C2.64339 1.3515 1.64597 2.15927 1.36469 3.29908C1.11949 4.29618 1.52209 5.31052 2.05976 5.75751C2.02783 5.38044 2.07157 5.03435 2.32763 4.74955C2.58369 4.46476 2.9151 4.35014 3.34261 4.37696ZM3.78736 6.58763V6.41713C3.78736 6.07008 3.7714 5.72239 3.79279 5.37661C3.80779 5.13684 3.73212 4.96954 3.56291 4.80192C3.50873 4.74321 3.44145 4.69815 3.36654 4.67041C3.29163 4.64267 3.21123 4.63303 3.13189 4.64228C2.71172 4.67421 2.37999 4.96411 2.33369 5.38012C2.31135 5.57712 2.32603 5.77826 2.32539 5.97749C2.32539 5.99569 2.32986 6.02283 2.34231 6.03113C2.47003 6.11861 2.60125 6.20322 2.75227 6.30219C2.75227 6.01485 2.75227 5.76868 2.75227 5.52156C2.75227 5.3996 2.80143 5.33 2.88764 5.3367C3.0013 5.34596 3.02269 5.42546 3.02173 5.52412C3.01918 5.78752 3.02174 6.0506 3.02014 6.31369C3.02014 6.36988 3.02333 6.41586 3.08974 6.43054C3.31323 6.47939 3.53737 6.53016 3.78736 6.58763ZM4.06353 6.58316C4.29533 6.53367 4.50669 6.48546 4.71933 6.44491C4.81511 6.42671 4.83522 6.37563 4.83331 6.28527C4.82788 6.02187 4.82692 5.75815 4.83586 5.49507C4.84041 5.46579 4.85088 5.43775 4.86663 5.41266C4.88239 5.38757 4.9031 5.36596 4.9275 5.34916C4.95432 5.33128 5.0303 5.35586 5.06191 5.38523C5.09352 5.41461 5.09927 5.47112 5.0999 5.51614C5.1031 5.76645 5.1015 6.01676 5.1015 6.2923C5.19058 6.24089 5.25922 6.19396 5.33361 6.1598C5.48974 6.08796 5.55711 5.97781 5.53252 5.80125C5.51688 5.69174 5.53252 5.57776 5.52837 5.46633C5.51592 5.09182 5.2771 4.77701 4.92175 4.68059C4.67175 4.6129 4.42591 4.58896 4.25382 4.85013C4.22349 4.89578 4.16858 4.92548 4.13984 4.97177C4.10632 5.02541 4.06928 5.08862 4.068 5.14833C4.06162 5.51965 4.06481 5.89097 4.06481 6.26229L4.06353 6.58316ZM3.41668 2.63243C3.37773 2.80229 3.35729 2.96672 3.30142 3.11773C3.19574 3.40125 3.27556 3.64709 3.43935 3.86867C3.69062 4.20806 4.14782 4.21349 4.41921 3.89421C4.65803 3.61357 4.70272 3.01461 4.50094 2.68288C4.13314 2.88211 3.7714 2.77802 3.41668 2.63243ZM4.75413 2.54655L4.77265 2.53697C4.75317 2.49706 4.73625 2.45555 4.71422 2.41724C4.66186 2.32625 4.59832 2.24068 4.55458 2.14554C4.47061 1.95748 4.33492 1.84957 4.12867 1.82626C3.69062 1.77869 3.15647 2.16086 3.07218 2.59252C3.05686 2.67138 3.06995 2.75567 3.06995 2.83741C3.10207 2.77251 3.12023 2.70159 3.12326 2.62924C3.14178 2.41022 3.2647 2.31795 3.47798 2.37382C3.57791 2.39968 3.67402 2.43959 3.77204 2.47247C3.99904 2.5491 4.21902 2.5408 4.42687 2.41341C4.53351 2.34796 4.6146 2.37478 4.68708 2.46385C4.71103 2.49067 4.73242 2.51877 4.75413 2.54655ZM3.92816 4.81181C4.03512 4.63398 4.24009 4.56693 4.27043 4.33769C4.03224 4.4223 3.81546 4.41495 3.5744 4.32779C3.61431 4.56182 3.81322 4.63749 3.92816 4.81181Z" fill="black"/>
<path d="M8.39227 8.54543C8.34979 8.52354 8.30948 8.49767 8.2719 8.46816C8.09534 8.29511 7.9207 8.11951 7.74701 7.94391C7.68315 7.88005 7.6739 7.80758 7.73839 7.7434C7.80288 7.67923 7.87632 7.69104 7.93953 7.75362C8.11769 7.9305 8.2984 8.10482 8.46985 8.28905C8.48617 8.31188 8.49745 8.33792 8.50295 8.36544C8.50846 8.39296 8.50806 8.42133 8.50178 8.44868C8.49507 8.48476 8.43473 8.5103 8.39227 8.54543Z" fill="black"/>
<path d="M9.42829 9.3034C9.4002 9.33756 9.37785 9.38928 9.34177 9.40237C9.29994 9.41738 9.22811 9.41706 9.20033 9.39056C9.00334 9.20442 8.81017 9.01349 8.62563 8.81586C8.59722 8.78393 8.60456 8.69071 8.63042 8.64665C8.66937 8.57992 8.75239 8.57609 8.80794 8.62973C9.00334 8.81746 9.19363 9.01286 9.38264 9.20442C9.40435 9.2239 9.40946 9.25934 9.42829 9.3034Z" fill="black"/>
<path d="M10.1788 10.3356C10.1364 10.3126 10.0961 10.2859 10.0584 10.2558C9.88473 10.0853 9.7136 9.91255 9.54182 9.74046C9.47573 9.67437 9.45594 9.60062 9.52842 9.53166C9.59419 9.4678 9.66698 9.48217 9.72988 9.54475C9.90804 9.72194 10.0891 9.89595 10.2602 10.0799C10.2921 10.1147 10.3023 10.191 10.2921 10.2395C10.2816 10.2775 10.2209 10.3021 10.1788 10.3356Z" fill="black"/>
</g>
<defs>
<clipPath id="clip0_171_58">
<rect width="11.9927" height="12" fill="white"/>
</clipPath>
</defs>
</svg>
