<svg width="16" height="16" viewBox="0 0 16 16" fill="none" xmlns="http://www.w3.org/2000/svg">
<circle cx="8" cy="8" r="8" fill="#FF1616"/>
<path d="M12.0696 10.929L9.14064 8.00001L12.0696 5.07103C12.3858 4.75481 12.3858 4.24571 12.0696 3.92949C11.7534 3.61327 11.2443 3.61327 10.9281 3.92949L7.9991 6.85847L5.07011 3.92949C4.75389 3.61327 4.2448 3.61327 3.92857 3.92949C3.61235 4.24571 3.61235 4.75481 3.92857 5.07103L6.85756 8.00001L3.92857 10.929C3.61235 11.2452 3.61235 11.7543 3.92857 12.0705C4.2448 12.3868 4.75389 12.3868 5.07011 12.0705L7.9991 9.14156L10.9281 12.0705C11.2443 12.3868 11.7534 12.3868 12.0696 12.0705C12.3836 11.7543 12.3836 11.243 12.0696 10.929Z" fill="white"/>
</svg>
