<svg width="13" height="13" viewBox="0 0 13 13" fill="none" xmlns="http://www.w3.org/2000/svg">
<circle cx="6.5" cy="6.5" r="6.5" fill="#FF1616"/>
<path d="M9.8073 8.8798L7.4275 6.5L9.8073 4.1202C10.0642 3.86327 10.0642 3.44963 9.8073 3.1927C9.55037 2.93577 9.13673 2.93577 8.8798 3.1927L6.5 5.5725L4.1202 3.1927C3.86327 2.93577 3.44963 2.93577 3.1927 3.1927C2.93577 3.44963 2.93577 3.86327 3.1927 4.1202L5.5725 6.5L3.1927 8.8798C2.93577 9.13673 2.93577 9.55037 3.1927 9.8073C3.44963 10.0642 3.86327 10.0642 4.1202 9.8073L6.5 7.4275L8.8798 9.8073C9.13673 10.0642 9.55037 10.0642 9.8073 9.8073C10.0624 9.55037 10.0624 9.13491 9.8073 8.8798Z" fill="white"/>
</svg>
