<svg width="12" height="10" viewBox="0 0 12 10" fill="none" xmlns="http://www.w3.org/2000/svg">
<g clip-path="url(#clip0_171_348)">
<path d="M-0.000351906 6.94625C0.0365231 6.77125 0.0621477 6.59344 0.111523 6.42188C0.275557 5.84258 0.622445 5.33182 1.10046 4.96577C1.57847 4.59971 2.162 4.39797 2.76402 4.39063C3.60309 4.38282 4.44215 4.39063 5.30184 4.39063L5.12996 4.04688C5.05715 3.90032 5.06402 3.84969 5.17746 3.73438C5.36496 3.54688 5.55434 3.35938 5.73996 3.17C5.82934 3.07813 5.92121 3.06375 6.03371 3.12532C6.17746 3.20407 6.32309 3.27969 6.47121 3.34688C6.51839 3.36437 6.57028 3.36437 6.61746 3.34688C6.83496 3.26354 7.05048 3.17396 7.26402 3.07813C7.31016 3.05707 7.3472 3.02014 7.3684 2.97407C7.42746 2.81782 7.47558 2.65688 7.52465 2.49688C7.55965 2.385 7.63277 2.33219 7.75027 2.33281C8.0234 2.33281 8.29684 2.335 8.57027 2.33281C8.69246 2.33281 8.76871 2.38407 8.80465 2.50125C8.85277 2.6575 8.8984 2.81375 8.95746 2.96782C8.98026 3.01704 9.0198 3.05657 9.06902 3.07938C9.28183 3.175 9.49777 3.26407 9.71496 3.34969C9.75864 3.36685 9.80707 3.36752 9.85121 3.35157C10.0037 3.28188 10.1528 3.205 10.3 3.12469C10.4084 3.06563 10.4975 3.07782 10.5843 3.16625C10.7756 3.36125 10.9688 3.55448 11.164 3.74594C11.2512 3.83157 11.269 3.92 11.209 4.02969C11.1287 4.17688 11.0528 4.32657 10.9828 4.47875C10.9663 4.52247 10.9663 4.57066 10.9828 4.61438C11.069 4.83521 11.1598 5.05396 11.255 5.27063C11.274 5.31402 11.3081 5.34908 11.3509 5.36938C11.5003 5.42532 11.6568 5.46313 11.805 5.52188C11.8762 5.55032 11.935 5.61063 11.9993 5.65688V6.68813C11.9296 6.73344 11.865 6.79094 11.7893 6.82094C11.6484 6.87719 11.4996 6.9125 11.3581 6.96719C11.3121 6.98848 11.2752 7.02549 11.254 7.07157C11.1596 7.28511 11.0705 7.50084 10.9865 7.71875C10.969 7.76572 10.969 7.81742 10.9865 7.86438C11.0556 8.01719 11.1331 8.16594 11.2121 8.31375C11.2684 8.41907 11.2525 8.50532 11.1687 8.58782C10.974 8.77969 10.7796 8.97219 10.5893 9.16813C10.4984 9.26188 10.405 9.26969 10.294 9.21032C10.1531 9.13469 10.0128 9.05875 9.86621 8.99407C9.81506 8.9753 9.75892 8.9753 9.70777 8.99407C9.4934 9.07615 9.28152 9.16427 9.07215 9.25844C9.02254 9.28014 8.98238 9.31896 8.95902 9.36782C8.89902 9.52407 8.85215 9.68532 8.80277 9.84532C8.76902 9.9525 8.69965 10.0066 8.5859 10.0016C8.53121 9.99969 8.47621 10.0063 8.42215 10.0016C8.13527 9.97032 7.83871 10.0731 7.55965 9.9375C7.54965 9.93282 7.53152 9.94719 7.51652 9.94969C7.4059 9.96782 7.29527 9.99969 7.18465 10C6.14996 10.0041 5.11527 10.0025 4.08027 10.0022C2.9284 10.0022 1.77652 10.0022 0.624648 10.0022C0.312148 10.0022 0.118711 9.86094 0.0196486 9.56782C0.0136587 9.55344 0.00677002 9.53945 -0.000976562 9.52594L-0.000351906 6.94625ZM3.34715 4.78657C3.0584 4.78657 2.77215 4.76063 2.49184 4.79125C1.32996 4.91625 0.395898 5.94438 0.378085 7.11157C0.36621 7.86938 0.374335 8.62719 0.375273 9.385C0.375273 9.54532 0.451523 9.62438 0.611523 9.62532C0.994335 9.62782 1.37715 9.62532 1.75996 9.62532C1.7784 9.62532 1.79715 9.62125 1.8284 9.61782V9.48875C1.8284 9.09032 1.8284 8.69157 1.8284 8.29313C1.8284 8.14532 1.8984 8.06188 2.0159 8.0625C2.1334 8.06313 2.20152 8.14563 2.20184 8.29532C2.20184 8.69386 2.20184 9.0923 2.20184 9.49063V9.61563H5.65184V9.48C5.65184 9.08157 5.65184 8.68313 5.65184 8.28469C5.65184 8.13375 5.73496 8.04969 5.86059 8.06219C5.96652 8.07282 6.02559 8.14625 6.0259 8.27844C6.02746 8.67313 6.0259 9.0675 6.0259 9.46219V9.60782C6.0409 9.61444 6.05664 9.61927 6.07277 9.62219C6.47121 9.62219 6.86965 9.62594 7.26777 9.62219C7.40996 9.62219 7.47934 9.53907 7.47965 9.38344C7.47965 8.62938 7.49277 7.87532 7.47402 7.12157C7.45309 6.28188 7.0659 5.63125 6.37652 5.15813C5.81715 4.77375 5.18371 4.73219 4.53465 4.76844C4.52871 4.76844 4.5234 4.77782 4.5134 4.78657C4.51684 4.84157 4.51902 4.9 4.52433 4.95813C4.58683 5.63469 4.65183 6.31094 4.70965 6.98938C4.71401 7.06533 4.69736 7.14102 4.66152 7.20813C4.48715 7.53094 4.30309 7.84813 4.12434 8.16844C4.0784 8.25063 4.02715 8.32469 3.92277 8.32282C3.82402 8.32282 3.77434 8.25125 3.73059 8.17282C3.55152 7.8525 3.36715 7.53532 3.1934 7.2125C3.15544 7.14133 3.13751 7.06119 3.14152 6.98063C3.16871 6.61094 3.20777 6.24188 3.24246 5.8725C3.27715 5.50313 3.31371 5.14469 3.34715 4.78657ZM6.6434 4.83969C7.44808 3.955 8.57059 4.05625 9.2009 4.44344C9.92715 4.88969 10.31 5.74907 10.1365 6.56594C10.0536 6.98292 9.83902 7.36227 9.52433 7.64813C9.05558 8.075 8.49777 8.235 7.85746 8.16063V9.62657C8.03715 9.62657 8.21277 9.62313 8.38871 9.62844C8.46152 9.63063 8.4909 9.60219 8.50996 9.53469C8.55152 9.3925 8.60371 9.25344 8.64559 9.11157C8.67496 9.01188 8.73652 8.96407 8.83309 8.92719C9.1059 8.825 9.37465 8.71219 9.63996 8.59157C9.73371 8.54875 9.81277 8.53719 9.90434 8.58657C10.0415 8.66094 10.1806 8.73188 10.3221 8.79719C10.3397 8.80433 10.3587 8.80729 10.3777 8.80582C10.3966 8.80436 10.4149 8.79851 10.4312 8.78875C10.5693 8.66375 10.7009 8.53 10.8343 8.39938C10.7462 8.22594 10.6678 8.065 10.5843 7.90719C10.5599 7.86722 10.5476 7.82102 10.549 7.7742C10.5503 7.72738 10.5652 7.68196 10.5918 7.64344C10.7469 7.39453 10.8596 7.12168 10.9256 6.83594C10.9335 6.79161 10.9541 6.75053 10.9849 6.71765C11.0157 6.68477 11.0553 6.6615 11.099 6.65063C11.2518 6.60438 11.404 6.555 11.5543 6.50094C11.5831 6.49063 11.6212 6.45344 11.6221 6.4275C11.6278 6.23688 11.6253 6.04594 11.6253 5.855C11.4415 5.795 11.2684 5.73563 11.094 5.68219C11.0522 5.67148 11.0144 5.64905 10.9849 5.61755C10.9555 5.58605 10.9357 5.54678 10.9278 5.50438C10.8609 5.21494 10.7468 4.93852 10.59 4.68625C10.5647 4.64912 10.5505 4.60551 10.5493 4.56059C10.548 4.51567 10.5596 4.47133 10.5828 4.43282C10.6678 4.27157 10.7487 4.10782 10.8353 3.93782C10.7009 3.805 10.5725 3.67438 10.4378 3.55C10.4225 3.53909 10.4049 3.53191 10.3863 3.52904C10.3677 3.52616 10.3488 3.52767 10.3309 3.53344C10.1928 3.59594 10.0574 3.66469 9.92465 3.73969C9.82183 3.79719 9.73433 3.78469 9.62809 3.73563C9.3709 3.61657 9.10777 3.50969 8.84246 3.41032C8.7459 3.37438 8.67871 3.33094 8.64902 3.23C8.60434 3.08063 8.55527 2.93188 8.50371 2.78563C8.49215 2.75438 8.45152 2.71157 8.42309 2.71063C8.23559 2.70375 8.04809 2.70719 7.8559 2.70719C7.79777 2.88594 7.73996 3.05969 7.68496 3.23407C7.65371 3.32782 7.59121 3.37375 7.49965 3.40875C7.22736 3.51292 6.95829 3.62438 6.69246 3.74313C6.59871 3.78563 6.51934 3.79594 6.42746 3.74719C6.26934 3.66282 6.10809 3.58438 5.93809 3.49719C5.80652 3.63063 5.6734 3.76219 5.54621 3.89907C5.53633 3.91317 5.52994 3.92942 5.52755 3.94648C5.52516 3.96353 5.52684 3.98091 5.53246 3.99719C5.59996 4.14219 5.67309 4.28438 5.7484 4.42532C5.76533 4.45447 5.79103 4.47754 5.82184 4.49125C6.0909 4.60938 6.36308 4.72219 6.6434 4.83969ZM6.92902 5.10157C6.94996 5.12407 6.96496 5.14157 6.98152 5.15782C7.54402 5.70688 7.8434 6.37219 7.85652 7.16125C7.85965 7.33688 7.86027 7.51282 7.85652 7.68844C7.85652 7.75844 7.88027 7.79313 7.95027 7.78938C8.15559 7.77844 8.3684 7.79625 8.56465 7.74813C8.97108 7.6411 9.32055 7.38141 9.5403 7.02315C9.76005 6.66489 9.83313 6.23568 9.74433 5.82488C9.65552 5.41408 9.41168 5.05338 9.06357 4.81787C8.71547 4.58237 8.28993 4.49023 7.87559 4.56063C7.50594 4.62311 7.17049 4.81481 6.92902 5.10157ZM4.1334 4.77282H3.72715C3.65809 5.50188 3.58996 6.22375 3.52152 6.94594C3.51992 6.95364 3.5194 6.96153 3.51996 6.96938C3.5214 6.99967 3.52773 7.02954 3.53871 7.05782C3.66371 7.28594 3.7934 7.51219 3.92996 7.75438C4.04652 7.54907 4.14871 7.35282 4.26715 7.16563C4.33215 7.06188 4.34246 6.95969 4.33121 6.84344C4.28246 6.35063 4.23746 5.85719 4.19215 5.36407C4.17308 5.16688 4.15309 4.97032 4.1334 4.77282Z" fill="black"/>
<path d="M5.96898 2.03281C5.96997 2.43569 5.85142 2.82981 5.62835 3.16529C5.40528 3.50077 5.0877 3.76254 4.7158 3.91748C4.3439 4.07241 3.93441 4.11354 3.53913 4.03566C3.14385 3.95778 2.78055 3.7644 2.49521 3.47998C2.20988 3.19556 2.01532 2.83289 1.93617 2.43787C1.85702 2.04284 1.89683 1.63321 2.05056 1.26082C2.20429 0.888422 2.46503 0.57 2.7998 0.345844C3.13456 0.121689 3.52829 0.00187439 3.93117 0.00156403C4.47037 0.00197286 4.98746 0.215902 5.36935 0.596559C5.75124 0.977216 5.96683 1.49362 5.96898 2.03281ZM3.93773 0.376564C3.60947 0.375824 3.28835 0.472426 3.01499 0.654158C2.74162 0.835889 2.52827 1.09459 2.4019 1.39756C2.27554 1.70053 2.24184 2.03416 2.30507 2.35627C2.36829 2.67839 2.5256 2.97453 2.7571 3.20726C2.98861 3.43999 3.28391 3.59885 3.60569 3.66377C3.92747 3.72869 4.26128 3.69675 4.56491 3.57199C4.86854 3.44722 5.12836 3.23524 5.31153 2.96283C5.4947 2.69042 5.59299 2.36983 5.59398 2.04156C5.59513 1.82317 5.55308 1.6067 5.47025 1.40462C5.38741 1.20254 5.26543 1.01884 5.11132 0.864093C4.95721 0.709343 4.77401 0.5866 4.57228 0.50293C4.37054 0.419259 4.15425 0.376314 3.93585 0.376564H3.93773Z" fill="black"/>
</g>
<defs>
<clipPath id="clip0_171_348">
<rect width="12" height="10.0091" fill="white"/>
</clipPath>
</defs>
</svg>
