<svg width="16" height="20" viewBox="0 0 16 20" fill="none" xmlns="http://www.w3.org/2000/svg">
<path d="M7.84806 6.51733C9.16063 6.51733 10.2327 7.58918 10.2327 8.90199V10.009C10.2327 10.285 10.0087 10.509 9.73264 10.509H5.96348C5.6874 10.509 5.4634 10.285 5.4634 10.009V8.90199C5.4634 7.58942 6.53549 6.51733 7.84806 6.51733ZM3.43932 12.7307C2.78158 12.7307 2.78158 11.7306 3.43932 11.7306H12.2568C12.9145 11.7306 12.9145 12.7307 12.2568 12.7307H3.43932ZM3.43932 17.0344C2.78158 17.0344 2.78158 16.0344 3.43932 16.0344H12.2568C12.9145 16.0344 12.9145 17.0344 12.2568 17.0344H3.43932ZM3.43932 14.8827C2.78158 14.8827 2.78158 13.8825 3.43932 13.8825H12.2568C12.9145 13.8825 12.9145 14.8827 12.2568 14.8827H3.43932ZM0.500085 0H11.7846C11.9226 0 12.0476 0.0559417 12.1381 0.146514L15.5496 3.55799C15.6472 3.65558 15.6961 3.78369 15.6961 3.91156V19.4999C15.6961 19.776 15.4721 20 15.196 20H0.500085C0.224009 20 0 19.776 0 19.4999V0.500085C0 0.224009 0.224009 0 0.500085 0ZM11.5775 0.999927H0.999927V19.0001H14.6962V4.11862L11.5775 0.999927ZM7.84806 2.38806C8.96157 2.38806 9.86414 3.29087 9.86414 4.40438C9.86414 5.51764 8.96157 6.42046 7.84806 6.42046C6.73455 6.42046 5.83198 5.51764 5.83198 4.40438C5.83198 3.29087 6.73455 2.38806 7.84806 2.38806ZM7.84806 3.38823C7.28671 3.38823 6.83191 3.84302 6.83191 4.40438C6.83191 4.96549 7.28671 5.42053 7.84806 5.42053C8.40942 5.42053 8.86421 4.96549 8.86421 4.40438C8.86421 3.84302 8.40942 3.38823 7.84806 3.38823ZM7.84806 7.51726C7.08764 7.51726 6.46332 8.14133 6.46332 8.90199V9.50912H9.2328V8.90199C9.2328 8.14133 8.60848 7.51726 7.84806 7.51726Z" fill="#686868"/>
</svg>
