<svg width="50" height="50" viewBox="0 0 50 50" fill="none" xmlns="http://www.w3.org/2000/svg">
<circle cx="25" cy="25" r="25" fill="#E2D2FE"/>
<g clip-path="url(#clip0_171_276)">
<path d="M34.3828 37H14.6172C14.1704 36.8688 13.7277 36.7071 13.4582 36.3082C13.2665 36.0255 13.1497 35.6931 13 35.3828V24.8711C13.1282 24.7513 13.2432 24.6087 13.3869 24.5117C13.8314 24.208 14.2788 23.9068 14.7418 23.633C14.9502 23.5133 14.9784 23.3965 14.9161 23.1712C14.4123 21.3336 13.923 19.4918 13.4307 17.6518C13.3168 17.2278 13.4384 17.0277 13.8691 16.9127C14.6629 16.7007 15.4565 16.4879 16.2499 16.2742L18.75 15.5998C18.75 15.2698 18.7614 14.9487 18.7464 14.6283C18.7326 14.3324 18.8327 14.1198 19.1094 14H29.8906C30.1667 14.1198 30.2674 14.333 30.2536 14.6289C30.2386 14.9488 30.25 15.2704 30.25 15.5956C30.344 15.622 30.4219 15.6441 30.5004 15.6651C32.0517 16.0844 33.6042 16.4971 35.1537 16.9229C35.5969 17.0427 35.6772 17.1895 35.5634 17.6309C35.2705 18.7689 34.9698 19.9009 34.6703 21.0354C34.4565 21.8422 34.2397 22.649 34.0234 23.4635C34.3415 23.6702 34.6529 23.8624 34.9536 24.0703C35.3076 24.3153 35.6526 24.5746 36.0012 24.8274V35.3828C35.9719 35.4727 35.9413 35.5625 35.9126 35.6523C35.7017 36.2808 35.2824 36.7001 34.6547 36.9102L34.3828 37ZM19.7047 14.9637V15.2075C19.7047 19.5715 19.7035 23.9357 19.7011 28.3001C19.6963 28.3657 19.7107 28.4312 19.7427 28.4887C19.7746 28.5462 19.8226 28.593 19.8808 28.6236C21.3678 29.5875 22.8523 30.5564 24.3341 31.5303C24.4599 31.6136 24.5437 31.6172 24.6713 31.5333C26.1523 30.559 27.6365 29.5895 29.124 28.6248C29.1822 28.5944 29.2302 28.5476 29.2622 28.4903C29.2941 28.4329 29.3085 28.3674 29.3036 28.3019C29.2993 23.9371 29.2979 19.5729 29.2995 15.2093C29.2995 15.1302 29.2923 15.0506 29.2881 14.9637H19.7047ZM14.6957 36.0129H34.2882C32.3302 34.0621 30.395 32.1353 28.4549 30.203C27.2947 30.9607 26.1052 31.7244 24.9324 32.5126C24.6479 32.7043 24.4078 32.7234 24.1322 32.5443C24.0256 32.4749 23.9136 32.4144 23.807 32.3443C23.1625 31.9218 22.5186 31.499 21.8754 31.0757L20.5361 30.1952L14.6957 36.0129ZM19.6508 29.6041L13.9877 25.9289V35.2786L14.0428 35.3002L19.6508 29.6041ZM35.0477 35.3301V25.9193C33.125 27.1681 31.2293 28.3984 29.3911 29.5915L35.0477 35.3301ZM18.7422 16.5953L14.4447 17.7465C14.4585 17.8064 14.4674 17.8513 14.4788 17.8938C15.2499 20.758 16.0225 23.6219 16.7968 26.4853C16.8287 26.5818 16.892 26.6648 16.9765 26.7213C17.5155 27.086 18.0606 27.44 18.6051 27.7994C18.6499 27.8253 18.6964 27.8485 18.744 27.8689V18.585C18.423 18.6689 18.1139 18.7533 17.8024 18.8246C17.6827 18.8528 17.6389 18.9073 17.6168 19.0318C17.5665 19.3381 17.4093 19.6165 17.1729 19.8177C17.0591 19.9147 17.037 19.9974 17.0783 20.1429C17.2784 20.8551 17.4664 21.5708 17.6545 22.286C17.7354 22.5963 17.5988 22.8532 17.3257 22.9275C17.0526 23.0017 16.8106 22.843 16.7267 22.5304C16.4907 21.6423 16.2579 20.7533 16.0283 19.8632C15.9511 19.5637 16.0505 19.3691 16.323 19.2427C16.6309 19.1001 16.7117 18.9546 16.6686 18.6234C16.6357 18.3748 16.7285 18.1825 16.9453 18.0921C17.0431 18.0556 17.1432 18.0254 17.2448 18.0016C17.7455 17.8621 18.2469 17.7237 18.7422 17.5866V16.5953ZM30.2584 27.8904C30.8573 27.4981 31.4276 27.1316 31.987 26.747C32.0975 26.6667 32.1789 26.5525 32.2188 26.4218C32.7303 24.5548 33.231 22.6849 33.7341 20.8155C34.0079 19.7973 34.281 18.7791 34.5595 17.7465L30.2602 16.5947V17.586C30.8028 17.7321 31.3383 17.8735 31.8708 18.0208C32.2379 18.122 32.3458 18.2843 32.3098 18.6587C32.2805 18.9666 32.3697 19.1121 32.6584 19.2313C32.9639 19.3571 33.0723 19.5505 32.989 19.8686C32.7542 20.7654 32.5147 21.6605 32.2703 22.5537C32.2378 22.6603 32.1786 22.7568 32.0984 22.834C32.0218 22.9012 31.9249 22.9408 31.8231 22.9464C31.7214 22.9521 31.6207 22.9235 31.5372 22.8652C31.3491 22.7418 31.2814 22.5483 31.3491 22.2902C31.5396 21.5678 31.7312 20.8449 31.9313 20.1249C31.9666 19.9986 31.9504 19.9231 31.8486 19.8362C31.5975 19.6184 31.4293 19.3205 31.3724 18.9929C31.3658 18.9633 31.3527 18.9356 31.3341 18.9117C31.3154 18.8877 31.2917 18.8682 31.2646 18.8546C30.9364 18.7563 30.6058 18.6719 30.2608 18.579L30.2584 27.8904ZM33.7473 24.4362C33.6203 24.9154 33.5041 25.3539 33.373 25.8486L34.6428 25.0208L33.7473 24.4362ZM15.2509 24.4362L14.3578 25.0208L15.6288 25.845L15.2509 24.4362Z" fill="#34008E"/>
<path d="M28.3267 24.5291C28.3346 25.5442 27.939 26.5208 27.2269 27.2442C26.5147 27.9676 25.5444 28.3784 24.5293 28.3864C23.5142 28.3943 22.5376 27.9987 21.8142 27.2866C21.0908 26.5744 20.6799 25.6041 20.672 24.589C20.6546 22.4561 22.3605 20.7125 24.4706 20.7059C24.9751 20.7029 25.4751 20.7995 25.9422 20.9902C26.4092 21.1809 26.8341 21.4618 27.1923 21.817C27.5505 22.1722 27.8351 22.5946 28.0298 23.06C28.2245 23.5254 28.3254 24.0246 28.3267 24.5291ZM24.5227 21.6715C22.951 21.6535 21.6411 22.9293 21.6255 24.4866C21.619 24.8655 21.6874 25.242 21.8266 25.5945C21.9659 25.947 22.1733 26.2686 22.4371 26.5407C22.7008 26.8129 23.0156 27.0304 23.3636 27.1807C23.7115 27.331 24.0856 27.4112 24.4646 27.4167C26.0279 27.4418 27.3522 26.1589 27.3731 24.6016C27.3814 24.2212 27.3139 23.843 27.1746 23.489C27.0353 23.135 26.8269 22.8122 26.5616 22.5395C26.2963 22.2668 25.9794 22.0496 25.6294 21.9006C25.2793 21.7516 24.9031 21.6737 24.5227 21.6715Z" fill="#34008E"/>
<path d="M24.4999 16.875C23.9009 16.875 23.302 16.8786 22.703 16.875C22.5707 16.875 22.4904 16.8972 22.4299 17.0343C22.3031 17.3267 22.069 17.5592 21.7758 17.6842C21.6453 17.7405 21.6243 17.8172 21.6255 17.94C21.6291 18.6886 21.6291 19.4373 21.6255 20.186C21.6255 20.4855 21.4458 20.6892 21.1775 20.7029C20.9091 20.7167 20.6827 20.5394 20.6797 20.2681C20.6706 19.2874 20.6706 18.3069 20.6797 17.3266C20.6797 17.0828 20.8594 16.9181 21.1038 16.8804C21.4788 16.8241 21.5776 16.7265 21.6303 16.3617C21.6692 16.0934 21.8393 15.9269 22.1136 15.9263C23.7081 15.9219 25.3025 15.9219 26.8969 15.9263C27.1707 15.9263 27.3378 16.0946 27.3761 16.3665C27.4252 16.7175 27.5378 16.8307 27.8846 16.8786C28.1673 16.9175 28.3278 17.0852 28.3296 17.3757C28.3344 18.3193 28.3344 19.2626 28.3296 20.2058C28.3296 20.5167 28.1296 20.7095 27.8439 20.7029C27.5738 20.6976 27.3809 20.4987 27.3791 20.2028C27.3743 19.4469 27.3743 18.6908 27.3791 17.9346C27.3791 17.8082 27.3491 17.7375 27.224 17.6812C26.9319 17.5544 26.6988 17.3215 26.5717 17.0295C26.516 16.9032 26.4447 16.8732 26.3183 16.8744C25.7104 16.878 25.1036 16.875 24.4999 16.875Z" fill="#34008E"/>
<path d="M24.4997 19.2666C24.3752 19.2667 24.2557 19.2184 24.1662 19.1318C24.0768 19.0453 24.0246 18.9274 24.0205 18.803C24.0205 18.676 24.071 18.5541 24.1609 18.4642C24.2507 18.3744 24.3726 18.3239 24.4997 18.3239C24.6268 18.3239 24.7486 18.3744 24.8385 18.4642C24.9284 18.5541 24.9788 18.676 24.9788 18.803C24.9748 18.9274 24.9225 19.0453 24.8331 19.1318C24.7437 19.2184 24.6241 19.2667 24.4997 19.2666Z" fill="#34008E"/>
</g>
<defs>
<clipPath id="clip0_171_276">
<rect width="23" height="23" fill="white" transform="translate(13 14)"/>
</clipPath>
</defs>
</svg>
