<svg width="13" height="13" viewBox="0 0 13 13" fill="none" xmlns="http://www.w3.org/2000/svg">
<circle cx="6.5" cy="6.5" r="6.5" fill="#E9A800"/>
<path fill-rule="evenodd" clip-rule="evenodd" d="M9.85021 4.85213C9.79504 4.75564 9.73621 4.66164 9.67288 4.57081C9.86788 4.45447 9.99987 4.24364 9.99987 3.99998C9.99987 3.63182 9.70138 3.33333 9.33322 3.33333C9.08956 3.33333 8.87873 3.46532 8.7624 3.66049C8.67157 3.59699 8.57773 3.53832 8.48107 3.48316C8.6564 3.1945 8.97089 3 9.33322 3C9.88538 3 10.3332 3.44783 10.3332 3.99998C10.3332 4.36231 10.1385 4.6768 9.85021 4.85213ZM9.99987 6.6666C9.99987 7.52842 9.67005 8.31124 9.13322 8.90306L9.95238 9.72221C10.0159 9.78571 10.0159 9.88871 9.95238 9.95238C9.88871 10.0159 9.78571 10.0159 9.72221 9.95238L8.90306 9.13322C8.31124 9.67005 7.52842 9.99988 6.6666 9.99988C5.80478 9.99988 5.02196 9.67005 4.43031 9.13322L3.61099 9.95238C3.54749 10.0159 3.44433 10.0159 3.38083 9.95238C3.31733 9.88871 3.31733 9.78571 3.38083 9.72221L4.19998 8.90306C3.66315 8.31124 3.33333 7.52842 3.33333 6.6666C3.33333 4.82563 4.82563 3.33333 6.6666 3.33333C8.50757 3.33333 9.99987 4.82563 9.99987 6.6666ZM6.6666 3.66665C5.0098 3.66665 3.66665 5.0098 3.66665 6.6666C3.66665 8.3234 5.0098 9.66655 6.6666 9.66655C8.3234 9.66655 9.66655 8.3234 9.66655 6.6666C9.66655 5.0098 8.3234 3.66665 6.6666 3.66665ZM6.83326 7.30959V8.83323C6.83326 8.92539 6.75877 8.99989 6.6666 8.99989C6.57444 8.99989 6.49994 8.92539 6.49994 8.83323V7.30959C6.21278 7.23526 5.99995 6.97676 5.99995 6.6666C5.99995 6.54177 6.03645 6.42644 6.09628 6.32644L5.38079 5.61112C5.31729 5.54762 5.31729 5.44446 5.38079 5.38096C5.44446 5.31746 5.54745 5.31746 5.61095 5.38096L6.32644 6.09628C6.42644 6.03645 6.54177 5.99995 6.6666 5.99995C7.03476 5.99995 7.33326 6.29844 7.33326 6.6666C7.33326 6.97676 7.12043 7.23526 6.83326 7.30959ZM6.6666 6.33327C6.4826 6.33327 6.33327 6.4826 6.33327 6.6666C6.33327 6.8506 6.4826 6.99993 6.6666 6.99993C6.8506 6.99993 6.99993 6.8506 6.99993 6.6666C6.99993 6.4826 6.8506 6.33327 6.6666 6.33327ZM3.99998 3.33333C3.63182 3.33333 3.33333 3.63182 3.33333 3.99998C3.33333 4.24364 3.46549 4.45447 3.66049 4.57081C3.59699 4.66164 3.53832 4.75564 3.48316 4.85213C3.19466 4.6768 3 4.36231 3 3.99998C3 3.44783 3.44783 3 3.99998 3C4.36231 3 4.6768 3.1945 4.85213 3.48316C4.75547 3.53832 4.66147 3.59699 4.57081 3.66049C4.45447 3.46532 4.24348 3.33333 3.99998 3.33333Z" fill="white"/>
</svg>
