<svg width="14" height="15" viewBox="0 0 14 15" fill="none" xmlns="http://www.w3.org/2000/svg">
<g id="Search">
<path id="Vector (Stroke)" fill-rule="evenodd" clip-rule="evenodd" d="M2.58887 0.998188C3.54681 0.347372 4.67304 0 5.82515 0H5.82518C7.37007 9.99887e-05 8.85165 0.624146 9.94405 1.73488C11.0364 2.84561 11.6502 4.35205 11.6503 5.92286V5.92289C11.6503 7.09433 11.3087 8.23946 10.6686 9.21348C10.0285 10.1875 9.11874 10.9466 8.05433 11.3949C6.98993 11.8432 5.81869 11.9605 4.68872 11.732C3.55875 11.5034 2.52081 10.9393 1.70615 10.111C0.891487 9.28268 0.336696 8.22732 0.111931 7.07839C-0.112833 5.92946 0.0025239 4.73857 0.443415 3.6563C0.884307 2.57403 1.63093 1.649 2.58887 0.998188ZM5.82511 1.09499C4.88601 1.095 3.96801 1.37815 3.18718 1.90864C2.40634 2.43914 1.79774 3.19315 1.43836 4.07534C1.07898 4.95752 0.98495 5.92825 1.16816 6.86477C1.35137 7.80129 1.8036 8.66154 2.46765 9.33673C3.1317 10.0119 3.97775 10.4717 4.89881 10.658C5.81988 10.8443 6.77459 10.7487 7.64221 10.3833C8.50984 10.0179 9.25141 9.39907 9.77315 8.60513C10.2949 7.8112 10.5734 6.87778 10.5734 5.92293M5.82515 1.09499C7.08442 1.09509 8.2921 1.60377 9.18255 2.50915C10.073 3.41454 10.5733 4.64248 10.5734 5.92289" fill="black"/>
<path id="Vector (Stroke)_2" fill-rule="evenodd" clip-rule="evenodd" d="M9.38818 9.54613C9.59846 9.33232 9.9394 9.33232 10.1497 9.54613L13.8418 13.3003C14.0521 13.5141 14.0521 13.8607 13.8418 14.0745C13.6316 14.2883 13.2906 14.2883 13.0803 14.0745L9.38818 10.3204C9.1779 10.1066 9.1779 9.75994 9.38818 9.54613Z" fill="black"/>
</g>
</svg>
