<svg width="17" height="17" viewBox="0 0 17 17" fill="none" xmlns="http://www.w3.org/2000/svg">
<g clip-path="url(#clip0_206_1827)">
<path d="M0 4.51562C0.053125 4.34961 0.0893166 4.17396 0.162031 4.01592C0.509004 3.26121 1.10799 2.85779 1.93441 2.83588C2.75254 2.8143 3.57199 2.82824 4.39145 2.83222C4.72945 2.83388 4.95988 3.06465 4.9559 3.37543C4.95092 3.68023 4.72348 3.8914 4.38713 3.8924C3.6125 3.89439 2.83787 3.8924 2.06291 3.8924C1.41943 3.89373 1.0625 4.25 1.0625 4.8875V14.948C1.0625 15.5789 1.41844 15.9388 2.04564 15.9388H14.96C15.5769 15.9388 15.9372 15.5772 15.9375 14.9587C15.9375 12.9999 15.9375 11.0409 15.9375 9.08172C15.9375 8.63314 16.3539 8.35125 16.7141 8.57072C16.8323 8.64211 16.9057 8.78721 16.9993 8.89877V15.3066C16.988 15.3425 16.9734 15.3774 16.9661 15.4139C16.8416 15.9953 16.5345 16.4525 16.0115 16.7374C15.7934 16.8559 15.5424 16.9143 15.3063 17H1.69336C1.6575 16.9887 1.62264 16.9741 1.58611 16.9668C0.99875 16.841 0.540215 16.5272 0.253672 15.9983C0.138125 15.7844 0.0826758 15.5391 0 15.3066V4.51562Z" fill="#686868"/>
<path d="M16.9996 5.44531C16.8967 5.57812 16.8054 5.72421 16.6891 5.84374C15.2333 7.36157 13.7762 8.87784 12.318 10.3926C12.1629 10.5539 11.9926 10.6612 11.7615 10.615C11.4909 10.5609 11.3332 10.3448 11.3322 10.0263C11.3302 9.35132 11.3322 8.6763 11.3322 8.00095V7.82929C11.3116 7.81402 11.3033 7.80273 11.2943 7.80206C10.0259 7.73566 8.79975 7.87743 7.66852 8.51394C6.65782 9.08271 5.87788 9.87527 5.33268 10.8976C5.29866 10.967 5.26017 11.0341 5.21747 11.0985C5.15527 11.1875 5.06698 11.2551 4.96476 11.292C4.86254 11.3288 4.75142 11.333 4.64671 11.304C4.42292 11.2376 4.26055 11.0649 4.25624 10.8415C4.23665 9.79558 4.21008 8.7457 4.55141 7.73632C5.43362 5.12921 7.21729 3.51952 9.91704 2.95839C10.352 2.86808 10.8066 2.87107 11.2521 2.83056C11.2731 2.82857 11.2936 2.82392 11.3322 2.81761V2.63566C11.3322 1.99384 11.3418 1.35202 11.3282 0.709875C11.3215 0.385149 11.4152 0.139777 11.7223 0.000656128H11.9879C12.1141 0.0956171 12.2555 0.175969 12.3638 0.288195C13.8081 1.78234 15.2498 3.28002 16.6888 4.78124C16.805 4.90243 16.8967 5.04687 16.9996 5.17968V5.44531ZM5.3526 8.95886C5.40008 8.94558 5.4127 8.94591 5.41901 8.9396C5.46251 8.8971 5.50434 8.85294 5.54684 8.80945C6.71792 7.62343 8.13071 6.92749 9.78987 6.77575C10.4539 6.71499 11.1266 6.74023 11.7953 6.73325C12.1938 6.72894 12.393 6.93546 12.393 7.33855C12.393 7.76454 12.393 8.19021 12.393 8.6162C12.393 8.65505 12.4013 8.6939 12.4093 8.76197L15.7296 5.31216L12.3927 1.84609V2.05493C12.3927 2.45868 12.3927 2.86243 12.3927 3.26618C12.3927 3.70048 12.1998 3.88409 11.7661 3.89505C11.2747 3.90767 10.7737 3.88111 10.2942 3.96743C7.8704 4.40472 6.27897 5.81253 5.53223 8.16232C5.45188 8.41533 5.41403 8.68128 5.3526 8.95886Z" fill="#686868"/>
</g>
<defs>
<clipPath id="clip0_206_1827">
<rect width="17" height="17" fill="white"/>
</clipPath>
</defs>
</svg>
