<svg width="13" height="13" viewBox="0 0 13 13" fill="none" xmlns="http://www.w3.org/2000/svg">
<circle cx="6.5" cy="6.5" r="6.5" fill="#C728FF"/>
<g clip-path="url(#clip0_177_3193)">
<path d="M5.83142 3H7.08923C7.10155 3.0052 7.11415 3.0097 7.12697 3.01349C7.31947 3.05961 7.45728 3.17318 7.53421 3.35456C7.55426 3.40159 7.57832 3.41161 7.62408 3.41143C8.03168 3.40997 8.43947 3.41143 8.84707 3.41143H8.9209V10H3.99902V3.4107H4.08014C4.48556 3.4107 4.89098 3.4107 5.29639 3.4107C5.34215 3.4107 5.36658 3.40122 5.38608 3.35383C5.41515 3.28053 5.45956 3.2143 5.51635 3.15959C5.57313 3.10488 5.64097 3.06296 5.7153 3.03664C5.7534 3.02297 5.79277 3.0124 5.83142 3ZM4.41283 9.58492H8.50801V3.82451H7.57832V4.22555H5.33613V3.82432H4.41283V9.58492ZM5.74993 3.81539H7.17181C7.17181 3.73081 7.17454 3.65133 7.17181 3.57185C7.17171 3.55059 7.16742 3.52957 7.15916 3.50998C7.15091 3.4904 7.13886 3.47264 7.12371 3.45772C7.10856 3.44281 7.09061 3.43105 7.0709 3.4231C7.05119 3.41516 7.03009 3.41119 7.00884 3.41143C6.64426 3.40924 6.27967 3.40924 5.91509 3.41143C5.89386 3.41126 5.8728 3.41528 5.85312 3.42325C5.83343 3.43122 5.81552 3.44299 5.80038 3.45789C5.78525 3.47278 5.7732 3.49051 5.76492 3.51007C5.75664 3.52962 5.75229 3.55061 5.75212 3.57185C5.7472 3.65133 5.74993 3.73099 5.74993 3.81539Z" fill="white"/>
<path d="M6.45926 6.72914H4.82539C4.82539 6.5082 4.81427 6.28945 4.82867 6.07289C4.84143 5.88312 4.92237 5.77156 5.10885 5.60914C5.0219 5.44963 4.99947 5.28101 5.0569 5.10455C5.09825 4.97785 5.18019 4.8683 5.29005 4.79283C5.39819 4.7172 5.52787 4.67851 5.65978 4.68252C5.79169 4.68653 5.91877 4.73302 6.02213 4.81507C6.25656 4.999 6.30869 5.26606 6.18473 5.58999C6.26221 5.69518 6.34096 5.7865 6.40039 5.88877C6.43549 5.95281 6.4548 6.02431 6.45671 6.09731C6.46401 6.30585 6.45926 6.51512 6.45926 6.72914ZM5.23117 6.3177H6.05148C6.05148 6.25609 6.05385 6.19939 6.05148 6.14288C6.04885 6.08187 6.02306 6.02416 5.97938 5.98148C5.93569 5.93881 5.87738 5.91439 5.81632 5.9132C5.70026 5.91028 5.58414 5.91028 5.46796 5.9132C5.40692 5.91435 5.34862 5.93873 5.30492 5.98137C5.26123 6.02401 5.23544 6.08171 5.23281 6.1427C5.2288 6.19921 5.23117 6.25591 5.23117 6.3177ZM5.84567 5.29815C5.84589 5.25754 5.83404 5.21779 5.81162 5.18394C5.78921 5.15009 5.75724 5.12365 5.71978 5.108C5.68231 5.09234 5.64105 5.08817 5.60121 5.09601C5.56137 5.10386 5.52476 5.12336 5.49603 5.15204C5.46729 5.18072 5.44772 5.2173 5.43981 5.25712C5.4319 5.29695 5.436 5.33822 5.45158 5.37571C5.46717 5.4132 5.49355 5.44522 5.52736 5.46769C5.56117 5.49017 5.6009 5.50209 5.64151 5.50195C5.69537 5.50115 5.74681 5.47941 5.78493 5.44133C5.82304 5.40325 5.84482 5.35183 5.84567 5.29796V5.29815Z" fill="white"/>
<path d="M4.82295 9.13375C4.82295 8.91974 4.81584 8.71011 4.82496 8.5012C4.83316 8.31253 4.92394 8.17052 5.10915 8.01612C5.018 7.8455 4.99704 7.66558 5.06832 7.48055C5.11503 7.35815 5.20033 7.2543 5.31131 7.18469C5.42147 7.11416 5.55131 7.08074 5.68183 7.08934C5.81235 7.09793 5.93669 7.14808 6.03665 7.23245C6.26215 7.4224 6.31009 7.69328 6.17556 8.0163C6.20017 8.03745 6.22623 8.05878 6.25102 8.08175C6.3748 8.19677 6.45063 8.33933 6.45793 8.50703C6.46668 8.71375 6.45993 8.92102 6.45993 9.13302L4.82295 9.13375ZM6.05032 8.7256C6.05032 8.65888 6.05451 8.598 6.04941 8.53693C6.04462 8.4794 6.01899 8.42559 5.97734 8.38561C5.93568 8.34564 5.88087 8.32224 5.82319 8.31982C5.70269 8.31563 5.58183 8.31599 5.46116 8.31982C5.4049 8.32181 5.35119 8.34375 5.30963 8.38173C5.26808 8.41971 5.24141 8.47123 5.23439 8.52709C5.22709 8.59144 5.23311 8.65742 5.23311 8.7256H6.05032ZM5.84597 7.70623C5.84659 7.66563 5.83512 7.62577 5.81304 7.5917C5.79096 7.55762 5.75926 7.53088 5.72195 7.51486C5.68464 7.49884 5.64342 7.49426 5.60351 7.50171C5.56359 7.50916 5.5268 7.5283 5.49778 7.5567C5.46876 7.5851 5.44884 7.62148 5.44054 7.66123C5.43223 7.70097 5.43592 7.74228 5.45114 7.77992C5.46636 7.81757 5.49241 7.84984 5.526 7.87265C5.55959 7.89545 5.5992 7.90777 5.6398 7.90802C5.69363 7.90771 5.74524 7.88649 5.78371 7.84883C5.82218 7.81118 5.84451 7.76004 5.84597 7.70623Z" fill="white"/>
<path d="M8.0651 7.76036L7.77253 8.04546L8.06984 8.32291L7.76578 8.62716L7.48706 8.33822L7.21016 8.62624L6.90937 8.32656L7.19539 8.05221L6.89844 7.77239L7.20068 7.46942L7.48104 7.76893L7.77088 7.46614L8.0651 7.76036Z" fill="white"/>
<path d="M6.90723 5.8813L7.18777 5.60276L7.33105 5.76974L7.77986 5.31984C7.8823 5.42247 7.97546 5.5169 8.0646 5.60677L7.34855 6.32244L6.90723 5.8813Z" fill="white"/>
</g>
<defs>
<clipPath id="clip0_177_3193">
<rect width="4.92242" height="7" fill="white" transform="translate(4 3)"/>
</clipPath>
</defs>
</svg>
