<svg width="40" height="40" viewBox="0 0 40 40" fill="none" xmlns="http://www.w3.org/2000/svg">
<circle cx="20" cy="20" r="20" fill="#D4FFC5"/>
<g clip-path="url(#clip0_205_1528)">
<path d="M18.2354 10H21.8292C21.8644 10.0148 21.9004 10.0277 21.937 10.0385C22.487 10.1703 22.8807 10.4948 23.1005 11.013C23.1578 11.1474 23.2266 11.176 23.3573 11.1755C24.5219 11.1714 25.687 11.1755 26.8516 11.1755H27.0625V30H13V11.1734H13.2318C14.3901 11.1734 15.5484 11.1734 16.7068 11.1734C16.8375 11.1734 16.9073 11.1464 16.963 11.0109C17.0461 10.8015 17.173 10.6123 17.3352 10.456C17.4975 10.2997 17.6913 10.1799 17.9036 10.1047C18.0125 10.0656 18.125 10.0354 18.2354 10ZM14.1823 28.8141H25.8828V12.3557H23.2266V13.5016H16.8203V12.3552H14.1823V28.8141ZM18.0026 12.3297H22.0651C22.0651 12.088 22.0729 11.8609 22.0651 11.6339C22.0648 11.5731 22.0526 11.5131 22.029 11.4571C22.0054 11.4011 21.971 11.3504 21.9277 11.3078C21.8844 11.2652 21.8331 11.2316 21.7768 11.2089C21.7205 11.1862 21.6602 11.1748 21.5995 11.1755C20.5578 11.1693 19.5161 11.1693 18.4745 11.1755C18.4138 11.175 18.3536 11.1865 18.2974 11.2093C18.2412 11.2321 18.19 11.2657 18.1467 11.3082C18.1035 11.3508 18.0691 11.4015 18.0454 11.4573C18.0218 11.5132 18.0093 11.5732 18.0089 11.6339C17.9948 11.8609 18.0026 12.0885 18.0026 12.3297Z" fill="#217E00"/>
<path d="M20.0256 20.6547H15.3574C15.3574 20.0234 15.3256 19.3984 15.3668 18.7797C15.4032 18.2375 15.6345 17.9188 16.1673 17.4547C15.9189 16.999 15.8548 16.5172 16.0189 16.013C16.137 15.651 16.3711 15.338 16.685 15.1224C16.994 14.9063 17.3645 14.7958 17.7414 14.8072C18.1183 14.8187 18.4814 14.9515 18.7767 15.1859C19.4465 15.7115 19.5954 16.4745 19.2413 17.4C19.4626 17.7005 19.6876 17.9615 19.8574 18.2536C19.9577 18.4366 20.0129 18.6409 20.0183 18.8495C20.0392 19.4453 20.0256 20.0432 20.0256 20.6547ZM16.5168 19.4792H18.8605C18.8605 19.3031 18.8673 19.1411 18.8605 18.9797C18.853 18.8054 18.7793 18.6405 18.6545 18.5185C18.5297 18.3966 18.3631 18.3269 18.1887 18.3234C17.8571 18.3151 17.5253 18.3151 17.1933 18.3234C17.0189 18.3267 16.8524 18.3964 16.7275 18.5182C16.6027 18.64 16.529 18.8049 16.5215 18.9792C16.51 19.1406 16.5168 19.3026 16.5168 19.4792ZM18.2725 16.5661C18.2731 16.4501 18.2393 16.3366 18.1752 16.2398C18.1112 16.1431 18.0199 16.0676 17.9128 16.0229C17.8058 15.9781 17.6879 15.9662 17.574 15.9886C17.4602 16.011 17.3556 16.0667 17.2735 16.1487C17.1914 16.2307 17.1355 16.3352 17.1129 16.4489C17.0903 16.5627 17.102 16.6807 17.1465 16.7878C17.1911 16.8949 17.2664 16.9864 17.3631 17.0506C17.4597 17.1148 17.5732 17.1488 17.6892 17.1484C17.8431 17.1462 17.9901 17.084 18.0989 16.9752C18.2078 16.8664 18.2701 16.7195 18.2725 16.5656V16.5661Z" fill="#217E00"/>
<path d="M15.3493 27.525C15.3493 26.9135 15.329 26.3146 15.3551 25.7177C15.3785 25.1787 15.6379 24.7729 16.167 24.3318C15.9066 23.8443 15.8467 23.3302 16.0504 22.8016C16.1838 22.4519 16.4275 22.1551 16.7447 21.9563C17.0594 21.7547 17.4304 21.6593 17.8033 21.6838C18.1762 21.7084 18.5315 21.8517 18.817 22.0927C19.4613 22.6354 19.5983 23.4094 19.2139 24.3323C19.2842 24.3927 19.3587 24.4536 19.4295 24.5193C19.7832 24.8479 19.9999 25.2552 20.0207 25.7344C20.0457 26.325 20.0264 26.9172 20.0264 27.5229L15.3493 27.525ZM18.8561 26.3589C18.8561 26.1682 18.8681 25.9943 18.8535 25.8198C18.8398 25.6554 18.7666 25.5017 18.6476 25.3875C18.5286 25.2732 18.372 25.2064 18.2072 25.1995C17.8629 25.1875 17.5176 25.1885 17.1728 25.1995C17.012 25.2052 16.8586 25.2679 16.7399 25.3764C16.6211 25.4849 16.5449 25.6321 16.5249 25.7917C16.504 25.9755 16.5212 26.1641 16.5212 26.3589H18.8561ZM18.2723 23.4464C18.274 23.3304 18.2413 23.2165 18.1782 23.1191C18.1151 23.0218 18.0245 22.9454 17.9179 22.8996C17.8113 22.8538 17.6935 22.8408 17.5795 22.862C17.4655 22.8833 17.3603 22.938 17.2774 23.0191C17.1945 23.1003 17.1376 23.2042 17.1139 23.3178C17.0901 23.4313 17.1007 23.5494 17.1442 23.6569C17.1876 23.7645 17.2621 23.8567 17.3581 23.9218C17.454 23.987 17.5672 24.0222 17.6832 24.0229C17.837 24.022 17.9844 23.9614 18.0944 23.8538C18.2043 23.7462 18.2681 23.6001 18.2723 23.4464Z" fill="#217E00"/>
<path d="M24.6146 23.601L23.7786 24.4156L24.6281 25.2083L23.7594 26.0776L22.963 25.2521L22.1719 26.075L21.3125 25.2187L22.1297 24.4349L21.2812 23.6354L22.1448 22.7698L22.9458 23.6255L23.774 22.7604L24.6146 23.601Z" fill="#217E00"/>
<path d="M21.3066 18.2323L22.1082 17.4365L22.5176 17.9135L23.7999 16.6281C24.0926 16.9214 24.3587 17.1911 24.6134 17.4479L22.5676 19.4927L21.3066 18.2323Z" fill="#217E00"/>
</g>
<defs>
<clipPath id="clip0_205_1528">
<rect width="14.0641" height="20" fill="white" transform="translate(13 10)"/>
</clipPath>
</defs>
</svg>
