<svg width="40" height="40" viewBox="0 0 40 40" fill="none" xmlns="http://www.w3.org/2000/svg">
<circle cx="20" cy="20" r="20" fill="#D4FFC5"/>
<g clip-path="url(#clip0_205_1527)">
<path d="M18.2344 10H21.8282C21.8634 10.0148 21.8994 10.0277 21.936 10.0385C22.486 10.1703 22.8798 10.4948 23.0995 11.013C23.1568 11.1474 23.2256 11.176 23.3563 11.1755C24.5209 11.1714 25.686 11.1755 26.8506 11.1755H27.0615V30H12.999V11.1734H13.2308C14.3891 11.1734 15.5475 11.1734 16.7058 11.1734C16.8365 11.1734 16.9063 11.1464 16.962 11.0109C17.0451 10.8015 17.172 10.6123 17.3342 10.456C17.4965 10.2997 17.6903 10.1799 17.9027 10.1047C18.0115 10.0656 18.124 10.0354 18.2344 10ZM14.1813 28.8141H25.8818V12.3557H23.2256V13.5016H16.8193V12.3552H14.1813V28.8141ZM18.0016 12.3297H22.0641C22.0641 12.088 22.0719 11.8609 22.0641 11.6339C22.0639 11.5731 22.0516 11.5131 22.028 11.4571C22.0044 11.4011 21.97 11.3504 21.9267 11.3078C21.8834 11.2652 21.8321 11.2316 21.7758 11.2089C21.7195 11.1862 21.6592 11.1748 21.5985 11.1755C20.5568 11.1693 19.5152 11.1693 18.4735 11.1755C18.4128 11.175 18.3527 11.1865 18.2964 11.2093C18.2402 11.2321 18.189 11.2657 18.1458 11.3082C18.1025 11.3508 18.0681 11.4015 18.0444 11.4573C18.0208 11.5132 18.0084 11.5732 18.0079 11.6339C17.9938 11.8609 18.0016 12.0885 18.0016 12.3297Z" fill="#217E00"/>
<path d="M20.0256 20.6547H15.3574C15.3574 20.0234 15.3256 19.3984 15.3668 18.7797C15.4032 18.2375 15.6345 17.9188 16.1673 17.4547C15.9189 16.999 15.8548 16.5172 16.0189 16.013C16.137 15.651 16.3711 15.338 16.685 15.1224C16.994 14.9063 17.3645 14.7958 17.7414 14.8072C18.1183 14.8187 18.4814 14.9515 18.7767 15.1859C19.4465 15.7115 19.5954 16.4745 19.2413 17.4C19.4626 17.7005 19.6876 17.9615 19.8574 18.2536C19.9577 18.4366 20.0129 18.6409 20.0183 18.8495C20.0392 19.4453 20.0256 20.0432 20.0256 20.6547ZM16.5168 19.4792H18.8605C18.8605 19.3031 18.8673 19.1411 18.8605 18.9797C18.853 18.8054 18.7793 18.6405 18.6545 18.5185C18.5297 18.3966 18.3631 18.3269 18.1887 18.3234C17.8571 18.3151 17.5253 18.3151 17.1933 18.3234C17.0189 18.3267 16.8524 18.3964 16.7275 18.5182C16.6027 18.64 16.529 18.8049 16.5215 18.9792C16.51 19.1406 16.5168 19.3026 16.5168 19.4792ZM18.2725 16.5661C18.2731 16.4501 18.2393 16.3366 18.1752 16.2398C18.1112 16.1431 18.0199 16.0676 17.9128 16.0229C17.8058 15.9781 17.6879 15.9662 17.574 15.9886C17.4602 16.011 17.3556 16.0667 17.2735 16.1487C17.1914 16.2307 17.1355 16.3352 17.1129 16.4489C17.0903 16.5627 17.102 16.6807 17.1465 16.7878C17.1911 16.8949 17.2664 16.9864 17.3631 17.0506C17.4597 17.1148 17.5732 17.1488 17.6892 17.1484C17.8431 17.1462 17.9901 17.084 18.0989 16.9752C18.2078 16.8664 18.2701 16.7195 18.2725 16.5656V16.5661Z" fill="#217E00"/>
<path d="M15.3503 27.525C15.3503 26.9135 15.33 26.3146 15.356 25.7177C15.3795 25.1786 15.6389 24.7729 16.168 24.3318C15.9076 23.8443 15.8477 23.3302 16.0514 22.8016C16.1848 22.4519 16.4285 22.1551 16.7456 21.9562C17.0604 21.7547 17.4313 21.6593 17.8043 21.6838C18.1772 21.7084 18.5324 21.8517 18.818 22.0927C19.4623 22.6354 19.5993 23.4094 19.2149 24.3323C19.2852 24.3927 19.3597 24.4536 19.4305 24.5193C19.7842 24.8479 20.0008 25.2552 20.0217 25.7344C20.0467 26.325 20.0274 26.9172 20.0274 27.5229L15.3503 27.525ZM18.8571 26.3589C18.8571 26.1682 18.8691 25.9943 18.8545 25.8198C18.8408 25.6554 18.7676 25.5017 18.6486 25.3875C18.5295 25.2732 18.3729 25.2064 18.2081 25.1995C17.8639 25.1875 17.5185 25.1885 17.1738 25.1995C17.013 25.2052 16.8596 25.2679 16.7408 25.3764C16.6221 25.4849 16.5459 25.6321 16.5258 25.7917C16.505 25.9755 16.5222 26.1641 16.5222 26.3589H18.8571ZM18.2732 23.4464C18.275 23.3304 18.2422 23.2165 18.1791 23.1191C18.1161 23.0218 18.0255 22.9454 17.9189 22.8996C17.8123 22.8538 17.6945 22.8407 17.5805 22.862C17.4664 22.8833 17.3613 22.938 17.2784 23.0191C17.1955 23.1003 17.1386 23.2042 17.1148 23.3178C17.0911 23.4313 17.1017 23.5494 17.1451 23.6569C17.1886 23.7645 17.2631 23.8567 17.359 23.9218C17.455 23.987 17.5682 24.0222 17.6842 24.0229C17.838 24.022 17.9854 23.9614 18.0953 23.8538C18.2053 23.7462 18.269 23.6001 18.2732 23.4464Z" fill="#217E00"/>
<path d="M24.6136 23.601L23.7777 24.4156L24.6271 25.2083L23.7584 26.0776L22.962 25.2521L22.1709 26.075L21.3115 25.2188L22.1287 24.4349L21.2803 23.6354L22.1438 22.7698L22.9449 23.6255L23.773 22.7604L24.6136 23.601Z" fill="#217E00"/>
<path d="M21.3076 18.2323L22.1092 17.4365L22.5186 17.9135L23.8008 16.6281C24.0936 16.9214 24.3597 17.1911 24.6144 17.4479L22.5686 19.4927L21.3076 18.2323Z" fill="#217E00"/>
</g>
<defs>
<clipPath id="clip0_205_1527">
<rect width="14.0641" height="20" fill="white" transform="translate(13 10)"/>
</clipPath>
</defs>
</svg>
