<svg width="40" height="40" viewBox="0 0 40 40" fill="none" xmlns="http://www.w3.org/2000/svg">
<circle cx="20" cy="20" r="20" fill="#FFD9F9"/>
<g clip-path="url(#clip0_206_1554)">
<path d="M10.003 25.9932H11.338V25.7368C11.338 23.1854 11.338 20.6334 11.338 18.0809C11.338 16.4594 12.4884 15.309 14.1082 15.3073H14.6973V16.6424C14.487 16.6424 14.23 16.6368 13.9742 16.6424C13.2671 16.6607 12.6803 17.2315 12.6781 17.9379C12.6703 20.5869 12.6747 23.2364 12.6747 25.8853C12.6747 25.912 12.6808 25.9409 12.6853 25.9793H18.6718V26.6413H21.3463V26.0021H27.3646V25.739C27.3646 23.2074 27.3685 20.677 27.3585 18.1454C27.3585 17.855 27.2767 17.5652 27.2272 17.2342C27.6038 17.0674 27.9008 16.7381 28.0132 16.2129C28.0822 16.2925 28.1373 16.347 28.1801 16.4093C28.5288 16.8918 28.7112 17.4746 28.6996 18.0698C28.6963 20.6215 28.6963 23.1735 28.6996 25.7257V25.986H30.018C30.0271 26.0429 30.0325 26.1003 30.0341 26.1579C30.0091 26.7603 30.0558 27.3778 29.9401 27.9624C29.7054 29.1445 28.6145 29.9933 27.4108 29.995C22.4785 30.0009 17.5474 30.0009 12.6174 29.995C11.1973 29.995 10.0219 28.8007 10.003 27.3805C9.99629 26.9294 10.003 26.4777 10.003 25.9932ZM28.6863 27.3394C28.6401 27.3355 28.5928 27.3283 28.5456 27.3283C26.5842 27.3283 24.6228 27.3297 22.6614 27.3327C22.5715 27.3418 22.4887 27.3855 22.4305 27.4545C22.1524 27.8011 21.7947 27.9908 21.3497 27.9936C20.4597 27.9984 19.5696 27.9984 18.6796 27.9936C18.4768 27.9972 18.276 27.952 18.0944 27.8617C17.9127 27.7713 17.7555 27.6385 17.6361 27.4746C17.6025 27.4242 17.5561 27.3837 17.5016 27.3574C17.4471 27.3311 17.3865 27.3199 17.3262 27.3249C15.4 27.3286 13.4735 27.3286 11.5466 27.3249H11.3341C11.343 27.4145 11.3447 27.4768 11.3553 27.5374C11.476 28.2088 12.0133 28.6588 12.7092 28.6594C17.5851 28.6594 22.4617 28.6594 27.339 28.6594C27.3735 28.6594 27.4085 28.6594 27.443 28.6594C28.1373 28.6227 28.7124 28.0175 28.6863 27.3394Z" fill="#FF2CDD"/>
<path d="M26.6965 16.0016H25.3654V13.7403L24.0253 14.1481C24.0253 14.7394 24.0125 15.3162 24.0309 15.8925C24.0374 16.1224 23.9612 16.3471 23.8162 16.5256C23.4705 16.9937 22.9974 17.3523 22.4533 17.5585C20.799 18.1927 19.138 18.1921 17.4959 17.5174C16.9207 17.281 16.439 16.9055 16.1152 16.3548C16.0519 16.2413 16.0178 16.1137 16.0162 15.9838C16.0062 15.3791 16.0112 14.7744 16.0112 14.1481L13.3411 13.3287C13.3411 12.9187 13.3355 12.516 13.3478 12.1138C13.3478 12.0626 13.4373 11.987 13.4991 11.9681C14.9843 11.5075 16.471 11.0508 17.9592 10.598C18.59 10.405 19.2197 10.2086 19.8505 10.0239C19.9616 9.99332 20.0788 9.99332 20.1899 10.0239C22.2831 10.6575 24.3735 11.2994 26.4668 11.933C26.6381 11.9853 26.7026 12.0543 26.7004 12.2456C26.6893 13.4138 26.6948 14.582 26.6948 15.7501L26.6965 16.0016ZM24.2183 12.689L24.215 12.6462C22.8488 12.2286 21.4822 11.8119 20.1153 11.3962C20.0346 11.3799 19.9509 11.3858 19.8733 11.4135C19.4801 11.5275 19.089 11.6482 18.6979 11.7678C17.7373 12.0615 16.7777 12.3563 15.777 12.6628C15.8838 12.7023 15.9522 12.7324 16.0229 12.7541C17.2706 13.1351 18.5188 13.5112 19.7643 13.8994C19.9335 13.9556 20.1163 13.9556 20.2855 13.8994C21.4976 13.5228 22.7125 13.1546 23.9263 12.783C24.0242 12.7507 24.121 12.7196 24.2183 12.689ZM17.3457 14.5536C17.3457 14.9374 17.3362 15.2918 17.3512 15.6455C17.3592 15.7514 17.4036 15.8513 17.4769 15.9281C17.7601 16.2063 18.1161 16.3681 18.4938 16.4749C19.366 16.7208 20.2494 16.7353 21.1372 16.5717C21.6562 16.4755 22.1435 16.3003 22.5445 15.9409C22.6068 15.8853 22.6786 15.7996 22.6814 15.7251C22.6953 15.3435 22.6875 14.9613 22.6875 14.5636C22.6068 14.5853 22.5406 14.6009 22.4761 14.6192C21.719 14.849 20.9636 15.0843 20.2038 15.3057C20.0794 15.3399 19.9482 15.3399 19.8238 15.3057C19.0072 15.0654 18.1929 14.8123 17.3457 14.5536Z" fill="#FF2CDD"/>
<path d="M17.3652 20.6531H26.0129V21.9703H17.3652V20.6531Z" fill="#FF2CDD"/>
<path d="M17.3574 24.6426V23.332H26.0129V24.6426H17.3574Z" fill="#FF2CDD"/>
<path d="M14.0234 20.6597H15.9993V21.9692H14.0234V20.6597Z" fill="#FF2CDD"/>
<path d="M15.9959 24.6482H14.0195V23.3387H15.9959V24.6482Z" fill="#FF2CDD"/>
</g>
<defs>
<clipPath id="clip0_206_1554">
<rect width="20.035" height="20" fill="white" transform="translate(10 10)"/>
</clipPath>
</defs>
</svg>
