<svg width="9" height="10" viewBox="0 0 9 10" fill="none" xmlns="http://www.w3.org/2000/svg">
<g id="Layer_1" clip-path="url(#clip0_163_467)">
<path id="Vector" d="M4.09115 7.51398L3.16443 8.32344C2.61135 8.8061 2.05997 9.29246 1.50406 9.77285C1.24512 9.99659 0.944732 10.0568 0.61879 9.94662C0.234644 9.81885 0.000976562 9.48524 0.000976562 9.07129C0.000976562 7.41035 0.000976562 5.7494 0.000976562 4.08846C0.000976562 3.1979 0.000976562 2.30714 0.000976562 1.41619C0.000976562 0.592821 0.594089 0.00141307 1.41803 0.00112915C3.19992 0.00112915 4.98191 0.00112915 6.76399 0.00112915C7.58906 0.00112915 8.18047 0.592821 8.18047 1.41676C8.18047 3.96505 8.18047 6.51325 8.18047 9.06135C8.18047 9.56957 7.83522 9.95087 7.33211 9.99346C7.07658 10.0153 6.85143 9.92844 6.6578 9.75894C5.93437 9.12523 5.21075 8.4919 4.48694 7.85894L4.09115 7.51398ZM0.911229 9.08065C0.957792 9.04346 0.985332 9.02387 1.01117 9.00031C1.82356 8.28993 2.63548 7.57947 3.44693 6.86891C3.84811 6.51684 4.33305 6.51684 4.73508 6.86891C5.5435 7.57795 6.35268 8.28605 7.16261 8.99321C7.19299 9.01961 7.22479 9.04403 7.26795 9.07838C7.2705 9.02983 7.27363 9.00201 7.27363 8.9739C7.27249 6.447 7.27097 3.9201 7.26908 1.3932C7.26908 1.09479 7.08056 0.91053 6.78074 0.91053C4.98806 0.91053 3.19538 0.91053 1.4027 0.91053C1.36019 0.909274 1.31767 0.912318 1.27578 0.919615C1.04439 0.967598 0.911513 1.14675 0.911513 1.4108C0.911513 3.9307 0.911513 6.45059 0.911513 8.97049L0.911229 9.08065Z" fill="#434343"/>
</g>
<defs>
<clipPath id="clip0_163_467">
<rect width="8.18006" height="10" fill="white"/>
</clipPath>
</defs>
</svg>
