<svg width="26" height="26" viewBox="0 0 26 26" fill="none" xmlns="http://www.w3.org/2000/svg">
<circle cx="13" cy="13" r="13" fill="#286BFF"/>
<path d="M18.9285 14.8311C18.9285 14.4929 18.9285 14.1355 18.9285 13.7784C18.9285 13.4406 19.1177 13.2211 19.4086 13.2187C19.6996 13.2163 19.8969 13.4382 19.8973 13.7711C19.8973 14.8149 19.8997 15.8592 19.8973 16.9034C19.8924 18.6384 18.5415 19.995 16.8065 19.9974C14.2384 20.0009 11.6703 20.0009 9.10225 19.9974C7.39346 19.9954 6.03087 18.6735 6.01513 16.9631C5.99496 14.7891 5.99496 12.6151 6.01513 10.4411C6.03127 8.73028 7.39427 7.41045 9.10265 7.40723C10.6416 7.40481 12.1805 7.40481 13.7194 7.40723C14.0422 7.40723 14.2629 7.60211 14.2657 7.88657C14.2682 8.17749 14.0458 8.37561 13.7138 8.37561C12.1805 8.37561 10.6472 8.37561 9.11395 8.37561C8.06487 8.37561 7.21955 9.06921 7.01902 10.0957C6.99288 10.2344 6.98017 10.3754 6.98109 10.5165C6.97867 12.64 6.97867 14.7636 6.98109 16.8873C6.98311 18.0683 7.88572 19.008 9.02316 19.031C9.06675 19.0359 9.11077 19.0269 9.14886 19.0051C9.18694 18.9833 9.21711 18.95 9.23499 18.91C9.96895 17.6366 10.7634 16.4047 11.752 15.3096C12.3617 14.6321 13.0363 14.0269 13.8659 13.6234C15.1772 12.9831 16.4482 13.1049 17.6587 13.8784C18.1029 14.1609 18.5044 14.5111 18.9285 14.8311ZM10.2817 19.0229C10.3385 19.0262 10.3664 19.0294 10.3946 19.0294C12.5537 19.0294 14.712 19.0334 16.8723 19.027C17.7733 19.0242 18.5718 18.4076 18.8377 17.545C18.9563 17.16 18.9236 16.7662 18.9265 16.3748C18.9244 16.3402 18.9109 16.3073 18.8881 16.2812C18.3087 15.5953 17.6805 14.965 16.8767 14.5393C16.1662 14.1625 15.4274 14.0665 14.6575 14.3396C13.9926 14.5757 13.4446 14.9925 12.9419 15.4734C12.1204 16.2598 11.4598 17.1754 10.8437 18.124C10.6529 18.4133 10.4765 18.7098 10.2817 19.0229Z" fill="white"/>
<path d="M17.4755 7.65376C17.0494 8.08186 16.6576 8.47446 16.2675 8.86867C16.1339 9.00344 15.9777 9.07042 15.7885 9.02765C15.7034 9.01158 15.6247 8.97163 15.5614 8.91247C15.4982 8.85331 15.4531 8.77739 15.4314 8.69356C15.4045 8.60869 15.4022 8.51794 15.4248 8.43182C15.4474 8.3457 15.4939 8.26773 15.5589 8.20695C15.8906 7.87581 16.2221 7.54414 16.5535 7.21194C16.9032 6.86224 17.2513 6.51161 17.5978 6.16003C17.8048 5.95143 18.1045 5.94457 18.3132 6.15237C18.9913 6.82916 19.6678 7.50769 20.3427 8.18798C20.559 8.40627 20.5642 8.70526 20.3645 8.90136C20.1648 9.09745 19.8731 9.08535 19.6511 8.86544C19.2646 8.48172 18.8805 8.09599 18.4947 7.71105C18.4879 7.7042 18.4786 7.69935 18.4443 7.67474V7.84582C18.4443 9.10149 18.4443 10.357 18.4443 11.6124C18.4443 11.909 18.2575 12.1212 17.9908 12.137C17.6974 12.1519 17.4771 11.9388 17.4763 11.6306C17.4747 10.7233 17.4747 9.81567 17.4763 8.90781L17.4755 7.65376Z" fill="white"/>
<path d="M12.1458 11.7718C12.144 12.1225 12.0384 12.4649 11.8423 12.7557C11.6461 13.0465 11.3683 13.2727 11.0437 13.4057C10.7192 13.5387 10.3625 13.5726 10.0187 13.5031C9.67487 13.4336 9.35936 13.2638 9.11196 13.0151C8.86456 12.7665 8.69635 12.4502 8.62856 12.106C8.56078 11.7619 8.59645 11.4054 8.73108 11.0815C8.86571 10.7576 9.09326 10.4808 9.38503 10.2861C9.67679 10.0915 10.0197 9.98755 10.3704 9.98755C10.8421 9.9899 11.2937 10.1789 11.6264 10.5133C11.959 10.8476 12.1458 11.3001 12.1458 11.7718ZM9.56628 11.7718C9.56789 11.9315 9.61683 12.0871 9.70692 12.2189C9.79701 12.3508 9.9242 12.4529 10.0724 12.5125C10.2205 12.572 10.3831 12.5862 10.5393 12.5534C10.6956 12.5205 10.8386 12.442 10.9502 12.3278C11.0619 12.2136 11.1371 12.0689 11.1665 11.9119C11.1958 11.755 11.1779 11.5928 11.1151 11.446C11.0522 11.2992 10.9472 11.1744 10.8134 11.0873C10.6795 11.0002 10.5228 10.9547 10.3632 10.9567C10.1497 10.9597 9.94612 11.0472 9.79699 11.1999C9.64785 11.3527 9.56533 11.5583 9.56749 11.7718H9.56628Z" fill="white"/>
</svg>
