<svg width="36" height="36" viewBox="0 0 36 36" fill="none" xmlns="http://www.w3.org/2000/svg">
<circle cx="18" cy="18" r="18" fill="#286BFF"/>
<g clip-path="url(#clip0_207_4214)">
<path d="M20.2246 11C20.3395 11.0859 20.3707 11.2 20.3707 11.3426C20.3678 15.6715 20.3671 20.0004 20.3684 24.3293C20.3684 24.6027 20.2977 24.6742 20.0203 24.6742C16.7943 24.6742 13.5682 24.6749 10.3422 24.6762C10.1938 24.6762 10.0723 24.6473 10 24.5059V13.7246C10.0488 13.6715 10.0957 13.6172 10.1465 13.566C10.9501 12.7572 11.754 11.9488 12.5582 11.141C12.6094 11.0895 12.6691 11.0469 12.7246 11H20.2246ZM19.8918 11.4793H13.0281V11.6641C13.0281 12.3523 13.0281 13.0408 13.0281 13.7293C13.0281 13.9531 12.9523 14.0293 12.7305 14.0305C12.3547 14.0324 11.9785 14.0305 11.6027 14.0305C11.4711 14.0305 11.3387 14.0344 11.2074 14.0254C11.0762 14.0164 11.0035 13.9387 10.9949 13.8074C10.9863 13.6762 11.0684 13.5867 11.2012 13.568C11.2497 13.5625 11.2985 13.5605 11.3473 13.5621C11.6988 13.5621 12.0504 13.5621 12.402 13.5621C12.4531 13.5621 12.5043 13.5566 12.5504 13.5543V11.8234C12.4977 11.8727 12.4617 11.9039 12.4285 11.9375C11.8085 12.5602 11.1883 13.1828 10.568 13.8055C10.5347 13.8362 10.5085 13.8737 10.4911 13.9155C10.4738 13.9573 10.4658 14.0024 10.4676 14.0477C10.4702 17.3779 10.471 20.7077 10.4699 24.0371V24.1969H19.8918V11.4793Z" fill="white"/>
<path d="M25.0007 16.5957C24.9136 16.6906 24.825 16.7836 24.6777 16.7184C24.5632 16.6676 24.5316 16.5727 24.532 16.4559C24.532 16.002 24.532 15.5481 24.532 15.0941C24.532 14.85 24.523 14.841 24.2757 14.8453C24.2515 14.8453 24.2273 14.8484 24.1785 14.8512V15.0348C24.1769 17.1181 24.1748 19.2014 24.1722 21.2848C24.1715 21.4012 24.1546 21.517 24.1222 21.6289C23.939 22.2656 23.7488 22.9004 23.5625 23.5363C23.5308 23.6438 23.4886 23.7402 23.3671 23.7688C23.2277 23.8016 23.1222 23.7199 23.0687 23.5383C22.8925 22.9402 22.7109 22.3434 22.5449 21.7414C22.4926 21.5547 22.4653 21.3619 22.4636 21.168C22.4615 18.8302 22.4639 16.4925 22.4707 14.1547C22.4707 13.6981 22.6937 13.3707 23.0761 13.2563C23.2017 13.2189 23.3342 13.2108 23.4634 13.2328C23.5926 13.2547 23.7151 13.3059 23.8213 13.3826C23.9276 13.4593 24.0149 13.5593 24.0764 13.675C24.1379 13.7907 24.172 13.919 24.1761 14.05C24.1804 14.1512 24.1761 14.2527 24.1761 14.377C24.5558 14.3324 24.8543 14.4313 24.9992 14.8066L25.0007 16.5957ZM22.9398 16.7129V21.1922H23.7054V21.0063C23.707 19.3031 23.7083 17.6 23.7093 15.8969C23.7093 15.3016 23.7117 14.7063 23.7093 14.1109C23.7093 13.8656 23.5531 13.6984 23.3312 13.6945C23.1093 13.6906 22.9441 13.8508 22.9406 14.0961C22.9351 14.784 22.9355 15.4723 22.9343 16.1602C22.9358 16.1887 22.9391 16.2172 22.9441 16.2453C23.0644 16.2453 23.1785 16.243 23.2957 16.2453C23.446 16.2492 23.5472 16.3406 23.5523 16.4711C23.5574 16.6016 23.4523 16.7078 23.2964 16.7121C23.1824 16.7164 23.0664 16.7137 22.9398 16.7137V16.7129ZM23.0093 21.6738L23.3031 22.6695L23.33 22.666L23.6187 21.6863C23.5902 21.6807 23.5614 21.6767 23.5324 21.6746C23.3679 21.6738 23.2039 21.6738 23.0085 21.6738H23.0093Z" fill="white"/>
<path d="M11.4053 26C11.2858 25.9262 11.2405 25.8207 11.2491 25.6801C11.2584 25.5293 11.2491 25.3773 11.253 25.2262C11.2577 25.0836 11.3495 24.9883 11.476 24.9844C11.5381 24.9828 11.5983 25.0059 11.6433 25.0487C11.6884 25.0915 11.7146 25.1504 11.7163 25.2125C11.7245 25.3133 11.7163 25.4148 11.7163 25.525H21.1397V12.7969C21.0463 12.7969 20.96 12.8008 20.8741 12.7969C20.7319 12.7883 20.6397 12.6953 20.6358 12.5695C20.6358 12.5078 20.6602 12.4485 20.7036 12.4046C20.747 12.3607 20.8061 12.3358 20.8678 12.3352C21.0381 12.3273 21.2096 12.3273 21.3799 12.3352C21.5241 12.3414 21.6006 12.423 21.6143 12.5668C21.619 12.6148 21.6166 12.6641 21.6166 12.7129C21.6166 17.0184 21.6166 21.324 21.6166 25.6297C21.6166 25.7836 21.6049 25.9223 21.4518 26.0039L11.4053 26Z" fill="white"/>
<path d="M16.989 13.2285C16.9218 13.6816 16.869 14.1375 16.78 14.5863C16.7468 14.7555 16.6499 14.9223 16.5456 15.0648C16.3183 15.3799 16.0012 15.6191 15.6358 15.7512C15.5464 15.7815 15.4495 15.7815 15.3601 15.7512C14.9648 15.6066 14.6546 15.3469 14.3968 15.016C14.2163 14.7836 14.1784 14.5082 14.1374 14.2348C14.0882 13.907 14.0562 13.5766 14.0202 13.2469C14.0019 13.075 14.0792 12.9734 14.2515 12.957C14.6483 12.9279 15.0297 12.7915 15.355 12.5625C15.3964 12.5311 15.4471 12.5144 15.4991 12.515C15.551 12.5155 15.6014 12.5333 15.6421 12.5656C15.9676 12.7929 16.3485 12.9279 16.7444 12.9563C16.9023 12.973 16.9749 13.0703 16.989 13.2285ZM16.5026 13.4418C16.221 13.341 15.9663 13.2797 15.7429 13.1605C15.5581 13.0621 15.4269 13.0668 15.244 13.1633C15.0206 13.2805 14.7667 13.3426 14.5019 13.4367C14.5409 13.6949 14.5749 13.9742 14.6233 14.2516C14.6483 14.3938 14.6698 14.5469 14.7405 14.6688C14.8968 14.9422 15.1358 15.1348 15.4183 15.2719C15.455 15.2923 15.4982 15.2979 15.539 15.2875C15.8589 15.1445 16.164 14.9398 16.2784 14.6156C16.4089 14.2371 16.4343 13.8199 16.5026 13.4418Z" fill="white"/>
<path d="M15.4899 20.2906C14.6159 20.2906 13.742 20.2906 12.868 20.2906C12.802 20.2906 12.7172 20.2906 12.675 20.2516C12.6203 20.2019 12.5649 20.1109 12.5731 20.0457C12.5825 19.9738 12.6532 19.8973 12.7168 19.8504C12.7606 19.818 12.8383 19.8262 12.9008 19.8262C14.6295 19.8262 16.358 19.8262 18.0864 19.8262C18.1157 19.8262 18.145 19.8262 18.1742 19.8262C18.3305 19.8348 18.4352 19.9371 18.4293 20.0707C18.4235 20.2043 18.3235 20.2926 18.1707 20.2934C17.6774 20.2957 17.1844 20.2934 16.691 20.2934L15.4899 20.2906Z" fill="white"/>
<path d="M15.4982 17.6602H12.9201C12.8616 17.6629 12.8029 17.6598 12.7451 17.6508C12.6961 17.6431 12.6514 17.6184 12.6189 17.5811C12.5864 17.5437 12.5681 17.496 12.5673 17.4465C12.5587 17.3316 12.6095 17.2449 12.7216 17.2121C12.7782 17.1975 12.8367 17.1914 12.8951 17.1941C14.6279 17.1941 16.3606 17.1941 18.0931 17.1941C18.1467 17.1925 18.2003 17.1969 18.2529 17.2074C18.3039 17.2201 18.349 17.25 18.3806 17.2921C18.4122 17.3341 18.4283 17.3858 18.4261 17.4384C18.424 17.4909 18.4039 17.5411 18.369 17.5806C18.3342 17.62 18.2868 17.6461 18.2349 17.6547C18.1767 17.6619 18.1181 17.6643 18.0595 17.6621L15.4982 17.6602Z" fill="white"/>
<path d="M15.5087 22.4551H18.0868C18.1356 22.4528 18.1844 22.4546 18.2329 22.4605C18.2877 22.4694 18.3375 22.4976 18.3732 22.54C18.409 22.5824 18.4285 22.6362 18.4281 22.6917C18.4276 22.7472 18.4074 22.8007 18.3709 22.8426C18.3345 22.8844 18.2843 22.9119 18.2294 22.9199C18.1905 22.9249 18.1513 22.9262 18.1122 22.9238H12.8833C12.8442 22.9255 12.805 22.9245 12.7661 22.9207C12.7094 22.9137 12.6573 22.8858 12.62 22.8425C12.5827 22.7992 12.5629 22.7435 12.5645 22.6863C12.5635 22.6318 12.5824 22.5788 12.6175 22.5372C12.6526 22.4955 12.7017 22.468 12.7556 22.4598C12.8038 22.4525 12.8526 22.4506 12.9013 22.4539L15.5087 22.4551Z" fill="white"/>
<path d="M14.655 21.6078C14.0501 21.6078 13.445 21.6078 12.8398 21.6078C12.7019 21.6078 12.6003 21.5606 12.5699 21.4164C12.5394 21.2723 12.6402 21.1496 12.7976 21.1406C12.9093 21.134 13.0218 21.1387 13.1339 21.1387H16.3984C16.4375 21.1387 16.4765 21.1387 16.5156 21.1387C16.6621 21.1473 16.7648 21.2453 16.7644 21.3731C16.764 21.5008 16.6629 21.6031 16.5144 21.6043C16.0605 21.6074 15.607 21.6043 15.1531 21.6043L14.655 21.6078Z" fill="white"/>
<path d="M16.8387 18.9738C16.4051 18.9738 15.9711 18.9738 15.5371 18.9738C15.3617 18.9738 15.2637 18.8863 15.2637 18.7395C15.2637 18.5926 15.3652 18.5051 15.5402 18.5051C16.4082 18.5035 17.276 18.5035 18.1437 18.5051C18.3641 18.5051 18.5008 18.6859 18.3937 18.8441C18.3644 18.8799 18.3281 18.9093 18.287 18.9304C18.2458 18.9516 18.2008 18.9641 18.1547 18.9672C17.7164 18.9805 17.2777 18.9738 16.8387 18.9738Z" fill="white"/>
<path d="M13.7293 18.9742C13.4367 18.9742 13.1434 18.9742 12.8516 18.9742C12.666 18.9742 12.5606 18.8863 12.5625 18.7398C12.5625 18.5996 12.6692 18.5055 12.8418 18.5055C13.4322 18.5036 14.0224 18.5036 14.6125 18.5055C14.7879 18.5055 14.8903 18.5945 14.893 18.7363C14.8961 18.8859 14.7942 18.9707 14.6074 18.973C14.3149 18.975 14.0231 18.9742 13.7293 18.9742Z" fill="white"/>
<path d="M17.7656 21.6074C17.6293 21.6074 17.4922 21.6102 17.357 21.6074C17.2055 21.6031 17.1121 21.5125 17.1113 21.3766C17.1106 21.2406 17.2031 21.1422 17.3539 21.1422C17.6309 21.1375 17.9086 21.1375 18.1856 21.1422C18.2174 21.1411 18.2492 21.1465 18.2789 21.158C18.3086 21.1696 18.3356 21.1871 18.3583 21.2095C18.381 21.2319 18.3989 21.2586 18.4109 21.2882C18.4229 21.3177 18.4288 21.3494 18.4281 21.3812C18.4242 21.5113 18.3238 21.6043 18.1742 21.6078C18.0383 21.6102 17.902 21.6074 17.7656 21.6074Z" fill="white"/>
<path d="M15.5387 13.9266C15.6375 13.8187 15.7262 13.7152 15.8219 13.6191C15.945 13.4953 16.0785 13.4852 16.1809 13.584C16.2832 13.6828 16.275 13.8215 16.1559 13.9437C16.0094 14.0934 15.8621 14.2422 15.7121 14.3879C15.5797 14.5168 15.4641 14.5148 15.3317 14.3879C15.2649 14.3238 15.2 14.2578 15.1364 14.1926C15.0168 14.0699 15.0024 13.9324 15.0973 13.8324C15.1922 13.7324 15.3254 13.7352 15.4571 13.8527L15.5387 13.9266Z" fill="white"/>
</g>
<defs>
<clipPath id="clip0_207_4214">
<rect width="15" height="15" fill="white" transform="translate(10 11)"/>
</clipPath>
</defs>
</svg>
