<svg width="20" height="26" viewBox="0 0 20 26" fill="none" xmlns="http://www.w3.org/2000/svg">
<path d="M18.2303 3.69851L15.8015 1.26968C15.4 0.865932 14.9223 0.545825 14.3963 0.327888C13.8702 0.10995 13.3062 -0.00149031 12.7367 1.50495e-05H3.25C2.38804 1.50495e-05 1.5614 0.342425 0.951902 0.951917C0.34241 1.56141 0 2.38806 0 3.25001V26H19.5V6.76218C19.4971 5.61352 19.0408 4.51245 18.2303 3.69851ZM16.6985 5.23035C16.753 5.28946 16.804 5.35167 16.8512 5.41668H14.0833V2.64876C14.1483 2.69604 14.2105 2.74704 14.2697 2.80151L16.6985 5.23035ZM2.16667 23.8333V3.25001C2.16667 2.9627 2.2808 2.68715 2.48397 2.48398C2.68713 2.28082 2.96268 2.16668 3.25 2.16668H11.9167V7.58334H17.3333V23.8333H2.16667ZM4.33333 17.3333H15.1667V10.8333H4.33333V17.3333ZM6.5 13H13V15.1667H6.5V13ZM4.33333 19.5H15.1667V21.6667H4.33333V19.5Z" fill="black"/>
</svg>
