<svg width="14" height="14" viewBox="0 0 14 14" fill="none" xmlns="http://www.w3.org/2000/svg">
<path fill-rule="evenodd" clip-rule="evenodd" d="M7 0C3.15 0 0 3.15 0 7C0 10.85 3.15 14 7 14C10.85 14 14 10.85 14 7C14 3.15 10.85 0 7 0ZM11.83 4.2H9.8C9.59 3.29 9.24 2.52 8.82 1.68C10.08 2.17 11.2 3.01 11.83 4.2ZM7 1.4C7.56 2.24 8.05 3.15 8.33 4.2H5.67C5.95 3.22 6.44 2.24 7 1.4ZM1.61 8.4C1.47 7.98 1.4 7.49 1.4 7C1.4 6.51 1.47 6.02 1.61 5.6H3.99C3.92 6.09 3.92 6.51 3.92 7C3.92 7.49 3.99 7.91 3.99 8.4H1.61ZM2.17 9.8H4.2C4.41 10.71 4.76 11.48 5.18 12.32C3.92 11.83 2.8 10.99 2.17 9.8ZM4.2 4.2H2.17C2.87 3.01 3.92 2.17 5.18 1.68C4.76 2.52 4.41 3.29 4.2 4.2ZM7 12.6C6.44 11.76 5.95 10.85 5.67 9.8H8.33C8.05 10.78 7.56 11.76 7 12.6ZM8.61 8.4H5.39C5.32 7.91 5.25 7.49 5.25 7C5.25 6.51 5.32 6.09 5.39 5.6H8.68C8.75 6.09 8.82 6.51 8.82 7C8.82 7.49 8.68 7.91 8.61 8.4ZM8.82 12.32C9.24 11.55 9.59 10.71 9.8 9.8H11.83C11.2 10.99 10.08 11.83 8.82 12.32ZM10.08 8.4C10.15 7.91 10.15 7.49 10.15 7C10.15 6.51 10.08 6.09 10.08 5.6H12.46C12.6 6.02 12.67 6.51 12.67 7C12.67 7.49 12.6 7.98 12.46 8.4H10.08Z" fill="#535353"/>
</svg>
